<svg width="253" height="100" viewBox="0 0 253 100" fill="none" xmlns="http://www.w3.org/2000/svg">
<rect width="253" height="100" rx="8" fill="white"/>
<path d="M58.3219 77.7419C88.9392 73.368 88.9399 27.6474 58.3219 23.2734C76.7241 36.4814 76.6743 64.5282 58.3219 77.7419Z" fill="black"/>
<path d="M46.1956 76.652C48.1019 77.2648 50.0083 77.6733 52.0509 77.8094C67.8737 63.2931 67.884 37.6504 52.0509 23.1367C50.0083 23.341 48.0339 23.7495 46.1956 24.2942C59.4882 38.8872 59.4839 62.0637 46.1956 76.652Z" fill="black"/>
<path d="M39.1188 73.2487C52.024 61.0686 52.1466 39.9171 39.1188 27.7676C23.2183 38.3679 23.2116 62.6439 39.1188 73.2487Z" fill="black"/>
<path d="M112.09 41.4049C107.151 41.4049 104.323 44.9818 104.323 50.3642C104.323 55.9169 107.525 58.9488 112.124 58.9488C116.451 58.9488 119.074 56.5642 119.074 52.5785V52.4763H111.545V48.6268H123.127V62.6279H119.448L119.176 59.7664C117.813 61.6741 114.986 63.0027 111.613 63.0027C104.63 63.0027 99.7583 57.9268 99.7583 50.262C99.7583 42.6994 104.698 37.3169 112.192 37.3169C117.881 37.3169 122.276 40.6213 122.991 45.6972H118.392C117.609 42.7675 115.088 41.4049 112.09 41.4049ZM137.784 45.7312V49.5807H136.251C133.253 49.5807 131.379 51.1818 131.379 54.4521V62.6279H127.223V45.8334H131.141L131.379 48.2862C132.095 46.6169 133.696 45.4928 135.944 45.4928C136.523 45.4928 137.102 45.5609 137.784 45.7312ZM144.939 63.0708C141.362 63.0708 139.182 60.9928 139.182 57.8246C139.182 54.7246 141.43 52.7829 145.416 52.4763L150.458 52.1016V51.7268C150.458 49.4444 149.095 48.5246 146.983 48.5246C144.53 48.5246 143.168 49.5466 143.168 51.318H139.625C139.625 47.673 142.623 45.2884 147.187 45.2884C151.718 45.2884 154.512 47.7411 154.512 52.4081V62.6279H150.866L150.56 60.1411C149.844 61.8785 147.562 63.0708 144.939 63.0708ZM146.302 59.9367C148.857 59.9367 150.492 58.4038 150.492 55.8147V54.929L146.983 55.2016C144.394 55.44 143.406 56.2917 143.406 57.6543C143.406 59.1873 144.428 59.9367 146.302 59.9367ZM158.594 70.429V45.7994H162.444L162.716 48.3543C163.738 46.4125 165.953 45.2884 168.508 45.2884C173.243 45.2884 176.377 48.729 176.377 54.0092C176.377 59.2554 173.515 63.0708 168.508 63.0708C165.987 63.0708 163.806 62.0829 162.75 60.3796V70.429H158.594ZM162.784 54.2136C162.784 57.2455 164.658 59.3235 167.52 59.3235C170.449 59.3235 172.187 57.2114 172.187 54.2136C172.187 51.2158 170.449 49.0697 167.52 49.0697C164.658 49.0697 162.784 51.1818 162.784 54.2136ZM183.842 62.6279H179.686V37.2829H183.876V47.9796C184.932 46.3444 186.908 45.2884 189.327 45.2884C193.483 45.2884 195.663 47.9114 195.663 52.2719V62.6279H191.507V53.2598C191.507 50.4323 190.11 49.0697 187.998 49.0697C185.375 49.0697 183.842 50.9092 183.842 53.4301V62.6279ZM198.758 54.1796C198.758 48.9334 202.54 45.3224 207.752 45.3224C212.964 45.3224 216.745 48.9334 216.745 54.1796C216.745 59.4257 212.964 63.0367 207.752 63.0367C202.54 63.0367 198.758 59.4257 198.758 54.1796ZM202.914 54.1796C202.914 57.2455 204.89 59.3235 207.752 59.3235C210.613 59.3235 212.589 57.2455 212.589 54.1796C212.589 51.1136 210.613 49.0356 207.752 49.0356C204.89 49.0356 202.914 51.1136 202.914 54.1796Z" fill="black"/>
</svg>
