<svg width="254" height="100" viewBox="0 0 254 100" fill="none" xmlns="http://www.w3.org/2000/svg">
<rect x="0.5" width="253" height="100" rx="8" fill="white"/>
<path d="M67.3696 71.916H53.079L67.3696 50.3059H81.6602L67.3696 71.916Z" fill="black"/>
<path d="M62.1391 28H76.7783L62.1391 50.3073H47.5L62.1391 28Z" fill="black"/>
<path d="M110.811 46.7985C110.811 48.1237 110.491 49.3661 109.852 50.5257C109.237 51.6853 108.255 52.6201 106.906 53.33C105.581 54.04 103.9 54.395 101.865 54.395H97.7119V63.9084H92.7422V39.1309H101.865C103.782 39.1309 105.415 39.4622 106.764 40.1249C108.113 40.7875 109.118 41.6986 109.781 42.8582C110.467 44.0178 110.811 45.3312 110.811 46.7985ZM101.652 50.3837C103.025 50.3837 104.042 50.0761 104.705 49.4608C105.368 48.8218 105.699 47.9344 105.699 46.7985C105.699 44.3846 104.35 43.1777 101.652 43.1777H97.7119V50.3837H101.652Z" fill="black"/>
<path d="M117.889 47.2954C118.528 46.2542 119.356 45.4377 120.374 44.8461C121.415 44.2544 122.598 43.9586 123.923 43.9586V49.1768H122.61C121.048 49.1768 119.865 49.5436 119.06 50.2772C118.279 51.0109 117.889 52.2888 117.889 54.111V63.9084H112.919V44.2426H117.889V47.2954Z" fill="black"/>
<path d="M134.583 64.2278C132.69 64.2278 130.986 63.8137 129.472 62.9854C127.957 62.1335 126.762 60.9384 125.886 59.4002C125.034 57.8619 124.608 56.087 124.608 54.0755C124.608 52.064 125.046 50.2891 125.922 48.7508C126.821 47.2126 128.04 46.0293 129.578 45.2011C131.116 44.3491 132.832 43.9231 134.725 43.9231C136.618 43.9231 138.334 44.3491 139.872 45.2011C141.411 46.0293 142.618 47.2126 143.493 48.7508C144.392 50.2891 144.842 52.064 144.842 54.0755C144.842 56.087 144.381 57.8619 143.458 59.4002C142.558 60.9384 141.328 62.1335 139.766 62.9854C138.228 63.8137 136.5 64.2278 134.583 64.2278ZM134.583 59.8971C135.483 59.8971 136.323 59.6841 137.104 59.2582C137.908 58.8085 138.547 58.1459 139.02 57.2703C139.494 56.3947 139.73 55.3297 139.73 54.0755C139.73 52.2059 139.233 50.7742 138.24 49.7803C137.269 48.7627 136.074 48.2539 134.654 48.2539C133.234 48.2539 132.039 48.7627 131.069 49.7803C130.122 50.7742 129.649 52.2059 129.649 54.0755C129.649 55.945 130.111 57.3886 131.033 58.4062C131.98 59.4002 133.163 59.8971 134.583 59.8971Z" fill="black"/>
<path d="M152.037 59.9681H157.374V63.9084H147.068V36.0781H152.037V59.9681Z" fill="black"/>
<path d="M161.229 41.8998C160.354 41.8998 159.62 41.6276 159.028 41.0833C158.46 40.5153 158.176 39.8172 158.176 38.9889C158.176 38.1607 158.46 37.4744 159.028 36.9301C159.62 36.3621 160.354 36.0781 161.229 36.0781C162.105 36.0781 162.827 36.3621 163.395 36.9301C163.986 37.4744 164.282 38.1607 164.282 38.9889C164.282 39.8172 163.986 40.5153 163.395 41.0833C162.827 41.6276 162.105 41.8998 161.229 41.8998ZM163.679 44.2426V63.9084H158.709V44.2426H163.679Z" fill="black"/>
<path d="M178.067 43.9586C180.409 43.9586 182.303 44.7041 183.746 46.195C185.19 47.6622 185.912 49.7211 185.912 52.3716V63.9084H180.942V53.0461C180.942 51.4842 180.551 50.2891 179.77 49.4608C178.99 48.6088 177.925 48.1829 176.576 48.1829C175.203 48.1829 174.115 48.6088 173.31 49.4608C172.529 50.2891 172.138 51.4842 172.138 53.0461V63.9084H167.169V44.2426H172.138V46.692C172.801 45.84 173.641 45.1774 174.659 44.7041C175.7 44.2071 176.836 43.9586 178.067 43.9586Z" fill="black"/>
<path d="M207.499 53.6495C207.499 54.3595 207.452 54.9984 207.357 55.5664H192.98C193.099 56.9863 193.596 58.0986 194.471 58.9032C195.347 59.7078 196.424 60.1101 197.702 60.1101C199.547 60.1101 200.861 59.3173 201.642 57.7318H207.002C206.434 59.625 205.345 61.1869 203.736 62.4175C202.127 63.6244 200.151 64.2278 197.808 64.2278C195.915 64.2278 194.211 63.8137 192.696 62.9854C191.205 62.1335 190.034 60.9384 189.182 59.4002C188.354 57.8619 187.94 56.087 187.94 54.0755C187.94 52.0403 188.354 50.2536 189.182 48.7153C190.01 47.1771 191.17 45.9938 192.661 45.1656C194.152 44.3373 195.868 43.9231 197.808 43.9231C199.678 43.9231 201.346 44.3254 202.813 45.1301C204.304 45.9347 205.452 47.0824 206.257 48.5733C207.085 50.0406 207.499 51.7326 207.499 53.6495ZM202.352 52.2296C202.328 50.9517 201.867 49.9341 200.967 49.1768C200.068 48.3958 198.968 48.0054 197.666 48.0054C196.435 48.0054 195.394 48.384 194.542 49.1413C193.714 49.8749 193.205 50.9044 193.016 52.2296H202.352Z" fill="black"/>
</svg>
