<svg width="253" height="100" viewBox="0 0 253 100" fill="none" xmlns="http://www.w3.org/2000/svg">
<rect width="253" height="100" rx="8" fill="white"/>
<path d="M39.8572 38.4473L38.1953 44.5642L47.7078 38.4125L41.4864 61.6243L47.8048 61.6296L56.9954 27.3447" fill="black"/>
<path d="M29.6168 51.871L27 61.6293H39.9502L45.2493 41.7782L29.6168 51.871ZM74.6012 43.2797C74.2847 44.4563 73.6748 45.3204 72.7652 45.8723C71.8578 46.4231 70.5842 46.6996 68.9402 46.6996H63.7171L65.551 39.862H70.7741C72.416 39.862 73.5439 40.1364 74.1559 40.6956C74.768 41.2548 74.9157 42.1095 74.6012 43.2913V43.2797ZM80.009 43.1436C80.6738 40.6745 80.3994 38.7752 79.1839 37.4456C77.9704 36.1267 75.8411 35.4619 72.8022 35.4619H61.1456L54.1287 61.6409H59.7918L62.6197 51.0891H66.3339C67.1675 51.0891 67.8238 51.2263 68.3029 51.4901C68.783 51.7644 69.0647 52.2393 69.1512 52.9251L70.1621 61.6409H76.2294L75.2459 53.516C75.0455 51.7011 74.215 50.6354 72.7557 50.3188C74.616 49.7807 76.1745 48.8838 77.4302 47.6387C78.6771 46.4027 79.5679 44.8535 80.009 43.1542V43.1436ZM93.7749 52.2709C93.3001 54.0436 92.572 55.3837 91.5875 56.3228C90.602 57.2619 89.4244 57.7262 88.0505 57.7262C86.6514 57.7262 85.7028 57.2725 85.2016 56.3545C84.6993 55.4364 84.6824 54.1069 85.1488 52.3659C85.6152 50.6248 86.3591 49.2637 87.3826 48.2823C88.4061 47.301 89.6027 46.8104 90.9766 46.8104C92.3483 46.8104 93.2874 47.2852 93.7622 48.2275C94.2476 49.174 94.2582 50.5278 93.7833 52.2899L93.7749 52.2709ZM96.2567 43.0064L95.5476 45.6549C95.2416 44.7053 94.6475 43.9456 93.7696 43.3758C92.8896 42.8165 91.8007 42.5316 90.5017 42.5316C88.9084 42.5316 87.3784 42.9431 85.9117 43.7662C84.445 44.5892 83.1577 45.7499 82.0603 47.2483C80.9629 48.7466 80.161 50.4455 79.6439 52.3553C79.1375 54.2758 79.0319 55.9535 79.3379 57.4096C79.6545 58.8763 80.3193 59.9948 81.3428 60.7757C82.3769 61.567 83.6958 61.9575 85.3102 61.9575C86.5931 61.964 87.8615 61.6865 89.0245 61.145C90.1743 60.6263 91.197 59.8629 92.0212 58.908L91.2826 61.6683H96.7589L101.759 43.0159H96.2725L96.2567 43.0064ZM121.439 43.0064H105.513L104.399 47.1638H113.666L101.415 57.7473L100.369 61.6514H116.808L117.922 57.494H107.992L120.431 46.7523L121.439 43.0064ZM135.457 52.2393C134.964 54.0753 134.233 55.4554 133.267 56.3545C132.302 57.2619 131.132 57.7156 129.76 57.7156C126.89 57.7156 125.946 55.8902 126.925 52.2393C127.411 50.4243 128.145 49.06 129.127 48.1409C130.108 47.2187 131.297 46.7587 132.695 46.7587C134.067 46.7587 134.993 47.2156 135.47 48.1357C135.947 49.0537 135.943 50.4222 135.457 52.2371V52.2393ZM138.662 43.7081C137.401 42.9231 135.792 42.5306 133.829 42.5306C131.843 42.5306 130.003 42.921 128.311 43.7018C126.625 44.4778 125.144 45.6361 123.985 47.0847C122.792 48.5514 121.934 50.2713 121.408 52.234C120.891 54.1892 120.828 55.906 121.229 57.3759C121.63 58.8426 122.474 59.9716 123.74 60.7524C125.017 61.5396 126.642 61.9311 128.636 61.9311C130.599 61.9311 132.424 61.5364 134.102 60.7514C135.779 59.9621 137.214 58.8415 138.407 57.3643C139.599 55.8933 140.454 54.1776 140.981 52.215C141.509 50.2524 141.572 48.5387 141.171 47.0657C140.77 45.599 139.937 44.47 138.681 43.6839L138.662 43.7081ZM158.213 47.989L159.616 42.9136C159.141 42.6709 158.519 42.5443 157.738 42.5443C156.482 42.5443 155.279 42.8545 154.118 43.4834C153.12 44.0173 152.272 44.7707 151.554 45.714L152.282 42.9811L150.692 42.9874H146.788L141.755 61.6325H147.308L149.92 51.8858C150.3 50.4687 150.984 49.3533 151.97 48.562C152.951 47.7674 154.175 47.3696 155.653 47.3696C156.56 47.3696 157.404 47.5775 158.206 47.9922L158.213 47.989ZM173.665 52.3289C173.19 54.07 172.472 55.3995 171.491 56.3175C170.51 57.2397 169.328 57.6998 167.956 57.6998C166.584 57.6998 165.645 57.2355 165.149 56.307C164.643 55.3731 164.632 54.0278 165.107 52.2593C165.582 50.4919 166.31 49.136 167.312 48.1969C168.315 47.2504 169.497 46.7777 170.868 46.7777C172.219 46.7777 173.126 47.263 173.612 48.2443C174.097 49.2257 174.108 50.5868 173.641 52.3279L173.665 52.3289ZM177.524 43.7387C176.496 42.9157 175.182 42.5042 173.589 42.5042C172.193 42.5042 170.862 42.8207 169.6 43.4602C168.339 44.0986 167.316 44.9691 166.529 46.0707L166.548 45.9441L167.48 42.979H162.057L160.674 48.1388L160.632 48.3182L154.934 69.5737H160.495L163.365 58.8742C163.65 59.826 164.23 60.5731 165.117 61.1133C166.003 61.6515 167.097 61.9184 168.398 61.9184C170.013 61.9184 171.553 61.528 173.015 60.7472C174.481 59.9642 175.748 58.8373 176.824 57.3811C177.9 55.925 178.699 54.2367 179.209 52.3268C179.726 50.4138 179.831 48.7076 179.536 47.2145C179.235 45.7193 178.569 44.5618 177.541 43.743L177.524 43.7387ZM195.97 52.253C195.495 54.0151 194.767 55.3657 193.786 56.2943C192.804 57.2292 191.623 57.6945 190.251 57.6945C188.848 57.6945 187.898 57.2408 187.402 56.3228C186.895 55.4048 186.885 54.0753 187.349 52.3342C187.813 50.5932 188.554 49.232 189.578 48.2507C190.601 47.2694 191.799 46.7798 193.173 46.7798C194.544 46.7798 195.473 47.2546 195.958 48.1937C196.444 49.136 196.447 50.4898 195.974 52.2561L195.97 52.253ZM198.45 42.9832L197.74 45.6317C197.434 44.6768 196.843 43.9171 195.967 43.3525C195.081 42.7891 193.994 42.5084 192.696 42.5084C191.102 42.5084 189.564 42.9199 188.095 43.743C186.629 44.566 185.341 45.7204 184.244 47.2145C183.146 48.7086 182.344 50.4117 181.827 52.3216C181.316 54.2388 181.215 55.9197 181.521 57.3822C181.831 58.8383 182.496 59.9632 183.526 60.7482C184.554 61.529 185.879 61.9237 187.494 61.9237C188.792 61.9237 190.031 61.6536 191.208 61.1112C192.355 60.5902 193.375 59.8258 194.197 58.8711L193.459 61.6335H198.935L203.935 42.9885H198.458L198.45 42.9832ZM226.926 42.9896L226.929 42.9843H223.563C223.455 42.9843 223.36 42.9896 223.262 42.9917H221.516L220.619 44.2368L220.397 44.5322L220.302 44.68L213.206 54.5649L211.74 42.9896H205.928L208.872 60.5794L202.372 69.5801H208.165L209.737 67.3505C209.781 67.285 209.821 67.2302 209.874 67.1605L211.71 64.5542L211.763 64.4804L219.986 52.8207L226.918 43.0075L226.929 43.0012H226.926V42.9896Z" fill="black"/>
</svg>
