<svg width="253" height="100" viewBox="0 0 253 100" fill="none" xmlns="http://www.w3.org/2000/svg">
<rect width="253" height="100" rx="8" fill="white"/>
<path d="M73.5747 38.2406C83.4433 38.3087 91.5699 46.5641 91.4336 56.3872C91.3048 66.1724 83.2085 74.1779 73.4308 74.2006C63.6153 74.2233 55.4205 65.9604 55.4887 56.1221C55.5569 46.1854 63.6607 38.18 73.5747 38.2406ZM87.1317 56.2357C87.1468 48.6014 80.9667 42.4061 73.3702 42.4364C65.9177 42.4667 59.783 48.6241 59.7073 56.1524C59.624 63.5822 65.8496 69.876 73.2869 69.8987C81.0046 69.929 87.1165 63.9003 87.1317 56.2357Z" fill="black"/>
<path d="M62.0896 77.0926C51.8651 74.8886 43.9808 64.5126 43.6627 53.5686C43.3295 42.2308 51.0547 31.7563 62.029 28.6511C72.0793 25.8109 84.3336 29.9159 88.6355 37.7168C77.172 27.0481 59.0503 28.5688 50.5851 42.1626C44.261 52.3189 45.8591 69.0038 62.0896 77.0926Z" fill="black"/>
<path d="M57.9284 78.375C46.2726 75.8625 37.2846 64.034 36.922 51.5579C36.5421 38.6329 45.3487 26.6921 57.8593 23.1522C69.3166 19.9145 83.2863 24.5941 88.1904 33.4871C75.1222 21.3249 54.4637 23.0585 44.8134 38.5552C37.6041 50.1333 39.4258 69.1539 57.9284 78.375Z" fill="black"/>
<path d="M88.2214 41.6926C76.8003 31.559 62.9631 35.8154 57.0632 44.0329C53.2309 49.3799 52.1175 55.2647 53.7762 61.5736C55.4121 67.7765 59.4716 72.0935 65.7199 75.1987C57.2374 73.7143 50.4059 65.3074 49.6106 56.1054C48.8002 46.6458 54.9501 37.3377 64.1294 34.1416C72.968 31.0591 83.3288 34.2628 88.2214 41.6926Z" fill="black"/>
<path d="M73.4636 63.0727C77.2491 63.0727 80.3178 60.004 80.3178 56.2185C80.3178 52.433 77.2491 49.3643 73.4636 49.3643C69.6781 49.3643 66.6094 52.433 66.6094 56.2185C66.6094 60.004 69.6781 63.0727 73.4636 63.0727Z" fill="black"/>
<g clip-path="url(#clip0_2139_43950)">
<path d="M122 63.4587C114.618 63.4587 111.405 60.0544 111.405 55.1202V54.4699H115.459V54.8907C115.459 58.0654 116.798 59.6719 122.153 59.6719C125.94 59.6719 127.317 58.6392 127.317 56.2677C127.317 53.9344 126.552 53.0929 122.612 52.2897L118.251 51.4099C113.853 50.5684 111.481 48.4264 111.481 44.3719C111.481 40.5852 114.426 37.0662 121.044 37.0662C128.12 37.0662 130.95 41.0442 130.95 45.5959V46.0549H126.896V45.6342C126.896 42.4977 125.519 40.8529 120.929 40.8529C117.142 40.8529 115.612 41.9239 115.612 44.1807C115.612 46.5139 116.645 47.1642 120.164 47.9292L124.524 48.8472C129.344 49.8417 131.448 52.2514 131.448 56.1147C131.448 60.1309 128.541 63.4587 122 63.4587ZM138.467 41.6562H134.374L134.336 37.4487H138.467V41.6562ZM138.505 63.0762H134.374V43.9512H138.505V63.0762ZM149.494 61.2784C144.254 61.2784 141.347 57.8359 141.347 52.4809C141.347 47.1259 144.292 43.6834 149.647 43.6834C152.707 43.6834 155.079 44.9839 155.997 47.2024H156.15V44.0659H159.936V61.6992C159.936 67.3219 156.647 69.9612 151.101 69.9612C145.707 69.9612 142.341 67.3984 142.341 62.8084H146.434C146.434 65.4094 147.39 66.2892 151.215 66.2892C154.926 66.2892 155.844 65.2182 155.844 61.6992V57.9124H155.691C154.811 59.7484 152.592 61.2784 149.494 61.2784ZM145.478 52.4809C145.478 56.3824 147.084 57.7594 150.68 57.7594C153.778 57.7594 155.844 56.2677 155.844 53.0547V51.8689C155.844 48.6942 153.778 47.2024 150.603 47.2024C147.046 47.2024 145.478 48.5794 145.478 52.4809ZM168.132 63.0762H164.001V44.0659H167.788V47.6232H167.941C168.821 45.5959 170.848 43.6834 174.558 43.6834C179.492 43.6834 181.711 46.8199 181.711 51.1422V63.0762H177.58V52.0602C177.58 48.6559 176.509 47.2407 173.028 47.2407C169.662 47.2407 168.132 48.5412 168.132 52.0984V63.0762ZM194.045 63.4587C187.772 63.4587 184.826 59.4807 184.826 53.5519C184.826 47.6614 188.345 43.6834 194.006 43.6834C199.132 43.6834 202.727 46.7434 202.727 51.9454C202.727 52.9399 202.613 53.9727 202.498 54.5464H188.69C188.843 58.0272 190.105 59.7867 194.083 59.7867C197.258 59.7867 198.482 58.7157 198.482 56.9944V56.6884H202.574V57.0327C202.574 60.9342 199.17 63.4587 194.045 63.4587ZM193.93 47.1642C190.334 47.1642 188.957 48.8472 188.728 51.7924H198.788C198.941 48.5412 197.181 47.1642 193.93 47.1642ZM213.793 63.0762C209.547 63.0762 207.329 61.5079 207.329 57.2239V47.5084H204.154V44.0659H207.405L208.285 39.3612H211.46V44.0659H217.197V47.5084H211.46V57.0327C211.46 59.0217 212.301 59.3659 214.864 59.3659H217.197V62.7319C216.394 62.9232 215.094 63.0762 213.793 63.0762Z" fill="black"/>
</g>
<defs>
<clipPath id="clip0_2139_43950">
<rect width="106.875" height="56.25" fill="white" transform="translate(111.062 22.125)"/>
</clipPath>
</defs>
</svg>
