<svg width="253" height="100" viewBox="0 0 253 100" fill="none" xmlns="http://www.w3.org/2000/svg">
<rect width="253" height="100" rx="8" fill="white"/>
<path fill-rule="evenodd" clip-rule="evenodd" d="M53.2816 74.0598C63.9951 74.0598 73.4958 66.9848 76.528 56.6755C68.096 58.0809 59.0049 54.5879 53.2816 48.3877C47.5583 54.5879 38.4672 58.0809 30.0352 56.6755C33.2694 67.187 42.568 74.0598 53.2816 74.0598Z" fill="black"/>
<path fill-rule="evenodd" clip-rule="evenodd" d="M77.5365 51.6233C77.5365 40.2911 71.51 29.8981 60.1522 26.5576C61.1953 32.8161 59.397 39.6419 56.1094 44.9526C61.544 50.646 69.8163 53.5534 77.5365 51.6233Z" fill="black"/>
<path fill-rule="evenodd" clip-rule="evenodd" d="M50.2484 44.7505C46.8793 39.5672 45.1763 32.733 46.2056 26.5576C34.9397 29.9374 29.0234 40.3871 29.0234 51.6233C36.7082 53.5445 45.0677 50.7083 50.2484 44.7505Z" fill="black"/>
<path fill-rule="evenodd" clip-rule="evenodd" d="M53.2812 40.5054C54.8983 37.4733 55.7069 34.0369 55.7069 30.3983C55.7069 28.7812 55.5048 27.164 55.1005 25.5469C54.494 25.5469 53.8876 25.5469 53.2812 25.5469C52.6748 25.5469 52.0683 25.5469 51.4619 25.5469C51.0576 27.164 50.8555 28.7812 50.8555 30.3983C50.8555 34.0369 51.8662 37.4733 53.2812 40.5054Z" fill="black"/>
<g clip-path="url(#clip0_2139_43941)">
<path d="M107.969 55.1062C107.969 53.9495 106.608 53.5753 104.601 53.065L101.709 52.3506C97.763 51.364 94.2249 49.9351 94.2249 45.1722C94.2249 40.3753 98.4094 37.7217 103.444 37.7217C107.901 37.7217 110.725 38.9805 112.256 39.865V46.0227C109.976 44.5939 106.234 43.2671 103.24 43.2671C101.471 43.2671 100.417 43.7093 100.417 44.7299C100.417 45.9207 101.811 46.2949 104.125 46.9073L106.642 47.5877C110.181 48.5403 113.923 49.833 113.923 54.732C113.923 59.3588 109.874 61.8763 104.465 61.8763C100.213 61.8763 96.7764 60.5155 95.2115 59.3928V53.4392C97.5249 55.1403 101.743 56.5351 104.839 56.5351C107.221 56.5351 107.969 56.0248 107.969 55.1062ZM119.394 41.8382C117.148 41.8382 115.788 40.8176 115.788 39.0825C115.788 37.3475 117.148 36.3609 119.394 36.3609C121.673 36.3609 122.966 37.3475 122.966 39.0825C122.966 40.8176 121.673 41.8382 119.394 41.8382ZM116.638 43.5052H122.081V61.5361H116.638V43.5052ZM142.612 57.6238C142.612 64.7341 138.224 67.2516 133.155 67.2516C130.297 67.2516 127.847 66.4351 126.35 65.5165V60.0392C128.017 61.298 130.229 62.1485 132.542 62.1485C136.148 62.1485 137.169 60.5836 137.169 58.4743V58.2702C136.012 59.0186 134.515 59.597 132.542 59.597C128.29 59.597 125.024 56.7392 125.024 52.1805C125.024 45.8866 130.093 43.165 134.992 43.165C138.394 43.165 140.809 44.0495 142.612 44.764V57.6238ZM130.671 51.432C130.671 53.9155 132.338 54.698 134.141 54.698C135.196 54.698 136.284 54.4258 137.169 54.0856V48.3361C136.523 48.166 135.774 48.0299 134.958 48.0299C132.644 48.0299 130.671 49.0506 130.671 51.432ZM155.089 48.4382C153.694 48.4382 152.367 48.7444 151.38 49.1526V61.5361H145.937V43.5052H151.04V45.6485C152.469 44.3557 154.782 43.165 157.572 43.165C162.029 43.165 163.628 46.0227 163.628 49.9691V61.5361H158.184V51.432C158.184 49.697 157.402 48.4382 155.089 48.4382ZM175.371 56.6031C176.766 56.6031 178.093 56.297 179.079 55.8887V43.5052H184.523V61.5361H179.42V59.3928C177.991 60.6856 175.677 61.8763 172.888 61.8763C168.431 61.8763 166.832 59.0186 166.832 55.0722V43.5052H172.275V53.6093C172.275 55.3444 173.058 56.6031 175.371 56.6031ZM196.743 48.4382C195.484 48.4382 194.293 48.7784 193.375 49.1526V61.5361H187.931V43.5052H193.034V45.6485C194.429 44.3557 196.572 43.165 199.226 43.165C201.846 43.165 203.411 44.2537 204.227 46.0227C205.554 44.5939 207.901 43.165 210.793 43.165C215.012 43.165 216.509 46.0227 216.509 49.9691V61.5361H211.065V51.432C211.065 49.6629 210.385 48.4382 208.31 48.4382C207.051 48.4382 205.826 48.7784 204.908 49.1526C204.942 49.4248 204.942 49.697 204.942 49.9691V61.5361H199.498V51.432C199.498 49.6629 198.818 48.4382 196.743 48.4382ZM222.65 62.0464C220.779 62.0464 219.282 60.5495 219.282 58.6784C219.282 56.8073 220.779 55.2763 222.65 55.2763C224.521 55.2763 226.052 56.8073 226.052 58.6784C226.052 60.5495 224.521 62.0464 222.65 62.0464Z" fill="black"/>
</g>
<defs>
<clipPath id="clip0_2139_43941">
<rect width="132.99" height="51.5464" fill="white" transform="translate(94.0117 24)"/>
</clipPath>
</defs>
</svg>
