<svg width="253" height="100" viewBox="0 0 253 100" fill="none" xmlns="http://www.w3.org/2000/svg">
<rect width="253" height="100" rx="8" fill="white"/>
<path d="M26 57.1197L40.2479 50.7783L48.4487 55.5344L50.1055 71.1375L39.9994 71.054L41.4904 60.2069L39.7509 59.2057L31.2187 65.8808L26 57.1197Z" fill="black"/>
<path d="M49.3594 54.8666L61.9505 64.1283L66.9207 55.2003L56.8147 51.1118V49.1093L66.9207 44.9373L61.9505 36.0928L49.3594 45.3545V54.8666Z" fill="black"/>
<path d="M48.4487 44.6031L50.1055 29L39.9994 29.1669L41.4904 40.014L39.7509 41.0152L31.1359 34.3401L26 43.0178L40.2479 49.3592L48.4487 44.6031Z" fill="black"/>
<path d="M100.638 48.199V62.8169H106.077V44.1877H98.1561V48.199H100.638Z" fill="black"/>
<path d="M100.468 41.5702C100.967 42.0913 101.726 42.3519 102.746 42.3519C103.766 42.3519 104.513 42.0913 104.989 41.5702C105.488 41.026 105.737 40.3461 105.737 39.5305C105.737 38.6918 105.488 38.0119 104.989 37.4907C104.513 36.9469 103.766 36.6748 102.746 36.6748C101.726 36.6748 100.967 36.9469 100.468 37.4907C99.9921 38.0119 99.754 38.6918 99.754 39.5305C99.754 40.3461 99.9921 41.026 100.468 41.5702Z" fill="black"/>
<path d="M81.7032 62.4088C83.2442 63.1114 85.1366 63.4629 87.38 63.4629C89.4876 63.4629 91.3006 63.1341 92.8192 62.4769C94.3378 61.8198 95.5049 60.9017 96.3206 59.7234C97.1592 58.5221 97.5785 57.1283 97.5785 55.5419C97.5785 54.0009 97.1822 52.6977 96.389 51.6324C95.6182 50.5447 94.542 49.6948 93.1592 49.0831C91.7769 48.4483 90.179 48.0517 88.3659 47.8932L86.4625 47.7232C85.3293 47.6324 84.5131 47.3266 84.0144 46.8052C83.5162 46.2841 83.2666 45.672 83.2666 44.9697C83.2666 44.4255 83.4029 43.9271 83.6744 43.4738C83.9465 42.9979 84.3544 42.624 84.8985 42.3519C85.4651 42.0801 86.1565 41.9441 86.9721 41.9441C87.8332 41.9441 88.5471 42.1025 89.1137 42.42C89.2385 42.4871 89.3567 42.5588 89.4684 42.6349L89.4952 42.6538C89.5368 42.6825 89.5779 42.7124 89.6173 42.7425C89.9616 43.0055 90.2359 43.3173 90.4395 43.6778C90.7341 44.1765 90.8819 44.7316 90.8819 45.3436H96.3206C96.3206 43.7117 95.9467 42.2952 95.1989 41.0942C94.4511 39.8704 93.3748 38.9299 91.9696 38.2725C90.5868 37.5926 88.921 37.2526 86.9721 37.2526C85.1136 37.2526 83.5047 37.5701 82.1449 38.2046C80.7851 38.8166 79.7198 39.7004 78.9496 40.856C78.2013 42.0119 77.8274 43.3832 77.8274 44.9697C77.8274 47.1679 78.5642 48.9355 80.0373 50.2729C81.5105 51.61 83.4823 52.3805 85.9523 52.5844L87.8223 52.7544C89.3403 52.8904 90.4395 53.1964 91.1195 53.6721C91.7994 54.1254 92.1393 54.7486 92.1393 55.5419C92.1393 55.9065 92.0796 56.2483 91.9603 56.5677C91.8716 56.8048 91.7501 57.0295 91.5957 57.2416C91.2328 57.7176 90.7001 58.0915 89.9978 58.3636C89.2954 58.6354 88.4228 58.7714 87.38 58.7714C86.2244 58.7714 85.2839 58.6129 84.5585 58.2954C83.8332 57.9555 83.2896 57.5137 82.9267 56.9698C82.5867 56.4257 82.417 55.8367 82.417 55.2019H77.0117C77.0117 56.8111 77.4081 58.2388 78.2013 59.4853C78.9945 60.7093 80.1622 61.6837 81.7032 62.4088Z" fill="black"/>
<path d="M118.213 63.0547C116.332 63.0547 114.813 62.8281 113.658 62.3748C112.501 61.8989 111.652 61.1171 111.108 60.0294C110.586 58.9187 110.326 57.4231 110.326 55.5419V48.165H107.504V44.1877H110.326V39.1566H115.391V44.1877H120.83V48.165H115.391V55.7461C115.391 56.6299 115.618 57.3098 116.071 57.7855C116.547 58.2388 117.215 58.4654 118.077 58.4654H120.83V63.0547H118.213Z" fill="black"/>
<path fill-rule="evenodd" clip-rule="evenodd" d="M127.379 62.6469C128.603 63.1908 130.008 63.4629 131.595 63.4629C133.158 63.4629 134.541 63.1908 135.742 62.6469C136.943 62.103 137.94 61.3438 138.734 60.3693C139.527 59.3947 140.059 58.2842 140.331 57.0377H135.334C135.107 57.6043 134.677 58.0803 134.042 58.4654C133.408 58.8508 132.591 59.0435 131.595 59.0435C130.977 59.0435 130.425 58.9704 129.939 58.8242C129.569 58.7131 129.237 58.5596 128.943 58.3636C128.263 57.9103 127.764 57.2756 127.447 56.4599C127.359 56.2275 127.284 55.9845 127.22 55.7313C127.155 55.4748 127.103 55.2079 127.064 54.9301H140.671V53.0943C140.671 51.3946 140.308 49.8308 139.583 48.4031C138.858 46.9525 137.804 45.7854 136.422 44.9015C135.062 43.995 133.385 43.5417 131.39 43.5417C129.872 43.5417 128.512 43.8138 127.311 44.3577C126.133 44.8788 125.147 45.5927 124.354 46.4992C123.561 47.4057 122.948 48.4371 122.518 49.593C122.11 50.7259 121.906 51.9157 121.906 53.1622V53.8421C121.906 55.0434 122.11 56.2218 122.518 57.3777C122.948 58.5108 123.561 59.5419 124.354 60.4712C125.169 61.3777 126.178 62.103 127.379 62.6469ZM127.158 51.5686C127.173 51.4967 127.189 51.4258 127.206 51.356C127.253 51.1638 127.308 50.9796 127.369 50.8036C127.405 50.7034 127.442 50.6057 127.481 50.5107C127.821 49.6721 128.32 49.0376 128.977 48.6071C129.223 48.4461 129.489 48.3153 129.775 48.2146C130.256 48.0457 130.794 47.9611 131.39 47.9611C132.32 47.9611 133.09 48.1765 133.702 48.6071C134.337 49.0149 134.813 49.6154 135.13 50.4086C135.156 50.4727 135.18 50.5378 135.204 50.6038C135.241 50.7089 135.276 50.8168 135.308 50.9273C135.356 51.0918 135.399 51.2621 135.435 51.4381C135.462 51.5678 135.486 51.7006 135.506 51.8366H127.106C127.122 51.7457 127.139 51.6565 127.158 51.5686Z" fill="black"/>
<path d="M142.915 62.8169V44.1877H147.233V48.8797C147.291 48.6008 147.358 48.3331 147.433 48.0763C147.497 47.8601 147.566 47.6515 147.641 47.4512C148.117 46.182 148.831 45.2303 149.782 44.5955C150.734 43.9383 151.901 43.6099 153.284 43.6099H153.522C154.927 43.6099 156.094 43.9383 157.024 44.5955C157.975 45.2303 158.689 46.182 159.165 47.4512L159.202 47.547L159.235 47.6346C159.256 47.5727 159.278 47.5117 159.301 47.4512C159.8 46.182 160.525 45.2303 161.477 44.5955C162.428 43.9383 163.596 43.6099 164.978 43.6099H165.216C166.621 43.6099 167.8 43.9383 168.752 44.5955C169.726 45.2303 170.463 46.182 170.961 47.4512C171.46 48.7204 171.709 50.3068 171.709 52.2105V62.8169H166.27V51.9045C166.27 50.8846 165.998 50.0575 165.454 49.423C164.933 48.7883 164.185 48.471 163.211 48.471C162.236 48.471 161.465 48.7998 160.899 49.4569C160.332 50.0914 160.049 50.9413 160.049 52.0066V62.8169H154.576V51.9045C154.576 50.8846 154.304 50.0575 153.76 49.423C153.239 48.7883 152.502 48.471 151.55 48.471C150.553 48.471 149.771 48.7998 149.205 49.4569C148.638 50.0914 148.355 50.9413 148.355 52.0066V62.8169H142.915Z" fill="black"/>
<path fill-rule="evenodd" clip-rule="evenodd" d="M186.239 59.2274V62.8169H190.556V51.3946C190.556 49.6721 190.216 48.2671 189.536 47.1791C188.856 46.0686 187.859 45.2415 186.545 44.6976C185.253 44.1537 183.655 43.8817 181.751 43.8817C181.339 43.8817 180.908 43.8861 180.459 43.8951C180.193 43.9006 179.921 43.9074 179.643 43.9156C178.895 43.9383 178.17 43.9723 177.468 44.0177L176.931 44.0538C176.655 44.073 176.396 44.0919 176.153 44.111C175.97 44.1253 175.797 44.1395 175.632 44.1537V48.7431C176.335 48.6977 177.116 48.6522 177.978 48.6071C178.219 48.5945 178.458 48.5827 178.695 48.5718C179.037 48.5559 179.374 48.5422 179.708 48.5301C179.972 48.5206 180.234 48.5121 180.493 48.505C181.309 48.4823 181.967 48.471 182.465 48.471C183.462 48.471 184.187 48.7089 184.641 49.1849C185.094 49.6609 185.321 50.3747 185.321 51.3267V51.3946H181.955C180.301 51.3946 178.839 51.61 177.57 52.0405C176.301 52.4484 175.315 53.0943 174.612 53.9781C173.91 54.8395 173.559 55.95 173.559 57.3098C173.559 58.5563 173.842 59.6328 174.408 60.5393C174.975 61.4231 175.757 62.103 176.754 62.5788C177.774 63.0547 178.952 63.2929 180.289 63.2929C181.581 63.2929 182.669 63.0547 183.553 62.5788C184.46 62.103 185.162 61.4231 185.661 60.5393C185.748 60.3904 185.83 60.2358 185.906 60.0754C186.014 59.8482 186.111 59.6095 186.195 59.3593L186.239 59.2274ZM185.321 55.916V54.4202H181.921C180.969 54.4202 180.233 54.658 179.712 55.134C179.213 55.5873 178.963 56.2105 178.963 57.0038C178.963 57.3771 179.026 57.7165 179.15 58.0223C179.275 58.3288 179.462 58.6012 179.712 58.8396C180.233 59.2928 180.969 59.5195 181.921 59.5195C182.102 59.5195 182.277 59.5104 182.447 59.4926C182.585 59.4781 182.719 59.4576 182.848 59.4311C183.098 59.3804 183.333 59.3079 183.553 59.2135C184.052 58.9868 184.46 58.6129 184.776 58.0915C185.094 57.5704 185.275 56.845 185.321 55.916Z" fill="black"/>
<path d="M193.811 62.8169V44.1877H198.128V50.3367C198.335 48.5813 198.856 47.166 199.692 46.0914C200.825 44.6637 202.457 43.9498 204.587 43.9498H205.301V48.641H203.941C202.446 48.641 201.29 49.0488 200.474 49.8648C199.658 50.658 199.25 51.8139 199.25 53.3322V62.8169H193.811Z" fill="black"/>
<path d="M212.199 54.1142H214L219.881 62.8169H226L218.543 52.1289L224.675 44.1877H218.964L212.199 53.0456V38.0007H206.759V62.8169H212.199V54.1142Z" fill="black"/>
</svg>
