<svg width="62" height="62" viewBox="0 0 62 62" fill="none" xmlns="http://www.w3.org/2000/svg">
<path d="M31.0017 15.8145C35.1928 15.8145 38.9892 17.5135 41.7388 20.2631C44.4883 23.0091 46.1874 26.8055 46.1874 31.0002C46.1874 35.1949 44.4883 38.9913 41.7388 41.7374C38.9892 44.4869 35.1928 46.186 31.0017 46.186C26.8105 46.186 23.0106 44.4869 20.2611 41.7374C17.5151 38.9913 15.8125 35.1949 15.8125 31.0002C15.8125 26.8055 17.5151 23.0091 20.2611 20.2631C23.0107 17.5135 26.8071 15.8145 31.0017 15.8145ZM40.7124 21.2895C38.2272 18.8043 34.7947 17.2665 31.0017 17.2665C27.2086 17.2665 23.7761 18.8043 21.2909 21.2895C18.8057 23.7747 17.2679 27.2072 17.2679 31.0002C17.2679 34.7932 18.8057 38.2258 21.2909 40.711C23.7761 43.1962 27.2086 44.7339 31.0017 44.7339C34.7947 44.7339 38.2272 43.1962 40.7124 40.711C43.1976 38.2258 44.7354 34.7932 44.7354 31.0002C44.7354 27.2072 43.1976 23.7747 40.7124 21.2895Z" fill="white"/>
<path d="M31.0017 25.3055C29.0142 25.3055 27.1161 24.9108 25.3757 24.1899C23.5736 23.4451 21.9432 22.35 20.5735 20.9907C20.2886 20.7093 20.2886 20.2493 20.5701 19.9643C20.8515 19.6829 21.3116 19.6794 21.5965 19.9643C22.8323 21.1898 24.3014 22.1783 25.9284 22.8511C27.4903 23.4964 29.2031 23.8534 31.0017 23.8534V25.3054V25.3055Z" fill="white"/>
<path d="M40.4052 19.9643C40.6867 19.6794 41.1467 19.6829 41.4281 19.9643C41.7095 20.2493 41.7095 20.7092 41.4247 20.9907C40.0551 22.35 38.4281 23.4451 36.6225 24.1899C34.8821 24.9108 32.984 25.3055 31 25.3055V23.8535C32.7987 23.8535 34.5115 23.4965 36.0733 22.8512C37.697 22.1784 39.1661 21.1898 40.4052 19.9645V19.9643Z" fill="white"/>
<path d="M21.5964 42.0365C21.3115 42.3214 20.8516 42.3179 20.57 42.0365C20.2886 41.7516 20.2886 41.2917 20.5734 41.0101C21.943 39.6508 23.5735 38.5558 25.3756 37.811C27.116 37.0901 29.0141 36.6953 31.0016 36.6953V38.1473C29.2029 38.1473 27.4902 38.5043 25.9283 39.1496C24.3013 39.8224 22.8321 40.811 21.5964 42.0364V42.0365Z" fill="white"/>
<path d="M31 36.6953C32.984 36.6953 34.8823 37.0901 36.6225 37.8109C38.428 38.5558 40.055 39.6508 41.4247 41.0101C41.7097 41.2915 41.7097 41.7516 41.4281 42.0365C41.1467 42.3179 40.6867 42.3214 40.4052 42.0365C39.1661 40.811 37.697 39.8226 36.0733 39.1498C34.5115 38.5045 32.7986 38.1475 31 38.1475V36.6954V36.6953Z" fill="white"/>
<path d="M31.004 46.186C28.5635 46.186 26.3941 44.4216 24.8562 41.5692C23.3905 38.8506 22.4844 35.1124 22.4844 31.0002C22.4844 26.888 23.3905 23.1499 24.8562 20.4313C26.394 17.5788 28.5634 15.8145 31.004 15.8145V17.2665C29.1402 17.2665 27.4136 18.7391 26.1332 21.1179C24.7773 23.634 23.9398 27.1284 23.9398 31.0002C23.9398 34.8721 24.7774 38.3666 26.1332 40.8826C27.4135 43.2613 29.1401 44.7339 31.004 44.7339V46.186Z" fill="white"/>
<path d="M31 15.8145C33.4371 15.8145 35.6099 17.5788 37.1478 20.4313C38.6101 23.1498 39.5163 26.888 39.5163 31.0002C39.5163 35.1124 38.6101 38.8505 37.1478 41.5692C35.61 44.4216 33.4371 46.186 31 46.186V44.7339C32.8639 44.7339 34.587 43.2613 35.8709 40.8826C37.2268 38.3665 38.0642 34.8721 38.0642 31.0002C38.0642 27.1284 37.2266 23.634 35.8709 21.1179C34.587 18.7391 32.8639 17.2665 31 17.2665V15.8145Z" fill="white"/>
<path d="M16.5402 31.7287C16.1385 31.7287 15.8125 31.4026 15.8125 31.0011C15.8125 30.5995 16.1386 30.2734 16.5402 30.2734H31.0017V31.7289H16.5402V31.7287Z" fill="white"/>
<path d="M31 30.2736H45.458C45.8597 30.2736 46.1856 30.5997 46.1856 31.0012C46.1856 31.4028 45.8595 31.7289 45.458 31.7289H31V30.2736Z" fill="white"/>
<path fill-rule="evenodd" clip-rule="evenodd" d="M31.0011 15.8145C31.2449 15.8145 31.4851 15.8214 31.7254 15.8316V46.1688C31.4851 46.1791 31.2447 46.186 31.0011 46.186C30.7574 46.186 30.5137 46.1791 30.2734 46.1688V15.8316C30.5137 15.8214 30.7574 15.8145 31.0011 15.8145Z" fill="white"/>
<mask id="path-11-outside-1_2629_47440" maskUnits="userSpaceOnUse" x="-0.515625" y="4.67383" width="63" height="52" fill="black">
<rect fill="white" x="-0.515625" y="4.67383" width="63" height="52"/>
<path d="M60.0602 37.9365H50.0233V32.2968C50.0233 31.4696 50.6961 30.7968 51.5199 30.7968H58.5602C59.3874 30.7968 60.0602 31.4696 60.0602 32.2968V37.9365ZM61.5122 38.726V32.1766C61.4505 30.6045 60.1494 29.3448 58.5602 29.3448H58.1621C58.7628 28.6308 59.1301 27.7074 59.1301 26.7016C59.1301 24.4464 57.2902 22.6066 55.035 22.6066C52.7799 22.6066 50.9434 24.4465 50.9434 26.7016C50.9434 27.7073 51.3038 28.6308 51.9079 29.3448H51.5201C49.8964 29.3448 48.568 30.6698 48.568 32.2968V38.6642C48.568 39.0659 48.8941 39.3919 49.2992 39.3919H60.7846C61.1655 39.3919 61.4814 39.0967 61.5122 38.726ZM52.3918 26.7016C52.3918 25.2462 53.5761 24.062 55.0349 24.062C56.4937 24.062 57.6745 25.2463 57.6745 26.7016C57.6745 28.1569 56.4902 29.3448 55.0349 29.3448C53.5796 29.3448 52.3918 28.1605 52.3918 26.7016ZM11.9698 37.9365H1.93641V32.2968C1.93641 31.4696 2.60921 30.7968 3.42962 30.7968H10.4733C11.2971 30.7968 11.9699 31.4696 11.9699 32.2968L11.9698 37.9365ZM4.30476 26.7016C4.30476 25.2462 5.48906 24.062 6.94436 24.062C8.39967 24.062 9.58748 25.2463 9.58748 26.7016C9.58748 28.1569 8.40318 29.3448 6.94436 29.3448C5.48555 29.3448 4.30476 28.1605 4.30476 26.7016ZM13.4286 38.6641V32.2967C13.4286 30.6696 12.1002 29.3446 10.4732 29.3446H10.0715C10.6756 28.6307 11.0429 27.7073 11.0429 26.7015C11.0429 24.4463 9.203 22.6065 6.94436 22.6065C4.68572 22.6065 2.84934 24.4464 2.84934 26.7015C2.84934 27.7072 3.21661 28.6307 3.81736 29.3446H3.4295C1.80926 29.3446 0.484375 30.6696 0.484375 32.2967V38.6641C0.484375 39.0658 0.803578 39.3918 1.20864 39.3918H12.6975C13.0957 39.3918 13.4286 39.0657 13.4286 38.6641ZM52.9307 43.6619C50.7441 47.4446 47.6033 50.6129 43.8413 52.8303C39.9625 55.1164 35.5242 56.3247 31 56.3247C26.4758 56.3247 22.0307 55.1164 18.1587 52.8338C14.884 50.9046 12.0762 48.2512 9.96517 45.1036L9.0899 48.368C9.00066 48.6941 8.70543 48.9068 8.38623 48.9068C8.32096 48.9068 8.26271 48.8965 8.19744 48.8829C7.80958 48.7764 7.57962 48.3783 7.68594 47.9904L8.98685 43.1161L8.99375 43.1092C9.09668 42.7214 9.49496 42.4914 9.88621 42.5977L14.7605 43.9055C15.1517 44.0085 15.3783 44.4068 15.2788 44.7946C15.1723 45.1825 14.7776 45.4124 14.3863 45.3095L11.297 44.4788C15.725 50.932 23.1153 54.8726 31 54.8726C39.4922 54.8726 47.4146 50.297 51.6778 42.9341C51.8769 42.5874 52.3232 42.4673 52.6698 42.6698C53.0165 42.8689 53.1333 43.3151 52.9307 43.6618V43.6619ZM9.02124 18.4017C11.2009 14.6018 14.3486 11.4165 18.121 9.1853C22.0066 6.88888 26.4587 5.67383 31 5.67383C35.5413 5.67383 39.9625 6.8821 43.8344 9.16472C47.1125 11.0939 49.9169 13.7473 52.0313 16.8949L52.9066 13.6305C53.013 13.2427 53.4078 13.0127 53.7957 13.1156C54.1869 13.2221 54.4135 13.6202 54.3072 14.0081L53.0062 18.8824L53.0029 18.8893V18.8962C52.9892 18.9237 52.9789 18.9545 52.9686 18.982C52.9583 18.9992 52.9549 19.0163 52.9411 19.0335C52.9377 19.0507 52.9274 19.0644 52.9171 19.0816C52.7867 19.2943 52.5532 19.4283 52.3027 19.4283C52.2374 19.4283 52.1757 19.418 52.1105 19.4008L47.2293 18.093C46.8449 17.99 46.6149 17.5918 46.7178 17.2039C46.8243 16.816 47.2191 16.5861 47.6069 16.689L50.6963 17.5197C46.2682 11.0665 38.8813 7.12586 31.0001 7.12586C22.4702 7.12586 14.5374 11.7255 10.2845 19.1261C10.1506 19.3596 9.90692 19.49 9.64948 19.49C9.53274 19.49 9.40571 19.4591 9.29249 19.3939C8.94241 19.1914 8.82229 18.7486 9.02136 18.4019L9.02124 18.4017ZM44.7098 30.2716H39.5025C39.4407 27.7967 39.0493 25.4248 38.3732 23.3309C39.2656 22.8126 40.1135 22.1982 40.8961 21.491C43.117 23.7977 44.5346 26.8732 44.7098 30.2715V30.2716ZM40.8961 40.5075C40.1135 39.8005 39.2656 39.186 38.3732 38.6676C39.0493 36.5738 39.4407 34.2018 39.5025 31.7269H44.7098C44.5346 35.1252 43.117 38.2008 40.8961 40.5075ZM17.2835 31.727H22.4907C22.556 34.2019 22.9439 36.5738 23.6235 38.6678C22.7276 39.186 21.8831 39.8005 21.1005 40.5077C18.8796 38.2009 17.462 35.1253 17.2835 31.727ZM21.1005 21.4911C21.8831 22.1982 22.7275 22.8126 23.6235 23.331C22.9438 25.4248 22.5559 27.7968 22.4907 30.2717H17.2835C17.462 26.8735 18.8796 23.7979 21.1005 21.4912V21.4911ZM37.1478 20.4304C36.6398 19.4865 36.07 18.6764 35.4555 18.0105C37.0722 18.5666 38.5483 19.4145 39.8286 20.4923C39.2108 21.0415 38.555 21.5255 37.8617 21.9443C37.642 21.4158 37.4017 20.9077 37.1477 20.4306L37.1478 20.4304ZM31.7244 23.8321V17.3411C33.2622 17.6569 34.7073 18.9716 35.8675 21.1203C36.1215 21.594 36.3584 22.0986 36.5712 22.6306C35.054 23.3309 33.4167 23.7427 31.7244 23.832V23.8321ZM31.7244 30.2716V25.2875C33.5883 25.1983 35.3904 24.7589 37.0621 24.0037C37.649 25.8984 37.9889 28.0335 38.0541 30.2716H31.7244ZM31.7244 36.7111V31.727H38.0541C37.9888 33.9651 37.649 36.1001 37.0621 37.995C35.3904 37.2398 33.5883 36.8004 31.7244 36.7111ZM35.8675 40.8783C34.7073 43.0271 33.2622 44.3418 31.7244 44.6575V38.1665C33.4167 38.2558 35.054 38.6678 36.5712 39.3679C36.3583 39.9 36.1215 40.4046 35.8675 40.8782V40.8783ZM37.8618 40.0545C38.5552 40.4733 39.2108 40.9573 39.8287 41.5066C38.5484 42.5844 37.0724 43.4322 35.4556 43.9883C36.0701 43.3224 36.6399 42.5122 37.1479 41.5683C37.402 41.0877 37.6422 40.5832 37.8619 40.0545H37.8618ZM24.8489 41.5683C25.3569 42.5122 25.9268 43.3224 26.5412 43.9883C24.9245 43.4322 23.4451 42.5843 22.1612 41.5066C22.7791 40.9574 23.4416 40.4734 24.135 40.0545C24.3546 40.5831 24.5949 41.0877 24.8489 41.5683ZM30.269 38.1667V44.6577C28.7346 44.3418 27.2861 43.0271 26.1292 40.8784C25.8752 40.4047 25.6383 39.9001 25.4256 39.3682C26.9359 38.6679 28.5767 38.256 30.269 38.1668V38.1667ZM30.269 31.7271V36.7112C28.4085 36.8005 26.603 37.2398 24.9348 37.9951C24.3478 36.1003 24.0011 33.9652 23.9428 31.7271H30.269ZM30.269 25.2876V30.2717H23.9427C24.001 28.0337 24.3477 25.8987 24.9347 24.0038C26.6028 24.7589 28.4085 25.1984 30.2688 25.2876H30.269ZM26.1292 21.1204C27.2861 18.9716 28.7346 17.6569 30.269 17.3412V23.8322C28.5767 23.743 26.936 23.331 25.4256 22.6308C25.6383 22.0987 25.8752 21.5941 26.1292 21.1205V21.1204ZM24.135 21.9442C23.4416 21.5255 22.7791 21.0415 22.1612 20.4922C23.4451 19.4143 24.9245 18.5666 26.5412 18.0104C25.9268 18.6763 25.3569 19.4864 24.8489 20.4303C24.5949 20.9074 24.3546 21.4154 24.135 21.9441V21.9442ZM41.4317 19.9636C41.4043 19.9396 41.3768 19.9155 41.3459 19.895C38.6307 17.3652 34.9922 15.8136 31.0001 15.8136C27.008 15.8136 23.3592 17.3652 20.6508 19.895C20.62 19.9155 20.5925 19.9396 20.565 19.9636C20.5547 19.9739 20.5444 19.9876 20.5341 20.0014C17.6268 22.768 15.8108 26.6743 15.8108 30.9994C15.8108 35.3245 17.6266 39.2307 20.5341 41.9974C20.5444 42.011 20.5547 42.0213 20.565 42.0351C20.5925 42.0591 20.62 42.0832 20.6508 42.1038C23.3591 44.6336 26.9977 46.1851 31.0001 46.1851C35.0025 46.1851 38.6307 44.6336 41.3459 42.1038C41.3768 42.0832 41.4043 42.0592 41.4317 42.0351C41.442 42.0215 41.4454 42.0112 41.4557 41.9974C44.37 39.2307 46.1824 35.3245 46.1824 30.9994C46.1824 26.6743 44.37 22.768 41.4557 20.0014C41.4454 19.9877 41.442 19.9739 41.4317 19.9636Z"/>
</mask>
<path d="M60.0602 37.9365H50.0233V32.2968C50.0233 31.4696 50.6961 30.7968 51.5199 30.7968H58.5602C59.3874 30.7968 60.0602 31.4696 60.0602 32.2968V37.9365ZM61.5122 38.726V32.1766C61.4505 30.6045 60.1494 29.3448 58.5602 29.3448H58.1621C58.7628 28.6308 59.1301 27.7074 59.1301 26.7016C59.1301 24.4464 57.2902 22.6066 55.035 22.6066C52.7799 22.6066 50.9434 24.4465 50.9434 26.7016C50.9434 27.7073 51.3038 28.6308 51.9079 29.3448H51.5201C49.8964 29.3448 48.568 30.6698 48.568 32.2968V38.6642C48.568 39.0659 48.8941 39.3919 49.2992 39.3919H60.7846C61.1655 39.3919 61.4814 39.0967 61.5122 38.726ZM52.3918 26.7016C52.3918 25.2462 53.5761 24.062 55.0349 24.062C56.4937 24.062 57.6745 25.2463 57.6745 26.7016C57.6745 28.1569 56.4902 29.3448 55.0349 29.3448C53.5796 29.3448 52.3918 28.1605 52.3918 26.7016ZM11.9698 37.9365H1.93641V32.2968C1.93641 31.4696 2.60921 30.7968 3.42962 30.7968H10.4733C11.2971 30.7968 11.9699 31.4696 11.9699 32.2968L11.9698 37.9365ZM4.30476 26.7016C4.30476 25.2462 5.48906 24.062 6.94436 24.062C8.39967 24.062 9.58748 25.2463 9.58748 26.7016C9.58748 28.1569 8.40318 29.3448 6.94436 29.3448C5.48555 29.3448 4.30476 28.1605 4.30476 26.7016ZM13.4286 38.6641V32.2967C13.4286 30.6696 12.1002 29.3446 10.4732 29.3446H10.0715C10.6756 28.6307 11.0429 27.7073 11.0429 26.7015C11.0429 24.4463 9.203 22.6065 6.94436 22.6065C4.68572 22.6065 2.84934 24.4464 2.84934 26.7015C2.84934 27.7072 3.21661 28.6307 3.81736 29.3446H3.4295C1.80926 29.3446 0.484375 30.6696 0.484375 32.2967V38.6641C0.484375 39.0658 0.803578 39.3918 1.20864 39.3918H12.6975C13.0957 39.3918 13.4286 39.0657 13.4286 38.6641ZM52.9307 43.6619C50.7441 47.4446 47.6033 50.6129 43.8413 52.8303C39.9625 55.1164 35.5242 56.3247 31 56.3247C26.4758 56.3247 22.0307 55.1164 18.1587 52.8338C14.884 50.9046 12.0762 48.2512 9.96517 45.1036L9.0899 48.368C9.00066 48.6941 8.70543 48.9068 8.38623 48.9068C8.32096 48.9068 8.26271 48.8965 8.19744 48.8829C7.80958 48.7764 7.57962 48.3783 7.68594 47.9904L8.98685 43.1161L8.99375 43.1092C9.09668 42.7214 9.49496 42.4914 9.88621 42.5977L14.7605 43.9055C15.1517 44.0085 15.3783 44.4068 15.2788 44.7946C15.1723 45.1825 14.7776 45.4124 14.3863 45.3095L11.297 44.4788C15.725 50.932 23.1153 54.8726 31 54.8726C39.4922 54.8726 47.4146 50.297 51.6778 42.9341C51.8769 42.5874 52.3232 42.4673 52.6698 42.6698C53.0165 42.8689 53.1333 43.3151 52.9307 43.6618V43.6619ZM9.02124 18.4017C11.2009 14.6018 14.3486 11.4165 18.121 9.1853C22.0066 6.88888 26.4587 5.67383 31 5.67383C35.5413 5.67383 39.9625 6.8821 43.8344 9.16472C47.1125 11.0939 49.9169 13.7473 52.0313 16.8949L52.9066 13.6305C53.013 13.2427 53.4078 13.0127 53.7957 13.1156C54.1869 13.2221 54.4135 13.6202 54.3072 14.0081L53.0062 18.8824L53.0029 18.8893V18.8962C52.9892 18.9237 52.9789 18.9545 52.9686 18.982C52.9583 18.9992 52.9549 19.0163 52.9411 19.0335C52.9377 19.0507 52.9274 19.0644 52.9171 19.0816C52.7867 19.2943 52.5532 19.4283 52.3027 19.4283C52.2374 19.4283 52.1757 19.418 52.1105 19.4008L47.2293 18.093C46.8449 17.99 46.6149 17.5918 46.7178 17.2039C46.8243 16.816 47.2191 16.5861 47.6069 16.689L50.6963 17.5197C46.2682 11.0665 38.8813 7.12586 31.0001 7.12586C22.4702 7.12586 14.5374 11.7255 10.2845 19.1261C10.1506 19.3596 9.90692 19.49 9.64948 19.49C9.53274 19.49 9.40571 19.4591 9.29249 19.3939C8.94241 19.1914 8.82229 18.7486 9.02136 18.4019L9.02124 18.4017ZM44.7098 30.2716H39.5025C39.4407 27.7967 39.0493 25.4248 38.3732 23.3309C39.2656 22.8126 40.1135 22.1982 40.8961 21.491C43.117 23.7977 44.5346 26.8732 44.7098 30.2715V30.2716ZM40.8961 40.5075C40.1135 39.8005 39.2656 39.186 38.3732 38.6676C39.0493 36.5738 39.4407 34.2018 39.5025 31.7269H44.7098C44.5346 35.1252 43.117 38.2008 40.8961 40.5075ZM17.2835 31.727H22.4907C22.556 34.2019 22.9439 36.5738 23.6235 38.6678C22.7276 39.186 21.8831 39.8005 21.1005 40.5077C18.8796 38.2009 17.462 35.1253 17.2835 31.727ZM21.1005 21.4911C21.8831 22.1982 22.7275 22.8126 23.6235 23.331C22.9438 25.4248 22.5559 27.7968 22.4907 30.2717H17.2835C17.462 26.8735 18.8796 23.7979 21.1005 21.4912V21.4911ZM37.1478 20.4304C36.6398 19.4865 36.07 18.6764 35.4555 18.0105C37.0722 18.5666 38.5483 19.4145 39.8286 20.4923C39.2108 21.0415 38.555 21.5255 37.8617 21.9443C37.642 21.4158 37.4017 20.9077 37.1477 20.4306L37.1478 20.4304ZM31.7244 23.8321V17.3411C33.2622 17.6569 34.7073 18.9716 35.8675 21.1203C36.1215 21.594 36.3584 22.0986 36.5712 22.6306C35.054 23.3309 33.4167 23.7427 31.7244 23.832V23.8321ZM31.7244 30.2716V25.2875C33.5883 25.1983 35.3904 24.7589 37.0621 24.0037C37.649 25.8984 37.9889 28.0335 38.0541 30.2716H31.7244ZM31.7244 36.7111V31.727H38.0541C37.9888 33.9651 37.649 36.1001 37.0621 37.995C35.3904 37.2398 33.5883 36.8004 31.7244 36.7111ZM35.8675 40.8783C34.7073 43.0271 33.2622 44.3418 31.7244 44.6575V38.1665C33.4167 38.2558 35.054 38.6678 36.5712 39.3679C36.3583 39.9 36.1215 40.4046 35.8675 40.8782V40.8783ZM37.8618 40.0545C38.5552 40.4733 39.2108 40.9573 39.8287 41.5066C38.5484 42.5844 37.0724 43.4322 35.4556 43.9883C36.0701 43.3224 36.6399 42.5122 37.1479 41.5683C37.402 41.0877 37.6422 40.5832 37.8619 40.0545H37.8618ZM24.8489 41.5683C25.3569 42.5122 25.9268 43.3224 26.5412 43.9883C24.9245 43.4322 23.4451 42.5843 22.1612 41.5066C22.7791 40.9574 23.4416 40.4734 24.135 40.0545C24.3546 40.5831 24.5949 41.0877 24.8489 41.5683ZM30.269 38.1667V44.6577C28.7346 44.3418 27.2861 43.0271 26.1292 40.8784C25.8752 40.4047 25.6383 39.9001 25.4256 39.3682C26.9359 38.6679 28.5767 38.256 30.269 38.1668V38.1667ZM30.269 31.7271V36.7112C28.4085 36.8005 26.603 37.2398 24.9348 37.9951C24.3478 36.1003 24.0011 33.9652 23.9428 31.7271H30.269ZM30.269 25.2876V30.2717H23.9427C24.001 28.0337 24.3477 25.8987 24.9347 24.0038C26.6028 24.7589 28.4085 25.1984 30.2688 25.2876H30.269ZM26.1292 21.1204C27.2861 18.9716 28.7346 17.6569 30.269 17.3412V23.8322C28.5767 23.743 26.936 23.331 25.4256 22.6308C25.6383 22.0987 25.8752 21.5941 26.1292 21.1205V21.1204ZM24.135 21.9442C23.4416 21.5255 22.7791 21.0415 22.1612 20.4922C23.4451 19.4143 24.9245 18.5666 26.5412 18.0104C25.9268 18.6763 25.3569 19.4864 24.8489 20.4303C24.5949 20.9074 24.3546 21.4154 24.135 21.9441V21.9442ZM41.4317 19.9636C41.4043 19.9396 41.3768 19.9155 41.3459 19.895C38.6307 17.3652 34.9922 15.8136 31.0001 15.8136C27.008 15.8136 23.3592 17.3652 20.6508 19.895C20.62 19.9155 20.5925 19.9396 20.565 19.9636C20.5547 19.9739 20.5444 19.9876 20.5341 20.0014C17.6268 22.768 15.8108 26.6743 15.8108 30.9994C15.8108 35.3245 17.6266 39.2307 20.5341 41.9974C20.5444 42.011 20.5547 42.0213 20.565 42.0351C20.5925 42.0591 20.62 42.0832 20.6508 42.1038C23.3591 44.6336 26.9977 46.1851 31.0001 46.1851C35.0025 46.1851 38.6307 44.6336 41.3459 42.1038C41.3768 42.0832 41.4043 42.0592 41.4317 42.0351C41.442 42.0215 41.4454 42.0112 41.4557 41.9974C44.37 39.2307 46.1824 35.3245 46.1824 30.9994C46.1824 26.6743 44.37 22.768 41.4557 20.0014C41.4454 19.9877 41.442 19.9739 41.4317 19.9636Z" fill="url(#paint0_linear_2629_47440)"/>
<path d="M60.0602 37.9365H50.0233V32.2968C50.0233 31.4696 50.6961 30.7968 51.5199 30.7968H58.5602C59.3874 30.7968 60.0602 31.4696 60.0602 32.2968V37.9365ZM61.5122 38.726V32.1766C61.4505 30.6045 60.1494 29.3448 58.5602 29.3448H58.1621C58.7628 28.6308 59.1301 27.7074 59.1301 26.7016C59.1301 24.4464 57.2902 22.6066 55.035 22.6066C52.7799 22.6066 50.9434 24.4465 50.9434 26.7016C50.9434 27.7073 51.3038 28.6308 51.9079 29.3448H51.5201C49.8964 29.3448 48.568 30.6698 48.568 32.2968V38.6642C48.568 39.0659 48.8941 39.3919 49.2992 39.3919H60.7846C61.1655 39.3919 61.4814 39.0967 61.5122 38.726ZM52.3918 26.7016C52.3918 25.2462 53.5761 24.062 55.0349 24.062C56.4937 24.062 57.6745 25.2463 57.6745 26.7016C57.6745 28.1569 56.4902 29.3448 55.0349 29.3448C53.5796 29.3448 52.3918 28.1605 52.3918 26.7016ZM11.9698 37.9365H1.93641V32.2968C1.93641 31.4696 2.60921 30.7968 3.42962 30.7968H10.4733C11.2971 30.7968 11.9699 31.4696 11.9699 32.2968L11.9698 37.9365ZM4.30476 26.7016C4.30476 25.2462 5.48906 24.062 6.94436 24.062C8.39967 24.062 9.58748 25.2463 9.58748 26.7016C9.58748 28.1569 8.40318 29.3448 6.94436 29.3448C5.48555 29.3448 4.30476 28.1605 4.30476 26.7016ZM13.4286 38.6641V32.2967C13.4286 30.6696 12.1002 29.3446 10.4732 29.3446H10.0715C10.6756 28.6307 11.0429 27.7073 11.0429 26.7015C11.0429 24.4463 9.203 22.6065 6.94436 22.6065C4.68572 22.6065 2.84934 24.4464 2.84934 26.7015C2.84934 27.7072 3.21661 28.6307 3.81736 29.3446H3.4295C1.80926 29.3446 0.484375 30.6696 0.484375 32.2967V38.6641C0.484375 39.0658 0.803578 39.3918 1.20864 39.3918H12.6975C13.0957 39.3918 13.4286 39.0657 13.4286 38.6641ZM52.9307 43.6619C50.7441 47.4446 47.6033 50.6129 43.8413 52.8303C39.9625 55.1164 35.5242 56.3247 31 56.3247C26.4758 56.3247 22.0307 55.1164 18.1587 52.8338C14.884 50.9046 12.0762 48.2512 9.96517 45.1036L9.0899 48.368C9.00066 48.6941 8.70543 48.9068 8.38623 48.9068C8.32096 48.9068 8.26271 48.8965 8.19744 48.8829C7.80958 48.7764 7.57962 48.3783 7.68594 47.9904L8.98685 43.1161L8.99375 43.1092C9.09668 42.7214 9.49496 42.4914 9.88621 42.5977L14.7605 43.9055C15.1517 44.0085 15.3783 44.4068 15.2788 44.7946C15.1723 45.1825 14.7776 45.4124 14.3863 45.3095L11.297 44.4788C15.725 50.932 23.1153 54.8726 31 54.8726C39.4922 54.8726 47.4146 50.297 51.6778 42.9341C51.8769 42.5874 52.3232 42.4673 52.6698 42.6698C53.0165 42.8689 53.1333 43.3151 52.9307 43.6618V43.6619ZM9.02124 18.4017C11.2009 14.6018 14.3486 11.4165 18.121 9.1853C22.0066 6.88888 26.4587 5.67383 31 5.67383C35.5413 5.67383 39.9625 6.8821 43.8344 9.16472C47.1125 11.0939 49.9169 13.7473 52.0313 16.8949L52.9066 13.6305C53.013 13.2427 53.4078 13.0127 53.7957 13.1156C54.1869 13.2221 54.4135 13.6202 54.3072 14.0081L53.0062 18.8824L53.0029 18.8893V18.8962C52.9892 18.9237 52.9789 18.9545 52.9686 18.982C52.9583 18.9992 52.9549 19.0163 52.9411 19.0335C52.9377 19.0507 52.9274 19.0644 52.9171 19.0816C52.7867 19.2943 52.5532 19.4283 52.3027 19.4283C52.2374 19.4283 52.1757 19.418 52.1105 19.4008L47.2293 18.093C46.8449 17.99 46.6149 17.5918 46.7178 17.2039C46.8243 16.816 47.2191 16.5861 47.6069 16.689L50.6963 17.5197C46.2682 11.0665 38.8813 7.12586 31.0001 7.12586C22.4702 7.12586 14.5374 11.7255 10.2845 19.1261C10.1506 19.3596 9.90692 19.49 9.64948 19.49C9.53274 19.49 9.40571 19.4591 9.29249 19.3939C8.94241 19.1914 8.82229 18.7486 9.02136 18.4019L9.02124 18.4017ZM44.7098 30.2716H39.5025C39.4407 27.7967 39.0493 25.4248 38.3732 23.3309C39.2656 22.8126 40.1135 22.1982 40.8961 21.491C43.117 23.7977 44.5346 26.8732 44.7098 30.2715V30.2716ZM40.8961 40.5075C40.1135 39.8005 39.2656 39.186 38.3732 38.6676C39.0493 36.5738 39.4407 34.2018 39.5025 31.7269H44.7098C44.5346 35.1252 43.117 38.2008 40.8961 40.5075ZM17.2835 31.727H22.4907C22.556 34.2019 22.9439 36.5738 23.6235 38.6678C22.7276 39.186 21.8831 39.8005 21.1005 40.5077C18.8796 38.2009 17.462 35.1253 17.2835 31.727ZM21.1005 21.4911C21.8831 22.1982 22.7275 22.8126 23.6235 23.331C22.9438 25.4248 22.5559 27.7968 22.4907 30.2717H17.2835C17.462 26.8735 18.8796 23.7979 21.1005 21.4912V21.4911ZM37.1478 20.4304C36.6398 19.4865 36.07 18.6764 35.4555 18.0105C37.0722 18.5666 38.5483 19.4145 39.8286 20.4923C39.2108 21.0415 38.555 21.5255 37.8617 21.9443C37.642 21.4158 37.4017 20.9077 37.1477 20.4306L37.1478 20.4304ZM31.7244 23.8321V17.3411C33.2622 17.6569 34.7073 18.9716 35.8675 21.1203C36.1215 21.594 36.3584 22.0986 36.5712 22.6306C35.054 23.3309 33.4167 23.7427 31.7244 23.832V23.8321ZM31.7244 30.2716V25.2875C33.5883 25.1983 35.3904 24.7589 37.0621 24.0037C37.649 25.8984 37.9889 28.0335 38.0541 30.2716H31.7244ZM31.7244 36.7111V31.727H38.0541C37.9888 33.9651 37.649 36.1001 37.0621 37.995C35.3904 37.2398 33.5883 36.8004 31.7244 36.7111ZM35.8675 40.8783C34.7073 43.0271 33.2622 44.3418 31.7244 44.6575V38.1665C33.4167 38.2558 35.054 38.6678 36.5712 39.3679C36.3583 39.9 36.1215 40.4046 35.8675 40.8782V40.8783ZM37.8618 40.0545C38.5552 40.4733 39.2108 40.9573 39.8287 41.5066C38.5484 42.5844 37.0724 43.4322 35.4556 43.9883C36.0701 43.3224 36.6399 42.5122 37.1479 41.5683C37.402 41.0877 37.6422 40.5832 37.8619 40.0545H37.8618ZM24.8489 41.5683C25.3569 42.5122 25.9268 43.3224 26.5412 43.9883C24.9245 43.4322 23.4451 42.5843 22.1612 41.5066C22.7791 40.9574 23.4416 40.4734 24.135 40.0545C24.3546 40.5831 24.5949 41.0877 24.8489 41.5683ZM30.269 38.1667V44.6577C28.7346 44.3418 27.2861 43.0271 26.1292 40.8784C25.8752 40.4047 25.6383 39.9001 25.4256 39.3682C26.9359 38.6679 28.5767 38.256 30.269 38.1668V38.1667ZM30.269 31.7271V36.7112C28.4085 36.8005 26.603 37.2398 24.9348 37.9951C24.3478 36.1003 24.0011 33.9652 23.9428 31.7271H30.269ZM30.269 25.2876V30.2717H23.9427C24.001 28.0337 24.3477 25.8987 24.9347 24.0038C26.6028 24.7589 28.4085 25.1984 30.2688 25.2876H30.269ZM26.1292 21.1204C27.2861 18.9716 28.7346 17.6569 30.269 17.3412V23.8322C28.5767 23.743 26.936 23.331 25.4256 22.6308C25.6383 22.0987 25.8752 21.5941 26.1292 21.1205V21.1204ZM24.135 21.9442C23.4416 21.5255 22.7791 21.0415 22.1612 20.4922C23.4451 19.4143 24.9245 18.5666 26.5412 18.0104C25.9268 18.6763 25.3569 19.4864 24.8489 20.4303C24.5949 20.9074 24.3546 21.4154 24.135 21.9441V21.9442ZM41.4317 19.9636C41.4043 19.9396 41.3768 19.9155 41.3459 19.895C38.6307 17.3652 34.9922 15.8136 31.0001 15.8136C27.008 15.8136 23.3592 17.3652 20.6508 19.895C20.62 19.9155 20.5925 19.9396 20.565 19.9636C20.5547 19.9739 20.5444 19.9876 20.5341 20.0014C17.6268 22.768 15.8108 26.6743 15.8108 30.9994C15.8108 35.3245 17.6266 39.2307 20.5341 41.9974C20.5444 42.011 20.5547 42.0213 20.565 42.0351C20.5925 42.0591 20.62 42.0832 20.6508 42.1038C23.3591 44.6336 26.9977 46.1851 31.0001 46.1851C35.0025 46.1851 38.6307 44.6336 41.3459 42.1038C41.3768 42.0832 41.4043 42.0592 41.4317 42.0351C41.442 42.0215 41.4454 42.0112 41.4557 41.9974C44.37 39.2307 46.1824 35.3245 46.1824 30.9994C46.1824 26.6743 44.37 22.768 41.4557 20.0014C41.4454 19.9877 41.442 19.9739 41.4317 19.9636Z" stroke="url(#paint1_linear_2629_47440)" stroke-width="0.31" mask="url(#path-11-outside-1_2629_47440)"/>
<defs>
<linearGradient id="paint0_linear_2629_47440" x1="30.998" y1="30.9995" x2="56.498" y2="59.9995" gradientUnits="userSpaceOnUse">
<stop stop-color="white"/>
<stop offset="1" stop-color="#0E2E20"/>
</linearGradient>
<linearGradient id="paint1_linear_2629_47440" x1="30.998" y1="30.9995" x2="56.498" y2="59.9995" gradientUnits="userSpaceOnUse">
<stop stop-color="white"/>
<stop offset="1" stop-color="#0E2E20"/>
</linearGradient>
</defs>
</svg>
