<svg width="120" height="120" viewBox="0 0 120 120" fill="none" xmlns="http://www.w3.org/2000/svg">
<g clip-path="url(#clip0_2139_42533)">
<rect width="120" height="120" rx="60" fill="#63DD1E"/>
<circle cx="48.75" cy="28.125" r="76.875" fill="#C3F63C"/>
<path d="M60.0029 39.916C65.5461 39.916 70.5672 42.1632 74.2037 45.7997C77.8402 49.4315 80.0873 54.4526 80.0873 60.0004C80.0873 65.5482 77.8402 70.5693 74.2037 74.2011C70.5672 77.8377 65.5461 80.0848 60.0029 80.0848C54.4598 80.0848 49.4341 77.8377 45.7977 74.2011C42.1659 70.5693 39.9141 65.5482 39.9141 60.0004C39.9141 54.4526 42.1659 49.4315 45.7977 45.7997C49.4342 42.1632 54.4553 39.916 60.0029 39.916ZM72.8462 47.1572C69.5593 43.8703 65.0195 41.8364 60.0029 41.8364C54.9864 41.8364 50.4466 43.8703 47.1597 47.1572C43.8728 50.444 41.839 54.9838 41.839 60.0004C41.839 65.017 43.8728 69.5568 47.1597 72.8437C50.4466 76.1305 54.9864 78.1644 60.0029 78.1644C65.0195 78.1644 69.5593 76.1305 72.8462 72.8437C76.1331 69.5568 78.1669 65.017 78.1669 60.0004C78.1669 54.9838 76.1331 50.444 72.8462 47.1572Z" fill="#111111"/>
<path d="M60.0012 52.4681C57.3725 52.4681 54.8621 51.946 52.5603 50.9926C50.1769 50.0075 48.0205 48.5592 46.209 46.7614C45.8321 46.3892 45.8321 45.7808 46.2045 45.4039C46.5767 45.0317 47.1851 45.0271 47.562 45.4039C49.1964 47.0247 51.1394 48.3321 53.2912 49.2219C55.3569 50.0754 57.6224 50.5475 60.0012 50.5475V52.468V52.4681Z" fill="#111111"/>
<path d="M72.4392 45.4039C72.8114 45.0271 73.4198 45.0317 73.792 45.4039C74.1642 45.7808 74.1642 46.3891 73.7875 46.7614C71.9762 48.5592 69.8243 50.0075 67.4362 50.9926C65.1344 51.946 62.624 52.4681 60 52.4681V50.5477C62.379 50.5477 64.6442 50.0755 66.7099 49.2221C68.8573 48.3322 70.8003 47.0247 72.4392 45.4041V45.4039Z" fill="#111111"/>
<path d="M47.5619 74.5954C47.185 74.9723 46.5767 74.9676 46.2044 74.5954C45.8322 74.2186 45.8322 73.6103 46.2089 73.2379C48.0202 71.4402 50.1767 69.9919 52.5602 69.0068C54.8619 68.0534 57.3724 67.5312 60.001 67.5312V69.4517C57.6221 69.4517 55.3568 69.9238 53.2911 70.7773C51.1393 71.6671 49.1961 72.9746 47.5619 74.5953V74.5954Z" fill="#111111"/>
<path d="M60 67.5312C62.624 67.5312 65.1346 68.0534 67.4362 69.0068C69.8241 69.9919 71.976 71.4402 73.7875 73.2379C74.1644 73.6101 74.1644 74.2186 73.792 74.5954C73.4198 74.9676 72.8114 74.9723 72.4392 74.5954C70.8003 72.9746 68.8573 71.6673 66.7099 70.7775C64.6442 69.924 62.3788 69.4518 60 69.4518V67.5314V67.5312Z" fill="#111111"/>
<path d="M60.0023 80.0848C56.7745 80.0848 53.9053 77.7513 51.8714 73.9787C49.9328 70.3832 48.7344 65.4392 48.7344 60.0004C48.7344 54.5617 49.9328 49.6178 51.8714 46.0221C53.9052 42.2495 56.7744 39.916 60.0023 39.916V41.8364C57.5372 41.8364 55.2537 43.7841 53.5602 46.9302C51.7669 50.2579 50.6593 54.8796 50.6593 60.0004C50.6593 65.1212 51.7671 69.743 53.5602 73.0706C55.2535 76.2167 57.537 78.1644 60.0023 78.1644V80.0848Z" fill="#111111"/>
<path d="M60 39.916C63.2233 39.916 66.097 42.2495 68.131 46.0221C70.065 49.6176 71.2635 54.5617 71.2635 60.0004C71.2635 65.4392 70.065 70.383 68.131 73.9787C66.0971 77.7513 63.2233 80.0848 60 80.0848V78.1644C62.4651 78.1644 64.7441 76.2167 66.4421 73.0706C68.2354 69.7429 69.343 65.1212 69.343 60.0004C69.343 54.8796 68.2352 50.2579 66.4421 46.9302C64.7441 43.7841 62.4651 41.8364 60 41.8364V39.916Z" fill="#111111"/>
<path d="M40.8764 60.9619C40.3452 60.9619 39.9141 60.5306 39.9141 59.9995C39.9141 59.4684 40.3454 59.0371 40.8764 59.0371H60.0029V60.962H40.8764V60.9619Z" fill="#111111"/>
<path d="M60 59.0373H79.1219C79.6531 59.0373 80.0842 59.4686 80.0842 59.9996C80.0842 60.5307 79.6529 60.962 79.1219 60.962H60V59.0373Z" fill="#111111"/>
<path fill-rule="evenodd" clip-rule="evenodd" d="M60.0014 39.916C60.3238 39.916 60.6416 39.9251 60.9593 39.9388V80.0621C60.6416 80.0757 60.3237 80.0848 60.0014 80.0848C59.6792 80.0848 59.3568 80.0757 59.0391 80.0621V39.9388C59.3568 39.9251 59.6792 39.916 60.0014 39.916Z" fill="#111111"/>
<mask id="path-13-outside-1_2139_42533" maskUnits="userSpaceOnUse" x="18.6406" y="25.5039" width="82" height="69" fill="black">
<rect fill="white" x="18.6406" y="25.5039" width="82" height="69"/>
<path d="M98.4345 69.1739H85.1599V61.7149C85.1599 60.6209 86.0497 59.731 87.1393 59.731H96.4506C97.5446 59.731 98.4345 60.6209 98.4345 61.7149V69.1739ZM100.355 70.2181V61.556C100.273 59.4767 98.5525 57.8106 96.4506 57.8106H95.924C96.7185 56.8663 97.2043 55.6451 97.2043 54.3149C97.2043 51.3321 94.7709 48.8989 91.7883 48.8989C88.8057 48.8989 86.3768 51.3323 86.3768 54.3149C86.3768 55.645 86.8534 56.8663 87.6524 57.8106H87.1394C84.9921 57.8106 83.2351 59.563 83.2351 61.7149V70.1364C83.2351 70.6676 83.6665 71.0988 84.2022 71.0988H99.3925C99.8964 71.0988 100.314 70.7083 100.355 70.2181ZM88.2924 54.3149C88.2924 52.39 89.8587 50.8238 91.7881 50.8238C93.7175 50.8238 95.2792 52.3901 95.2792 54.3149C95.2792 56.2396 93.7129 57.8106 91.7881 57.8106C89.8634 57.8106 88.2924 56.2443 88.2924 54.3149ZM34.831 69.1739H21.5611V61.7149C21.5611 60.6209 22.4509 59.731 23.5359 59.731H32.8518C33.9413 59.731 34.8311 60.6209 34.8311 61.7149L34.831 69.1739ZM24.6934 54.3149C24.6934 52.39 26.2597 50.8238 28.1845 50.8238C30.1092 50.8238 31.6802 52.3901 31.6802 54.3149C31.6802 56.2396 30.1139 57.8106 28.1845 57.8106C26.2551 57.8106 24.6934 56.2443 24.6934 54.3149ZM36.7604 70.1362V61.7147C36.7604 59.5629 35.0035 57.8104 32.8516 57.8104H32.3204C33.1194 56.8662 33.6051 55.645 33.6051 54.3147C33.6051 51.332 31.1717 48.8987 28.1845 48.8987C25.1972 48.8987 22.7685 51.3321 22.7685 54.3147C22.7685 55.6448 23.2542 56.8662 24.0488 57.8104H23.5358C21.3929 57.8104 19.6406 59.5629 19.6406 61.7147V70.1362C19.6406 70.6675 20.0628 71.0986 20.5985 71.0986H35.7935C36.3201 71.0986 36.7604 70.6673 36.7604 70.1362ZM89.0051 76.7462C86.1132 81.7492 81.9592 85.9395 76.9836 88.8721C71.8536 91.8957 65.9836 93.4937 60 93.4937C54.0164 93.4937 48.1374 91.8957 43.0164 88.8768C38.6853 86.3253 34.9717 82.816 32.1797 78.653L31.0221 82.9704C30.9041 83.4017 30.5136 83.6831 30.0915 83.6831C30.0051 83.6831 29.9281 83.6694 29.8418 83.6513C29.3288 83.5106 29.0247 82.984 29.1653 82.471L30.8858 76.0244L30.895 76.0153C31.0311 75.5023 31.5579 75.1981 32.0753 75.3388L38.5219 77.0684C39.0394 77.2046 39.339 77.7313 39.2074 78.2443C39.0666 78.7573 38.5445 79.0614 38.027 78.9253L33.9411 77.8266C39.7976 86.3615 49.5719 91.5733 60 91.5733C71.2316 91.5733 81.7097 85.5216 87.3481 75.7837C87.6114 75.3251 88.2016 75.1663 88.6601 75.434C89.1186 75.6973 89.273 76.2875 89.0051 76.746V76.7462ZM30.9313 43.3376C33.8141 38.3119 37.9772 34.099 42.9664 31.1481C48.1055 28.1109 53.9938 26.5039 60 26.5039C66.0062 26.5039 71.8536 28.1019 76.9745 31.1209C81.3101 33.6723 85.0191 37.1817 87.8156 41.3446L88.9732 37.0273C89.114 36.5143 89.6361 36.2102 90.1491 36.3463C90.6666 36.4871 90.9662 37.0137 90.8256 37.5267L89.105 43.9733L89.1005 43.9824V43.9915C89.0825 44.0279 89.0688 44.0687 89.0552 44.1051C89.0416 44.1278 89.0371 44.1504 89.0189 44.1731C89.0144 44.1959 89.0008 44.214 88.9872 44.2367C88.8147 44.5181 88.5059 44.6953 88.1745 44.6953C88.0882 44.6953 88.0065 44.6816 87.9204 44.6589L81.4646 42.9292C80.9561 42.7931 80.652 42.2663 80.7881 41.7533C80.9289 41.2404 81.451 40.9362 81.964 41.0724L86.0499 42.171C80.1935 33.6361 70.4236 28.4243 60.0002 28.4243C48.7186 28.4243 38.2269 34.5077 32.6021 44.2957C32.4249 44.6044 32.1027 44.7769 31.7622 44.7769C31.6078 44.7769 31.4398 44.7361 31.2901 44.6498C30.8271 44.382 30.6682 43.7963 30.9315 43.3378L30.9313 43.3376ZM78.1323 59.0364H71.2452C71.1635 55.7632 70.6459 52.6262 69.7516 49.8568C70.9319 49.1713 72.0534 48.3587 73.0884 47.4234C76.0257 50.4742 77.9007 54.5418 78.1323 59.0363V59.0364ZM73.0884 72.5743C72.0534 71.6391 70.9319 70.8265 69.7516 70.1409C70.6459 67.3716 71.1635 64.2345 71.2452 60.9612H78.1323C77.9007 65.4557 76.0257 69.5235 73.0884 72.5743ZM41.8588 60.9614H48.7458C48.8321 64.2346 49.3451 67.3716 50.2439 70.141C49.0591 70.8265 47.9422 71.6391 46.9071 72.5745C43.9698 69.5236 42.0949 65.4558 41.8588 60.9614ZM46.9071 47.4235C47.9422 48.3587 49.0589 49.1713 50.2439 49.8569C49.345 52.6262 48.832 55.7633 48.7458 59.0366H41.8588C42.0949 54.5421 43.9698 50.4745 46.9071 47.4237V47.4235ZM68.131 46.0207C67.4591 44.7723 66.7054 43.7008 65.8928 42.8201C68.031 43.5556 69.9832 44.677 71.6765 46.1025C70.8594 46.8289 69.9921 47.469 69.0751 48.023C68.7846 47.3239 68.4668 46.6519 68.1308 46.0209L68.131 46.0207ZM60.9581 50.5197V41.9348C62.9919 42.3525 64.9032 44.0913 66.4376 46.9331C66.7736 47.5596 67.0869 48.227 67.3683 48.9306C65.3617 49.8568 63.1962 50.4015 60.9581 50.5195V50.5197ZM60.9581 59.0364V52.4446C63.4232 52.3265 65.8066 51.7455 68.0176 50.7466C68.7939 53.2526 69.2434 56.0764 69.3296 59.0364H60.9581ZM60.9581 67.5532V60.9614H69.3296C69.2433 63.9214 68.7939 66.7451 68.0176 69.2512C65.8066 68.2525 63.4232 67.6713 60.9581 67.5532ZM66.4376 73.0647C64.9032 75.9067 62.9919 77.6455 60.9581 78.063V69.4782C63.1962 69.5962 65.3617 70.141 67.3683 71.0671C67.0868 71.7708 66.7736 72.4382 66.4376 73.0645V73.0647ZM69.0752 71.9751C69.9923 72.529 70.8594 73.1691 71.6767 73.8956C69.9833 75.3211 68.0312 76.4424 65.8929 77.1778C66.7056 76.2971 67.4593 75.2257 68.1311 73.9773C68.4671 73.3416 68.7849 72.6744 69.0754 71.9751H69.0752ZM51.8647 73.9773C52.5366 75.2257 53.2903 76.2971 54.1029 77.1778C51.9646 76.4424 50.008 75.321 48.31 73.8956C49.1272 73.1693 50.0034 72.5291 50.9204 71.9751C51.2109 72.6742 51.5287 73.3416 51.8647 73.9773ZM59.0331 69.4783V78.0632C57.0038 77.6455 55.088 75.9067 53.558 73.0649C53.222 72.4383 52.9088 71.771 52.6274 71.0674C54.6248 70.1412 56.795 69.5965 59.0331 69.4785V69.4783ZM59.0331 60.9615V67.5534C56.5725 67.6714 54.1846 68.2525 51.9783 69.2514C51.202 66.7454 50.7435 63.9215 50.6663 60.9615H59.0331ZM59.0331 52.4447V59.0366H50.6661C50.7433 56.0766 51.2018 53.2529 51.9781 50.7468C54.1844 51.7455 56.5725 52.3267 59.033 52.4447H59.0331ZM53.558 46.9333C55.088 44.0913 57.0038 42.3525 59.0331 41.935V50.5198C56.795 50.4018 54.625 49.8569 52.6274 48.9309C52.9088 48.2272 53.222 47.5598 53.558 46.9334V46.9333ZM50.9204 48.0228C50.0034 47.469 49.1272 46.8289 48.31 46.1024C50.008 44.6768 51.9646 43.5556 54.1029 42.82C53.2903 43.7007 52.5366 44.7721 51.8647 46.0205C51.5287 46.6516 51.2109 47.3234 50.9204 48.0227V48.0228ZM73.7968 45.4033C73.7605 45.3716 73.7241 45.3397 73.6833 45.3125C70.0922 41.9667 65.28 39.9146 60.0002 39.9146C54.7203 39.9146 49.8945 41.9667 46.3124 45.3125C46.2716 45.3397 46.2352 45.3716 46.1989 45.4033C46.1852 45.4169 46.1716 45.435 46.158 45.4533C42.3128 49.1124 39.9111 54.2787 39.9111 59.999C39.9111 65.7193 42.3127 70.8856 46.158 74.5447C46.1716 74.5628 46.1852 74.5764 46.1989 74.5947C46.2352 74.6264 46.2716 74.6582 46.3124 74.6855C49.8943 78.0313 54.7067 80.0834 60.0002 80.0834C65.2936 80.0834 70.0922 78.0313 73.6833 74.6855C73.7241 74.6582 73.7605 74.6265 73.7968 74.5947C73.8104 74.5766 73.8149 74.563 73.8285 74.5447C77.6828 70.8856 80.0799 65.7193 80.0799 59.999C80.0799 54.2787 77.6828 49.1124 73.8285 45.4533C73.8149 45.4352 73.8104 45.4169 73.7968 45.4033Z"/>
</mask>
<path d="M98.4345 69.1739H85.1599V61.7149C85.1599 60.6209 86.0497 59.731 87.1393 59.731H96.4506C97.5446 59.731 98.4345 60.6209 98.4345 61.7149V69.1739ZM100.355 70.2181V61.556C100.273 59.4767 98.5525 57.8106 96.4506 57.8106H95.924C96.7185 56.8663 97.2043 55.6451 97.2043 54.3149C97.2043 51.3321 94.7709 48.8989 91.7883 48.8989C88.8057 48.8989 86.3768 51.3323 86.3768 54.3149C86.3768 55.645 86.8534 56.8663 87.6524 57.8106H87.1394C84.9921 57.8106 83.2351 59.563 83.2351 61.7149V70.1364C83.2351 70.6676 83.6665 71.0988 84.2022 71.0988H99.3925C99.8964 71.0988 100.314 70.7083 100.355 70.2181ZM88.2924 54.3149C88.2924 52.39 89.8587 50.8238 91.7881 50.8238C93.7175 50.8238 95.2792 52.3901 95.2792 54.3149C95.2792 56.2396 93.7129 57.8106 91.7881 57.8106C89.8634 57.8106 88.2924 56.2443 88.2924 54.3149ZM34.831 69.1739H21.5611V61.7149C21.5611 60.6209 22.4509 59.731 23.5359 59.731H32.8518C33.9413 59.731 34.8311 60.6209 34.8311 61.7149L34.831 69.1739ZM24.6934 54.3149C24.6934 52.39 26.2597 50.8238 28.1845 50.8238C30.1092 50.8238 31.6802 52.3901 31.6802 54.3149C31.6802 56.2396 30.1139 57.8106 28.1845 57.8106C26.2551 57.8106 24.6934 56.2443 24.6934 54.3149ZM36.7604 70.1362V61.7147C36.7604 59.5629 35.0035 57.8104 32.8516 57.8104H32.3204C33.1194 56.8662 33.6051 55.645 33.6051 54.3147C33.6051 51.332 31.1717 48.8987 28.1845 48.8987C25.1972 48.8987 22.7685 51.3321 22.7685 54.3147C22.7685 55.6448 23.2542 56.8662 24.0488 57.8104H23.5358C21.3929 57.8104 19.6406 59.5629 19.6406 61.7147V70.1362C19.6406 70.6675 20.0628 71.0986 20.5985 71.0986H35.7935C36.3201 71.0986 36.7604 70.6673 36.7604 70.1362ZM89.0051 76.7462C86.1132 81.7492 81.9592 85.9395 76.9836 88.8721C71.8536 91.8957 65.9836 93.4937 60 93.4937C54.0164 93.4937 48.1374 91.8957 43.0164 88.8768C38.6853 86.3253 34.9717 82.816 32.1797 78.653L31.0221 82.9704C30.9041 83.4017 30.5136 83.6831 30.0915 83.6831C30.0051 83.6831 29.9281 83.6694 29.8418 83.6513C29.3288 83.5106 29.0247 82.984 29.1653 82.471L30.8858 76.0244L30.895 76.0153C31.0311 75.5023 31.5579 75.1981 32.0753 75.3388L38.5219 77.0684C39.0394 77.2046 39.339 77.7313 39.2074 78.2443C39.0666 78.7573 38.5445 79.0614 38.027 78.9253L33.9411 77.8266C39.7976 86.3615 49.5719 91.5733 60 91.5733C71.2316 91.5733 81.7097 85.5216 87.3481 75.7837C87.6114 75.3251 88.2016 75.1663 88.6601 75.434C89.1186 75.6973 89.273 76.2875 89.0051 76.746V76.7462ZM30.9313 43.3376C33.8141 38.3119 37.9772 34.099 42.9664 31.1481C48.1055 28.1109 53.9938 26.5039 60 26.5039C66.0062 26.5039 71.8536 28.1019 76.9745 31.1209C81.3101 33.6723 85.0191 37.1817 87.8156 41.3446L88.9732 37.0273C89.114 36.5143 89.6361 36.2102 90.1491 36.3463C90.6666 36.4871 90.9662 37.0137 90.8256 37.5267L89.105 43.9733L89.1005 43.9824V43.9915C89.0825 44.0279 89.0688 44.0687 89.0552 44.1051C89.0416 44.1278 89.0371 44.1504 89.0189 44.1731C89.0144 44.1959 89.0008 44.214 88.9872 44.2367C88.8147 44.5181 88.5059 44.6953 88.1745 44.6953C88.0882 44.6953 88.0065 44.6816 87.9204 44.6589L81.4646 42.9292C80.9561 42.7931 80.652 42.2663 80.7881 41.7533C80.9289 41.2404 81.451 40.9362 81.964 41.0724L86.0499 42.171C80.1935 33.6361 70.4236 28.4243 60.0002 28.4243C48.7186 28.4243 38.2269 34.5077 32.6021 44.2957C32.4249 44.6044 32.1027 44.7769 31.7622 44.7769C31.6078 44.7769 31.4398 44.7361 31.2901 44.6498C30.8271 44.382 30.6682 43.7963 30.9315 43.3378L30.9313 43.3376ZM78.1323 59.0364H71.2452C71.1635 55.7632 70.6459 52.6262 69.7516 49.8568C70.9319 49.1713 72.0534 48.3587 73.0884 47.4234C76.0257 50.4742 77.9007 54.5418 78.1323 59.0363V59.0364ZM73.0884 72.5743C72.0534 71.6391 70.9319 70.8265 69.7516 70.1409C70.6459 67.3716 71.1635 64.2345 71.2452 60.9612H78.1323C77.9007 65.4557 76.0257 69.5235 73.0884 72.5743ZM41.8588 60.9614H48.7458C48.8321 64.2346 49.3451 67.3716 50.2439 70.141C49.0591 70.8265 47.9422 71.6391 46.9071 72.5745C43.9698 69.5236 42.0949 65.4558 41.8588 60.9614ZM46.9071 47.4235C47.9422 48.3587 49.0589 49.1713 50.2439 49.8569C49.345 52.6262 48.832 55.7633 48.7458 59.0366H41.8588C42.0949 54.5421 43.9698 50.4745 46.9071 47.4237V47.4235ZM68.131 46.0207C67.4591 44.7723 66.7054 43.7008 65.8928 42.8201C68.031 43.5556 69.9832 44.677 71.6765 46.1025C70.8594 46.8289 69.9921 47.469 69.0751 48.023C68.7846 47.3239 68.4668 46.6519 68.1308 46.0209L68.131 46.0207ZM60.9581 50.5197V41.9348C62.9919 42.3525 64.9032 44.0913 66.4376 46.9331C66.7736 47.5596 67.0869 48.227 67.3683 48.9306C65.3617 49.8568 63.1962 50.4015 60.9581 50.5195V50.5197ZM60.9581 59.0364V52.4446C63.4232 52.3265 65.8066 51.7455 68.0176 50.7466C68.7939 53.2526 69.2434 56.0764 69.3296 59.0364H60.9581ZM60.9581 67.5532V60.9614H69.3296C69.2433 63.9214 68.7939 66.7451 68.0176 69.2512C65.8066 68.2525 63.4232 67.6713 60.9581 67.5532ZM66.4376 73.0647C64.9032 75.9067 62.9919 77.6455 60.9581 78.063V69.4782C63.1962 69.5962 65.3617 70.141 67.3683 71.0671C67.0868 71.7708 66.7736 72.4382 66.4376 73.0645V73.0647ZM69.0752 71.9751C69.9923 72.529 70.8594 73.1691 71.6767 73.8956C69.9833 75.3211 68.0312 76.4424 65.8929 77.1778C66.7056 76.2971 67.4593 75.2257 68.1311 73.9773C68.4671 73.3416 68.7849 72.6744 69.0754 71.9751H69.0752ZM51.8647 73.9773C52.5366 75.2257 53.2903 76.2971 54.1029 77.1778C51.9646 76.4424 50.008 75.321 48.31 73.8956C49.1272 73.1693 50.0034 72.5291 50.9204 71.9751C51.2109 72.6742 51.5287 73.3416 51.8647 73.9773ZM59.0331 69.4783V78.0632C57.0038 77.6455 55.088 75.9067 53.558 73.0649C53.222 72.4383 52.9088 71.771 52.6274 71.0674C54.6248 70.1412 56.795 69.5965 59.0331 69.4785V69.4783ZM59.0331 60.9615V67.5534C56.5725 67.6714 54.1846 68.2525 51.9783 69.2514C51.202 66.7454 50.7435 63.9215 50.6663 60.9615H59.0331ZM59.0331 52.4447V59.0366H50.6661C50.7433 56.0766 51.2018 53.2529 51.9781 50.7468C54.1844 51.7455 56.5725 52.3267 59.033 52.4447H59.0331ZM53.558 46.9333C55.088 44.0913 57.0038 42.3525 59.0331 41.935V50.5198C56.795 50.4018 54.625 49.8569 52.6274 48.9309C52.9088 48.2272 53.222 47.5598 53.558 46.9334V46.9333ZM50.9204 48.0228C50.0034 47.469 49.1272 46.8289 48.31 46.1024C50.008 44.6768 51.9646 43.5556 54.1029 42.82C53.2903 43.7007 52.5366 44.7721 51.8647 46.0205C51.5287 46.6516 51.2109 47.3234 50.9204 48.0227V48.0228ZM73.7968 45.4033C73.7605 45.3716 73.7241 45.3397 73.6833 45.3125C70.0922 41.9667 65.28 39.9146 60.0002 39.9146C54.7203 39.9146 49.8945 41.9667 46.3124 45.3125C46.2716 45.3397 46.2352 45.3716 46.1989 45.4033C46.1852 45.4169 46.1716 45.435 46.158 45.4533C42.3128 49.1124 39.9111 54.2787 39.9111 59.999C39.9111 65.7193 42.3127 70.8856 46.158 74.5447C46.1716 74.5628 46.1852 74.5764 46.1989 74.5947C46.2352 74.6264 46.2716 74.6582 46.3124 74.6855C49.8943 78.0313 54.7067 80.0834 60.0002 80.0834C65.2936 80.0834 70.0922 78.0313 73.6833 74.6855C73.7241 74.6582 73.7605 74.6265 73.7968 74.5947C73.8104 74.5766 73.8149 74.563 73.8285 74.5447C77.6828 70.8856 80.0799 65.7193 80.0799 59.999C80.0799 54.2787 77.6828 49.1124 73.8285 45.4533C73.8149 45.4352 73.8104 45.4169 73.7968 45.4033Z" fill="#111111"/>
<path d="M98.4345 69.1739H85.1599V61.7149C85.1599 60.6209 86.0497 59.731 87.1393 59.731H96.4506C97.5446 59.731 98.4345 60.6209 98.4345 61.7149V69.1739ZM100.355 70.2181V61.556C100.273 59.4767 98.5525 57.8106 96.4506 57.8106H95.924C96.7185 56.8663 97.2043 55.6451 97.2043 54.3149C97.2043 51.3321 94.7709 48.8989 91.7883 48.8989C88.8057 48.8989 86.3768 51.3323 86.3768 54.3149C86.3768 55.645 86.8534 56.8663 87.6524 57.8106H87.1394C84.9921 57.8106 83.2351 59.563 83.2351 61.7149V70.1364C83.2351 70.6676 83.6665 71.0988 84.2022 71.0988H99.3925C99.8964 71.0988 100.314 70.7083 100.355 70.2181ZM88.2924 54.3149C88.2924 52.39 89.8587 50.8238 91.7881 50.8238C93.7175 50.8238 95.2792 52.3901 95.2792 54.3149C95.2792 56.2396 93.7129 57.8106 91.7881 57.8106C89.8634 57.8106 88.2924 56.2443 88.2924 54.3149ZM34.831 69.1739H21.5611V61.7149C21.5611 60.6209 22.4509 59.731 23.5359 59.731H32.8518C33.9413 59.731 34.8311 60.6209 34.8311 61.7149L34.831 69.1739ZM24.6934 54.3149C24.6934 52.39 26.2597 50.8238 28.1845 50.8238C30.1092 50.8238 31.6802 52.3901 31.6802 54.3149C31.6802 56.2396 30.1139 57.8106 28.1845 57.8106C26.2551 57.8106 24.6934 56.2443 24.6934 54.3149ZM36.7604 70.1362V61.7147C36.7604 59.5629 35.0035 57.8104 32.8516 57.8104H32.3204C33.1194 56.8662 33.6051 55.645 33.6051 54.3147C33.6051 51.332 31.1717 48.8987 28.1845 48.8987C25.1972 48.8987 22.7685 51.3321 22.7685 54.3147C22.7685 55.6448 23.2542 56.8662 24.0488 57.8104H23.5358C21.3929 57.8104 19.6406 59.5629 19.6406 61.7147V70.1362C19.6406 70.6675 20.0628 71.0986 20.5985 71.0986H35.7935C36.3201 71.0986 36.7604 70.6673 36.7604 70.1362ZM89.0051 76.7462C86.1132 81.7492 81.9592 85.9395 76.9836 88.8721C71.8536 91.8957 65.9836 93.4937 60 93.4937C54.0164 93.4937 48.1374 91.8957 43.0164 88.8768C38.6853 86.3253 34.9717 82.816 32.1797 78.653L31.0221 82.9704C30.9041 83.4017 30.5136 83.6831 30.0915 83.6831C30.0051 83.6831 29.9281 83.6694 29.8418 83.6513C29.3288 83.5106 29.0247 82.984 29.1653 82.471L30.8858 76.0244L30.895 76.0153C31.0311 75.5023 31.5579 75.1981 32.0753 75.3388L38.5219 77.0684C39.0394 77.2046 39.339 77.7313 39.2074 78.2443C39.0666 78.7573 38.5445 79.0614 38.027 78.9253L33.9411 77.8266C39.7976 86.3615 49.5719 91.5733 60 91.5733C71.2316 91.5733 81.7097 85.5216 87.3481 75.7837C87.6114 75.3251 88.2016 75.1663 88.6601 75.434C89.1186 75.6973 89.273 76.2875 89.0051 76.746V76.7462ZM30.9313 43.3376C33.8141 38.3119 37.9772 34.099 42.9664 31.1481C48.1055 28.1109 53.9938 26.5039 60 26.5039C66.0062 26.5039 71.8536 28.1019 76.9745 31.1209C81.3101 33.6723 85.0191 37.1817 87.8156 41.3446L88.9732 37.0273C89.114 36.5143 89.6361 36.2102 90.1491 36.3463C90.6666 36.4871 90.9662 37.0137 90.8256 37.5267L89.105 43.9733L89.1005 43.9824V43.9915C89.0825 44.0279 89.0688 44.0687 89.0552 44.1051C89.0416 44.1278 89.0371 44.1504 89.0189 44.1731C89.0144 44.1959 89.0008 44.214 88.9872 44.2367C88.8147 44.5181 88.5059 44.6953 88.1745 44.6953C88.0882 44.6953 88.0065 44.6816 87.9204 44.6589L81.4646 42.9292C80.9561 42.7931 80.652 42.2663 80.7881 41.7533C80.9289 41.2404 81.451 40.9362 81.964 41.0724L86.0499 42.171C80.1935 33.6361 70.4236 28.4243 60.0002 28.4243C48.7186 28.4243 38.2269 34.5077 32.6021 44.2957C32.4249 44.6044 32.1027 44.7769 31.7622 44.7769C31.6078 44.7769 31.4398 44.7361 31.2901 44.6498C30.8271 44.382 30.6682 43.7963 30.9315 43.3378L30.9313 43.3376ZM78.1323 59.0364H71.2452C71.1635 55.7632 70.6459 52.6262 69.7516 49.8568C70.9319 49.1713 72.0534 48.3587 73.0884 47.4234C76.0257 50.4742 77.9007 54.5418 78.1323 59.0363V59.0364ZM73.0884 72.5743C72.0534 71.6391 70.9319 70.8265 69.7516 70.1409C70.6459 67.3716 71.1635 64.2345 71.2452 60.9612H78.1323C77.9007 65.4557 76.0257 69.5235 73.0884 72.5743ZM41.8588 60.9614H48.7458C48.8321 64.2346 49.3451 67.3716 50.2439 70.141C49.0591 70.8265 47.9422 71.6391 46.9071 72.5745C43.9698 69.5236 42.0949 65.4558 41.8588 60.9614ZM46.9071 47.4235C47.9422 48.3587 49.0589 49.1713 50.2439 49.8569C49.345 52.6262 48.832 55.7633 48.7458 59.0366H41.8588C42.0949 54.5421 43.9698 50.4745 46.9071 47.4237V47.4235ZM68.131 46.0207C67.4591 44.7723 66.7054 43.7008 65.8928 42.8201C68.031 43.5556 69.9832 44.677 71.6765 46.1025C70.8594 46.8289 69.9921 47.469 69.0751 48.023C68.7846 47.3239 68.4668 46.6519 68.1308 46.0209L68.131 46.0207ZM60.9581 50.5197V41.9348C62.9919 42.3525 64.9032 44.0913 66.4376 46.9331C66.7736 47.5596 67.0869 48.227 67.3683 48.9306C65.3617 49.8568 63.1962 50.4015 60.9581 50.5195V50.5197ZM60.9581 59.0364V52.4446C63.4232 52.3265 65.8066 51.7455 68.0176 50.7466C68.7939 53.2526 69.2434 56.0764 69.3296 59.0364H60.9581ZM60.9581 67.5532V60.9614H69.3296C69.2433 63.9214 68.7939 66.7451 68.0176 69.2512C65.8066 68.2525 63.4232 67.6713 60.9581 67.5532ZM66.4376 73.0647C64.9032 75.9067 62.9919 77.6455 60.9581 78.063V69.4782C63.1962 69.5962 65.3617 70.141 67.3683 71.0671C67.0868 71.7708 66.7736 72.4382 66.4376 73.0645V73.0647ZM69.0752 71.9751C69.9923 72.529 70.8594 73.1691 71.6767 73.8956C69.9833 75.3211 68.0312 76.4424 65.8929 77.1778C66.7056 76.2971 67.4593 75.2257 68.1311 73.9773C68.4671 73.3416 68.7849 72.6744 69.0754 71.9751H69.0752ZM51.8647 73.9773C52.5366 75.2257 53.2903 76.2971 54.1029 77.1778C51.9646 76.4424 50.008 75.321 48.31 73.8956C49.1272 73.1693 50.0034 72.5291 50.9204 71.9751C51.2109 72.6742 51.5287 73.3416 51.8647 73.9773ZM59.0331 69.4783V78.0632C57.0038 77.6455 55.088 75.9067 53.558 73.0649C53.222 72.4383 52.9088 71.771 52.6274 71.0674C54.6248 70.1412 56.795 69.5965 59.0331 69.4785V69.4783ZM59.0331 60.9615V67.5534C56.5725 67.6714 54.1846 68.2525 51.9783 69.2514C51.202 66.7454 50.7435 63.9215 50.6663 60.9615H59.0331ZM59.0331 52.4447V59.0366H50.6661C50.7433 56.0766 51.2018 53.2529 51.9781 50.7468C54.1844 51.7455 56.5725 52.3267 59.033 52.4447H59.0331ZM53.558 46.9333C55.088 44.0913 57.0038 42.3525 59.0331 41.935V50.5198C56.795 50.4018 54.625 49.8569 52.6274 48.9309C52.9088 48.2272 53.222 47.5598 53.558 46.9334V46.9333ZM50.9204 48.0228C50.0034 47.469 49.1272 46.8289 48.31 46.1024C50.008 44.6768 51.9646 43.5556 54.1029 42.82C53.2903 43.7007 52.5366 44.7721 51.8647 46.0205C51.5287 46.6516 51.2109 47.3234 50.9204 48.0227V48.0228ZM73.7968 45.4033C73.7605 45.3716 73.7241 45.3397 73.6833 45.3125C70.0922 41.9667 65.28 39.9146 60.0002 39.9146C54.7203 39.9146 49.8945 41.9667 46.3124 45.3125C46.2716 45.3397 46.2352 45.3716 46.1989 45.4033C46.1852 45.4169 46.1716 45.435 46.158 45.4533C42.3128 49.1124 39.9111 54.2787 39.9111 59.999C39.9111 65.7193 42.3127 70.8856 46.158 74.5447C46.1716 74.5628 46.1852 74.5764 46.1989 74.5947C46.2352 74.6264 46.2716 74.6582 46.3124 74.6855C49.8943 78.0313 54.7067 80.0834 60.0002 80.0834C65.2936 80.0834 70.0922 78.0313 73.6833 74.6855C73.7241 74.6582 73.7605 74.6265 73.7968 74.5947C73.8104 74.5766 73.8149 74.563 73.8285 74.5447C77.6828 70.8856 80.0799 65.7193 80.0799 59.999C80.0799 54.2787 77.6828 49.1124 73.8285 45.4533C73.8149 45.4352 73.8104 45.4169 73.7968 45.4033Z" stroke="#111111" stroke-width="0.41" mask="url(#path-13-outside-1_2139_42533)"/>
</g>
<defs>
<clipPath id="clip0_2139_42533">
<rect width="120" height="120" rx="60" fill="white"/>
</clipPath>
</defs>
</svg>
