<svg width="120" height="120" viewBox="0 0 120 120" fill="none" xmlns="http://www.w3.org/2000/svg">
<g clip-path="url(#clip0_2139_42587)">
<rect width="120" height="120" rx="60" fill="#63DD1E"/>
<circle cx="48.75" cy="28.125" r="76.875" fill="#C3F63C"/>
<g clip-path="url(#clip1_2139_42587)">
<path d="M63.1052 92.9622C55.3877 92.9622 47.749 90.2622 41.7302 85.1659C41.269 84.7722 41.2127 84.0859 41.6065 83.6247C41.989 83.1634 42.6865 83.1072 43.1477 83.5009C51.4615 90.5434 62.5877 92.6697 72.904 89.1709C88.9015 83.7709 97.5865 66.3334 92.2652 50.3022C92.2315 50.1897 92.209 50.0772 92.209 49.9534C92.209 49.3459 92.6927 48.8622 93.3002 48.8622C93.8177 48.8622 94.2452 49.2109 94.3577 49.6947C100.005 66.8397 90.7127 85.4697 73.6015 91.2409C70.1815 92.3997 66.6265 92.9622 63.1052 92.9622ZM34.204 74.7034C33.7652 74.7034 33.3827 74.4559 33.2027 74.0734C32.6852 72.9709 32.224 71.8009 31.8077 70.5859C30.289 66.0747 29.7602 61.4059 30.244 56.7147C30.289 56.2197 30.3565 55.7022 30.4352 55.2072C32.2352 42.8884 40.6952 32.7634 52.474 28.7809C59.1452 26.5197 66.2102 26.4522 72.9152 28.5672C72.9602 28.5784 72.994 28.5897 73.0277 28.6009L73.4552 28.7359C79.024 30.5922 84.019 33.9222 87.8777 38.3434C88.2715 38.7934 88.2265 39.4909 87.7765 39.8847C87.3265 40.2784 86.629 40.2334 86.2352 39.7834C82.624 35.6547 77.9665 32.5497 72.7577 30.8059L72.6002 30.7497C72.5215 30.7272 72.454 30.7047 72.3752 30.6822C72.3527 30.6822 72.3415 30.6709 72.319 30.6709C66.0415 28.6797 59.4265 28.7359 53.1715 30.8509C42.169 34.5634 34.2715 44.0247 32.584 55.5334C32.5165 55.9947 32.449 56.4447 32.4152 56.9172C31.9652 61.3159 32.4602 65.6697 33.8777 69.8772C34.2602 70.9909 34.6877 72.0597 35.149 73.0722C35.239 73.2297 35.2952 73.4209 35.2952 73.6122C35.284 74.2084 34.8002 74.7034 34.204 74.7034Z" fill="#111111"/>
<path d="M72.3083 86.8209C72.027 86.8209 71.7458 86.7872 71.4758 86.7197C69.687 86.2809 68.7533 84.5934 68.337 83.5697C66.1433 83.5022 64.3995 84.2784 63.3195 84.7622C62.667 85.0547 62.1045 85.3022 61.6095 85.2234C61.0808 85.3022 59.7758 85.5159 59.5508 85.5609C59.3145 85.6172 59.067 85.5947 58.842 85.4934C58.3808 85.2909 58.167 84.8859 58.212 84.2784C58.3358 82.2084 58.2795 81.3309 58.2233 80.9934C58.0658 80.8472 57.9533 80.6447 57.9083 80.4084C57.7958 79.8122 58.1783 79.2497 58.7745 79.1259C59.1458 79.0584 59.5283 79.1597 59.8208 79.4072C60.237 79.7672 60.552 80.3072 60.4508 83.1534C60.9233 83.0747 61.4183 83.0184 61.7783 83.0297C61.9133 82.9847 62.1945 82.8609 62.4308 82.7484C63.7358 82.1634 66.1658 81.0722 69.2708 81.4209C69.7208 81.4772 70.092 81.7922 70.2045 82.2309C70.3508 82.7597 70.992 84.3234 72.0158 84.5709C72.8933 84.7847 74.1758 84.0309 75.6045 82.4559C75.6945 82.3547 75.807 82.2647 75.942 82.2084C76.4258 81.9722 76.482 81.7134 76.4258 81.3872C76.1895 80.0484 73.4333 77.3147 67.842 76.7409C67.2458 76.6847 66.807 76.1447 66.8633 75.5484C66.9308 74.9522 67.4595 74.5134 68.0558 74.5697C74.2658 75.1997 78.102 78.3609 78.5633 81.0047C78.7883 82.2872 78.237 83.4234 77.0783 84.0647C75.3795 85.9097 73.782 86.8209 72.3083 86.8209ZM61.8008 83.0634C61.9133 83.0747 62.0145 83.0859 62.1045 83.1084C61.992 83.0747 61.8795 83.0634 61.8008 83.0634ZM65.052 65.9409C64.9508 65.9409 64.8495 65.9297 64.7483 65.8959C64.1633 65.7272 63.837 65.1309 63.9945 64.5459C64.3095 63.4434 64.6245 62.7009 64.647 62.6672C65.1645 61.0922 64.962 59.5284 64.647 58.3809C64.0958 58.9434 63.477 59.3259 62.7908 59.5059C62.1608 59.6747 61.587 59.6522 61.092 59.5622C60.5858 61.2497 59.3033 63.1622 57.8408 64.2422C56.4458 65.2659 55.3433 65.1872 54.6683 64.9284C54.5108 64.8722 54.3758 64.7822 54.252 64.6584C52.3845 62.6784 50.6633 58.3922 50.5845 58.2122C50.4158 57.7847 50.5283 57.3009 50.8658 56.9972C51.777 56.1872 51.6533 55.0284 51.462 54.3197C49.9995 54.1734 49.0433 53.1497 48.672 52.4634C48.5258 52.1822 48.5033 51.8447 48.6158 51.5522C48.8183 51.0347 48.897 50.2134 48.9195 49.5272C47.9858 49.4147 46.9395 48.9534 46.377 47.7384C46.2645 47.5022 46.2533 47.2434 46.3208 46.9959C46.3208 46.9959 46.5908 45.9384 46.1408 44.7347C45.3645 42.5972 48.402 39.7622 49.347 38.9409C53.4308 35.9034 56.4345 37.2872 58.4145 38.2097C58.7745 38.3784 59.112 38.5359 59.4383 38.6597C61.1258 37.3322 61.0583 36.3759 60.9908 35.4534C60.9458 34.7672 60.8895 33.9122 61.5533 33.1922C62.442 32.2359 64.242 31.9097 68.6745 31.8984C68.7308 31.8984 68.787 31.8984 68.8433 31.9097C69.2595 31.9772 72.927 32.6072 74.2658 34.8009C74.6708 35.4647 74.817 36.1959 74.727 36.9722C75.537 37.6809 76.347 38.5472 76.5383 39.2784C76.6958 39.7847 77.2583 41.8209 76.0545 43.0022C75.3008 43.7334 74.1533 43.8797 72.6458 43.4184C72.162 43.6322 71.0933 44.2397 70.587 45.7472C71.1158 45.8372 71.7008 46.0509 72.1958 46.5009C72.6908 46.9509 73.242 47.8059 73.1295 49.3134C73.242 49.9772 73.6695 51.5634 74.5583 52.0134C75.0195 52.2384 75.6495 52.1372 76.4258 51.7097C77.517 51.1134 78.867 50.7872 80.3295 50.7534L80.3633 52.9359H80.352C79.2608 52.9584 78.2483 53.2059 77.4608 53.6222C75.6608 54.6122 74.3445 54.3534 73.557 53.9484C71.4308 52.8684 70.9808 49.8197 70.9358 49.4822C70.9245 49.4034 70.9245 49.3134 70.9358 49.2347C70.9808 48.8522 70.9695 48.3572 70.722 48.1209C70.4183 47.8397 69.732 47.8509 69.4508 47.9072C69.102 47.9634 68.7645 47.8622 68.5058 47.6372C68.2583 47.4009 68.1233 47.0634 68.157 46.7259C68.6183 42.1809 72.2183 41.2472 72.3645 41.2134C72.567 41.1684 72.792 41.1684 72.9945 41.2472C74.052 41.6184 74.4683 41.5059 74.5245 41.4609C74.682 41.3034 74.6483 40.5159 74.457 39.9422C74.4458 39.8972 74.4345 39.8522 74.4233 39.8072C74.322 39.6272 73.557 38.8397 72.8258 38.2434C72.477 37.9509 72.342 37.4784 72.477 37.0509C72.6233 36.6234 72.6008 36.2859 72.3983 35.9597C71.7345 34.8572 69.4508 34.2497 68.5845 34.1034C64.1408 34.1259 63.297 34.5309 63.1395 34.6997C63.117 34.7672 63.1395 35.1047 63.1508 35.3184C63.2295 36.5334 63.3758 38.5809 60.2483 40.7859C59.9895 40.9659 59.6633 41.0334 59.3483 40.9547C58.7183 40.7972 58.1108 40.5159 57.4808 40.2234C55.5233 39.3122 53.6783 38.4572 50.697 40.6847C49.3583 41.8434 48.0758 43.5309 48.177 44.0259C48.6608 45.3084 48.6045 46.4672 48.5145 47.1084C48.942 47.5697 49.7295 47.3784 49.7408 47.3784C50.0558 47.2997 50.3933 47.3672 50.652 47.5584C50.9108 47.7497 51.0795 48.0534 51.0908 48.3797C51.102 48.6047 51.1808 50.3597 50.832 51.7772C51.0683 52.0134 51.462 52.2609 52.047 52.1822C52.5083 52.1034 52.9695 52.3509 53.1833 52.7672C53.7345 53.8697 54.2858 56.2434 52.8683 58.0772C53.3633 59.2134 54.477 61.6209 55.6133 62.9597C55.8495 62.9484 56.187 62.8022 56.547 62.5322C57.987 61.4747 59.1908 59.2134 59.1345 58.1672C59.112 57.7509 59.3258 57.3572 59.697 57.1547C60.0683 56.9522 60.507 56.9747 60.8445 57.2109C60.8445 57.2109 61.5195 57.6384 62.2395 57.4359C63.0158 57.2222 63.5783 56.3334 63.9045 55.6359C64.0733 55.2647 64.4445 55.0284 64.8495 55.0059C65.277 54.9834 65.637 55.1972 65.8395 55.5572C65.9295 55.7147 68.022 59.4384 66.6833 63.4884C66.6495 63.5897 66.3683 64.2422 66.0983 65.1872C65.9633 65.6259 65.5245 65.9409 65.052 65.9409ZM41.0333 75.1322C40.707 75.1322 40.3808 74.9859 40.167 74.7047C39.8408 74.2772 38.8395 72.9497 38.4683 72.7472C36.9045 71.8809 35.5208 67.2909 34.8345 64.6359C34.812 64.5347 34.8008 64.4222 34.8008 64.3209C34.947 60.7547 38.907 58.9209 39.0758 58.8422C39.402 58.6959 39.7845 58.7184 40.0995 58.8984C40.4033 59.0897 40.6058 59.4159 40.617 59.7759C40.6395 60.1359 41.7308 60.7097 42.8558 60.9572C43.9695 60.7997 45.7695 61.1034 46.5795 62.3297C46.962 62.9147 47.412 64.1747 46.062 66.0084C45.6795 66.5372 45.5333 67.0209 45.6345 67.4822C45.8033 68.3034 46.7033 68.9784 47.0295 69.1697C47.1983 69.2709 47.3558 69.4172 47.4458 69.5972C47.8733 70.3847 48.5933 71.3409 49.0095 71.5209C49.5608 71.7572 49.8195 72.3984 49.572 72.9609C49.3358 73.5122 48.6945 73.7709 48.132 73.5234C47.007 73.0284 46.0395 71.5434 45.657 70.8797C45.0833 70.4859 43.8233 69.4847 43.497 67.9322C43.3395 67.1784 43.3395 66.0084 44.2958 64.7034C44.7458 64.0847 44.847 63.6572 44.757 63.5109C44.5545 63.1959 43.6545 62.9822 43.092 63.1059C42.9458 63.1397 42.7995 63.1397 42.6533 63.1172C42.147 63.0272 40.0883 62.5772 39.0533 61.3509C38.2208 61.9247 37.1295 62.9147 37.0058 64.2309C37.8158 67.3472 38.997 70.4072 39.5595 70.8234C40.1895 71.1722 40.8758 71.9822 41.922 73.3547C42.282 73.8384 42.192 74.5134 41.7195 74.8847C41.4945 75.0534 41.2695 75.1322 41.0333 75.1322Z" fill="#111111"/>
<path d="M41.1237 85.4578C32.4612 85.4578 28.2425 81.7341 26.24 78.6178C22.145 72.2616 23.6975 63.7678 30.6275 54.7003C30.9987 54.2166 31.6737 54.1266 32.1575 54.4978C32.6412 54.8578 32.7312 55.5441 32.36 56.0278C28.7037 60.8316 23.27 69.9891 28.0737 77.4366C29.7837 80.1028 33.44 83.2753 41.1237 83.2753C41.54 83.2753 41.945 83.2641 42.3725 83.2416C50.5625 82.8928 60.7887 79.1128 70.4412 72.8466C78.5075 67.6153 85.235 61.2366 89.3862 54.8916C90.5788 53.0691 91.5462 51.2691 92.2663 49.5253C95.0112 42.8991 93.6275 38.4666 91.985 35.9241C90.275 33.2691 86.6188 30.0966 78.935 30.0966C76.9888 30.0966 74.9412 30.2991 72.8375 30.6928C72.2412 30.8053 71.6787 30.4116 71.5662 29.8153C71.4537 29.2191 71.8475 28.6566 72.4437 28.5441C74.6825 28.1278 76.865 27.9141 78.9463 27.9141C87.62 27.9141 91.8275 31.6266 93.83 34.7428C95.405 37.1841 97.5537 42.4716 94.2912 50.3578C93.5262 52.2253 92.4912 54.1491 91.22 56.0841C86.9112 62.6766 79.9475 69.2803 71.6338 74.6691C61.6662 81.1266 51.035 85.0416 42.4737 85.4128C42.0237 85.4466 41.5737 85.4578 41.1237 85.4578Z" fill="#111111"/>
<path d="M38.7397 75.2541C36.9734 75.2541 35.3534 75.0628 33.9022 74.6578C31.3934 73.9603 29.5259 72.6778 28.3447 70.8666C26.0497 67.3003 26.7809 62.1028 30.3922 56.2416C30.7072 55.7241 31.3822 55.5666 31.8884 55.8816C32.4059 56.1966 32.5634 56.8716 32.2484 57.3778C29.0984 62.4853 28.3672 66.8503 30.1784 69.6741C31.0559 71.0241 32.5072 71.9916 34.4872 72.5428C41.4959 74.4666 53.8147 70.8328 65.1547 63.4753C76.6297 56.0278 84.9997 46.1503 85.9784 38.9053C86.2484 36.9591 85.9447 35.3166 85.1009 34.0003C83.3122 31.2216 79.1047 30.1078 73.2434 30.8391C72.6472 30.9178 72.0959 30.4903 72.0284 29.8941C71.9609 29.3091 72.3772 28.7691 72.9734 28.6903C79.7122 27.8353 84.6734 29.3091 86.9347 32.8303C88.0709 34.5966 88.4759 36.7453 88.1384 39.2091C87.0584 47.1741 78.5084 57.4228 66.3359 65.3203C56.5934 71.6428 46.3672 75.2541 38.7397 75.2541Z" fill="#111111"/>
</g>
</g>
<defs>
<clipPath id="clip0_2139_42587">
<rect width="120" height="120" rx="60" fill="white"/>
</clipPath>
<clipPath id="clip1_2139_42587">
<rect width="72" height="72" fill="white" transform="translate(24 24)"/>
</clipPath>
</defs>
</svg>
