<svg width="62" height="62" viewBox="0 0 62 62" fill="none" xmlns="http://www.w3.org/2000/svg">
<g clip-path="url(#clip0_2629_47487)">
<path d="M33.6733 59.3832C27.0277 59.3832 20.4498 57.0582 15.267 52.6698C14.8698 52.3307 14.8214 51.7398 15.1605 51.3426C15.4898 50.9454 16.0905 50.897 16.4877 51.236C23.6467 57.3004 33.2277 59.1313 42.1111 56.1185C55.8867 51.4685 63.3655 36.4529 58.7833 22.6482C58.7542 22.5513 58.7348 22.4545 58.7348 22.3479C58.7348 21.8248 59.1514 21.4082 59.6745 21.4082C60.1202 21.4082 60.4883 21.7085 60.5852 22.1251C65.4483 36.8888 57.4464 52.9313 42.7117 57.901C39.7667 58.8988 36.7055 59.3832 33.6733 59.3832ZM8.7861 43.6604C8.40828 43.6604 8.07891 43.4473 7.92391 43.1179C7.47828 42.1685 7.0811 41.161 6.72266 40.1148C5.41485 36.2301 4.95953 32.2098 5.3761 28.1701C5.41485 27.7438 5.47297 27.2982 5.54078 26.872C7.09078 16.2642 14.3758 7.5454 24.5186 4.11603C30.2633 2.16884 36.347 2.11072 42.1208 3.93197C42.1595 3.94165 42.1886 3.95134 42.2177 3.96103L42.5858 4.07728C47.3811 5.67572 51.6823 8.54322 55.0052 12.3504C55.3442 12.7379 55.3055 13.3385 54.918 13.6776C54.5305 14.0167 53.9298 13.9779 53.5908 13.5904C50.4811 10.0351 46.4705 7.36134 41.9852 5.85978L41.8495 5.81134C41.7817 5.79197 41.7236 5.77259 41.6558 5.75322C41.6364 5.75322 41.6267 5.74353 41.6073 5.74353C36.2017 4.02884 30.5055 4.07728 25.1192 5.89853C15.6448 9.0954 8.84422 17.2426 7.3911 27.1529C7.33297 27.5501 7.27485 27.9376 7.24578 28.3445C6.85828 32.1323 7.28453 35.8813 8.50516 39.5045C8.83453 40.4635 9.20266 41.3838 9.59985 42.2557C9.67735 42.3913 9.72578 42.556 9.72578 42.7207C9.7161 43.2341 9.29953 43.6604 8.7861 43.6604Z" fill="white"/>
<path d="M41.5989 54.0952C41.3567 54.0952 41.1145 54.0661 40.882 54.008C39.3417 53.6302 38.5377 52.177 38.1792 51.2955C36.2902 51.2373 34.7886 51.9058 33.8586 52.3223C33.2967 52.5742 32.8123 52.7873 32.3861 52.7195C31.9308 52.7873 30.807 52.9714 30.6133 53.0102C30.4098 53.0586 30.1967 53.0392 30.003 52.952C29.6058 52.7777 29.4217 52.4289 29.4605 51.9058C29.567 50.1233 29.5186 49.3677 29.4702 49.077C29.3345 48.9511 29.2377 48.7767 29.1989 48.5733C29.102 48.0598 29.4314 47.5755 29.9448 47.4689C30.2645 47.4108 30.5939 47.498 30.8458 47.7111C31.2042 48.0211 31.4755 48.4861 31.3883 50.937C31.7952 50.8692 32.2214 50.8208 32.5314 50.8305C32.6477 50.7917 32.8898 50.6852 33.0933 50.5883C34.217 50.0845 36.3095 49.1448 38.9833 49.4452C39.3708 49.4936 39.6905 49.7648 39.7873 50.1427C39.9133 50.598 40.4655 51.9445 41.347 52.1577C42.1027 52.3417 43.207 51.6927 44.4373 50.3364C44.5148 50.2492 44.6117 50.1717 44.728 50.1233C45.1445 49.9198 45.193 49.697 45.1445 49.4161C44.9411 48.2633 42.5677 45.9092 37.753 45.4152C37.2395 45.3667 36.8617 44.9017 36.9102 44.3883C36.9683 43.8748 37.4236 43.497 37.937 43.5455C43.2845 44.088 46.588 46.8102 46.9852 49.0867C47.1789 50.1911 46.7042 51.1695 45.7064 51.7217C44.2436 53.3105 42.868 54.0952 41.5989 54.0952ZM32.5508 50.8595C32.6477 50.8692 32.7348 50.8789 32.8123 50.8983C32.7155 50.8692 32.6186 50.8595 32.5508 50.8595ZM35.3505 36.1152C35.2633 36.1152 35.1761 36.1055 35.0889 36.0764C34.5852 35.9311 34.3042 35.4177 34.4398 34.9139C34.7111 33.9645 34.9823 33.3252 35.0017 33.2961C35.4473 31.9398 35.273 30.5933 35.0017 29.6052C34.527 30.0895 33.9942 30.4189 33.4033 30.5739C32.8608 30.7192 32.3667 30.6998 31.9405 30.6223C31.5045 32.0755 30.4002 33.7223 29.1408 34.6523C27.9395 35.5339 26.9902 35.4661 26.4089 35.2433C26.2733 35.1948 26.157 35.1173 26.0505 35.0108C24.4423 33.3058 22.9602 29.6148 22.8923 29.4598C22.747 29.0917 22.8439 28.6752 23.1345 28.4136C23.9192 27.7161 23.8127 26.7183 23.648 26.108C22.3886 25.982 21.5652 25.1005 21.2455 24.5095C21.1195 24.2673 21.1002 23.9767 21.197 23.7248C21.3714 23.2792 21.4392 22.572 21.4586 21.9811C20.6545 21.8842 19.7536 21.487 19.2692 20.4408C19.1723 20.2373 19.1627 20.0145 19.2208 19.8014C19.2208 19.8014 19.4533 18.8908 19.0658 17.8542C18.3973 16.0136 21.013 13.5723 21.8267 12.8652C25.3433 10.2495 27.9298 11.4411 29.6348 12.2355C29.9448 12.3808 30.2355 12.5164 30.5164 12.623C31.9695 11.4798 31.9114 10.6564 31.8533 9.86203C31.8145 9.27109 31.7661 8.53484 32.3377 7.91484C33.103 7.09141 34.653 6.81047 38.4698 6.80078C38.5183 6.80078 38.5667 6.80078 38.6152 6.81047C38.9736 6.86859 42.1317 7.41109 43.2845 9.30016C43.6333 9.87172 43.7592 10.5014 43.6817 11.1698C44.3792 11.7802 45.0767 12.5261 45.2414 13.1558C45.377 13.5917 45.8614 15.3452 44.8248 16.3623C44.1758 16.992 43.1877 17.118 41.8895 16.7208C41.473 16.9048 40.5527 17.428 40.1167 18.7261C40.572 18.8036 41.0758 18.9877 41.502 19.3752C41.9283 19.7627 42.403 20.4989 42.3061 21.797C42.403 22.3686 42.7711 23.7345 43.5364 24.122C43.9336 24.3158 44.4761 24.2286 45.1445 23.8605C46.0842 23.347 47.2467 23.0661 48.5061 23.037L48.5352 24.9164H48.5255C47.5858 24.9358 46.7139 25.1489 46.0358 25.5073C44.4858 26.3598 43.3523 26.137 42.6742 25.7883C40.8433 24.8583 40.4558 22.233 40.417 21.9423C40.4073 21.8745 40.4073 21.797 40.417 21.7292C40.4558 21.3998 40.4461 20.9736 40.233 20.7702C39.9714 20.528 39.3805 20.5377 39.1383 20.5861C38.838 20.6345 38.5473 20.5473 38.3245 20.3536C38.1114 20.1502 37.9952 19.8595 38.0242 19.5689C38.4214 15.6552 41.5214 14.8511 41.6473 14.822C41.8217 14.7833 42.0155 14.7833 42.1898 14.8511C43.1005 15.1708 43.4589 15.0739 43.5073 15.0352C43.643 14.8995 43.6139 14.2214 43.4492 13.7273C43.4395 13.6886 43.4298 13.6498 43.4202 13.6111C43.333 13.4561 42.6742 12.778 42.0445 12.2645C41.7442 12.0127 41.628 11.6058 41.7442 11.2377C41.8702 10.8695 41.8508 10.5789 41.6764 10.298C41.1048 9.34859 39.1383 8.82547 38.3923 8.69953C34.5658 8.71891 33.8392 9.06766 33.7036 9.21297C33.6842 9.27109 33.7036 9.56172 33.7133 9.74578C33.7811 10.792 33.907 12.5552 31.2139 14.4539C30.9911 14.6089 30.7102 14.667 30.4389 14.5992C29.8964 14.4636 29.3733 14.2214 28.8308 13.9695C27.1452 13.1848 25.5564 12.4486 22.9892 14.3667C21.8364 15.3645 20.732 16.8177 20.8192 17.2439C21.2358 18.3483 21.1873 19.3461 21.1098 19.8983C21.478 20.2955 22.1561 20.1308 22.1658 20.1308C22.437 20.063 22.7277 20.1211 22.9505 20.2858C23.1733 20.4505 23.3186 20.712 23.3283 20.993C23.338 21.1867 23.4058 22.698 23.1055 23.9186C23.3089 24.122 23.648 24.3352 24.1517 24.2673C24.5489 24.1995 24.9461 24.4127 25.1302 24.7711C25.6048 25.7205 26.0795 27.7645 24.8589 29.3436C25.2852 30.322 26.2442 32.3952 27.2227 33.548C27.4261 33.5383 27.7167 33.4123 28.0267 33.1798C29.2667 32.2692 30.3033 30.322 30.2548 29.4211C30.2355 29.0627 30.4195 28.7236 30.7392 28.5492C31.0589 28.3748 31.4367 28.3942 31.7273 28.5977C31.7273 28.5977 32.3086 28.9658 32.9286 28.7914C33.597 28.6073 34.0814 27.842 34.3623 27.2414C34.5077 26.9217 34.8273 26.7183 35.1761 26.6989C35.5442 26.6795 35.8542 26.8636 36.0286 27.1736C36.1061 27.3092 37.908 30.5158 36.7552 34.0033C36.7261 34.0905 36.4839 34.6523 36.2514 35.4661C36.1352 35.8439 35.7573 36.1152 35.3505 36.1152ZM14.6677 44.0298C14.3867 44.0298 14.1058 43.9039 13.9217 43.6617C13.6408 43.2936 12.7786 42.1505 12.4589 41.9761C11.1123 41.2302 9.92078 37.2777 9.32984 34.9914C9.31047 34.9042 9.30078 34.8073 9.30078 34.7202C9.42672 31.6492 12.8367 30.0702 12.982 30.0023C13.263 29.8764 13.5923 29.8958 13.8636 30.0508C14.1252 30.2155 14.2995 30.4964 14.3092 30.8064C14.3286 31.1164 15.2683 31.6105 16.237 31.8236C17.1961 31.688 18.7461 31.9495 19.4436 33.0055C19.773 33.5092 20.1605 34.5942 18.998 36.1733C18.6686 36.6286 18.5427 37.0452 18.6298 37.4423C18.7752 38.1495 19.5502 38.7308 19.8311 38.8955C19.9764 38.9827 20.112 39.1086 20.1895 39.2636C20.5577 39.9417 21.1777 40.7652 21.5361 40.9202C22.0108 41.1236 22.2336 41.6758 22.0205 42.1602C21.817 42.6348 21.2648 42.8577 20.7805 42.6445C19.8117 42.2183 18.9786 40.9395 18.6492 40.368C18.1552 40.0289 17.0702 39.1667 16.7892 37.8298C16.6536 37.1808 16.6536 36.1733 17.477 35.0495C17.8645 34.5167 17.9517 34.1486 17.8742 34.0227C17.6998 33.7514 16.9248 33.5673 16.4405 33.6739C16.3145 33.703 16.1886 33.703 16.0627 33.6836C15.6267 33.6061 13.8539 33.2186 12.9627 32.1627C12.2458 32.6567 11.3061 33.5092 11.1995 34.6427C11.897 37.3261 12.9142 39.9611 13.3986 40.3195C13.9411 40.6198 14.532 41.3173 15.433 42.4992C15.743 42.9158 15.6655 43.497 15.2586 43.8167C15.0648 43.962 14.8711 44.0298 14.6677 44.0298Z" fill="white"/>
<path d="M14.7455 52.9227C7.28608 52.9227 3.65326 49.7161 1.92889 47.0327C-1.59736 41.5592 -0.260487 34.2452 5.70701 26.437C6.0267 26.0205 6.60795 25.943 7.02451 26.2627C7.44108 26.5727 7.51858 27.1636 7.19889 27.5802C4.05045 31.7167 -0.628612 39.6023 3.50795 46.0155C4.98045 48.3114 8.12889 51.0433 14.7455 51.0433C15.1039 51.0433 15.4526 51.0336 15.8208 51.0142C22.8733 50.7139 31.6792 47.4589 39.9911 42.063C46.937 37.5583 52.7301 32.0655 56.3048 26.6017C57.3317 25.0323 58.1648 23.4823 58.7848 21.9808C61.1486 16.2748 59.957 12.458 58.5426 10.2686C57.0701 7.98234 53.9217 5.25047 47.3051 5.25047C45.6292 5.25047 43.8661 5.42484 42.0545 5.76391C41.5411 5.86078 41.0567 5.52172 40.9598 5.00828C40.8629 4.49484 41.202 4.01047 41.7155 3.91359C43.6433 3.55516 45.5226 3.37109 47.3148 3.37109C54.7839 3.37109 58.407 6.56797 60.1314 9.25141C61.4876 11.3536 63.338 15.9067 60.5286 22.6977C59.8698 24.3058 58.9786 25.9623 57.8839 27.6286C54.1736 33.3055 48.177 38.992 41.018 43.6323C32.4348 49.193 23.2801 52.5642 15.908 52.8839C15.5205 52.913 15.133 52.9227 14.7455 52.9227Z" fill="white"/>
<path d="M12.6916 44.1368C11.1707 44.1368 9.77569 43.9721 8.526 43.6233C6.36569 43.0227 4.75756 41.9183 3.74038 40.3586C1.76413 37.2877 2.39381 32.8121 5.5035 27.7649C5.77475 27.3193 6.356 27.1836 6.79194 27.4549C7.23756 27.7261 7.37319 28.3074 7.10194 28.7433C4.38944 33.1414 3.75975 36.9002 5.31944 39.3317C6.07506 40.4943 7.32475 41.3274 9.02975 41.8021C15.0651 43.4586 25.6729 40.3296 35.4379 33.9939C45.3191 27.5808 52.5266 19.0752 53.3694 12.8364C53.6019 11.1605 53.3404 9.74613 52.6138 8.6127C51.0735 6.21988 47.4504 5.26082 42.4032 5.89051C41.8898 5.95832 41.4151 5.5902 41.3569 5.07676C41.2988 4.57301 41.6572 4.10801 42.1707 4.0402C47.9735 3.30395 52.2457 4.57301 54.1929 7.6052C55.1713 9.12613 55.5201 10.9764 55.2294 13.098C54.2994 19.9568 46.9369 28.7821 36.4551 35.5827C28.0657 41.0271 19.2598 44.1368 12.6916 44.1368Z" fill="white"/>
</g>
<defs>
<clipPath id="clip0_2629_47487">
<rect width="62" height="62" fill="white"/>
</clipPath>
</defs>
</svg>
