<svg width="62" height="62" viewBox="0 0 62 62" fill="none" xmlns="http://www.w3.org/2000/svg">
<mask id="path-1-outside-1_2629_47475" maskUnits="userSpaceOnUse" x="0.308594" y="2.78125" width="61" height="47" fill="black">
<rect fill="white" x="0.308594" y="2.78125" width="61" height="47"/>
<path d="M31.128 10.3542C29.9842 10.3008 30.096 9.35847 30.0942 8.53321L30.0931 6.41044C30.0929 5.55661 29.7853 4.02937 30.928 3.78125C32.0154 3.83562 31.9052 4.9894 31.907 5.80315L31.9086 8.90594C31.9082 9.16762 31.9575 9.55355 31.8391 9.79077L31.7726 9.91453C31.6172 10.1721 31.41 10.2808 31.128 10.3542ZM26.4184 11.1243C25.9598 11.1849 25.6541 11.1531 25.3965 10.7354C24.9991 10.0912 24.7353 9.31984 24.4057 8.63481C23.9739 7.73714 22.4748 5.81599 23.994 5.32411C24.85 5.3057 25.1691 6.18884 25.499 6.83523L26.4177 8.76232C26.7553 9.48997 27.6369 10.725 26.4184 11.1243ZM36.0786 11.1324C34.4839 11.2317 35.0953 9.84478 35.4611 9.02279L36.4647 6.89736C36.7581 6.29758 36.9676 5.58252 37.6391 5.32495C39.0978 5.18206 38.6579 6.43575 38.2492 7.27856L37.1183 9.73289C36.8792 10.2906 36.7246 10.9309 36.0786 11.1324ZM29.3812 48.7212L3.36465 48.7247C2.44952 48.7241 1.31311 48.7638 1.30862 47.4294C1.30267 45.6638 2.31246 42.6376 3.02276 41.0414C3.7094 39.4985 4.70805 37.9588 6.53326 37.7066C7.10847 37.6272 7.754 37.6779 8.33591 37.6776L10.7957 37.6779C10.834 36.3965 11.2379 35.0862 11.6382 33.8755C12.3142 31.8307 13.3184 29.0535 15.7667 28.7499C16.2101 28.695 16.6875 28.7274 17.1344 28.727L19.305 28.7267C20.588 28.7241 20.3481 29.0133 20.5333 28.1183L20.928 26.5529C21.2625 25.3797 21.6574 24.2276 22.1604 23.1153C23.1055 21.0249 24.0766 19.902 26.4188 19.8999L32.7039 19.8987L34.9627 19.8939C35.5426 19.8923 36.236 19.8166 36.792 19.9844C39.1949 20.7095 39.9537 23.0963 40.653 25.2543C41.0212 26.3905 41.3632 27.5368 41.5475 28.7176C41.9644 28.7457 42.3929 28.7266 42.811 28.7269L45.0449 28.7295C45.5139 28.7304 46.0655 28.6776 46.5181 28.7981C48.8284 29.4129 49.6591 31.785 50.3378 33.8405C50.7589 35.1157 51.088 36.3551 51.289 37.6787L53.8448 37.6778C55.5025 37.6776 56.7172 37.6992 57.8898 39.152C59.3409 40.9495 60.1365 43.9916 60.5715 46.1905C60.6653 46.665 60.7992 47.2279 60.7394 47.7075L60.7317 47.7621C60.5753 48.9031 59.5425 48.7217 58.6937 48.7219L29.3812 48.7212ZM25.9374 21.6731L25.722 21.7093C24.2407 21.9713 23.5911 24.0373 23.1897 25.2538L22.3172 28.2777C22.2884 28.4108 22.2763 28.6172 22.2108 28.7352L36.0187 28.7295L39.7682 28.6752C39.7008 28.4391 39.6878 28.1833 39.6249 27.9418L38.9742 25.7693C38.6357 24.7226 38.2943 23.5748 37.6421 22.677C36.7849 21.497 36.096 21.6691 34.8114 21.669L25.9374 21.6731ZM41.0171 30.5076L36.3867 30.5102C35.8072 30.5132 35.5271 30.5435 35.0972 30.9755C33.8513 32.2274 33.0309 35.0573 32.6767 36.7637L32.5312 37.686L40.9826 37.675L49.483 37.679L49.3156 36.6824C48.9611 35.0603 48.0642 31.2311 46.3495 30.5969L46.2974 30.5771C45.9729 30.4588 45.5515 30.5065 45.2092 30.5057L41.0171 30.5076ZM16.2658 30.5115C15.6543 30.5611 15.276 30.6745 14.8604 31.1472C13.6191 32.5592 12.86 35.8824 12.5827 37.6601L25.8304 37.675L29.4505 37.6238C29.3901 37.474 29.3799 37.2809 29.3461 37.1204L29.086 35.9698C28.756 34.5948 27.7021 30.6337 25.8998 30.5287L16.2658 30.5115ZM28.7954 30.5076C29.3283 31.4492 29.8098 32.4249 30.1632 33.4467L30.5688 34.7143C30.6905 35.1293 30.7794 35.6117 31.0085 35.9798C31.1693 35.7383 31.2152 35.4547 31.2796 35.176L31.5105 34.2534C31.9246 32.9108 32.4387 31.7169 33.1891 30.5293L28.7954 30.5076ZM19.4037 39.4246C20.1536 40.6019 20.6311 41.822 21.0149 43.178L21.2406 44.0477C21.2747 44.198 21.2868 44.3636 21.3436 44.5063L21.7412 42.8869C22.1157 41.6279 22.534 40.4762 23.319 39.4196L19.4037 39.4246ZM26.3718 39.4225L26.2253 39.4325C24.3082 39.6272 23.2729 43.6182 22.893 45.2306L22.6252 46.4004C22.5869 46.5715 22.56 46.8435 22.4604 46.9846L35.6478 46.9749L39.5501 46.9369C39.4832 46.7723 39.4537 46.5908 39.4106 46.4184L38.4757 42.9459C38.0758 41.7498 37.5478 40.1027 36.2836 39.5624C35.7752 39.3452 35.1372 39.4279 34.5977 39.4268L26.3718 39.4225ZM38.7477 39.4246C39.6121 40.5965 40.0187 41.9592 40.4183 43.3586L40.5892 44.0237C40.6145 44.1322 40.6346 44.2898 40.6908 44.3843L41.104 42.8118C41.3966 41.819 41.9114 40.2285 42.5861 39.4206L38.7477 39.4246ZM49.2026 39.4246L45.8773 39.4338C44.1663 39.4802 43.5463 41.2099 43.0591 42.5841C42.7273 43.5197 42.4403 44.4644 42.2018 45.4282L41.9261 46.5232C41.8866 46.6745 41.8815 46.8227 41.8034 46.9609C41.8601 47.0026 50.6747 46.9711 51.4341 46.9749L58.0969 46.9738C58.3667 46.9737 58.6559 46.9946 58.9237 46.9663L58.9158 46.9392C58.8695 46.7776 58.861 46.6136 58.8281 46.4497L58.6376 45.6116C58.2393 43.9266 57.3763 40.5815 55.8705 39.7208C55.0297 39.2403 53.9955 39.4265 53.062 39.4266L49.2026 39.4246ZM7.02165 39.4311L6.89431 39.462C4.80541 39.7003 3.8314 43.7388 3.43345 45.4755L3.22277 46.4674C3.19086 46.6312 3.18383 46.8125 3.11359 46.9643C3.49529 47.0206 3.9443 46.9753 4.33208 46.9753L16.4242 46.9749L20.2361 46.9348C20.1662 46.843 20.1555 46.7089 20.123 46.5998L19.8291 45.4787C19.463 43.984 18.5219 39.8829 16.7428 39.5446C16.0673 39.4161 15.4001 39.4276 14.7158 39.4274L7.02165 39.4311Z"/>
</mask>
<path d="M31.128 10.3542C29.9842 10.3008 30.096 9.35847 30.0942 8.53321L30.0931 6.41044C30.0929 5.55661 29.7853 4.02937 30.928 3.78125C32.0154 3.83562 31.9052 4.9894 31.907 5.80315L31.9086 8.90594C31.9082 9.16762 31.9575 9.55355 31.8391 9.79077L31.7726 9.91453C31.6172 10.1721 31.41 10.2808 31.128 10.3542ZM26.4184 11.1243C25.9598 11.1849 25.6541 11.1531 25.3965 10.7354C24.9991 10.0912 24.7353 9.31984 24.4057 8.63481C23.9739 7.73714 22.4748 5.81599 23.994 5.32411C24.85 5.3057 25.1691 6.18884 25.499 6.83523L26.4177 8.76232C26.7553 9.48997 27.6369 10.725 26.4184 11.1243ZM36.0786 11.1324C34.4839 11.2317 35.0953 9.84478 35.4611 9.02279L36.4647 6.89736C36.7581 6.29758 36.9676 5.58252 37.6391 5.32495C39.0978 5.18206 38.6579 6.43575 38.2492 7.27856L37.1183 9.73289C36.8792 10.2906 36.7246 10.9309 36.0786 11.1324ZM29.3812 48.7212L3.36465 48.7247C2.44952 48.7241 1.31311 48.7638 1.30862 47.4294C1.30267 45.6638 2.31246 42.6376 3.02276 41.0414C3.7094 39.4985 4.70805 37.9588 6.53326 37.7066C7.10847 37.6272 7.754 37.6779 8.33591 37.6776L10.7957 37.6779C10.834 36.3965 11.2379 35.0862 11.6382 33.8755C12.3142 31.8307 13.3184 29.0535 15.7667 28.7499C16.2101 28.695 16.6875 28.7274 17.1344 28.727L19.305 28.7267C20.588 28.7241 20.3481 29.0133 20.5333 28.1183L20.928 26.5529C21.2625 25.3797 21.6574 24.2276 22.1604 23.1153C23.1055 21.0249 24.0766 19.902 26.4188 19.8999L32.7039 19.8987L34.9627 19.8939C35.5426 19.8923 36.236 19.8166 36.792 19.9844C39.1949 20.7095 39.9537 23.0963 40.653 25.2543C41.0212 26.3905 41.3632 27.5368 41.5475 28.7176C41.9644 28.7457 42.3929 28.7266 42.811 28.7269L45.0449 28.7295C45.5139 28.7304 46.0655 28.6776 46.5181 28.7981C48.8284 29.4129 49.6591 31.785 50.3378 33.8405C50.7589 35.1157 51.088 36.3551 51.289 37.6787L53.8448 37.6778C55.5025 37.6776 56.7172 37.6992 57.8898 39.152C59.3409 40.9495 60.1365 43.9916 60.5715 46.1905C60.6653 46.665 60.7992 47.2279 60.7394 47.7075L60.7317 47.7621C60.5753 48.9031 59.5425 48.7217 58.6937 48.7219L29.3812 48.7212ZM25.9374 21.6731L25.722 21.7093C24.2407 21.9713 23.5911 24.0373 23.1897 25.2538L22.3172 28.2777C22.2884 28.4108 22.2763 28.6172 22.2108 28.7352L36.0187 28.7295L39.7682 28.6752C39.7008 28.4391 39.6878 28.1833 39.6249 27.9418L38.9742 25.7693C38.6357 24.7226 38.2943 23.5748 37.6421 22.677C36.7849 21.497 36.096 21.6691 34.8114 21.669L25.9374 21.6731ZM41.0171 30.5076L36.3867 30.5102C35.8072 30.5132 35.5271 30.5435 35.0972 30.9755C33.8513 32.2274 33.0309 35.0573 32.6767 36.7637L32.5312 37.686L40.9826 37.675L49.483 37.679L49.3156 36.6824C48.9611 35.0603 48.0642 31.2311 46.3495 30.5969L46.2974 30.5771C45.9729 30.4588 45.5515 30.5065 45.2092 30.5057L41.0171 30.5076ZM16.2658 30.5115C15.6543 30.5611 15.276 30.6745 14.8604 31.1472C13.6191 32.5592 12.86 35.8824 12.5827 37.6601L25.8304 37.675L29.4505 37.6238C29.3901 37.474 29.3799 37.2809 29.3461 37.1204L29.086 35.9698C28.756 34.5948 27.7021 30.6337 25.8998 30.5287L16.2658 30.5115ZM28.7954 30.5076C29.3283 31.4492 29.8098 32.4249 30.1632 33.4467L30.5688 34.7143C30.6905 35.1293 30.7794 35.6117 31.0085 35.9798C31.1693 35.7383 31.2152 35.4547 31.2796 35.176L31.5105 34.2534C31.9246 32.9108 32.4387 31.7169 33.1891 30.5293L28.7954 30.5076ZM19.4037 39.4246C20.1536 40.6019 20.6311 41.822 21.0149 43.178L21.2406 44.0477C21.2747 44.198 21.2868 44.3636 21.3436 44.5063L21.7412 42.8869C22.1157 41.6279 22.534 40.4762 23.319 39.4196L19.4037 39.4246ZM26.3718 39.4225L26.2253 39.4325C24.3082 39.6272 23.2729 43.6182 22.893 45.2306L22.6252 46.4004C22.5869 46.5715 22.56 46.8435 22.4604 46.9846L35.6478 46.9749L39.5501 46.9369C39.4832 46.7723 39.4537 46.5908 39.4106 46.4184L38.4757 42.9459C38.0758 41.7498 37.5478 40.1027 36.2836 39.5624C35.7752 39.3452 35.1372 39.4279 34.5977 39.4268L26.3718 39.4225ZM38.7477 39.4246C39.6121 40.5965 40.0187 41.9592 40.4183 43.3586L40.5892 44.0237C40.6145 44.1322 40.6346 44.2898 40.6908 44.3843L41.104 42.8118C41.3966 41.819 41.9114 40.2285 42.5861 39.4206L38.7477 39.4246ZM49.2026 39.4246L45.8773 39.4338C44.1663 39.4802 43.5463 41.2099 43.0591 42.5841C42.7273 43.5197 42.4403 44.4644 42.2018 45.4282L41.9261 46.5232C41.8866 46.6745 41.8815 46.8227 41.8034 46.9609C41.8601 47.0026 50.6747 46.9711 51.4341 46.9749L58.0969 46.9738C58.3667 46.9737 58.6559 46.9946 58.9237 46.9663L58.9158 46.9392C58.8695 46.7776 58.861 46.6136 58.8281 46.4497L58.6376 45.6116C58.2393 43.9266 57.3763 40.5815 55.8705 39.7208C55.0297 39.2403 53.9955 39.4265 53.062 39.4266L49.2026 39.4246ZM7.02165 39.4311L6.89431 39.462C4.80541 39.7003 3.8314 43.7388 3.43345 45.4755L3.22277 46.4674C3.19086 46.6312 3.18383 46.8125 3.11359 46.9643C3.49529 47.0206 3.9443 46.9753 4.33208 46.9753L16.4242 46.9749L20.2361 46.9348C20.1662 46.843 20.1555 46.7089 20.123 46.5998L19.8291 45.4787C19.463 43.984 18.5219 39.8829 16.7428 39.5446C16.0673 39.4161 15.4001 39.4276 14.7158 39.4274L7.02165 39.4311Z" fill="white"/>
<path d="M31.128 10.3542C29.9842 10.3008 30.096 9.35847 30.0942 8.53321L30.0931 6.41044C30.0929 5.55661 29.7853 4.02937 30.928 3.78125C32.0154 3.83562 31.9052 4.9894 31.907 5.80315L31.9086 8.90594C31.9082 9.16762 31.9575 9.55355 31.8391 9.79077L31.7726 9.91453C31.6172 10.1721 31.41 10.2808 31.128 10.3542ZM26.4184 11.1243C25.9598 11.1849 25.6541 11.1531 25.3965 10.7354C24.9991 10.0912 24.7353 9.31984 24.4057 8.63481C23.9739 7.73714 22.4748 5.81599 23.994 5.32411C24.85 5.3057 25.1691 6.18884 25.499 6.83523L26.4177 8.76232C26.7553 9.48997 27.6369 10.725 26.4184 11.1243ZM36.0786 11.1324C34.4839 11.2317 35.0953 9.84478 35.4611 9.02279L36.4647 6.89736C36.7581 6.29758 36.9676 5.58252 37.6391 5.32495C39.0978 5.18206 38.6579 6.43575 38.2492 7.27856L37.1183 9.73289C36.8792 10.2906 36.7246 10.9309 36.0786 11.1324ZM29.3812 48.7212L3.36465 48.7247C2.44952 48.7241 1.31311 48.7638 1.30862 47.4294C1.30267 45.6638 2.31246 42.6376 3.02276 41.0414C3.7094 39.4985 4.70805 37.9588 6.53326 37.7066C7.10847 37.6272 7.754 37.6779 8.33591 37.6776L10.7957 37.6779C10.834 36.3965 11.2379 35.0862 11.6382 33.8755C12.3142 31.8307 13.3184 29.0535 15.7667 28.7499C16.2101 28.695 16.6875 28.7274 17.1344 28.727L19.305 28.7267C20.588 28.7241 20.3481 29.0133 20.5333 28.1183L20.928 26.5529C21.2625 25.3797 21.6574 24.2276 22.1604 23.1153C23.1055 21.0249 24.0766 19.902 26.4188 19.8999L32.7039 19.8987L34.9627 19.8939C35.5426 19.8923 36.236 19.8166 36.792 19.9844C39.1949 20.7095 39.9537 23.0963 40.653 25.2543C41.0212 26.3905 41.3632 27.5368 41.5475 28.7176C41.9644 28.7457 42.3929 28.7266 42.811 28.7269L45.0449 28.7295C45.5139 28.7304 46.0655 28.6776 46.5181 28.7981C48.8284 29.4129 49.6591 31.785 50.3378 33.8405C50.7589 35.1157 51.088 36.3551 51.289 37.6787L53.8448 37.6778C55.5025 37.6776 56.7172 37.6992 57.8898 39.152C59.3409 40.9495 60.1365 43.9916 60.5715 46.1905C60.6653 46.665 60.7992 47.2279 60.7394 47.7075L60.7317 47.7621C60.5753 48.9031 59.5425 48.7217 58.6937 48.7219L29.3812 48.7212ZM25.9374 21.6731L25.722 21.7093C24.2407 21.9713 23.5911 24.0373 23.1897 25.2538L22.3172 28.2777C22.2884 28.4108 22.2763 28.6172 22.2108 28.7352L36.0187 28.7295L39.7682 28.6752C39.7008 28.4391 39.6878 28.1833 39.6249 27.9418L38.9742 25.7693C38.6357 24.7226 38.2943 23.5748 37.6421 22.677C36.7849 21.497 36.096 21.6691 34.8114 21.669L25.9374 21.6731ZM41.0171 30.5076L36.3867 30.5102C35.8072 30.5132 35.5271 30.5435 35.0972 30.9755C33.8513 32.2274 33.0309 35.0573 32.6767 36.7637L32.5312 37.686L40.9826 37.675L49.483 37.679L49.3156 36.6824C48.9611 35.0603 48.0642 31.2311 46.3495 30.5969L46.2974 30.5771C45.9729 30.4588 45.5515 30.5065 45.2092 30.5057L41.0171 30.5076ZM16.2658 30.5115C15.6543 30.5611 15.276 30.6745 14.8604 31.1472C13.6191 32.5592 12.86 35.8824 12.5827 37.6601L25.8304 37.675L29.4505 37.6238C29.3901 37.474 29.3799 37.2809 29.3461 37.1204L29.086 35.9698C28.756 34.5948 27.7021 30.6337 25.8998 30.5287L16.2658 30.5115ZM28.7954 30.5076C29.3283 31.4492 29.8098 32.4249 30.1632 33.4467L30.5688 34.7143C30.6905 35.1293 30.7794 35.6117 31.0085 35.9798C31.1693 35.7383 31.2152 35.4547 31.2796 35.176L31.5105 34.2534C31.9246 32.9108 32.4387 31.7169 33.1891 30.5293L28.7954 30.5076ZM19.4037 39.4246C20.1536 40.6019 20.6311 41.822 21.0149 43.178L21.2406 44.0477C21.2747 44.198 21.2868 44.3636 21.3436 44.5063L21.7412 42.8869C22.1157 41.6279 22.534 40.4762 23.319 39.4196L19.4037 39.4246ZM26.3718 39.4225L26.2253 39.4325C24.3082 39.6272 23.2729 43.6182 22.893 45.2306L22.6252 46.4004C22.5869 46.5715 22.56 46.8435 22.4604 46.9846L35.6478 46.9749L39.5501 46.9369C39.4832 46.7723 39.4537 46.5908 39.4106 46.4184L38.4757 42.9459C38.0758 41.7498 37.5478 40.1027 36.2836 39.5624C35.7752 39.3452 35.1372 39.4279 34.5977 39.4268L26.3718 39.4225ZM38.7477 39.4246C39.6121 40.5965 40.0187 41.9592 40.4183 43.3586L40.5892 44.0237C40.6145 44.1322 40.6346 44.2898 40.6908 44.3843L41.104 42.8118C41.3966 41.819 41.9114 40.2285 42.5861 39.4206L38.7477 39.4246ZM49.2026 39.4246L45.8773 39.4338C44.1663 39.4802 43.5463 41.2099 43.0591 42.5841C42.7273 43.5197 42.4403 44.4644 42.2018 45.4282L41.9261 46.5232C41.8866 46.6745 41.8815 46.8227 41.8034 46.9609C41.8601 47.0026 50.6747 46.9711 51.4341 46.9749L58.0969 46.9738C58.3667 46.9737 58.6559 46.9946 58.9237 46.9663L58.9158 46.9392C58.8695 46.7776 58.861 46.6136 58.8281 46.4497L58.6376 45.6116C58.2393 43.9266 57.3763 40.5815 55.8705 39.7208C55.0297 39.2403 53.9955 39.4265 53.062 39.4266L49.2026 39.4246ZM7.02165 39.4311L6.89431 39.462C4.80541 39.7003 3.8314 43.7388 3.43345 45.4755L3.22277 46.4674C3.19086 46.6312 3.18383 46.8125 3.11359 46.9643C3.49529 47.0206 3.9443 46.9753 4.33208 46.9753L16.4242 46.9749L20.2361 46.9348C20.1662 46.843 20.1555 46.7089 20.123 46.5998L19.8291 45.4787C19.463 43.984 18.5219 39.8829 16.7428 39.5446C16.0673 39.4161 15.4001 39.4276 14.7158 39.4274L7.02165 39.4311Z" stroke="white" stroke-width="0.15122" mask="url(#path-1-outside-1_2629_47475)"/>
</svg>
