<svg width="120" height="120" viewBox="0 0 120 120" fill="none" xmlns="http://www.w3.org/2000/svg">
<g clip-path="url(#clip0_2139_42573)">
<rect width="120" height="120" rx="60" fill="#63DD1E"/>
<circle cx="48.75" cy="28.125" r="76.875" fill="#C3F63C"/>
<mask id="path-3-outside-1_2139_42573" maskUnits="userSpaceOnUse" x="19.7305" y="23" width="80" height="61" fill="black">
<rect fill="white" x="19.7305" y="23" width="80" height="61"/>
<path d="M60.169 32.6933C58.6562 32.6227 58.8042 31.3763 58.8018 30.2849L58.8004 27.4773C58.8 26.3481 58.3932 24.3282 59.9045 24C61.3427 24.0719 61.1969 25.5979 61.1993 26.6741L61.2014 30.7778C61.2009 31.1239 61.2661 31.6343 61.1095 31.9481L61.0216 32.1118C60.8161 32.4524 60.542 32.5962 60.169 32.6933ZM53.9403 33.7117C53.3337 33.792 52.9293 33.7498 52.5887 33.1975C52.0631 32.3454 51.7142 31.3252 51.2783 30.4192C50.7072 29.232 48.7244 26.6911 50.7338 26.0406C51.8659 26.0162 52.2879 27.1842 52.7242 28.0391L53.9393 30.5879C54.3858 31.5502 55.5517 33.1837 53.9403 33.7117ZM66.7166 33.7224C64.6075 33.8538 65.4161 32.0195 65.8999 30.9324L67.2273 28.1213C67.6153 27.328 67.8924 26.3823 68.7805 26.0417C70.7097 25.8527 70.1279 27.5108 69.5874 28.6255L68.0917 31.8715C67.7755 32.6092 67.571 33.4559 66.7166 33.7224ZM57.8588 83.4367L23.4498 83.4414C22.2394 83.4406 20.7364 83.4931 20.7305 81.7282C20.7226 79.3931 22.0582 75.3906 22.9976 73.2796C23.9057 71.2389 25.2265 69.2025 27.6405 68.8691C28.4013 68.764 29.255 68.8311 30.0247 68.8306L33.2779 68.8311C33.3286 67.1363 33.8628 65.4033 34.3922 63.802C35.2862 61.0976 36.6144 57.4246 39.8524 57.0231C40.4389 56.9504 41.0703 56.9933 41.6614 56.9928L44.5322 56.9923C46.229 56.989 45.9118 57.3714 46.1567 56.1877L46.6788 54.1174C47.1211 52.5656 47.6434 51.0419 48.3087 49.5709C49.5587 46.8061 50.843 45.321 53.9407 45.3182L62.2533 45.3166L65.2407 45.3102C66.0077 45.3081 66.9248 45.208 67.6602 45.43C70.8382 46.389 71.8417 49.5457 72.7666 52.3999C73.2537 53.9026 73.7059 55.4187 73.9497 56.9803C74.5011 57.0175 75.0677 56.9922 75.6208 56.9927L78.5753 56.996C79.1956 56.9973 79.9251 56.9275 80.5236 57.0868C83.5792 57.9 84.6779 61.0373 85.5756 63.7557C86.1325 65.4424 86.5678 67.0816 86.8336 68.8321L90.2139 68.8309C92.4063 68.8306 94.0128 68.8593 95.5637 70.7807C97.4829 73.158 98.5351 77.1815 99.1104 80.0896C99.2345 80.7173 99.4117 81.4617 99.3325 82.096L99.3223 82.1683C99.1155 83.6773 97.7495 83.4373 96.6269 83.4377L57.8588 83.4367ZM53.3041 47.6634L53.0192 47.7113C51.06 48.0579 50.2009 50.7903 49.67 52.3992L48.5161 56.3985C48.478 56.5745 48.4619 56.8476 48.3753 57.0036L66.6374 56.996L71.5964 56.9243C71.5073 56.612 71.49 56.2737 71.4069 55.9542L70.5462 53.081C70.0986 51.6966 69.6471 50.1785 68.7845 48.9911C67.6507 47.4305 66.7396 47.6581 65.0407 47.658L53.3041 47.6634ZM73.2482 59.3478L67.1241 59.3511C66.3576 59.3551 65.9872 59.3952 65.4186 59.9666C63.7708 61.6223 62.6857 65.3652 62.2173 67.6219L62.0249 68.8418L73.2026 68.8273L84.4451 68.8325L84.2236 67.5145C83.7548 65.369 82.5685 60.3047 80.3007 59.4658L80.2318 59.4397C79.8026 59.2832 79.2453 59.3463 78.7925 59.3452L73.2482 59.3478ZM40.5126 59.3529C39.7038 59.4186 39.2035 59.5685 38.6538 60.1937C37.0121 62.0611 36.0082 66.4563 35.6414 68.8076L53.1625 68.8273L57.9504 68.7595C57.8705 68.5614 57.857 68.3059 57.8123 68.0937L57.4683 66.5719C57.0319 64.7534 55.6381 59.5145 53.2543 59.3756L40.5126 59.3529ZM57.084 59.3478C57.7888 60.5931 58.4256 61.8835 58.8931 63.2349L59.4294 64.9114C59.5904 65.4603 59.708 66.0984 60.011 66.5852C60.2237 66.2657 60.2844 65.8906 60.3696 65.5221L60.675 64.3019C61.2226 62.5262 61.9026 60.9471 62.8951 59.3764L57.084 59.3478ZM44.6627 71.1412C45.6546 72.6982 46.2861 74.312 46.7936 76.1054L47.0921 77.2556C47.1373 77.4544 47.1533 77.6735 47.2284 77.8621L47.7542 75.7204C48.2496 74.0552 48.8028 72.532 49.841 71.1346L44.6627 71.1412ZM53.8786 71.1385L53.6848 71.1516C51.1494 71.4091 49.78 76.6876 49.2776 78.82L48.9234 80.3673C48.8727 80.5936 48.8372 80.9533 48.7054 81.1399L66.1469 81.1271L71.3079 81.0768C71.2195 80.8592 71.1804 80.6191 71.1234 80.391L69.887 75.7984C69.358 74.2165 68.6597 72.0381 66.9877 71.3235C66.3154 71.0361 65.4715 71.1455 64.758 71.1441L53.8786 71.1385ZM70.2467 71.1412C71.3899 72.6912 71.9277 74.4934 72.4562 76.3442L72.6822 77.2239C72.7157 77.3674 72.7423 77.5758 72.8166 77.7009L73.363 75.6211C73.7501 74.308 74.431 72.2045 75.3233 71.1359L70.2467 71.1412ZM84.0741 71.1412L79.6762 71.1534C77.4132 71.2147 76.5932 73.5024 75.9489 75.3198C75.5101 76.5574 75.1305 77.8067 74.815 79.0814L74.4503 80.5297C74.3981 80.7297 74.3914 80.9258 74.2881 81.1085C74.3631 81.1638 86.0211 81.1221 87.0255 81.1271L95.8376 81.1257C96.1944 81.1255 96.5769 81.1532 96.9312 81.1157L96.9206 81.0798C96.8594 80.8662 96.8482 80.6492 96.8046 80.4325L96.5527 79.3241C96.0259 77.0955 94.8845 72.6713 92.893 71.5329C91.781 70.8974 90.4131 71.1438 89.1785 71.1439L84.0741 71.1412ZM28.2865 71.1498L28.118 71.1907C25.3553 71.5059 24.0671 76.8471 23.5408 79.144L23.2621 80.4559C23.2199 80.6726 23.2106 80.9123 23.1177 81.113C23.6226 81.1875 24.2164 81.1276 24.7293 81.1276L40.7221 81.1271L45.7636 81.0741C45.6712 80.9527 45.657 80.7752 45.614 80.6309L45.2253 79.1482C44.7412 77.1714 43.4965 71.7474 41.1434 71.2999C40.2501 71.13 39.3676 71.1452 38.4626 71.1449L28.2865 71.1498Z"/>
</mask>
<path d="M60.169 32.6933C58.6562 32.6227 58.8042 31.3763 58.8018 30.2849L58.8004 27.4773C58.8 26.3481 58.3932 24.3282 59.9045 24C61.3427 24.0719 61.1969 25.5979 61.1993 26.6741L61.2014 30.7778C61.2009 31.1239 61.2661 31.6343 61.1095 31.9481L61.0216 32.1118C60.8161 32.4524 60.542 32.5962 60.169 32.6933ZM53.9403 33.7117C53.3337 33.792 52.9293 33.7498 52.5887 33.1975C52.0631 32.3454 51.7142 31.3252 51.2783 30.4192C50.7072 29.232 48.7244 26.6911 50.7338 26.0406C51.8659 26.0162 52.2879 27.1842 52.7242 28.0391L53.9393 30.5879C54.3858 31.5502 55.5517 33.1837 53.9403 33.7117ZM66.7166 33.7224C64.6075 33.8538 65.4161 32.0195 65.8999 30.9324L67.2273 28.1213C67.6153 27.328 67.8924 26.3823 68.7805 26.0417C70.7097 25.8527 70.1279 27.5108 69.5874 28.6255L68.0917 31.8715C67.7755 32.6092 67.571 33.4559 66.7166 33.7224ZM57.8588 83.4367L23.4498 83.4414C22.2394 83.4406 20.7364 83.4931 20.7305 81.7282C20.7226 79.3931 22.0582 75.3906 22.9976 73.2796C23.9057 71.2389 25.2265 69.2025 27.6405 68.8691C28.4013 68.764 29.255 68.8311 30.0247 68.8306L33.2779 68.8311C33.3286 67.1363 33.8628 65.4033 34.3922 63.802C35.2862 61.0976 36.6144 57.4246 39.8524 57.0231C40.4389 56.9504 41.0703 56.9933 41.6614 56.9928L44.5322 56.9923C46.229 56.989 45.9118 57.3714 46.1567 56.1877L46.6788 54.1174C47.1211 52.5656 47.6434 51.0419 48.3087 49.5709C49.5587 46.8061 50.843 45.321 53.9407 45.3182L62.2533 45.3166L65.2407 45.3102C66.0077 45.3081 66.9248 45.208 67.6602 45.43C70.8382 46.389 71.8417 49.5457 72.7666 52.3999C73.2537 53.9026 73.7059 55.4187 73.9497 56.9803C74.5011 57.0175 75.0677 56.9922 75.6208 56.9927L78.5753 56.996C79.1956 56.9973 79.9251 56.9275 80.5236 57.0868C83.5792 57.9 84.6779 61.0373 85.5756 63.7557C86.1325 65.4424 86.5678 67.0816 86.8336 68.8321L90.2139 68.8309C92.4063 68.8306 94.0128 68.8593 95.5637 70.7807C97.4829 73.158 98.5351 77.1815 99.1104 80.0896C99.2345 80.7173 99.4117 81.4617 99.3325 82.096L99.3223 82.1683C99.1155 83.6773 97.7495 83.4373 96.6269 83.4377L57.8588 83.4367ZM53.3041 47.6634L53.0192 47.7113C51.06 48.0579 50.2009 50.7903 49.67 52.3992L48.5161 56.3985C48.478 56.5745 48.4619 56.8476 48.3753 57.0036L66.6374 56.996L71.5964 56.9243C71.5073 56.612 71.49 56.2737 71.4069 55.9542L70.5462 53.081C70.0986 51.6966 69.6471 50.1785 68.7845 48.9911C67.6507 47.4305 66.7396 47.6581 65.0407 47.658L53.3041 47.6634ZM73.2482 59.3478L67.1241 59.3511C66.3576 59.3551 65.9872 59.3952 65.4186 59.9666C63.7708 61.6223 62.6857 65.3652 62.2173 67.6219L62.0249 68.8418L73.2026 68.8273L84.4451 68.8325L84.2236 67.5145C83.7548 65.369 82.5685 60.3047 80.3007 59.4658L80.2318 59.4397C79.8026 59.2832 79.2453 59.3463 78.7925 59.3452L73.2482 59.3478ZM40.5126 59.3529C39.7038 59.4186 39.2035 59.5685 38.6538 60.1937C37.0121 62.0611 36.0082 66.4563 35.6414 68.8076L53.1625 68.8273L57.9504 68.7595C57.8705 68.5614 57.857 68.3059 57.8123 68.0937L57.4683 66.5719C57.0319 64.7534 55.6381 59.5145 53.2543 59.3756L40.5126 59.3529ZM57.084 59.3478C57.7888 60.5931 58.4256 61.8835 58.8931 63.2349L59.4294 64.9114C59.5904 65.4603 59.708 66.0984 60.011 66.5852C60.2237 66.2657 60.2844 65.8906 60.3696 65.5221L60.675 64.3019C61.2226 62.5262 61.9026 60.9471 62.8951 59.3764L57.084 59.3478ZM44.6627 71.1412C45.6546 72.6982 46.2861 74.312 46.7936 76.1054L47.0921 77.2556C47.1373 77.4544 47.1533 77.6735 47.2284 77.8621L47.7542 75.7204C48.2496 74.0552 48.8028 72.532 49.841 71.1346L44.6627 71.1412ZM53.8786 71.1385L53.6848 71.1516C51.1494 71.4091 49.78 76.6876 49.2776 78.82L48.9234 80.3673C48.8727 80.5936 48.8372 80.9533 48.7054 81.1399L66.1469 81.1271L71.3079 81.0768C71.2195 80.8592 71.1804 80.6191 71.1234 80.391L69.887 75.7984C69.358 74.2165 68.6597 72.0381 66.9877 71.3235C66.3154 71.0361 65.4715 71.1455 64.758 71.1441L53.8786 71.1385ZM70.2467 71.1412C71.3899 72.6912 71.9277 74.4934 72.4562 76.3442L72.6822 77.2239C72.7157 77.3674 72.7423 77.5758 72.8166 77.7009L73.363 75.6211C73.7501 74.308 74.431 72.2045 75.3233 71.1359L70.2467 71.1412ZM84.0741 71.1412L79.6762 71.1534C77.4132 71.2147 76.5932 73.5024 75.9489 75.3198C75.5101 76.5574 75.1305 77.8067 74.815 79.0814L74.4503 80.5297C74.3981 80.7297 74.3914 80.9258 74.2881 81.1085C74.3631 81.1638 86.0211 81.1221 87.0255 81.1271L95.8376 81.1257C96.1944 81.1255 96.5769 81.1532 96.9312 81.1157L96.9206 81.0798C96.8594 80.8662 96.8482 80.6492 96.8046 80.4325L96.5527 79.3241C96.0259 77.0955 94.8845 72.6713 92.893 71.5329C91.781 70.8974 90.4131 71.1438 89.1785 71.1439L84.0741 71.1412ZM28.2865 71.1498L28.118 71.1907C25.3553 71.5059 24.0671 76.8471 23.5408 79.144L23.2621 80.4559C23.2199 80.6726 23.2106 80.9123 23.1177 81.113C23.6226 81.1875 24.2164 81.1276 24.7293 81.1276L40.7221 81.1271L45.7636 81.0741C45.6712 80.9527 45.657 80.7752 45.614 80.6309L45.2253 79.1482C44.7412 77.1714 43.4965 71.7474 41.1434 71.2999C40.2501 71.13 39.3676 71.1452 38.4626 71.1449L28.2865 71.1498Z" fill="#111111"/>
<path d="M60.169 32.6933C58.6562 32.6227 58.8042 31.3763 58.8018 30.2849L58.8004 27.4773C58.8 26.3481 58.3932 24.3282 59.9045 24C61.3427 24.0719 61.1969 25.5979 61.1993 26.6741L61.2014 30.7778C61.2009 31.1239 61.2661 31.6343 61.1095 31.9481L61.0216 32.1118C60.8161 32.4524 60.542 32.5962 60.169 32.6933ZM53.9403 33.7117C53.3337 33.792 52.9293 33.7498 52.5887 33.1975C52.0631 32.3454 51.7142 31.3252 51.2783 30.4192C50.7072 29.232 48.7244 26.6911 50.7338 26.0406C51.8659 26.0162 52.2879 27.1842 52.7242 28.0391L53.9393 30.5879C54.3858 31.5502 55.5517 33.1837 53.9403 33.7117ZM66.7166 33.7224C64.6075 33.8538 65.4161 32.0195 65.8999 30.9324L67.2273 28.1213C67.6153 27.328 67.8924 26.3823 68.7805 26.0417C70.7097 25.8527 70.1279 27.5108 69.5874 28.6255L68.0917 31.8715C67.7755 32.6092 67.571 33.4559 66.7166 33.7224ZM57.8588 83.4367L23.4498 83.4414C22.2394 83.4406 20.7364 83.4931 20.7305 81.7282C20.7226 79.3931 22.0582 75.3906 22.9976 73.2796C23.9057 71.2389 25.2265 69.2025 27.6405 68.8691C28.4013 68.764 29.255 68.8311 30.0247 68.8306L33.2779 68.8311C33.3286 67.1363 33.8628 65.4033 34.3922 63.802C35.2862 61.0976 36.6144 57.4246 39.8524 57.0231C40.4389 56.9504 41.0703 56.9933 41.6614 56.9928L44.5322 56.9923C46.229 56.989 45.9118 57.3714 46.1567 56.1877L46.6788 54.1174C47.1211 52.5656 47.6434 51.0419 48.3087 49.5709C49.5587 46.8061 50.843 45.321 53.9407 45.3182L62.2533 45.3166L65.2407 45.3102C66.0077 45.3081 66.9248 45.208 67.6602 45.43C70.8382 46.389 71.8417 49.5457 72.7666 52.3999C73.2537 53.9026 73.7059 55.4187 73.9497 56.9803C74.5011 57.0175 75.0677 56.9922 75.6208 56.9927L78.5753 56.996C79.1956 56.9973 79.9251 56.9275 80.5236 57.0868C83.5792 57.9 84.6779 61.0373 85.5756 63.7557C86.1325 65.4424 86.5678 67.0816 86.8336 68.8321L90.2139 68.8309C92.4063 68.8306 94.0128 68.8593 95.5637 70.7807C97.4829 73.158 98.5351 77.1815 99.1104 80.0896C99.2345 80.7173 99.4117 81.4617 99.3325 82.096L99.3223 82.1683C99.1155 83.6773 97.7495 83.4373 96.6269 83.4377L57.8588 83.4367ZM53.3041 47.6634L53.0192 47.7113C51.06 48.0579 50.2009 50.7903 49.67 52.3992L48.5161 56.3985C48.478 56.5745 48.4619 56.8476 48.3753 57.0036L66.6374 56.996L71.5964 56.9243C71.5073 56.612 71.49 56.2737 71.4069 55.9542L70.5462 53.081C70.0986 51.6966 69.6471 50.1785 68.7845 48.9911C67.6507 47.4305 66.7396 47.6581 65.0407 47.658L53.3041 47.6634ZM73.2482 59.3478L67.1241 59.3511C66.3576 59.3551 65.9872 59.3952 65.4186 59.9666C63.7708 61.6223 62.6857 65.3652 62.2173 67.6219L62.0249 68.8418L73.2026 68.8273L84.4451 68.8325L84.2236 67.5145C83.7548 65.369 82.5685 60.3047 80.3007 59.4658L80.2318 59.4397C79.8026 59.2832 79.2453 59.3463 78.7925 59.3452L73.2482 59.3478ZM40.5126 59.3529C39.7038 59.4186 39.2035 59.5685 38.6538 60.1937C37.0121 62.0611 36.0082 66.4563 35.6414 68.8076L53.1625 68.8273L57.9504 68.7595C57.8705 68.5614 57.857 68.3059 57.8123 68.0937L57.4683 66.5719C57.0319 64.7534 55.6381 59.5145 53.2543 59.3756L40.5126 59.3529ZM57.084 59.3478C57.7888 60.5931 58.4256 61.8835 58.8931 63.2349L59.4294 64.9114C59.5904 65.4603 59.708 66.0984 60.011 66.5852C60.2237 66.2657 60.2844 65.8906 60.3696 65.5221L60.675 64.3019C61.2226 62.5262 61.9026 60.9471 62.8951 59.3764L57.084 59.3478ZM44.6627 71.1412C45.6546 72.6982 46.2861 74.312 46.7936 76.1054L47.0921 77.2556C47.1373 77.4544 47.1533 77.6735 47.2284 77.8621L47.7542 75.7204C48.2496 74.0552 48.8028 72.532 49.841 71.1346L44.6627 71.1412ZM53.8786 71.1385L53.6848 71.1516C51.1494 71.4091 49.78 76.6876 49.2776 78.82L48.9234 80.3673C48.8727 80.5936 48.8372 80.9533 48.7054 81.1399L66.1469 81.1271L71.3079 81.0768C71.2195 80.8592 71.1804 80.6191 71.1234 80.391L69.887 75.7984C69.358 74.2165 68.6597 72.0381 66.9877 71.3235C66.3154 71.0361 65.4715 71.1455 64.758 71.1441L53.8786 71.1385ZM70.2467 71.1412C71.3899 72.6912 71.9277 74.4934 72.4562 76.3442L72.6822 77.2239C72.7157 77.3674 72.7423 77.5758 72.8166 77.7009L73.363 75.6211C73.7501 74.308 74.431 72.2045 75.3233 71.1359L70.2467 71.1412ZM84.0741 71.1412L79.6762 71.1534C77.4132 71.2147 76.5932 73.5024 75.9489 75.3198C75.5101 76.5574 75.1305 77.8067 74.815 79.0814L74.4503 80.5297C74.3981 80.7297 74.3914 80.9258 74.2881 81.1085C74.3631 81.1638 86.0211 81.1221 87.0255 81.1271L95.8376 81.1257C96.1944 81.1255 96.5769 81.1532 96.9312 81.1157L96.9206 81.0798C96.8594 80.8662 96.8482 80.6492 96.8046 80.4325L96.5527 79.3241C96.0259 77.0955 94.8845 72.6713 92.893 71.5329C91.781 70.8974 90.4131 71.1438 89.1785 71.1439L84.0741 71.1412ZM28.2865 71.1498L28.118 71.1907C25.3553 71.5059 24.0671 76.8471 23.5408 79.144L23.2621 80.4559C23.2199 80.6726 23.2106 80.9123 23.1177 81.113C23.6226 81.1875 24.2164 81.1276 24.7293 81.1276L40.7221 81.1271L45.7636 81.0741C45.6712 80.9527 45.657 80.7752 45.614 80.6309L45.2253 79.1482C44.7412 77.1714 43.4965 71.7474 41.1434 71.2999C40.2501 71.13 39.3676 71.1452 38.4626 71.1449L28.2865 71.1498Z" stroke="#111111" stroke-width="0.2" mask="url(#path-3-outside-1_2139_42573)"/>
</g>
<defs>
<clipPath id="clip0_2139_42573">
<rect width="120" height="120" rx="60" fill="white"/>
</clipPath>
</defs>
</svg>
