<svg width="62" height="62" viewBox="0 0 62 62" fill="none" xmlns="http://www.w3.org/2000/svg">
<path d="M47.3302 45.0123C49.8906 40.7334 52.3125 35.8983 52.3125 32.9378C52.3139 30.656 51.6398 28.4249 50.375 26.5257V2.9066C50.375 2.76293 50.3431 2.62105 50.2815 2.49124C50.22 2.36143 50.1303 2.24695 50.019 2.15607C49.9077 2.06519 49.7776 2.00021 49.6382 1.96581C49.4987 1.93142 49.3533 1.92849 49.2125 1.95722L30.0545 5.78863L14.7657 1.96691C14.5873 1.92168 14.3996 1.92874 14.2251 1.98725L2.60013 5.86225C2.40714 5.92653 2.23929 6.04991 2.12036 6.21492C2.00143 6.37993 1.93745 6.57819 1.9375 6.7816V41.6566C1.93749 41.8076 1.97278 41.9565 2.04054 42.0914C2.10831 42.2264 2.20668 42.3436 2.32781 42.4338C2.44893 42.5239 2.58945 42.5845 2.73816 42.6107C2.88686 42.6369 3.03964 42.628 3.18428 42.5847L22.2473 36.869L31.4573 40.3246C32.2592 41.9208 33.1224 43.4855 34.0448 45.0153C26.2589 46.0838 21.3125 48.8844 21.3125 52.3128C21.3125 57.3503 31.2955 60.0628 40.6875 60.0628C50.0795 60.0628 60.0625 57.3503 60.0625 52.3128C60.0625 48.8844 55.1161 46.0838 47.3302 45.0123ZM13.5625 37.4483L3.875 40.3546V29.7613L13.5625 26.5325V37.4483ZM13.5625 24.4894L3.875 27.7182V18.1363L13.5625 14.9075V24.4894ZM13.5625 12.8644L3.875 16.0932V7.48006L13.5625 4.25025V12.8644ZM38.75 6.02597L48.4375 4.08847V12.8644L38.75 16.0942V6.02597ZM38.75 18.1353L48.4375 14.9065V24.2966C47.1461 23.1171 45.6008 22.2503 43.9211 21.7632C42.2413 21.2761 40.4721 21.1816 38.75 21.4872V18.1353ZM27.125 7.05381L29.7968 7.72128C29.9357 7.75646 30.0808 7.75977 30.2211 7.73097L36.8125 6.41347V16.4691H27.125V7.05381ZM27.125 18.4066H36.8125V21.991C35.349 22.5126 34.0044 23.3211 32.8574 24.3691C31.7104 25.4171 30.7842 26.6835 30.133 28.0941H27.125V18.4066ZM25.1875 35.8993L22.6222 34.9364C22.4236 34.8625 22.2063 34.8553 22.0032 34.916L15.5 36.8671V26.5325L25.1875 29.7613V35.8993ZM25.1875 27.7192L15.5 24.4894V14.9075L25.1875 18.1363V27.7192ZM25.1875 16.0942L15.5 12.8644V4.14563L25.1875 6.5675V16.0942ZM27.125 36.6317V30.0316H29.45C29.198 30.98 29.0678 31.9566 29.0625 32.9378C29.1783 34.6295 29.6032 36.2857 30.3161 37.8242L27.125 36.6317ZM31 32.9378C31 30.3686 32.0206 27.9045 33.8374 26.0877C35.6542 24.271 38.1182 23.2503 40.6875 23.2503C43.2568 23.2503 45.7208 24.271 47.5376 26.0877C49.3544 27.9045 50.375 30.3686 50.375 32.9378C50.375 37.1383 43.9813 47.0022 40.6875 51.6279C37.3937 47.0031 31 37.1403 31 32.9378ZM40.6875 58.1253C30.412 58.1253 23.25 55.0622 23.25 52.3128C23.25 50.3027 27.4243 47.7413 35.1559 46.8288C37.5177 50.5982 39.7091 53.5877 39.9077 53.8561C39.9977 53.9782 40.1152 54.0775 40.2506 54.146C40.3861 54.2144 40.5357 54.2501 40.6875 54.2501C40.8393 54.2501 40.9889 54.2144 41.1244 54.146C41.2598 54.0775 41.3773 53.9782 41.4673 53.8561C41.6611 53.5877 43.8573 50.5982 46.2191 46.8288C53.9507 47.7413 58.125 50.3027 58.125 52.3128C58.125 55.0622 50.963 58.1253 40.6875 58.1253Z" fill="white"/>
<path d="M46.5 31.9688C46.5 30.8191 46.1591 29.6954 45.5204 28.7395C44.8817 27.7836 43.9739 27.0386 42.9118 26.5987C41.8498 26.1588 40.6811 26.0437 39.5535 26.2679C38.426 26.4922 37.3903 27.0458 36.5774 27.8587C35.7646 28.6716 35.211 29.7073 34.9867 30.8348C34.7624 31.9623 34.8775 33.131 35.3175 34.1931C35.7574 35.2552 36.5024 36.163 37.4583 36.8017C38.4141 37.4404 39.5379 37.7813 40.6875 37.7813C42.2286 37.7797 43.7061 37.1668 44.7959 36.0771C45.8856 34.9874 46.4985 33.5099 46.5 31.9688ZM36.8125 31.9688C36.8125 31.2024 37.0398 30.4532 37.4656 29.8159C37.8913 29.1787 38.4965 28.682 39.2046 28.3887C39.9127 28.0954 40.6918 28.0187 41.4435 28.1682C42.1952 28.3177 42.8856 28.6868 43.4275 29.2287C43.9695 29.7706 44.3385 30.4611 44.488 31.2128C44.6376 31.9645 44.5608 32.7436 44.2675 33.4517C43.9742 34.1597 43.4776 34.7649 42.8403 35.1907C42.2031 35.6165 41.4539 35.8438 40.6875 35.8438C39.6598 35.8438 38.6742 35.4355 37.9475 34.7088C37.2208 33.9821 36.8125 32.9965 36.8125 31.9688Z" fill="white"/>
</svg>
