<svg width="120" height="120" viewBox="0 0 120 120" fill="none" xmlns="http://www.w3.org/2000/svg">
<g clip-path="url(#clip0_2139_42557)">
<rect width="120" height="120" rx="60" fill="#63DD1E"/>
<circle cx="48.75" cy="28.125" r="76.875" fill="#C3F63C"/>
<path d="M78.9641 76.2724C81.9375 71.3033 84.75 65.6884 84.75 62.2504C84.7517 59.6006 83.9688 57.0096 82.5 54.804V27.3754C82.5 27.2086 82.463 27.0438 82.3915 26.8931C82.32 26.7423 82.2158 26.6094 82.0866 26.5038C81.9574 26.3983 81.8063 26.3228 81.6443 26.2829C81.4823 26.2429 81.3135 26.2395 81.15 26.2729L58.902 30.7223L41.1472 26.2842C40.9401 26.2316 40.7221 26.2398 40.5195 26.3078L27.0195 30.8078C26.7954 30.8824 26.6005 31.0257 26.4624 31.2173C26.3242 31.409 26.2499 31.6392 26.25 31.8754V72.3754C26.25 72.5508 26.291 72.7237 26.3697 72.8804C26.4484 73.0371 26.5626 73.1732 26.7033 73.2779C26.8439 73.3826 27.0071 73.453 27.1798 73.4834C27.3525 73.5138 27.5299 73.5035 27.6979 73.4532L49.8356 66.8157L60.531 70.8285C61.4623 72.6822 62.4647 74.4993 63.5359 76.2758C54.4943 77.5167 48.75 80.769 48.75 84.7504C48.75 90.6004 60.3431 93.7504 71.25 93.7504C82.1569 93.7504 93.75 90.6004 93.75 84.7504C93.75 80.769 88.0057 77.5167 78.9641 76.2724ZM39.75 67.4884L28.5 70.8634V58.5615L39.75 54.8119V67.4884ZM39.75 52.4393L28.5 56.1889V45.0615L39.75 41.3119V52.4393ZM39.75 38.9393L28.5 42.6889V32.6865L39.75 28.9358V38.9393ZM69 30.9979L80.25 28.7479V38.9393L69 42.69V30.9979ZM69 45.0604L80.25 41.3108V52.2154C78.7503 50.8457 76.9558 49.8391 75.0051 49.2734C73.0544 48.7077 70.9998 48.598 69 48.9529V45.0604ZM55.5 32.1915L58.6027 32.9667C58.764 33.0075 58.9325 33.0113 59.0955 32.9779L66.75 31.4479V43.1254H55.5V32.1915ZM55.5 45.3754H66.75V49.5379C65.0505 50.1436 63.4889 51.0825 62.157 52.2996C60.825 53.5166 59.7494 54.9873 58.9931 56.6254H55.5V45.3754ZM53.25 65.6895L50.271 64.5713C50.0403 64.4854 49.7879 64.4771 49.5521 64.5477L42 66.8134V54.8119L53.25 58.5615V65.6895ZM53.25 56.19L42 52.4393V41.3119L53.25 45.0615V56.19ZM53.25 42.69L42 38.9393V28.8143L53.25 31.6268V42.69ZM55.5 66.54V58.8754H58.2C57.9074 59.9767 57.7561 61.1109 57.75 62.2504C57.8845 64.215 58.3779 66.1382 59.2057 67.9249L55.5 66.54ZM60 62.2504C60 59.2667 61.1853 56.4052 63.295 54.2955C65.4048 52.1857 68.2663 51.0004 71.25 51.0004C74.2337 51.0004 77.0952 52.1857 79.205 54.2955C81.3147 56.4052 82.5 59.2667 82.5 62.2504C82.5 67.1284 75.075 78.5832 71.25 83.955C67.425 78.5843 60 67.1307 60 62.2504ZM71.25 91.5004C59.3171 91.5004 51 87.9432 51 84.7504C51 82.416 55.8476 79.4415 64.8263 78.3818C67.569 82.7592 70.1138 86.2309 70.3444 86.5425C70.4489 86.6844 70.5854 86.7997 70.7427 86.8792C70.9 86.9587 71.0738 87.0001 71.25 87.0001C71.4262 87.0001 71.6 86.9587 71.7573 86.8792C71.9146 86.7997 72.0511 86.6844 72.1556 86.5425C72.3806 86.2309 74.931 82.7592 77.6737 78.3818C86.6524 79.4415 91.5 82.416 91.5 84.7504C91.5 87.9432 83.1829 91.5004 71.25 91.5004Z" fill="#111111"/>
<path d="M78 61.125C78 59.79 77.6041 58.4849 76.8624 57.3749C76.1207 56.2649 75.0665 55.3997 73.8331 54.8888C72.5997 54.3779 71.2425 54.2443 69.9331 54.5047C68.6238 54.7652 67.421 55.408 66.477 56.352C65.533 57.296 64.8902 58.4988 64.6297 59.8081C64.3693 61.1175 64.5029 62.4747 65.0138 63.7081C65.5247 64.9415 66.3899 65.9957 67.4999 66.7374C68.6099 67.4791 69.915 67.875 71.25 67.875C73.0397 67.8732 74.7555 67.1615 76.021 65.896C77.2865 64.6305 77.9982 62.9147 78 61.125ZM66.75 61.125C66.75 60.235 67.0139 59.365 67.5084 58.6249C68.0029 57.8849 68.7057 57.3081 69.5279 56.9675C70.3502 56.627 71.255 56.5378 72.1279 56.7115C73.0008 56.8851 73.8026 57.3137 74.432 57.943C75.0613 58.5724 75.4899 59.3742 75.6635 60.2471C75.8372 61.12 75.7481 62.0248 75.4075 62.8471C75.0669 63.6693 74.4901 64.3721 73.7501 64.8666C73.01 65.3611 72.14 65.625 71.25 65.625C70.0565 65.625 68.9119 65.1509 68.068 64.307C67.2241 63.4631 66.75 62.3185 66.75 61.125Z" fill="#111111"/>
</g>
<defs>
<clipPath id="clip0_2139_42557">
<rect width="120" height="120" rx="60" fill="white"/>
</clipPath>
</defs>
</svg>
