<svg width="471" height="239" viewBox="0 0 471 239" fill="none" xmlns="http://www.w3.org/2000/svg">
<g filter="url(#filter0_dd_2314_78163)">
<rect x="64.2031" y="39.8359" width="342.332" height="110.332" rx="17.8916" fill="white"/>
<g clip-path="url(#clip0_2314_78163)">
<rect x="88.0625" y="63.6914" width="62.6207" height="62.6207" rx="12.5241" fill="#DDDDDD"/>
<rect x="88.0625" y="63.6914" width="62.6207" height="62.6207" rx="12.5241" fill="url(#paint0_linear_2314_78163)"/>
<g filter="url(#filter1_d_2314_78163)">
<path d="M120.857 63.6914H119.366L106.266 126.312H132.467L120.857 63.6914Z" fill="#D9D9D9"/>
<path d="M120.857 63.6914H119.366L106.266 126.312H132.467L120.857 63.6914Z" fill="url(#paint1_linear_2314_78163)"/>
</g>
<g clip-path="url(#clip1_2314_78163)" filter="url(#filter2_d_2314_78163)">
<g filter="url(#filter3_d_2314_78163)">
<path d="M103.398 113.528L119.799 85.9453L135.454 113.528L119.799 107.564L103.398 113.528Z" fill="url(#paint2_linear_2314_78163)"/>
</g>
</g>
</g>
<path d="M167.139 87.3102L172.483 72.6987H175.676L180.999 87.3102H178.014L174.048 75.9132L170.082 87.3102H167.139ZM169.498 83.9913L170.228 81.7996H177.68L178.411 83.9913H169.498ZM186.493 87.3102C185.755 87.3102 185.108 87.1989 184.552 86.9762C184.009 86.7396 183.585 86.357 183.278 85.8282C182.972 85.2854 182.819 84.5479 182.819 83.6156V79.253H181.024V76.9151H182.819L183.132 74.0763H185.637V76.9151H188.392V79.253H185.637V83.6573C185.637 84.1304 185.741 84.4575 185.95 84.6384C186.159 84.8193 186.514 84.9097 187.015 84.9097H188.351V87.3102H186.493ZM190.704 87.3102V72.2812H193.522V87.3102H190.704ZM199.797 87.5607C198.921 87.5607 198.19 87.4215 197.606 87.1432C197.035 86.8649 196.611 86.4892 196.332 86.016C196.054 85.529 195.915 85.0002 195.915 84.4296C195.915 83.7895 196.082 83.2259 196.416 82.7389C196.75 82.2518 197.251 81.8761 197.919 81.6117C198.587 81.3334 199.422 81.1942 200.424 81.1942H203.033C203.033 80.6793 202.956 80.2619 202.803 79.9418C202.664 79.6078 202.448 79.3574 202.156 79.1904C201.864 79.0234 201.481 78.9399 201.008 78.9399C200.479 78.9399 200.02 79.0582 199.63 79.2947C199.255 79.5313 199.025 79.8931 198.942 80.3802H196.186C196.27 79.6148 196.52 78.9608 196.938 78.418C197.369 77.8614 197.94 77.43 198.649 77.1239C199.359 76.8177 200.152 76.6647 201.029 76.6647C202.017 76.6647 202.866 76.8317 203.576 77.1656C204.299 77.4857 204.856 77.9658 205.245 78.6059C205.649 79.2321 205.851 79.9975 205.851 80.902V87.3102H203.471L203.158 85.7029C203.005 85.9812 202.824 86.2317 202.615 86.4544C202.407 86.677 202.163 86.8718 201.885 87.0388C201.606 87.2058 201.293 87.3311 200.945 87.4145C200.598 87.512 200.215 87.5607 199.797 87.5607ZM200.465 85.3898C200.841 85.3898 201.168 85.3272 201.446 85.202C201.739 85.0628 201.982 84.8819 202.177 84.6592C202.386 84.4227 202.546 84.1583 202.657 83.866C202.782 83.5738 202.866 83.2607 202.908 82.9267V82.9059H200.737C200.319 82.9059 199.971 82.9615 199.693 83.0728C199.415 83.1842 199.213 83.3372 199.088 83.5321C198.962 83.713 198.9 83.9287 198.9 84.1791C198.9 84.4435 198.962 84.6662 199.088 84.8471C199.227 85.028 199.408 85.1672 199.63 85.2646C199.867 85.3481 200.145 85.3898 200.465 85.3898ZM212.718 87.5607C211.785 87.5607 210.964 87.4076 210.255 87.1014C209.559 86.7953 209.002 86.3778 208.585 85.849C208.167 85.3063 207.924 84.694 207.854 84.0122H210.672C210.728 84.2626 210.839 84.4992 211.006 84.7219C211.187 84.9306 211.417 85.0976 211.695 85.2228C211.987 85.3481 212.314 85.4107 212.676 85.4107C213.066 85.4107 213.379 85.362 213.615 85.2646C213.852 85.1532 214.026 85.0141 214.137 84.8471C214.249 84.6662 214.304 84.4853 214.304 84.3044C214.304 84.0122 214.221 83.7895 214.054 83.6364C213.887 83.4834 213.636 83.3581 213.302 83.2607C212.982 83.1633 212.6 83.0659 212.154 82.9685C211.695 82.8572 211.229 82.7319 210.756 82.5928C210.283 82.4536 209.851 82.2797 209.462 82.0709C209.086 81.8483 208.78 81.57 208.543 81.236C208.307 80.8881 208.188 80.4567 208.188 79.9418C208.188 79.3295 208.355 78.7729 208.689 78.2719C209.023 77.771 209.51 77.3813 210.15 77.103C210.79 76.8108 211.556 76.6647 212.446 76.6647C213.699 76.6647 214.694 76.9499 215.431 77.5205C216.183 78.091 216.621 78.8773 216.746 79.8792H214.095C214.026 79.5452 213.845 79.2878 213.553 79.1069C213.261 78.9121 212.885 78.8146 212.426 78.8146C211.939 78.8146 211.563 78.9051 211.298 79.086C211.048 79.2669 210.923 79.4965 210.923 79.7748C210.923 79.9696 211.013 80.1436 211.194 80.2967C211.375 80.4358 211.625 80.5611 211.945 80.6724C212.266 80.7698 212.641 80.8672 213.073 80.9646C213.852 81.1316 214.541 81.3195 215.139 81.5282C215.751 81.7369 216.232 82.0431 216.579 82.4466C216.941 82.8363 217.122 83.3999 217.122 84.1374C217.136 84.7914 216.962 85.3829 216.6 85.9117C216.238 86.4265 215.731 86.8301 215.077 87.1223C214.422 87.4145 213.636 87.5607 212.718 87.5607ZM224.441 87.3102V72.6987H234.043V74.9739H227.259V78.7938H233.417V80.9855H227.259V85.035H234.043V87.3102H224.441ZM235.526 87.3102L239.325 82.1127L235.526 76.9151H238.553L241.121 80.4845L243.667 76.9151H246.694L242.916 82.1127L246.694 87.3102H243.667L241.121 83.7199L238.553 87.3102H235.526ZM252.996 87.5607C251.938 87.5607 250.999 87.3311 250.178 86.8718C249.357 86.3987 248.71 85.7516 248.237 84.9306C247.778 84.1096 247.548 83.1772 247.548 82.1335C247.548 81.0481 247.778 80.1018 248.237 79.2947C248.71 78.4737 249.357 77.8336 250.178 77.3744C250.999 76.9012 251.938 76.6647 252.996 76.6647C254.332 76.6647 255.459 77.0126 256.377 77.7083C257.296 78.4041 257.88 79.3713 258.131 80.6098H255.146C255.021 80.1227 254.763 79.747 254.374 79.4826C253.984 79.2043 253.518 79.0651 252.975 79.0651C252.488 79.0651 252.05 79.1904 251.66 79.4408C251.284 79.6774 250.985 80.0253 250.762 80.4845C250.54 80.9298 250.429 81.4725 250.429 82.1127C250.429 82.5858 250.491 83.0102 250.616 83.386C250.756 83.7617 250.936 84.0817 251.159 84.3461C251.396 84.6105 251.667 84.8123 251.973 84.9515C252.279 85.0906 252.613 85.1602 252.975 85.1602C253.337 85.1602 253.664 85.1045 253.956 84.9932C254.248 84.868 254.499 84.694 254.708 84.4714C254.916 84.2348 255.062 83.9495 255.146 83.6156H258.131C257.88 84.8123 257.296 85.7725 256.377 86.4961C255.459 87.2058 254.332 87.5607 252.996 87.5607ZM260.52 87.3102V72.2812H263.338V78.4598C263.686 77.9171 264.152 77.4857 264.737 77.1656C265.321 76.8317 265.996 76.6647 266.761 76.6647C267.624 76.6647 268.355 76.8456 268.953 77.2074C269.552 77.5692 270.004 78.1049 270.31 78.8146C270.63 79.5243 270.79 80.3941 270.79 81.4238V87.3102H267.993V81.6952C267.993 80.8463 267.819 80.1923 267.471 79.7331C267.123 79.2599 266.574 79.0234 265.822 79.0234C265.363 79.0234 264.938 79.1417 264.549 79.3782C264.173 79.6009 263.874 79.9279 263.651 80.3593C263.443 80.7768 263.338 81.2916 263.338 81.9039V87.3102H260.52ZM276.932 87.5607C276.055 87.5607 275.324 87.4215 274.74 87.1432C274.169 86.8649 273.745 86.4892 273.467 86.016C273.188 85.529 273.049 85.0002 273.049 84.4296C273.049 83.7895 273.216 83.2259 273.55 82.7389C273.884 82.2518 274.385 81.8761 275.053 81.6117C275.721 81.3334 276.556 81.1942 277.558 81.1942H280.167C280.167 80.6793 280.091 80.2619 279.938 79.9418C279.798 79.6078 279.583 79.3574 279.29 79.1904C278.998 79.0234 278.616 78.9399 278.142 78.9399C277.614 78.9399 277.154 79.0582 276.765 79.2947C276.389 79.5313 276.159 79.8931 276.076 80.3802H273.321C273.404 79.6148 273.655 78.9608 274.072 78.418C274.503 77.8614 275.074 77.43 275.784 77.1239C276.493 76.8177 277.287 76.6647 278.163 76.6647C279.151 76.6647 280 76.8317 280.71 77.1656C281.433 77.4857 281.99 77.9658 282.38 78.6059C282.783 79.2321 282.985 79.9975 282.985 80.902V87.3102H280.605L280.292 85.7029C280.139 85.9812 279.958 86.2317 279.75 86.4544C279.541 86.677 279.297 86.8718 279.019 87.0388C278.741 87.2058 278.428 87.3311 278.08 87.4145C277.732 87.512 277.349 87.5607 276.932 87.5607ZM277.6 85.3898C277.975 85.3898 278.302 85.3272 278.581 85.202C278.873 85.0628 279.116 84.8819 279.311 84.6592C279.52 84.4227 279.68 84.1583 279.791 83.866C279.917 83.5738 280 83.2607 280.042 82.9267V82.9059H277.871C277.454 82.9059 277.106 82.9615 276.827 83.0728C276.549 83.1842 276.347 83.3372 276.222 83.5321C276.097 83.713 276.034 83.9287 276.034 84.1791C276.034 84.4435 276.097 84.6662 276.222 84.8471C276.361 85.028 276.542 85.1672 276.765 85.2646C277.001 85.3481 277.28 85.3898 277.6 85.3898ZM285.552 87.3102V76.9151H288.036L288.245 78.6268C288.579 78.0423 289.038 77.5692 289.623 77.2074C290.221 76.8456 290.938 76.6647 291.773 76.6647C292.635 76.6647 293.366 76.8456 293.964 77.2074C294.563 77.5692 295.022 78.1049 295.342 78.8146C295.662 79.5243 295.822 80.3941 295.822 81.4238V87.3102H293.004V81.6743C293.004 80.8255 292.83 80.1714 292.482 79.7122C292.134 79.253 291.585 79.0234 290.833 79.0234C290.36 79.0234 289.936 79.1417 289.56 79.3782C289.184 79.6009 288.892 79.9279 288.683 80.3593C288.474 80.7768 288.37 81.2847 288.37 81.8831V87.3102H285.552ZM302.924 92.1528C301.922 92.1528 301.045 92.0276 300.294 91.7771C299.556 91.5406 298.979 91.1718 298.561 90.6708C298.158 90.1838 297.956 89.5784 297.956 88.8548C297.956 88.3678 298.081 87.9086 298.332 87.4772C298.582 87.0458 298.951 86.6561 299.438 86.3082C299.925 85.9604 300.523 85.6612 301.233 85.4107L302.277 86.7883C301.651 86.9971 301.198 87.2545 300.92 87.5607C300.642 87.8807 300.503 88.2147 300.503 88.5626C300.503 88.8827 300.607 89.154 300.816 89.3767C301.038 89.5993 301.331 89.7593 301.692 89.8568C302.054 89.9681 302.458 90.0237 302.903 90.0237C303.348 90.0237 303.731 89.9681 304.051 89.8568C304.371 89.7454 304.622 89.5784 304.803 89.3558C304.997 89.1471 305.095 88.9035 305.095 88.6252C305.095 88.2495 304.963 87.9433 304.698 87.7068C304.434 87.4702 303.919 87.3241 303.153 87.2684C302.444 87.2128 301.811 87.1362 301.254 87.0388C300.711 86.9275 300.231 86.8023 299.814 86.6631C299.41 86.51 299.062 86.343 298.77 86.1621C298.478 85.9812 298.241 85.8003 298.06 85.6194V85.1393L300.294 82.7389L302.298 83.386L299.688 85.9743L300.503 84.5966C300.642 84.694 300.781 84.7845 300.92 84.868C301.073 84.9376 301.261 85.0002 301.484 85.0558C301.706 85.1115 301.992 85.1672 302.339 85.2228C302.701 85.2785 303.153 85.3272 303.696 85.3689C304.615 85.4524 305.366 85.6264 305.951 85.8908C306.535 86.1552 306.966 86.51 307.245 86.9553C307.523 87.3867 307.662 87.9225 307.662 88.5626C307.662 89.1749 307.495 89.7524 307.161 90.2951C306.827 90.8517 306.305 91.297 305.596 91.631C304.9 91.9789 304.009 92.1528 302.924 92.1528ZM302.924 84.2418C302.047 84.2418 301.289 84.0748 300.649 83.7408C300.022 83.3929 299.535 82.9337 299.188 82.3631C298.854 81.7926 298.687 81.1525 298.687 80.4428C298.687 79.747 298.854 79.1138 299.188 78.5433C299.535 77.9727 300.022 77.5205 300.649 77.1865C301.289 76.8386 302.047 76.6647 302.924 76.6647C303.814 76.6647 304.573 76.8386 305.199 77.1865C305.839 77.5205 306.326 77.9727 306.66 78.5433C306.994 79.1138 307.161 79.747 307.161 80.4428C307.161 81.1525 306.994 81.7926 306.66 82.3631C306.326 82.9337 305.839 83.3929 305.199 83.7408C304.573 84.0748 303.814 84.2418 302.924 84.2418ZM302.924 82.0918C303.453 82.0918 303.884 81.9526 304.218 81.6743C304.566 81.396 304.74 80.9924 304.74 80.4637C304.74 79.9349 304.566 79.5313 304.218 79.253C303.884 78.9747 303.453 78.8355 302.924 78.8355C302.395 78.8355 301.957 78.9747 301.609 79.253C301.275 79.5313 301.108 79.9349 301.108 80.4637C301.108 80.9924 301.275 81.396 301.609 81.6743C301.957 81.9526 302.395 82.0918 302.924 82.0918ZM304.636 78.8981L304.176 76.9151H308.518V78.585L304.636 78.8981ZM315.493 87.5607C314.436 87.5607 313.496 87.338 312.675 86.8927C311.868 86.4335 311.235 85.8073 310.776 85.0141C310.317 84.207 310.087 83.2746 310.087 82.217C310.087 81.1177 310.31 80.1575 310.755 79.3365C311.214 78.5015 311.847 77.8475 312.655 77.3744C313.476 76.9012 314.422 76.6647 315.493 76.6647C316.537 76.6647 317.449 76.8873 318.228 77.3326C319.007 77.7779 319.619 78.3902 320.065 79.1695C320.51 79.9349 320.733 80.8115 320.733 81.7996C320.733 81.9387 320.726 82.0918 320.712 82.2588C320.712 82.4258 320.705 82.6067 320.691 82.8015H312.112V81.069H317.873C317.831 80.4289 317.588 79.914 317.142 79.5243C316.711 79.1347 316.168 78.9399 315.514 78.9399C315.027 78.9399 314.582 79.0512 314.178 79.2739C313.775 79.4826 313.455 79.8027 313.218 80.234C312.982 80.6654 312.863 81.2151 312.863 81.8831V82.4884C312.863 83.0589 312.975 83.5529 313.197 83.9704C313.42 84.374 313.726 84.694 314.116 84.9306C314.519 85.1532 314.972 85.2646 315.472 85.2646C315.987 85.2646 316.419 85.1532 316.767 84.9306C317.115 84.694 317.379 84.3948 317.56 84.033H320.42C320.225 84.701 319.898 85.2994 319.438 85.8282C318.979 86.357 318.416 86.7814 317.748 87.1014C317.08 87.4076 316.328 87.5607 315.493 87.5607Z" fill="#111111"/>
<path d="M167.807 118.693V117.638C168.666 116.97 169.477 116.296 170.24 115.616C171.003 114.936 171.677 114.262 172.262 113.594C172.858 112.914 173.323 112.252 173.657 111.608C174.003 110.964 174.176 110.344 174.176 109.748C174.176 109.306 174.099 108.901 173.944 108.531C173.789 108.149 173.544 107.839 173.21 107.601C172.876 107.362 172.423 107.243 171.85 107.243C171.29 107.243 170.825 107.368 170.455 107.618C170.085 107.857 169.805 108.179 169.614 108.585C169.435 108.978 169.346 109.414 169.346 109.891H167.896C167.908 109.068 168.081 108.364 168.415 107.779C168.761 107.183 169.232 106.73 169.829 106.42C170.425 106.11 171.105 105.955 171.868 105.955C172.62 105.955 173.282 106.098 173.854 106.384C174.427 106.658 174.874 107.07 175.196 107.618C175.518 108.167 175.679 108.859 175.679 109.694C175.679 110.278 175.56 110.863 175.321 111.447C175.083 112.032 174.761 112.604 174.355 113.165C173.95 113.714 173.496 114.244 172.995 114.757C172.506 115.27 172.005 115.753 171.493 116.206C170.98 116.66 170.491 117.071 170.025 117.441H176.109V118.693H167.807ZM177.025 120.894L178.062 116.94H179.619L178.062 120.894H177.025ZM185.428 118.908C184.629 118.908 183.901 118.765 183.245 118.479C182.601 118.18 182.088 117.739 181.707 117.155C181.325 116.57 181.122 115.843 181.098 114.972H182.619C182.631 115.449 182.744 115.89 182.959 116.296C183.186 116.689 183.508 117.006 183.925 117.244C184.343 117.483 184.844 117.602 185.428 117.602C186.012 117.602 186.502 117.489 186.895 117.262C187.289 117.035 187.587 116.737 187.79 116.367C187.992 115.986 188.094 115.562 188.094 115.097C188.094 114.513 187.951 114.042 187.664 113.684C187.39 113.314 187.014 113.04 186.537 112.861C186.072 112.682 185.559 112.592 184.999 112.592H184.068V111.322H184.999C185.81 111.322 186.448 111.137 186.913 110.767C187.378 110.386 187.611 109.861 187.611 109.193C187.611 108.644 187.426 108.185 187.056 107.815C186.698 107.445 186.156 107.261 185.428 107.261C184.724 107.261 184.164 107.463 183.746 107.869C183.329 108.274 183.096 108.793 183.048 109.425H181.528C181.563 108.746 181.742 108.143 182.064 107.618C182.398 107.094 182.852 106.688 183.424 106.402C183.997 106.104 184.665 105.955 185.428 105.955C186.239 105.955 186.919 106.098 187.468 106.384C188.016 106.67 188.428 107.052 188.702 107.529C188.988 108.006 189.132 108.531 189.132 109.103C189.132 109.521 189.054 109.92 188.899 110.302C188.744 110.684 188.511 111.018 188.201 111.304C187.903 111.578 187.515 111.775 187.038 111.895C187.527 111.99 187.963 112.181 188.344 112.467C188.738 112.741 189.048 113.099 189.275 113.541C189.501 113.982 189.615 114.501 189.615 115.097C189.615 115.777 189.454 116.409 189.132 116.994C188.821 117.566 188.356 118.031 187.736 118.389C187.116 118.735 186.346 118.908 185.428 118.908ZM196.815 118.693V106.169H198.318V111.841L203.543 106.169H205.439L200.787 111.161L205.511 118.693H203.686L199.714 112.324L198.318 113.809V118.693H196.815ZM207.246 118.693V106.169H209L213.455 114.918L217.91 106.169H219.681V118.693H218.178V108.853L214.027 116.922H212.9L208.749 108.889V118.693H207.246ZM227.506 118.693V108.28C227.506 107.708 227.602 107.243 227.793 106.885C227.984 106.515 228.264 106.247 228.634 106.08C229.015 105.901 229.481 105.811 230.029 105.811H230.995V107.1H230.262C229.82 107.1 229.498 107.189 229.296 107.368C229.105 107.547 229.009 107.863 229.009 108.316V118.693H227.506ZM226.147 111V109.73H231.246V111H226.147ZM233.033 118.693V109.73H234.393L234.518 111.447C234.709 111.042 234.96 110.696 235.27 110.41C235.592 110.123 235.974 109.903 236.415 109.748C236.856 109.592 237.357 109.515 237.918 109.515V111.089H237.435C237.041 111.089 236.665 111.143 236.308 111.25C235.962 111.346 235.652 111.507 235.377 111.734C235.115 111.96 234.906 112.27 234.751 112.664C234.608 113.046 234.536 113.529 234.536 114.113V118.693H233.033ZM243.315 118.908C242.48 118.908 241.728 118.717 241.06 118.336C240.392 117.942 239.861 117.393 239.468 116.689C239.086 115.986 238.895 115.163 238.895 114.22C238.895 113.266 239.092 112.437 239.486 111.734C239.879 111.03 240.41 110.487 241.078 110.105C241.758 109.712 242.515 109.515 243.35 109.515C244.197 109.515 244.955 109.712 245.623 110.105C246.291 110.487 246.815 111.03 247.197 111.734C247.579 112.437 247.77 113.266 247.77 114.22C247.77 115.163 247.573 115.986 247.179 116.689C246.797 117.393 246.267 117.942 245.587 118.336C244.919 118.717 244.161 118.908 243.315 118.908ZM243.315 117.62C243.839 117.62 244.322 117.495 244.764 117.244C245.205 116.994 245.557 116.612 245.819 116.099C246.094 115.586 246.231 114.96 246.231 114.22C246.231 113.457 246.1 112.825 245.837 112.324C245.575 111.823 245.223 111.447 244.782 111.197C244.34 110.934 243.863 110.803 243.35 110.803C242.849 110.803 242.372 110.934 241.919 111.197C241.478 111.447 241.12 111.823 240.846 112.324C240.571 112.825 240.434 113.457 240.434 114.22C240.434 114.96 240.571 115.586 240.846 116.099C241.12 116.612 241.472 116.994 241.901 117.244C242.342 117.495 242.814 117.62 243.315 117.62ZM249.877 118.693V109.73H251.237L251.344 111.018C251.63 110.553 252.012 110.189 252.489 109.926C252.966 109.652 253.503 109.515 254.099 109.515C254.552 109.515 254.97 109.581 255.352 109.712C255.733 109.831 256.067 110.022 256.354 110.284C256.64 110.535 256.872 110.857 257.051 111.25C257.361 110.702 257.791 110.278 258.339 109.98C258.888 109.67 259.467 109.515 260.075 109.515C260.779 109.515 261.387 109.658 261.9 109.944C262.425 110.219 262.83 110.642 263.117 111.215C263.403 111.787 263.546 112.509 263.546 113.38V118.693H262.061V113.541C262.061 112.634 261.876 111.954 261.506 111.501C261.137 111.036 260.612 110.803 259.932 110.803C259.455 110.803 259.031 110.928 258.662 111.179C258.292 111.429 258 111.787 257.785 112.252C257.57 112.718 257.463 113.29 257.463 113.97V118.693H255.96V113.541C255.96 112.634 255.775 111.954 255.405 111.501C255.035 111.036 254.511 110.803 253.831 110.803C253.378 110.803 252.96 110.928 252.578 111.179C252.209 111.429 251.916 111.787 251.702 112.252C251.487 112.718 251.38 113.29 251.38 113.97V118.693H249.877ZM271.583 122.63L273.784 117.691H273.265L269.722 109.73H271.35L274.302 116.582L277.398 109.73H278.954L273.157 122.63H271.583ZM283.745 118.908C282.911 118.908 282.159 118.717 281.491 118.336C280.823 117.942 280.292 117.393 279.899 116.689C279.517 115.986 279.326 115.163 279.326 114.22C279.326 113.266 279.523 112.437 279.917 111.734C280.31 111.03 280.841 110.487 281.509 110.105C282.189 109.712 282.946 109.515 283.781 109.515C284.628 109.515 285.386 109.712 286.053 110.105C286.721 110.487 287.246 111.03 287.628 111.734C288.01 112.437 288.2 113.266 288.2 114.22C288.2 115.163 288.004 115.986 287.61 116.689C287.228 117.393 286.698 117.942 286.018 118.336C285.35 118.717 284.592 118.908 283.745 118.908ZM283.745 117.62C284.27 117.62 284.753 117.495 285.195 117.244C285.636 116.994 285.988 116.612 286.25 116.099C286.525 115.586 286.662 114.96 286.662 114.22C286.662 113.457 286.531 112.825 286.268 112.324C286.006 111.823 285.654 111.447 285.213 111.197C284.771 110.934 284.294 110.803 283.781 110.803C283.28 110.803 282.803 110.934 282.35 111.197C281.909 111.447 281.551 111.823 281.276 112.324C281.002 112.825 280.865 113.457 280.865 114.22C280.865 114.96 281.002 115.586 281.276 116.099C281.551 116.612 281.903 116.994 282.332 117.244C282.773 117.495 283.244 117.62 283.745 117.62ZM293.582 118.908C292.89 118.908 292.282 118.771 291.757 118.497C291.244 118.21 290.844 117.781 290.558 117.208C290.284 116.636 290.147 115.914 290.147 115.043V109.73H291.649V114.882C291.649 115.801 291.84 116.487 292.222 116.94C292.616 117.393 293.176 117.62 293.904 117.62C294.417 117.62 294.87 117.501 295.264 117.262C295.669 117.012 295.985 116.654 296.212 116.189C296.45 115.711 296.57 115.139 296.57 114.471V109.73H298.073V118.693H296.713L296.623 117.119C296.349 117.68 295.943 118.121 295.407 118.443C294.87 118.753 294.262 118.908 293.582 118.908ZM300.564 118.693V109.73H301.924L302.049 111.447C302.24 111.042 302.49 110.696 302.8 110.41C303.122 110.123 303.504 109.903 303.945 109.748C304.387 109.592 304.888 109.515 305.448 109.515V111.089H304.965C304.572 111.089 304.196 111.143 303.838 111.25C303.492 111.346 303.182 111.507 302.908 111.734C302.645 111.96 302.437 112.27 302.281 112.664C302.138 113.046 302.067 113.529 302.067 114.113V118.693H300.564ZM311.975 118.693V106.169H313.478V117.495H319.311V118.693H311.975ZM324.963 118.908C324.128 118.908 323.376 118.717 322.708 118.336C322.04 117.942 321.51 117.393 321.116 116.689C320.734 115.986 320.543 115.163 320.543 114.22C320.543 113.266 320.74 112.437 321.134 111.734C321.527 111.03 322.058 110.487 322.726 110.105C323.406 109.712 324.163 109.515 324.998 109.515C325.845 109.515 326.603 109.712 327.271 110.105C327.939 110.487 328.463 111.03 328.845 111.734C329.227 112.437 329.418 113.266 329.418 114.22C329.418 115.163 329.221 115.986 328.827 116.689C328.445 117.393 327.915 117.942 327.235 118.336C326.567 118.717 325.809 118.908 324.963 118.908ZM324.963 117.62C325.487 117.62 325.97 117.495 326.412 117.244C326.853 116.994 327.205 116.612 327.467 116.099C327.742 115.586 327.879 114.96 327.879 114.22C327.879 113.457 327.748 112.825 327.485 112.324C327.223 111.823 326.871 111.447 326.43 111.197C325.988 110.934 325.511 110.803 324.998 110.803C324.497 110.803 324.02 110.934 323.567 111.197C323.126 111.447 322.768 111.823 322.494 112.324C322.219 112.825 322.082 113.457 322.082 114.22C322.082 114.96 322.219 115.586 322.494 116.099C322.768 116.612 323.12 116.994 323.549 117.244C323.99 117.495 324.462 117.62 324.963 117.62ZM335.604 118.908C334.757 118.908 333.994 118.711 333.314 118.318C332.646 117.924 332.115 117.375 331.722 116.672C331.34 115.968 331.149 115.151 331.149 114.22C331.149 113.278 331.34 112.455 331.722 111.751C332.115 111.048 332.646 110.499 333.314 110.105C333.994 109.712 334.757 109.515 335.604 109.515C336.678 109.515 337.566 109.795 338.27 110.356C338.986 110.905 339.445 111.644 339.648 112.574H338.109C337.978 112.014 337.679 111.578 337.214 111.268C336.749 110.958 336.206 110.803 335.586 110.803C335.085 110.803 334.614 110.934 334.173 111.197C333.731 111.447 333.374 111.829 333.099 112.342C332.825 112.843 332.688 113.469 332.688 114.22C332.688 114.769 332.765 115.258 332.92 115.688C333.087 116.117 333.302 116.481 333.564 116.779C333.839 117.065 334.149 117.28 334.495 117.423C334.853 117.566 335.216 117.638 335.586 117.638C336.004 117.638 336.385 117.572 336.731 117.441C337.077 117.298 337.369 117.095 337.608 116.833C337.858 116.558 338.025 116.236 338.109 115.866H339.648C339.457 116.773 338.997 117.507 338.27 118.067C337.554 118.628 336.666 118.908 335.604 118.908ZM344.698 118.908C343.959 118.908 343.344 118.783 342.855 118.532C342.378 118.282 342.02 117.948 341.782 117.53C341.543 117.101 341.424 116.636 341.424 116.135C341.424 115.527 341.579 115.014 341.889 114.596C342.211 114.179 342.659 113.863 343.231 113.648C343.816 113.421 344.495 113.308 345.271 113.308H347.668C347.668 112.747 347.579 112.282 347.4 111.912C347.233 111.543 346.982 111.262 346.648 111.072C346.314 110.881 345.909 110.785 345.432 110.785C344.859 110.785 344.358 110.934 343.929 111.233C343.511 111.519 343.255 111.936 343.159 112.485H341.621C341.692 111.853 341.907 111.316 342.265 110.875C342.635 110.433 343.1 110.099 343.66 109.873C344.221 109.634 344.811 109.515 345.432 109.515C346.255 109.515 346.941 109.67 347.489 109.98C348.05 110.278 348.467 110.702 348.742 111.25C349.028 111.787 349.171 112.425 349.171 113.165V118.693H347.829L347.74 117.101C347.62 117.351 347.465 117.59 347.275 117.817C347.096 118.031 346.881 118.222 346.63 118.389C346.392 118.544 346.112 118.67 345.79 118.765C345.468 118.86 345.104 118.908 344.698 118.908ZM344.931 117.638C345.36 117.638 345.742 117.554 346.076 117.387C346.41 117.208 346.696 116.97 346.935 116.672C347.185 116.373 347.37 116.039 347.489 115.67C347.609 115.288 347.668 114.9 347.668 114.507V114.471H345.396C344.823 114.471 344.358 114.543 344 114.686C343.643 114.817 343.386 115.002 343.231 115.24C343.076 115.479 342.998 115.753 342.998 116.063C342.998 116.385 343.07 116.666 343.213 116.904C343.368 117.143 343.589 117.328 343.875 117.459C344.161 117.578 344.513 117.638 344.931 117.638ZM354.759 118.693C354.222 118.693 353.757 118.61 353.363 118.443C352.969 118.276 352.665 117.996 352.451 117.602C352.248 117.196 352.146 116.654 352.146 115.974V111H350.59V109.73H352.146L352.343 107.583H353.649V109.73H356.261V111H353.649V115.974C353.649 116.534 353.763 116.916 353.989 117.119C354.216 117.31 354.615 117.405 355.188 117.405H356.136V118.693H354.759ZM358.349 118.693V109.73H359.851V118.693H358.349ZM359.1 107.797C358.802 107.797 358.551 107.702 358.349 107.511C358.158 107.308 358.062 107.058 358.062 106.76C358.062 106.461 358.158 106.223 358.349 106.044C358.551 105.853 358.802 105.758 359.1 105.758C359.386 105.758 359.631 105.853 359.834 106.044C360.036 106.223 360.138 106.461 360.138 106.76C360.138 107.058 360.036 107.308 359.834 107.511C359.631 107.702 359.386 107.797 359.1 107.797ZM366.512 118.908C365.677 118.908 364.925 118.717 364.257 118.336C363.589 117.942 363.059 117.393 362.665 116.689C362.283 115.986 362.092 115.163 362.092 114.22C362.092 113.266 362.289 112.437 362.683 111.734C363.077 111.03 363.607 110.487 364.275 110.105C364.955 109.712 365.713 109.515 366.547 109.515C367.394 109.515 368.152 109.712 368.82 110.105C369.488 110.487 370.012 111.03 370.394 111.734C370.776 112.437 370.967 113.266 370.967 114.22C370.967 115.163 370.77 115.986 370.376 116.689C369.995 117.393 369.464 117.942 368.784 118.336C368.116 118.717 367.359 118.908 366.512 118.908ZM366.512 117.62C367.037 117.62 367.52 117.495 367.961 117.244C368.402 116.994 368.754 116.612 369.017 116.099C369.291 115.586 369.428 114.96 369.428 114.22C369.428 113.457 369.297 112.825 369.034 112.324C368.772 111.823 368.42 111.447 367.979 111.197C367.537 110.934 367.06 110.803 366.547 110.803C366.047 110.803 365.569 110.934 365.116 111.197C364.675 111.447 364.317 111.823 364.043 112.324C363.768 112.825 363.631 113.457 363.631 114.22C363.631 114.96 363.768 115.586 364.043 116.099C364.317 116.612 364.669 116.994 365.098 117.244C365.54 117.495 366.011 117.62 366.512 117.62ZM373.074 118.693V109.73H374.434L374.523 111.322C374.809 110.761 375.221 110.32 375.758 109.998C376.294 109.676 376.903 109.515 377.583 109.515C378.274 109.515 378.877 109.658 379.39 109.944C379.903 110.219 380.302 110.642 380.588 111.215C380.875 111.787 381.018 112.509 381.018 113.38V118.693H379.515V113.541C379.515 112.634 379.318 111.954 378.924 111.501C378.531 111.036 377.97 110.803 377.243 110.803C376.73 110.803 376.271 110.928 375.865 111.179C375.471 111.429 375.155 111.787 374.917 112.252C374.69 112.718 374.577 113.29 374.577 113.97V118.693H373.074Z" fill="#585858"/>
</g>
<defs>
<filter id="filter0_dd_2314_78163" x="0.354572" y="0.544521" width="470.025" height="238.029" filterUnits="userSpaceOnUse" color-interpolation-filters="sRGB">
<feFlood flood-opacity="0" result="BackgroundImageFix"/>
<feColorMatrix in="SourceAlpha" type="matrix" values="0 0 0 0 0 0 0 0 0 0 0 0 0 0 0 0 0 0 127 0" result="hardAlpha"/>
<feOffset dy="24.5571"/>
<feGaussianBlur stdDeviation="31.9243"/>
<feComposite in2="hardAlpha" operator="out"/>
<feColorMatrix type="matrix" values="0 0 0 0 0 0 0 0 0 0 0 0 0 0 0 0 0 0 0.08 0"/>
<feBlend mode="normal" in2="BackgroundImageFix" result="effect1_dropShadow_2314_78163"/>
<feColorMatrix in="SourceAlpha" type="matrix" values="0 0 0 0 0 0 0 0 0 0 0 0 0 0 0 0 0 0 127 0" result="hardAlpha"/>
<feOffset dy="4.91143"/>
<feGaussianBlur stdDeviation="2.45571"/>
<feComposite in2="hardAlpha" operator="out"/>
<feColorMatrix type="matrix" values="0 0 0 0 0 0 0 0 0 0 0 0 0 0 0 0 0 0 0.08 0"/>
<feBlend mode="normal" in2="effect1_dropShadow_2314_78163" result="effect2_dropShadow_2314_78163"/>
<feBlend mode="normal" in="SourceGraphic" in2="effect2_dropShadow_2314_78163" result="shape"/>
</filter>
<filter id="filter1_d_2314_78163" x="101.574" y="63.6914" width="35.5863" height="79.0413" filterUnits="userSpaceOnUse" color-interpolation-filters="sRGB">
<feFlood flood-opacity="0" result="BackgroundImageFix"/>
<feColorMatrix in="SourceAlpha" type="matrix" values="0 0 0 0 0 0 0 0 0 0 0 0 0 0 0 0 0 0 127 0" result="hardAlpha"/>
<feOffset dy="11.729"/>
<feGaussianBlur stdDeviation="2.34579"/>
<feComposite in2="hardAlpha" operator="out"/>
<feColorMatrix type="matrix" values="0 0 0 0 0 0 0 0 0 0 0 0 0 0 0 0 0 0 0.25 0"/>
<feBlend mode="normal" in2="BackgroundImageFix" result="effect1_dropShadow_2314_78163"/>
<feBlend mode="normal" in="SourceGraphic" in2="effect1_dropShadow_2314_78163" result="shape"/>
</filter>
<filter id="filter2_d_2314_78163" x="94.3277" y="82.4258" width="50.0946" height="50.0965" filterUnits="userSpaceOnUse" color-interpolation-filters="sRGB">
<feFlood flood-opacity="0" result="BackgroundImageFix"/>
<feColorMatrix in="SourceAlpha" type="matrix" values="0 0 0 0 0 0 0 0 0 0 0 0 0 0 0 0 0 0 127 0" result="hardAlpha"/>
<feOffset dy="7.15665"/>
<feGaussianBlur stdDeviation="3.57833"/>
<feComposite in2="hardAlpha" operator="out"/>
<feColorMatrix type="matrix" values="0 0 0 0 0 0 0 0 0 0 0 0 0 0 0 0 0 0 0.25 0"/>
<feBlend mode="normal" in2="BackgroundImageFix" result="effect1_dropShadow_2314_78163"/>
<feBlend mode="normal" in="SourceGraphic" in2="effect1_dropShadow_2314_78163" result="shape"/>
</filter>
<filter id="filter3_d_2314_78163" x="96.2418" y="85.9453" width="46.368" height="41.8962" filterUnits="userSpaceOnUse" color-interpolation-filters="sRGB">
<feFlood flood-opacity="0" result="BackgroundImageFix"/>
<feColorMatrix in="SourceAlpha" type="matrix" values="0 0 0 0 0 0 0 0 0 0 0 0 0 0 0 0 0 0 127 0" result="hardAlpha"/>
<feOffset dy="7.15665"/>
<feGaussianBlur stdDeviation="3.57833"/>
<feComposite in2="hardAlpha" operator="out"/>
<feColorMatrix type="matrix" values="0 0 0 0 0 0 0 0 0 0 0 0 0 0 0 0 0 0 0.25 0"/>
<feBlend mode="normal" in2="BackgroundImageFix" result="effect1_dropShadow_2314_78163"/>
<feBlend mode="normal" in="SourceGraphic" in2="effect1_dropShadow_2314_78163" result="shape"/>
</filter>
<linearGradient id="paint0_linear_2314_78163" x1="121.678" y1="75.6472" x2="121.678" y2="119.044" gradientUnits="userSpaceOnUse">
<stop stop-color="#20523C"/>
<stop offset="1" stop-color="#319C6E"/>
</linearGradient>
<linearGradient id="paint1_linear_2314_78163" x1="-158.699" y1="81.583" x2="-158.699" y2="126.312" gradientUnits="userSpaceOnUse">
<stop stop-color="#54D10E"/>
<stop offset="1" stop-color="#C3F63C"/>
</linearGradient>
<linearGradient id="paint2_linear_2314_78163" x1="-233.188" y1="113.528" x2="-233.188" y2="93.8262" gradientUnits="userSpaceOnUse">
<stop offset="0.163462" stop-color="#4FE3ED"/>
<stop offset="1" stop-color="#3C5EF6"/>
</linearGradient>
<clipPath id="clip0_2314_78163">
<rect x="88.0625" y="63.6914" width="62.6207" height="62.6207" rx="12.5241" fill="white"/>
</clipPath>
<clipPath id="clip1_2314_78163">
<rect width="35.7833" height="35.7833" fill="white" transform="translate(101.484 82.4258)"/>
</clipPath>
</defs>
</svg>
