<svg width="16" height="16" viewBox="0 0 16 16" fill="none" xmlns="http://www.w3.org/2000/svg">
<path d="M14.6493 12.2199C14.6493 12.4599 14.5959 12.7066 14.4826 12.9466C14.3693 13.1866 14.2226 13.4133 14.0293 13.6266C13.7026 13.9866 13.3426 14.2466 12.9359 14.4133C12.5359 14.5799 12.1026 14.6666 11.6359 14.6666C10.9559 14.6666 10.2293 14.5066 9.4626 14.1799C8.69594 13.8533 7.92927 13.4133 7.16927 12.8599C6.4026 12.2999 5.67594 11.6799 4.9826 10.9933C4.29594 10.2999 3.67594 9.57325 3.1226 8.81325C2.57594 8.05325 2.13594 7.29325 1.81594 6.53992C1.49594 5.77992 1.33594 5.05325 1.33594 4.35992C1.33594 3.90659 1.41594 3.47325 1.57594 3.07325C1.73594 2.66659 1.98927 2.29325 2.3426 1.95992C2.76927 1.53992 3.23594 1.33325 3.72927 1.33325C3.91594 1.33325 4.1026 1.37325 4.26927 1.45325C4.4426 1.53325 4.59594 1.65325 4.71594 1.82659L6.2626 4.00659C6.3826 4.17325 6.46927 4.32659 6.52927 4.47325C6.58927 4.61325 6.6226 4.75325 6.6226 4.87992C6.6226 5.03992 6.57594 5.19992 6.4826 5.35325C6.39594 5.50658 6.26927 5.66658 6.10927 5.82658L5.6026 6.35325C5.52927 6.42658 5.49594 6.51325 5.49594 6.61992C5.49594 6.67325 5.5026 6.71992 5.51594 6.77325C5.53594 6.82658 5.55594 6.86658 5.56927 6.90658C5.68927 7.12658 5.89594 7.41325 6.18927 7.75992C6.48927 8.10659 6.80927 8.45992 7.15594 8.81325C7.51594 9.16658 7.8626 9.49325 8.21594 9.79325C8.5626 10.0866 8.84927 10.2866 9.07594 10.4066C9.10927 10.4199 9.14927 10.4399 9.19594 10.4599C9.24927 10.4799 9.3026 10.4866 9.3626 10.4866C9.47594 10.4866 9.5626 10.4466 9.63594 10.3733L10.1426 9.87325C10.3093 9.70659 10.4693 9.57992 10.6226 9.49992C10.7759 9.40658 10.9293 9.35992 11.0959 9.35992C11.2226 9.35992 11.3559 9.38658 11.5026 9.44658C11.6493 9.50658 11.8026 9.59325 11.9693 9.70659L14.1759 11.2733C14.3493 11.3933 14.4693 11.5333 14.5426 11.6999C14.6093 11.8666 14.6493 12.0333 14.6493 12.2199Z" stroke="#585858" stroke-miterlimit="10"/>
</svg>
