<svg width="121" height="120" viewBox="0 0 121 120" fill="none" xmlns="http://www.w3.org/2000/svg">
<path d="M0.5 60C0.5 26.8629 27.3629 0 60.5 0C93.6371 0 120.5 26.8629 120.5 60C120.5 93.1371 93.6371 120 60.5 120C27.3629 120 0.5 93.1371 0.5 60Z" fill="#F5FAFD"/>
<path d="M93 65.0985C93 75.7045 79 89 79 89C79 89 65 75.7045 65 65.0985C65 57.3121 71.268 51 79 51C86.732 51 93 57.3121 93 65.0985Z" fill="#D7E4F3"/>
<path d="M54.8223 27.5C67.7144 27.5 78.1455 38.0328 78.1455 51C78.1455 58.3407 74.1636 66.1981 69.7324 72.7197C65.8226 78.474 61.425 83.3852 58.6533 86.2822L57.5713 87.3965C57.1564 87.8176 56.6432 88.3868 55.9297 88.6699L55.7842 88.7227C55.252 88.8973 54.6447 88.919 54.0938 88.7881L53.8613 88.7227C53.2685 88.5281 52.8084 88.1321 52.4287 87.7568L52.0742 87.3965C49.4867 84.7706 44.3813 79.2958 39.9131 72.7197C35.4819 66.1981 31.5 58.3407 31.5 51C31.5 38.0329 41.9303 27.5002 54.8223 27.5Z" stroke="#3D4856" stroke-width="3" stroke-linecap="round" stroke-linejoin="round"/>
<path d="M56.0645 38.9941C57.0416 39.0939 57.92 39.3305 58.6992 39.7051C59.7813 40.2155 60.6287 40.93 61.2412 41.8486C61.8742 42.7471 62.2012 43.8297 62.2217 45.0957H58.3008C58.2803 44.565 58.1374 44.0751 57.8721 43.626C57.6066 43.1563 57.2185 42.7781 56.708 42.4922C56.5116 42.3694 56.297 42.2718 56.0645 42.1982V48.21C56.389 48.3212 56.7258 48.4371 57.0752 48.5566C58.1371 48.9038 59.0974 49.3332 59.9551 49.8438C60.8331 50.3338 61.5276 50.9771 62.0381 51.7734C62.5485 52.5698 62.8037 53.6012 62.8037 54.8672C62.8037 55.9698 62.518 57.0012 61.9463 57.9609C61.3746 58.9002 60.5371 59.6657 59.4346 60.2578C58.5066 60.739 57.3829 61.0146 56.0645 61.0908V63.4131H54.0127V61.0449C52.9747 60.9325 52.0248 60.6829 51.1641 60.2891C49.9593 59.7377 49.0196 58.9507 48.3457 57.9297C47.672 56.9088 47.3251 55.6939 47.3047 54.2852H51.1943C51.1944 54.9998 51.3579 55.6431 51.6846 56.2148C52.0317 56.7662 52.5016 57.2055 53.0938 57.5322C53.3741 57.6817 53.681 57.7939 54.0127 57.875V51.1143C53.6734 50.9998 53.3263 50.8812 52.9707 50.7627C51.2761 50.191 50.0002 49.4658 49.1426 48.5879C48.2849 47.6894 47.8555 46.4946 47.8555 45.0039C47.8555 43.7584 48.1521 42.6865 48.7441 41.7881C49.3363 40.8896 50.1637 40.1952 51.2256 39.7051C52.058 39.3125 52.987 39.0721 54.0127 38.9814V36.5195H56.0645V38.9941ZM56.0645 57.9756C56.4834 57.9235 56.8615 57.8271 57.1982 57.6846C57.7495 57.4395 58.1683 57.1026 58.4541 56.6738C58.7602 56.2247 58.913 55.7043 58.9131 55.1123C58.9131 54.4385 58.7504 53.8868 58.4238 53.458C58.1175 53.0088 57.6881 52.6305 57.1367 52.3242C56.8086 52.1419 56.4505 51.9766 56.0645 51.8232V57.9756ZM54.0127 42.0967C53.7427 42.1479 53.4875 42.2287 53.2471 42.3389C52.7774 42.5431 52.3992 42.8494 52.1133 43.2578C51.8478 43.6458 51.7148 44.1363 51.7148 44.7285C51.7149 45.3002 51.838 45.78 52.083 46.168C52.3484 46.5354 52.726 46.8518 53.2158 47.1172C53.4609 47.2397 53.7268 47.3601 54.0127 47.4775V42.0967Z" fill="url(#paint0_linear_2629_47520)"/>
<defs>
<linearGradient id="paint0_linear_2629_47520" x1="38.6692" y1="36.3974" x2="62.0066" y2="59.8342" gradientUnits="userSpaceOnUse">
<stop stop-color="#3CEE5C"/>
<stop offset="1" stop-color="#D0E500"/>
</linearGradient>
</defs>
</svg>
