<svg width="20" height="20" viewBox="0 0 20 20" fill="none" xmlns="http://www.w3.org/2000/svg">
<path d="M18.3333 9.08317V3.4165C18.3333 2.1665 17.8 1.6665 16.475 1.6665H13.1083C11.7833 1.6665 11.25 2.1665 11.25 3.4165V9.08317C11.25 10.3332 11.7833 10.8332 13.1083 10.8332H16.475C17.8 10.8332 18.3333 10.3332 18.3333 9.08317Z" stroke="#292D32" stroke-width="1.25" stroke-linecap="round" stroke-linejoin="round"/>
<path d="M18.3333 16.5835V15.0835C18.3333 13.8335 17.8 13.3335 16.475 13.3335H13.1083C11.7833 13.3335 11.25 13.8335 11.25 15.0835V16.5835C11.25 17.8335 11.7833 18.3335 13.1083 18.3335H16.475C17.8 18.3335 18.3333 17.8335 18.3333 16.5835Z" stroke="#292D32" stroke-width="1.25" stroke-linecap="round" stroke-linejoin="round"/>
<path d="M8.7513 10.9165V16.5832C8.7513 17.8332 8.21797 18.3332 6.89297 18.3332H3.5263C2.2013 18.3332 1.66797 17.8332 1.66797 16.5832V10.9165C1.66797 9.6665 2.2013 9.1665 3.5263 9.1665H6.89297C8.21797 9.1665 8.7513 9.6665 8.7513 10.9165Z" stroke="#292D32" stroke-width="1.25" stroke-linecap="round" stroke-linejoin="round"/>
<path d="M8.7513 3.4165V4.9165C8.7513 6.1665 8.21797 6.6665 6.89297 6.6665H3.5263C2.2013 6.6665 1.66797 6.1665 1.66797 4.9165V3.4165C1.66797 2.1665 2.2013 1.6665 3.5263 1.6665H6.89297C8.21797 1.6665 8.7513 2.1665 8.7513 3.4165Z" stroke="#292D32" stroke-width="1.25" stroke-linecap="round" stroke-linejoin="round"/>
</svg>
