<svg width="53" height="52" viewBox="0 0 53 52" fill="none" xmlns="http://www.w3.org/2000/svg">
<rect width="52" height="52" transform="translate(0.5)" fill="white"/>
<path opacity="0.7" d="M21.1799 40.3459L31.51 45.3043C32.2003 45.6357 33 45.1325 33 44.3667V13.8122C33 13 32.5272 12.262 31.7892 11.9226L21.4746 7.17784C20.7856 6.86089 20 7.36425 20 8.12266V38.4707C20 39.2706 20.4588 39.9997 21.1799 40.3459Z" fill="#D7E4F3"/>
<path d="M20.5195 35.0997L32.4795 40.2997V17.1597L20.5195 12.2197V35.0997Z" fill="url(#paint0_linear_1884_58183)"/>
<path d="M20.5645 11.4409C20.5824 11.442 20.6003 11.4435 20.6182 11.4458C20.6273 11.447 20.6364 11.4492 20.6455 11.4507C20.6695 11.4546 20.6933 11.4591 20.7168 11.4653C20.723 11.467 20.7292 11.4684 20.7354 11.4702C20.7601 11.4774 20.7845 11.4859 20.8086 11.4956C20.8109 11.4965 20.8131 11.4976 20.8154 11.4985L32.4775 16.3149L41.2666 12.6851C43.1492 11.9078 45.2186 13.2918 45.2188 15.3286V32.3716C45.2187 34.3381 44.0515 36.1176 42.248 36.9019L32.7891 41.0142C32.7861 41.0155 32.7823 41.0158 32.7793 41.0171C32.7543 41.0276 32.7289 41.0366 32.7031 41.0444C32.6996 41.0455 32.696 41.0463 32.6924 41.0474C32.6653 41.0551 32.6381 41.0621 32.6104 41.0669C32.6068 41.0675 32.6032 41.0683 32.5996 41.0688C32.5689 41.0737 32.5379 41.0765 32.5068 41.0776H32.5049C32.4225 41.0805 32.3391 41.0718 32.2588 41.0483L32.2344 41.0386C32.2235 41.035 32.2129 41.0309 32.2021 41.0269L32.167 41.0142L20.5176 35.9497L11.7783 39.7495L11.6006 39.8198C9.75957 40.4832 7.77749 39.1216 7.77734 37.1265V19.9419C7.77734 17.9422 8.98393 16.14 10.832 15.3765L20.2197 11.4985C20.2231 11.4971 20.2271 11.496 20.2305 11.4946C20.2532 11.4856 20.2764 11.478 20.2998 11.4712C20.306 11.4694 20.3121 11.467 20.3184 11.4653C20.3422 11.459 20.3664 11.4547 20.3906 11.4507C20.3995 11.4492 20.4081 11.447 20.417 11.4458C20.4251 11.4447 20.4332 11.4437 20.4414 11.4429L20.5 11.439H20.5361C20.5456 11.4392 20.555 11.4404 20.5645 11.4409ZM21.2979 34.5884L31.6973 39.1089V17.6802L21.2979 13.3853V34.5884ZM43.6582 15.3286C43.6581 14.4029 42.718 13.7743 41.8623 14.1274L33.2588 17.6802V39.1079L41.626 35.4712C42.8598 34.9346 43.6581 33.7171 43.6582 32.3716V15.3286ZM11.4268 16.8179C10.1626 17.3404 9.33789 18.5739 9.33789 19.9419V37.1265C9.33803 38.0039 10.1814 38.6121 10.9941 38.3774L11.1562 38.3188L19.7373 34.5884V13.3853L11.4268 16.8179Z" fill="#3D4856"/>
<path opacity="0.7" d="M34.8203 20.4459C34.8203 20.0299 35.0682 19.6539 35.4506 19.49L41.3755 16.9508C41.7186 16.8037 42.1003 17.0554 42.1003 17.4287V18.5544C42.1003 18.9704 41.8524 19.3464 41.47 19.5103L35.5452 22.0495C35.202 22.1965 34.8203 21.9449 34.8203 21.5715V20.4459Z" fill="#D7E4F3"/>
<path opacity="0.7" d="M34.8203 24.6056C34.8203 24.1895 35.0682 23.8135 35.4506 23.6497L41.3755 21.1104C41.7186 20.9634 42.1003 21.2151 42.1003 21.5884V22.714C42.1003 23.1301 41.8524 23.5061 41.47 23.6699L35.5452 26.2092C35.202 26.3562 34.8203 26.1045 34.8203 25.7312V24.6056Z" fill="#D7E4F3"/>
<defs>
<linearGradient id="paint0_linear_1884_58183" x1="20.5195" y1="17.6797" x2="28.5" y2="37.5002" gradientUnits="userSpaceOnUse">
<stop stop-color="#63DD1E"/>
<stop offset="1" stop-color="#C3F63C"/>
</linearGradient>
</defs>
</svg>
