<svg width="12" height="12" viewBox="0 0 12 12" fill="none" xmlns="http://www.w3.org/2000/svg">
<path d="M2.70312 1.05078H9.30313C9.85313 1.05078 10.3031 1.50078 10.3031 2.05078V3.15078C10.3031 3.55078 10.0531 4.05078 9.80313 4.30078L7.65312 6.20078C7.35312 6.45078 7.15312 6.95078 7.15312 7.35078V9.50078C7.15312 9.80078 6.95312 10.2008 6.70312 10.3508L6.00313 10.8008C5.35313 11.2008 4.45312 10.7508 4.45312 9.95078V7.30078C4.45312 6.95078 4.25313 6.50078 4.05313 6.25078L2.15313 4.25078C1.90313 4.00078 1.70312 3.55078 1.70312 3.25078V2.10078C1.70312 1.50078 2.15312 1.05078 2.70312 1.05078Z" stroke="#20523C" stroke-width="1.2" stroke-miterlimit="10" stroke-linecap="round" stroke-linejoin="round"/>
<path d="M5.465 1.05078L3 5.00078" stroke="#20523C" stroke-width="1.2" stroke-miterlimit="10" stroke-linecap="round" stroke-linejoin="round"/>
</svg>
