<svg width="72" height="72" viewBox="0 0 72 72" fill="none" xmlns="http://www.w3.org/2000/svg">
<rect width="72" height="72" fill="white"/>
<path d="M53.6088 37.2463L59.7725 25.9342H62.0859L55.9221 37.2463H53.6088ZM61.8165 37.4402C61.2883 37.4402 60.8077 37.3217 60.3746 37.0847C59.9521 36.8477 59.6141 36.5083 59.3605 36.0666C59.107 35.6249 58.9802 35.1024 58.9802 34.4991C58.9802 33.8742 59.107 33.3463 59.3605 32.9154C59.6141 32.4737 59.9521 32.1343 60.3746 31.8973C60.8077 31.6603 61.2831 31.5418 61.8007 31.5418C62.3394 31.5418 62.82 31.6603 63.2426 31.8973C63.6651 32.1343 63.9979 32.4737 64.2408 32.9154C64.4943 33.3463 64.6211 33.8742 64.6211 34.4991C64.6211 35.1024 64.4943 35.6249 64.2408 36.0666C63.9873 36.5083 63.6493 36.8477 63.2267 37.0847C62.8148 37.3217 62.3447 37.4402 61.8165 37.4402ZM61.8007 35.8081C61.9908 35.8081 62.1598 35.7596 62.3077 35.6626C62.4556 35.5549 62.5718 35.404 62.6563 35.2101C62.7408 35.0162 62.7831 34.7792 62.7831 34.4991C62.7831 34.1974 62.7408 33.9496 62.6563 33.7557C62.5718 33.5618 62.4556 33.4163 62.3077 33.3194C62.1598 33.2116 61.9908 33.1578 61.8007 33.1578C61.6105 33.1578 61.4415 33.2116 61.2936 33.3194C61.1457 33.4163 61.0295 33.5618 60.945 33.7557C60.8605 33.9496 60.8183 34.192 60.8183 34.4829C60.8183 34.7738 60.8605 35.0162 60.945 35.2101C61.0295 35.404 61.1457 35.5549 61.2936 35.6626C61.4415 35.7596 61.6105 35.8081 61.8007 35.8081ZM53.9574 31.6387C53.4292 31.6387 52.9486 31.5202 52.5155 31.2832C52.0929 31.0462 51.7549 30.7068 51.5014 30.2651C51.2479 29.8234 51.1211 29.3009 51.1211 28.6976C51.1211 28.0727 51.2479 27.5448 51.5014 27.1139C51.7549 26.6721 52.0929 26.3328 52.5155 26.0958C52.9486 25.8587 53.4292 25.7402 53.9574 25.7402C54.4855 25.7402 54.9609 25.8587 55.3834 26.0958C55.806 26.3328 56.1387 26.6721 56.3817 27.1139C56.6352 27.5448 56.7619 28.0727 56.7619 28.6976C56.7619 29.3009 56.6352 29.8234 56.3817 30.2651C56.1387 30.7068 55.806 31.0462 55.3834 31.2832C54.9609 31.5202 54.4855 31.6387 53.9574 31.6387ZM53.9415 30.0065C54.1317 30.0065 54.3007 29.9581 54.4486 29.8611C54.5964 29.7534 54.7126 29.6025 54.7972 29.4086C54.8817 29.2147 54.9239 28.9777 54.9239 28.6976C54.9239 28.3959 54.8817 28.1481 54.7972 27.9542C54.7126 27.7603 54.5964 27.6148 54.4486 27.5179C54.3007 27.4101 54.1317 27.3563 53.9415 27.3563C53.7514 27.3563 53.5824 27.4101 53.4345 27.5179C53.2866 27.6148 53.1704 27.7603 53.0859 27.9542C53.0014 28.1481 52.9591 28.3959 52.9591 28.6976C52.9591 28.9777 53.0014 29.2147 53.0859 29.4086C53.1704 29.6025 53.2866 29.7534 53.4345 29.8611C53.5824 29.9581 53.7514 30.0065 53.9415 30.0065Z" fill="url(#paint0_linear_2144_42214)"/>
<path d="M10.2249 51.46V41.0624H17.0427V42.7409H12.3044V45.4294H16.0772V47.0633H12.3044V51.46H10.2249ZM18.0322 51.46V43.9886H19.874L20.0671 45.3551C20.2553 45.0383 20.483 44.7659 20.7504 44.5382C21.0178 44.3104 21.3247 44.1322 21.6713 44.0035C22.0278 43.8747 22.419 43.8104 22.8448 43.8104V46.0087H22.1466C21.8496 46.0087 21.5723 46.0433 21.3148 46.1127C21.0673 46.1721 20.8494 46.281 20.6613 46.4394C20.483 46.588 20.3444 46.7959 20.2454 47.0633C20.1563 47.3307 20.1117 47.6624 20.1117 48.0585V51.46H18.0322ZM27.2303 51.6382C26.4777 51.6382 25.8093 51.4798 25.2251 51.1629C24.6507 50.8361 24.2002 50.3856 23.8734 49.8112C23.5466 49.227 23.3832 48.5586 23.3832 47.806C23.3832 47.0237 23.5416 46.3355 23.8585 45.7413C24.1853 45.1373 24.6359 44.6669 25.2102 44.3302C25.7944 43.9836 26.4728 43.8104 27.2451 43.8104C27.9878 43.8104 28.6364 43.9737 29.191 44.3005C29.7554 44.6174 30.1911 45.0581 30.4981 45.6225C30.815 46.177 30.9734 46.8108 30.9734 47.5238C30.9734 47.6228 30.9684 47.7367 30.9585 47.8654C30.9585 47.9842 30.9486 48.108 30.9288 48.2367H24.8686V46.989H28.8642C28.8345 46.5335 28.6661 46.1721 28.3592 45.9047C28.0621 45.6274 27.6907 45.4888 27.2451 45.4888C26.9085 45.4888 26.6015 45.568 26.3242 45.7265C26.047 45.875 25.8291 46.1028 25.6707 46.4097C25.5122 46.7167 25.433 47.1079 25.433 47.5832V48.0139C25.433 48.4001 25.5073 48.7418 25.6558 49.0388C25.8043 49.326 26.0123 49.5488 26.2797 49.7072C26.547 49.8657 26.8589 49.9449 27.2154 49.9449C27.5719 49.9449 27.864 49.8706 28.0918 49.7221C28.3295 49.5736 28.5077 49.3805 28.6265 49.1428H30.7506C30.612 49.6082 30.3743 50.0291 30.0376 50.4054C29.7108 50.7816 29.3098 51.0837 28.8345 51.3114C28.3592 51.5293 27.8244 51.6382 27.2303 51.6382ZM35.7781 51.6382C35.0255 51.6382 34.3571 51.4798 33.7728 51.1629C33.1985 50.8361 32.7479 50.3856 32.4212 49.8112C32.0944 49.227 31.931 48.5586 31.931 47.806C31.931 47.0237 32.0894 46.3355 32.4063 45.7413C32.7331 45.1373 33.1836 44.6669 33.758 44.3302C34.3422 43.9836 35.0205 43.8104 35.7929 43.8104C36.5356 43.8104 37.1842 43.9737 37.7387 44.3005C38.3032 44.6174 38.7389 45.0581 39.0459 45.6225C39.3627 46.177 39.5212 46.8108 39.5212 47.5238C39.5212 47.6228 39.5162 47.7367 39.5063 47.8654C39.5063 47.9842 39.4964 48.108 39.4766 48.2367H33.4163V46.989H37.412C37.3823 46.5335 37.2139 46.1721 36.9069 45.9047C36.6099 45.6274 36.2385 45.4888 35.7929 45.4888C35.4562 45.4888 35.1493 45.568 34.872 45.7265C34.5947 45.875 34.3769 46.1028 34.2184 46.4097C34.06 46.7167 33.9808 47.1079 33.9808 47.5832V48.0139C33.9808 48.4001 34.0551 48.7418 34.2036 49.0388C34.3521 49.326 34.5601 49.5488 34.8274 49.7072C35.0948 49.8657 35.4067 49.9449 35.7632 49.9449C36.1197 49.9449 36.4118 49.8706 36.6396 49.7221C36.8772 49.5736 37.0555 49.3805 37.1743 49.1428H39.2984C39.1597 49.6082 38.9221 50.0291 38.5854 50.4054C38.2586 50.7816 37.8576 51.0837 37.3823 51.3114C36.9069 51.5293 36.3722 51.6382 35.7781 51.6382Z" fill="#3D4856"/>
<path d="M11.034 37.0818V21.3592L7.92188 22.3735V18.7338L12.6772 16.1979H14.9179V37.0818H11.034Z" fill="url(#paint1_linear_2144_42214)"/>
<path d="M24.6751 37.4398C23.0651 37.4398 21.6874 36.9824 20.5422 36.0675C19.3969 35.1526 18.509 33.8896 17.8782 32.2785C17.2641 30.6476 16.9571 28.768 16.9571 26.6398C16.9571 24.5117 17.2641 22.6421 17.8782 21.031C18.509 19.4001 19.3969 18.1271 20.5422 17.2122C21.6874 16.2973 23.0651 15.8398 24.6751 15.8398C26.285 15.8398 27.6627 16.2973 28.8079 17.2122C29.9532 18.1271 30.8329 19.4001 31.447 21.031C32.0777 22.6421 32.3931 24.5117 32.3931 26.6398C32.3931 28.768 32.0777 30.6476 31.447 32.2785C30.8329 33.8896 29.9532 35.1526 28.8079 36.0675C27.6627 36.9824 26.285 37.4398 24.6751 37.4398ZM24.6751 33.4122C25.4552 33.4122 26.1357 33.1338 26.7166 32.5769C27.3141 32.02 27.7706 31.2443 28.0859 30.2498C28.4179 29.2354 28.5839 28.0321 28.5839 26.6398C28.5839 25.2476 28.4179 24.0542 28.0859 23.0597C27.7706 22.0454 27.3141 21.2697 26.7166 20.7327C26.1357 20.1758 25.4552 19.8973 24.6751 19.8973C23.895 19.8973 23.2062 20.1758 22.6086 20.7327C22.0277 21.2697 21.5713 22.0454 21.2393 23.0597C20.9239 24.0542 20.7663 25.2476 20.7663 26.6398C20.7663 28.0321 20.9239 29.2354 21.2393 30.2498C21.5713 31.2443 22.0277 32.02 22.6086 32.5769C23.2062 33.1338 23.895 33.4122 24.6751 33.4122Z" fill="url(#paint2_linear_2144_42214)"/>
<path d="M41.6039 37.4398C39.9939 37.4398 38.6163 36.9824 37.471 36.0675C36.3258 35.1526 35.4378 33.8896 34.8071 32.2785C34.1929 30.6476 33.8859 28.768 33.8859 26.6398C33.8859 24.5117 34.1929 22.6421 34.8071 21.031C35.4378 19.4001 36.3258 18.1271 37.471 17.2122C38.6163 16.2973 39.9939 15.8398 41.6039 15.8398C43.2139 15.8398 44.5915 16.2973 45.7367 17.2122C46.882 18.1271 47.7617 19.4001 48.3758 21.031C49.0065 22.6421 49.3219 24.5117 49.3219 26.6398C49.3219 28.768 49.0065 30.6476 48.3758 32.2785C47.7617 33.8896 46.882 35.1526 45.7367 36.0675C44.5915 36.9824 43.2139 37.4398 41.6039 37.4398ZM41.6039 33.4122C42.384 33.4122 43.0645 33.1338 43.6454 32.5769C44.2429 32.02 44.6994 31.2443 45.0147 30.2498C45.3467 29.2354 45.5127 28.0321 45.5127 26.6398C45.5127 25.2476 45.3467 24.0542 45.0147 23.0597C44.6994 22.0454 44.2429 21.2697 43.6454 20.7327C43.0645 20.1758 42.384 19.8973 41.6039 19.8973C40.8238 19.8973 40.135 20.1758 39.5375 20.7327C38.9565 21.2697 38.5001 22.0454 38.1681 23.0597C37.8528 24.0542 37.6951 25.2476 37.6951 26.6398C37.6951 28.0321 37.8528 29.2354 38.1681 30.2498C38.5001 31.2443 38.9565 32.02 39.5375 32.5769C40.135 33.1338 40.8238 33.4122 41.6039 33.4122Z" fill="url(#paint3_linear_2144_42214)"/>
<path d="M43.5586 45.3604L48.3792 50.0404L56.5186 41.4004" stroke="#D7E4F3" stroke-width="3.6"/>
<defs>
<linearGradient id="paint0_linear_2144_42214" x1="19.5538" y1="26.6625" x2="59.958" y2="33.1178" gradientUnits="userSpaceOnUse">
<stop stop-color="#3CEE5C"/>
<stop offset="0.797437" stop-color="#D0E500"/>
</linearGradient>
<linearGradient id="paint1_linear_2144_42214" x1="1.13687" y1="17.5425" x2="65.0609" y2="26.2349" gradientUnits="userSpaceOnUse">
<stop stop-color="#3CEE5C"/>
<stop offset="0.797437" stop-color="#D0E500"/>
</linearGradient>
<linearGradient id="paint2_linear_2144_42214" x1="1.13687" y1="17.5425" x2="65.0609" y2="26.2349" gradientUnits="userSpaceOnUse">
<stop stop-color="#3CEE5C"/>
<stop offset="0.797437" stop-color="#D0E500"/>
</linearGradient>
<linearGradient id="paint3_linear_2144_42214" x1="1.13687" y1="17.5425" x2="65.0609" y2="26.2349" gradientUnits="userSpaceOnUse">
<stop stop-color="#3CEE5C"/>
<stop offset="0.797437" stop-color="#D0E500"/>
</linearGradient>
</defs>
</svg>
