<svg width="12" height="12" viewBox="0 0 12 12" fill="none" xmlns="http://www.w3.org/2000/svg">
  <path d="M5.99998 10.5C7.48909 10.5 8.69998 9.32843 8.69998 7.875C8.69998 6.89 8.19998 6.5 7.79998 5.75C7.59998 5.375 7.89998 4.625 7.39998 4.125C6.89998 3.625 6.19998 4.125 5.99998 3.625C5.79998 3.125 6.39998 2.125 5.49998 1.5C4.59998 2.5 3.29998 3.875 3.29998 5.75C3.29998 5.75 3.29998 7.875 5.99998 7.875C5.99998 8.375 5.49998 8.875 4.99998 8.875C4.49998 8.875 4.19998 8.625 3.99998 8.375C4.79998 9.625 5.99998 10.5 5.99998 10.5Z" fill="white"/>
</svg> 