<svg width="17" height="24" viewBox="0 0 17 24" fill="none" xmlns="http://www.w3.org/2000/svg">
<g clip-path="url(#clip0_4886_5396)">
<path fill-rule="evenodd" clip-rule="evenodd" d="M10.6735 0.447249C9.90012 0.202955 9.07756 0.0693359 8.22333 0.0693359C5.73101 0.0693359 3.50064 1.19596 2.01367 2.96586L5.84525 6.18931L10.6734 0.447179L10.6735 0.447249Z" fill="#1A73E8"/>
<path fill-rule="evenodd" clip-rule="evenodd" d="M2.00933 2.96582C0.824683 4.37545 0.109375 6.19457 0.109375 8.17891C0.109375 9.70451 0.413435 10.9401 0.912554 12.0475L5.84091 6.18927L2.00933 2.96582Z" fill="#EA4335"/>
<path fill-rule="evenodd" clip-rule="evenodd" d="M8.22162 5.0786C9.93531 5.0786 11.3238 6.4671 11.3238 8.18078C11.3238 8.94358 11.0478 9.64313 10.5909 10.1827C10.5909 10.1827 13.041 7.2686 15.4191 4.44231C14.4365 2.55288 12.7334 1.09932 10.6735 0.447266L5.8418 6.1894C6.41128 5.50924 7.26551 5.0786 8.22162 5.0786Z" fill="#4285F4"/>
<path fill-rule="evenodd" clip-rule="evenodd" d="M8.22029 11.2811C6.5066 11.2811 5.11811 9.89257 5.11811 8.17888C5.11811 7.42131 5.39051 6.72707 5.84046 6.1875L0.912109 12.0474C1.75399 13.9158 3.15483 15.415 4.59786 17.3044L10.5878 10.1825C10.02 10.854 9.16936 11.2811 8.22029 11.2811Z" fill="#FBBC04"/>
<path fill-rule="evenodd" clip-rule="evenodd" d="M10.472 19.2485C13.177 15.018 16.3319 13.0969 16.3319 8.17904C16.3319 6.83093 16.0014 5.56022 15.4197 4.44238L4.60156 17.3046C5.0603 17.9058 5.52253 18.5455 5.97423 19.2503C7.61936 21.7919 7.16236 23.3157 8.22399 23.3157C9.28206 23.3157 8.82681 21.7901 10.472 19.2485Z" fill="#34A853"/>
</g>
<defs>
<clipPath id="clip0_4886_5396">
<rect width="16.221" height="23.2462" fill="white" transform="translate(0.109375 0.0693359)"/>
</clipPath>
</defs>
</svg>
