<svg width="16" height="16" viewBox="0 0 16 16" fill="none" xmlns="http://www.w3.org/2000/svg">
<path d="M8 13C10.7614 13 13 10.7614 13 8C13 5.23858 10.7614 3 8 3C5.23858 3 3 5.23858 3 8C3 10.7614 5.23858 13 8 13Z" stroke="#20523C" stroke-linecap="round" stroke-linejoin="round"/>
<path d="M8 10C9.10457 10 10 9.10457 10 8C10 6.89543 9.10457 6 8 6C6.89543 6 6 6.89543 6 8C6 9.10457 6.89543 10 8 10Z" stroke="#20523C" stroke-linecap="round" stroke-linejoin="round"/>
<path d="M8 2.66671V1.33337" stroke="#20523C" stroke-linecap="round" stroke-linejoin="round"/>
<path d="M2.66536 8H1.33203" stroke="#20523C" stroke-linecap="round" stroke-linejoin="round"/>
<path d="M8 13.3334V14.6667" stroke="#20523C" stroke-linecap="round" stroke-linejoin="round"/>
<path d="M13.332 8H14.6654" stroke="#20523C" stroke-linecap="round" stroke-linejoin="round"/>
</svg>
