<svg width="20" height="20" viewBox="0 0 20 20" fill="none" xmlns="http://www.w3.org/2000/svg">
  <path d="M10 17.5L9.55 17.1C7.86667 15.5667 6.5 14.2333 5.45 13.1C4.4 11.9667 3.58333 10.9417 3 10.025C2.41667 9.10833 2.02083 8.25833 1.8125 7.475C1.60417 6.69167 1.5 5.9 1.5 5.1C1.5 3.68333 1.95833 2.5 2.875 1.55C3.79167 0.6 4.96667 0.125 6.4 0.125C7.23333 0.125 8 0.291667 8.7 0.625C9.4 0.958333 10 1.43333 10.5 2.05C11 1.43333 11.6 0.958333 12.3 0.625C13 0.291667 13.7667 0.125 14.6 0.125C16.0333 0.125 17.2083 0.6 18.125 1.55C19.0417 2.5 19.5 3.68333 19.5 5.1C19.5 5.9 19.3958 6.69167 19.1875 7.475C18.9792 8.25833 18.5833 9.10833 18 10.025C17.4167 10.9417 16.6 11.9667 15.55 13.1C14.5 14.2333 13.1333 15.5667 11.45 17.1L11 17.5H10ZM10 15.9C11.6 14.4333 12.9167 13.1583 13.95 12.075C14.9833 10.9917 15.7917 10.0583 16.375 9.275C16.9583 8.49167 17.3542 7.79167 17.5625 7.175C17.7708 6.55833 17.875 5.93333 17.875 5.3C17.875 4.28333 17.5417 3.45833 16.875 2.825C16.2083 2.19167 15.3667 1.875 14.35 1.875C13.5667 1.875 12.8542 2.09167 12.2125 2.525C11.5708 2.95833 11.1167 3.53333 10.85 4.25H9.15C8.88333 3.53333 8.42917 2.95833 7.7875 2.525C7.14583 2.09167 6.43333 1.875 5.65 1.875C4.63333 1.875 3.79167 2.19167 3.125 2.825C2.45833 3.45833 2.125 4.28333 2.125 5.3C2.125 5.93333 2.22917 6.55833 2.4375 7.175C2.64583 7.79167 3.04167 8.49167 3.625 9.275C4.20833 10.0583 5.01667 10.9917 6.05 12.075C7.08333 13.1583 8.4 14.4333 10 15.9Z" fill="#111111"/>
</svg> 