<svg width="72" height="72" viewBox="0 0 72 72" fill="none" xmlns="http://www.w3.org/2000/svg">
<rect width="72" height="72" fill="white"/>
<path d="M19.8008 42.3V14.8714C19.8008 14.5077 19.943 14.1589 20.1962 13.9017C20.4494 13.6445 20.7927 13.5 21.1508 13.5H50.8508C51.2088 13.5 51.5522 13.6445 51.8054 13.9017C52.0586 14.1589 52.2008 14.5077 52.2008 14.8714V42.3L46.8008 39.5571L41.4008 42.3L36.0008 39.5571L30.6008 42.3L25.2008 39.5571L19.8008 42.3Z" stroke="#3D4856" stroke-width="2.7" stroke-linecap="round" stroke-linejoin="round"/>
<path d="M19.8008 47.0887L19.8023 57.1415C19.8023 57.5018 19.9445 57.8473 20.1977 58.1021C20.4508 58.3569 20.7942 58.5 21.1522 58.5H50.8508C51.2089 58.5 51.5522 58.3569 51.8054 58.1021C52.0586 57.8473 52.2008 57.5018 52.2008 57.1415L52.1993 47.0887L46.801 44.1L41.4013 47.0887L36.0015 44.1L30.6018 47.0887L25.202 44.1L19.8008 47.0887Z" stroke="#3D4856" stroke-width="2.7" stroke-linecap="round" stroke-linejoin="round"/>
<path d="M38.6992 25.2002H46.7992" stroke="#D7E4F3" stroke-width="2.16" stroke-linecap="round" stroke-linejoin="round"/>
<path d="M38.6992 29.7002H46.7992" stroke="#D7E4F3" stroke-width="2.16" stroke-linecap="round" stroke-linejoin="round"/>
<path d="M31.8608 21.5996H25.7408C24.9455 21.5996 24.3008 22.2443 24.3008 23.0396V30.9596C24.3008 31.7549 24.9455 32.3996 25.7408 32.3996H31.8608C32.6561 32.3996 33.3008 31.7549 33.3008 30.9596V23.0396C33.3008 22.2443 32.6561 21.5996 31.8608 21.5996Z" fill="#D7E4F3"/>
<path d="M66.4248 31.4336L54.2041 43.6523L66.4229 55.8711L62.3506 59.9443L50.1318 47.7256L37.9141 59.9434L33.8408 55.8711L46.0586 43.6523L33.8398 31.4336L37.9131 27.3604L50.1318 39.5791L62.3516 27.3604L66.4248 31.4336Z" fill="url(#paint0_linear_2144_42181)"/>
<defs>
<linearGradient id="paint0_linear_2144_42181" x1="30.387" y1="29.9288" x2="63.4498" y2="31.4455" gradientUnits="userSpaceOnUse">
<stop stop-color="#3CEE5C"/>
<stop offset="0.797437" stop-color="#D0E500"/>
</linearGradient>
</defs>
</svg>
