<svg width="100" height="100" viewBox="0 0 100 100" fill="none" xmlns="http://www.w3.org/2000/svg">
<rect x="0.5" y="0.5" width="99" height="99" rx="49.5" stroke="#DEDEDE"/>
<path d="M67.5 48.3903V50.0003C67.4979 53.774 66.2759 57.4459 64.0163 60.4684C61.7568 63.491 58.5807 65.7021 54.9619 66.7721C51.343 67.8421 47.4752 67.7136 43.9353 66.4058C40.3954 65.098 37.3731 62.6809 35.3192 59.5151C33.2652 56.3493 32.2896 52.6044 32.5379 48.8388C32.7862 45.0732 34.2451 41.4888 36.697 38.6201C39.1489 35.7514 42.4624 33.7522 46.1433 32.9205C49.8243 32.0888 53.6755 32.4693 57.1225 34.0053" stroke="#20523C" stroke-width="3.5" stroke-linecap="round" stroke-linejoin="round"/>
<path d="M67.5 36L50 53.5175L44.75 48.2675" stroke="#20523C" stroke-width="3.5" stroke-linecap="round" stroke-linejoin="round"/>
</svg>
