<svg width="1240" height="350" viewBox="0 0 1240 350" fill="none" xmlns="http://www.w3.org/2000/svg">
<g clip-path="url(#clip0_2237_78438)">
<rect width="1240" height="350" rx="21" fill="#0E2E20"/>
<g opacity="0.7" filter="url(#filter0_f_2237_78438)">
<circle cx="620.5" cy="918.5" r="576.5" fill="url(#paint0_radial_2237_78438)"/>
</g>
<path opacity="0.1" d="M1091 341L1372 341" stroke="url(#paint1_linear_2237_78438)"/>
<path opacity="0.1" d="M1236.5 622.5V341.5" stroke="url(#paint2_linear_2237_78438)"/>
<path opacity="0.1" d="M77 269L77 511" stroke="url(#paint3_linear_2237_78438)"/>
<path opacity="0.1" d="M1095 172L661 172" stroke="url(#paint4_linear_2237_78438)"/>
<path opacity="0.1" d="M950 415L950 173" stroke="url(#paint5_linear_2237_78438)"/>
<path opacity="0.1" d="M806 -71L806 171" stroke="url(#paint6_linear_2237_78438)"/>
<path opacity="0.1" d="M365 172L-69 172" stroke="url(#paint7_linear_2237_78438)"/>
<path opacity="0.1" d="M220 415L220 173" stroke="url(#paint8_linear_2237_78438)"/>
<path opacity="0.1" d="M76 -71L76 171" stroke="url(#paint9_linear_2237_78438)"/>
<rect opacity="0.02" x="77" width="144" height="170" fill="white"/>
<rect opacity="0.01" x="367" width="144" height="170" fill="white"/>
<rect opacity="0.04" x="1092" width="144" height="170" fill="white"/>
<rect opacity="0.03" x="-68" y="171" width="144" height="170" fill="white"/>
<rect opacity="0.01" x="947" y="171" width="144" height="170" fill="white"/>
<rect opacity="0.02" x="1237" y="171" width="144" height="170" fill="white"/>
<rect opacity="0.01" x="-68" y="342" width="144" height="170" fill="white"/>
<rect opacity="0.02" x="77" y="342" width="144" height="170" fill="white"/>
<rect opacity="0.01" x="222" y="342" width="144" height="170" fill="white"/>
<rect opacity="0.01" x="512" y="342" width="144" height="170" fill="white"/>
<rect opacity="0.01" x="802" y="342" width="144" height="170" fill="white"/>
<rect opacity="0.01" x="1092" y="342" width="144" height="170" fill="white"/>
<rect opacity="0.02" x="1237" y="342" width="144" height="170" fill="white"/>
</g>
<defs>
<filter id="filter0_f_2237_78438" x="-556" y="-258" width="2353" height="2353" filterUnits="userSpaceOnUse" color-interpolation-filters="sRGB">
<feFlood flood-opacity="0" result="BackgroundImageFix"/>
<feBlend mode="normal" in="SourceGraphic" in2="BackgroundImageFix" result="shape"/>
<feGaussianBlur stdDeviation="300" result="effect1_foregroundBlur_2237_78438"/>
</filter>
<radialGradient id="paint0_radial_2237_78438" cx="0" cy="0" r="1" gradientUnits="userSpaceOnUse" gradientTransform="translate(620.5 918.5) rotate(90) scale(576.5)">
<stop stop-color="#D4FF70"/>
<stop offset="1" stop-color="#D0E500"/>
</radialGradient>
<linearGradient id="paint1_linear_2237_78438" x1="1091" y1="341.5" x2="1372" y2="341.5" gradientUnits="userSpaceOnUse">
<stop stop-color="#DEDEDE" stop-opacity="0"/>
<stop offset="0.532654" stop-color="#DEDEDE"/>
<stop offset="1" stop-color="#DEDEDE"/>
</linearGradient>
<linearGradient id="paint2_linear_2237_78438" x1="1237" y1="622.5" x2="1237" y2="341.5" gradientUnits="userSpaceOnUse">
<stop stop-color="#DEDEDE" stop-opacity="0"/>
<stop offset="0.532654" stop-color="#DEDEDE"/>
<stop offset="1" stop-color="#DEDEDE"/>
</linearGradient>
<linearGradient id="paint3_linear_2237_78438" x1="76.5" y1="269" x2="76.5" y2="511" gradientUnits="userSpaceOnUse">
<stop stop-color="#DEDEDE" stop-opacity="0"/>
<stop offset="0.532654" stop-color="#DEDEDE"/>
<stop offset="1" stop-color="#DEDEDE"/>
</linearGradient>
<linearGradient id="paint4_linear_2237_78438" x1="1095" y1="171.5" x2="661" y2="171.5" gradientUnits="userSpaceOnUse">
<stop stop-color="#DEDEDE" stop-opacity="0"/>
<stop offset="0.532654" stop-color="#DEDEDE"/>
<stop offset="1" stop-color="#DEDEDE"/>
</linearGradient>
<linearGradient id="paint5_linear_2237_78438" x1="950.5" y1="415" x2="950.5" y2="173" gradientUnits="userSpaceOnUse">
<stop stop-color="#DEDEDE" stop-opacity="0"/>
<stop offset="0.532654" stop-color="#DEDEDE"/>
<stop offset="1" stop-color="#DEDEDE"/>
</linearGradient>
<linearGradient id="paint6_linear_2237_78438" x1="805.5" y1="-71" x2="805.5" y2="171" gradientUnits="userSpaceOnUse">
<stop stop-color="#DEDEDE" stop-opacity="0"/>
<stop offset="0.532654" stop-color="#DEDEDE"/>
<stop offset="1" stop-color="#DEDEDE"/>
</linearGradient>
<linearGradient id="paint7_linear_2237_78438" x1="365" y1="171.5" x2="-69" y2="171.5" gradientUnits="userSpaceOnUse">
<stop stop-color="#DEDEDE" stop-opacity="0"/>
<stop offset="0.532654" stop-color="#DEDEDE"/>
<stop offset="1" stop-color="#DEDEDE"/>
</linearGradient>
<linearGradient id="paint8_linear_2237_78438" x1="220.5" y1="415" x2="220.5" y2="173" gradientUnits="userSpaceOnUse">
<stop stop-color="#DEDEDE" stop-opacity="0"/>
<stop offset="0.532654" stop-color="#DEDEDE"/>
<stop offset="1" stop-color="#DEDEDE"/>
</linearGradient>
<linearGradient id="paint9_linear_2237_78438" x1="75.5" y1="-71" x2="75.5" y2="171" gradientUnits="userSpaceOnUse">
<stop stop-color="#DEDEDE" stop-opacity="0"/>
<stop offset="0.532654" stop-color="#DEDEDE"/>
<stop offset="1" stop-color="#DEDEDE"/>
</linearGradient>
<clipPath id="clip0_2237_78438">
<rect width="1240" height="350" rx="21" fill="white"/>
</clipPath>
</defs>
</svg>
