<svg width="375" height="720" viewBox="0 0 375 720" fill="none" xmlns="http://www.w3.org/2000/svg">
<g clip-path="url(#clip0_1691_54320)">
<rect width="375" height="720" fill="url(#paint0_linear_1691_54320)"/>
<path opacity="0.1" d="M344.049 121.821L444.435 121.821" stroke="url(#paint1_linear_1691_54320)" stroke-width="0.357247"/>
<path opacity="0.1" d="M85.0469 182.91L-69.9985 182.91" stroke="url(#paint2_linear_1691_54320)" stroke-width="0.357247"/>
<path opacity="0.1" d="M33.2441 269.722L33.2441 183.268" stroke="url(#paint3_linear_1691_54320)" stroke-width="0.357247"/>
<path opacity="0.1" d="M345.477 61.4463L190.431 61.4463" stroke="url(#paint4_linear_1691_54320)" stroke-width="0.357247"/>
<path opacity="0.1" d="M293.678 148.258L293.678 61.8039" stroke="url(#paint5_linear_1691_54320)" stroke-width="0.357247"/>
<path opacity="0.1" d="M242.234 -25.3643L242.234 61.0896" stroke="url(#paint6_linear_1691_54320)" stroke-width="0.357247"/>
<path opacity="0.1" d="M84.6895 61.0898L-70.3559 61.0898" stroke="url(#paint7_linear_1691_54320)" stroke-width="0.357247"/>
<path opacity="0.1" d="M292.248 182.91L137.203 182.91" stroke="url(#paint8_linear_1691_54320)" stroke-width="0.357247"/>
<path opacity="0.1" d="M33.2441 147.543L33.2441 61.0891" stroke="url(#paint9_linear_1691_54320)" stroke-width="0.357247"/>
<rect opacity="0.02" x="-18.1992" width="51.4436" height="60.7321" fill="white"/>
<rect opacity="0.01" x="85.4023" width="51.4436" height="60.7321" fill="white"/>
<rect opacity="0.04" x="344.406" width="51.4436" height="60.7321" fill="white"/>
<rect opacity="0.01" x="292.605" y="61.0898" width="51.4436" height="60.7321" fill="white"/>
<rect opacity="0.02" x="-18.1992" y="122.179" width="51.4436" height="60.7321" fill="white"/>
<rect opacity="0.01" x="33.6016" y="122.179" width="51.4436" height="60.7321" fill="white"/>
<rect opacity="0.01" x="137.203" y="122.179" width="51.4436" height="60.7321" fill="white"/>
<rect opacity="0.01" x="240.805" y="122.179" width="51.4436" height="60.7321" fill="white"/>
<rect opacity="0.01" x="344.406" y="122.179" width="51.4436" height="60.7321" fill="white"/>
<rect opacity="0.01" x="-18.1992" y="183.268" width="51.4436" height="60.7321" fill="white"/>
<rect opacity="0.01" x="240.805" y="183.268" width="51.4436" height="60.7321" fill="white"/>
<rect opacity="0.01" x="292.605" y="183.268" width="51.4436" height="60.7321" fill="white"/>
<path opacity="0.1" d="M344.049 598.179L444.435 598.179" stroke="url(#paint10_linear_1691_54320)" stroke-width="0.357247"/>
<path opacity="0.1" d="M85.0469 537.09H-69.9985" stroke="url(#paint11_linear_1691_54320)" stroke-width="0.357247"/>
<path opacity="0.1" d="M33.2441 450.278L33.2441 536.732" stroke="url(#paint12_linear_1691_54320)" stroke-width="0.357247"/>
<path opacity="0.1" d="M345.477 658.554H190.431" stroke="url(#paint13_linear_1691_54320)" stroke-width="0.357247"/>
<path opacity="0.1" d="M293.678 571.742L293.678 658.196" stroke="url(#paint14_linear_1691_54320)" stroke-width="0.357247"/>
<path opacity="0.1" d="M242.234 745.364L242.234 658.91" stroke="url(#paint15_linear_1691_54320)" stroke-width="0.357247"/>
<path opacity="0.1" d="M84.6895 658.91H-70.3559" stroke="url(#paint16_linear_1691_54320)" stroke-width="0.357247"/>
<path opacity="0.1" d="M292.248 537.09H137.203" stroke="url(#paint17_linear_1691_54320)" stroke-width="0.357247"/>
<path opacity="0.1" d="M33.2441 572.457L33.2441 658.911" stroke="url(#paint18_linear_1691_54320)" stroke-width="0.357247"/>
<rect opacity="0.02" width="51.4436" height="60.7321" transform="matrix(1 0 0 -1 -18.1992 720)" fill="white"/>
<rect opacity="0.01" width="51.4436" height="60.7321" transform="matrix(1 0 0 -1 85.4023 720)" fill="white"/>
<rect opacity="0.04" width="51.4436" height="60.7321" transform="matrix(1 0 0 -1 344.406 720)" fill="white"/>
<rect opacity="0.01" width="51.4436" height="60.7321" transform="matrix(1 0 0 -1 292.605 658.91)" fill="white"/>
<rect opacity="0.02" width="51.4436" height="60.7321" transform="matrix(1 0 0 -1 -18.1992 597.821)" fill="white"/>
<rect opacity="0.01" width="51.4436" height="60.7321" transform="matrix(1 0 0 -1 33.6016 597.821)" fill="white"/>
<rect opacity="0.01" width="51.4436" height="60.7321" transform="matrix(1 0 0 -1 137.203 597.821)" fill="white"/>
<rect opacity="0.01" width="51.4436" height="60.7321" transform="matrix(1 0 0 -1 240.805 597.821)" fill="white"/>
<rect opacity="0.01" width="51.4436" height="60.7321" transform="matrix(1 0 0 -1 344.406 597.821)" fill="white"/>
<rect opacity="0.01" width="51.4436" height="60.7321" transform="matrix(1 0 0 -1 -18.1992 536.732)" fill="white"/>
<rect opacity="0.01" width="51.4436" height="60.7321" transform="matrix(1 0 0 -1 240.805 536.732)" fill="white"/>
<rect opacity="0.01" width="51.4436" height="60.7321" transform="matrix(1 0 0 -1 292.605 536.732)" fill="white"/>
</g>
<defs>
<linearGradient id="paint0_linear_1691_54320" x1="201.432" y1="360" x2="201.432" y2="720" gradientUnits="userSpaceOnUse">
<stop stop-color="#20523C"/>
<stop offset="1" stop-color="#2E7E5C"/>
</linearGradient>
<linearGradient id="paint1_linear_1691_54320" x1="344.049" y1="122.321" x2="444.435" y2="122.321" gradientUnits="userSpaceOnUse">
<stop stop-color="#DEDEDE" stop-opacity="0"/>
<stop offset="0.532654" stop-color="#DEDEDE"/>
<stop offset="1" stop-color="#DEDEDE"/>
</linearGradient>
<linearGradient id="paint2_linear_1691_54320" x1="85.0469" y1="182.41" x2="-69.9985" y2="182.41" gradientUnits="userSpaceOnUse">
<stop stop-color="#DEDEDE" stop-opacity="0"/>
<stop offset="0.532654" stop-color="#DEDEDE"/>
<stop offset="1" stop-color="#DEDEDE"/>
</linearGradient>
<linearGradient id="paint3_linear_1691_54320" x1="33.7441" y1="269.722" x2="33.7441" y2="183.268" gradientUnits="userSpaceOnUse">
<stop stop-color="#DEDEDE" stop-opacity="0"/>
<stop offset="0.532654" stop-color="#DEDEDE"/>
<stop offset="1" stop-color="#DEDEDE"/>
</linearGradient>
<linearGradient id="paint4_linear_1691_54320" x1="345.477" y1="60.9463" x2="190.431" y2="60.9463" gradientUnits="userSpaceOnUse">
<stop stop-color="#DEDEDE" stop-opacity="0"/>
<stop offset="0.532654" stop-color="#DEDEDE"/>
<stop offset="1" stop-color="#DEDEDE"/>
</linearGradient>
<linearGradient id="paint5_linear_1691_54320" x1="294.178" y1="148.258" x2="294.178" y2="61.8039" gradientUnits="userSpaceOnUse">
<stop stop-color="#DEDEDE" stop-opacity="0"/>
<stop offset="0.532654" stop-color="#DEDEDE"/>
<stop offset="1" stop-color="#DEDEDE"/>
</linearGradient>
<linearGradient id="paint6_linear_1691_54320" x1="241.734" y1="-25.3643" x2="241.734" y2="61.0896" gradientUnits="userSpaceOnUse">
<stop stop-color="#DEDEDE" stop-opacity="0"/>
<stop offset="0.532654" stop-color="#DEDEDE"/>
<stop offset="1" stop-color="#DEDEDE"/>
</linearGradient>
<linearGradient id="paint7_linear_1691_54320" x1="84.6895" y1="60.5898" x2="-70.3559" y2="60.5898" gradientUnits="userSpaceOnUse">
<stop stop-color="#DEDEDE" stop-opacity="0"/>
<stop offset="0.532654" stop-color="#DEDEDE"/>
<stop offset="1" stop-color="#DEDEDE"/>
</linearGradient>
<linearGradient id="paint8_linear_1691_54320" x1="292.248" y1="182.41" x2="137.203" y2="182.41" gradientUnits="userSpaceOnUse">
<stop stop-color="#DEDEDE" stop-opacity="0"/>
<stop offset="0.532654" stop-color="#DEDEDE"/>
<stop offset="1" stop-color="#DEDEDE"/>
</linearGradient>
<linearGradient id="paint9_linear_1691_54320" x1="33.7441" y1="147.543" x2="33.7441" y2="61.0891" gradientUnits="userSpaceOnUse">
<stop stop-color="#DEDEDE" stop-opacity="0"/>
<stop offset="0.532654" stop-color="#DEDEDE"/>
<stop offset="1" stop-color="#DEDEDE"/>
</linearGradient>
<linearGradient id="paint10_linear_1691_54320" x1="344.049" y1="597.679" x2="444.435" y2="597.679" gradientUnits="userSpaceOnUse">
<stop stop-color="#DEDEDE" stop-opacity="0"/>
<stop offset="0.532654" stop-color="#DEDEDE"/>
<stop offset="1" stop-color="#DEDEDE"/>
</linearGradient>
<linearGradient id="paint11_linear_1691_54320" x1="85.0469" y1="537.59" x2="-69.9985" y2="537.59" gradientUnits="userSpaceOnUse">
<stop stop-color="#DEDEDE" stop-opacity="0"/>
<stop offset="0.532654" stop-color="#DEDEDE"/>
<stop offset="1" stop-color="#DEDEDE"/>
</linearGradient>
<linearGradient id="paint12_linear_1691_54320" x1="33.7441" y1="450.278" x2="33.7441" y2="536.732" gradientUnits="userSpaceOnUse">
<stop stop-color="#DEDEDE" stop-opacity="0"/>
<stop offset="0.532654" stop-color="#DEDEDE"/>
<stop offset="1" stop-color="#DEDEDE"/>
</linearGradient>
<linearGradient id="paint13_linear_1691_54320" x1="345.477" y1="659.054" x2="190.431" y2="659.054" gradientUnits="userSpaceOnUse">
<stop stop-color="#DEDEDE" stop-opacity="0"/>
<stop offset="0.532654" stop-color="#DEDEDE"/>
<stop offset="1" stop-color="#DEDEDE"/>
</linearGradient>
<linearGradient id="paint14_linear_1691_54320" x1="294.178" y1="571.742" x2="294.178" y2="658.196" gradientUnits="userSpaceOnUse">
<stop stop-color="#DEDEDE" stop-opacity="0"/>
<stop offset="0.532654" stop-color="#DEDEDE"/>
<stop offset="1" stop-color="#DEDEDE"/>
</linearGradient>
<linearGradient id="paint15_linear_1691_54320" x1="241.734" y1="745.364" x2="241.734" y2="658.91" gradientUnits="userSpaceOnUse">
<stop stop-color="#DEDEDE" stop-opacity="0"/>
<stop offset="0.532654" stop-color="#DEDEDE"/>
<stop offset="1" stop-color="#DEDEDE"/>
</linearGradient>
<linearGradient id="paint16_linear_1691_54320" x1="84.6895" y1="659.41" x2="-70.3559" y2="659.41" gradientUnits="userSpaceOnUse">
<stop stop-color="#DEDEDE" stop-opacity="0"/>
<stop offset="0.532654" stop-color="#DEDEDE"/>
<stop offset="1" stop-color="#DEDEDE"/>
</linearGradient>
<linearGradient id="paint17_linear_1691_54320" x1="292.248" y1="537.59" x2="137.203" y2="537.59" gradientUnits="userSpaceOnUse">
<stop stop-color="#DEDEDE" stop-opacity="0"/>
<stop offset="0.532654" stop-color="#DEDEDE"/>
<stop offset="1" stop-color="#DEDEDE"/>
</linearGradient>
<linearGradient id="paint18_linear_1691_54320" x1="33.7441" y1="572.457" x2="33.7441" y2="658.911" gradientUnits="userSpaceOnUse">
<stop stop-color="#DEDEDE" stop-opacity="0"/>
<stop offset="0.532654" stop-color="#DEDEDE"/>
<stop offset="1" stop-color="#DEDEDE"/>
</linearGradient>
<clipPath id="clip0_1691_54320">
<rect width="375" height="720" fill="white"/>
</clipPath>
</defs>
</svg>
