<svg width="36" height="36" viewBox="0 0 36 36" fill="none" xmlns="http://www.w3.org/2000/svg">
<path d="M21.1063 11.5752C21.0566 11.4891 20.9747 11.4262 20.8786 11.4005C20.7826 11.3747 20.6802 11.3882 20.5941 11.4379L13.4492 15.5629C13.3631 15.6127 13.3002 15.6946 13.2745 15.7906C13.2488 15.8867 13.2622 15.9891 13.312 16.0752L22.5242 32.0314C22.5582 32.0902 22.6075 32.1386 22.6668 32.1715C22.7261 32.2044 22.7933 32.2206 22.8611 32.2184C22.9289 32.2161 22.9948 32.1955 23.0519 32.1588C23.1089 32.122 23.1549 32.0705 23.185 32.0097L25.1608 28.0141C25.1936 27.9477 25.2453 27.8926 25.3093 27.8555C25.3734 27.8185 25.447 27.8012 25.5208 27.8059L29.9695 28.0928C30.0372 28.0972 30.1048 28.083 30.1652 28.052C30.2255 28.0209 30.2763 27.974 30.3121 27.9164C30.3478 27.8587 30.3673 27.7924 30.3684 27.7246C30.3695 27.6567 30.3521 27.5898 30.3182 27.5311L21.1063 11.5752Z" fill="#C52229"/>
<path fill-rule="evenodd" clip-rule="evenodd" d="M20.2191 10.7886L13.0742 14.9136C12.8158 15.0628 12.6273 15.3085 12.5501 15.5967C12.4728 15.8849 12.5133 16.1919 12.6624 16.4503L21.8747 32.4066C22.3239 33.1843 23.4591 33.148 23.8573 32.3425L25.7222 28.5707L29.9211 28.8414C30.8177 28.8992 31.4173 27.9343 30.9677 27.1562L21.7558 11.2003C21.6819 11.0723 21.5836 10.9602 21.4663 10.8702C21.3491 10.7802 21.2153 10.7142 21.0726 10.676C20.9298 10.6378 20.7809 10.628 20.6344 10.6473C20.4879 10.6667 20.347 10.7146 20.2191 10.7886ZM20.5941 11.4381C20.6802 11.3883 20.7825 11.3749 20.8786 11.4006C20.9747 11.4264 21.0566 11.4892 21.1063 11.5753L30.3182 27.5316C30.352 27.5903 30.3693 27.6572 30.3682 27.725C30.367 27.7928 30.3475 27.859 30.3118 27.9166C30.276 27.9742 30.2252 28.021 30.165 28.0521C30.1047 28.0831 30.0371 28.0972 29.9694 28.093L25.5212 27.8061C25.4473 27.8013 25.3736 27.8185 25.3095 27.8556C25.2453 27.8926 25.1936 27.9478 25.1608 28.0142L23.1849 32.0102C23.1548 32.071 23.1088 32.1225 23.0517 32.1591C22.9946 32.1958 22.9287 32.2163 22.8609 32.2185C22.793 32.2206 22.7259 32.2044 22.6666 32.1714C22.6073 32.1384 22.5581 32.09 22.5242 32.0312L13.3119 16.0753C13.2622 15.9892 13.2487 15.8868 13.2745 15.7908C13.3002 15.6947 13.3631 15.6128 13.4492 15.5631L20.5941 11.4381Z" fill="#9B0F15"/>
<path fill-rule="evenodd" clip-rule="evenodd" d="M19.2448 24.8144C19.3313 24.7653 19.4338 24.7527 19.5296 24.7792C19.6255 24.8057 19.7069 24.8692 19.7559 24.9557L23.1309 30.9085C23.18 30.995 23.1927 31.0975 23.1662 31.1934C23.1398 31.2893 23.0763 31.3707 22.9897 31.4198C22.9032 31.4689 22.8007 31.4816 22.7048 31.4551C22.609 31.4286 22.5275 31.3651 22.4784 31.2786L19.1034 25.3255C19.0544 25.239 19.0417 25.1365 19.0683 25.0406C19.0948 24.9448 19.1583 24.8634 19.2448 24.8144Z" fill="#DF3840"/>
<path d="M26.8492 23.8216C26.7626 23.873 26.6591 23.8879 26.5615 23.863C26.4639 23.8381 26.3802 23.7755 26.3287 23.6889C26.2795 23.601 26.2671 23.4972 26.2944 23.4002C26.3217 23.3032 26.3864 23.221 26.4742 23.1717C26.5609 23.1203 26.6644 23.1054 26.762 23.1303C26.8596 23.1552 26.9433 23.2179 26.9947 23.3045C27.044 23.3924 27.0564 23.4962 27.0291 23.5932C27.0018 23.6902 26.9371 23.7723 26.8492 23.8216ZM26.1094 22.7274C25.8806 22.8594 25.5907 22.7859 25.4617 22.5624C25.3331 22.3392 25.4141 22.0512 25.6429 21.9192C25.8716 21.7872 26.1615 21.8611 26.2901 22.0842C26.4191 22.3074 26.3381 22.5954 26.1094 22.7274ZM25.5075 24.4231C25.2787 24.5551 24.9885 24.4812 24.8599 24.2581C24.7309 24.035 24.8119 23.747 25.0406 23.615C25.2694 23.483 25.5592 23.5565 25.6882 23.78C25.8169 24.0031 25.7362 24.2911 25.5075 24.4231ZM26.6051 25.0212C26.5513 25.0532 26.4869 25.0625 26.4262 25.047C26.3655 25.0315 26.3135 24.9926 26.2815 24.9387C26.2663 24.9117 26.2566 24.8819 26.2529 24.8511C26.2492 24.8203 26.2516 24.789 26.26 24.7591C26.2684 24.7293 26.2826 24.7013 26.3018 24.6769C26.321 24.6526 26.3448 24.6322 26.3719 24.617C26.4257 24.585 26.4901 24.5758 26.5508 24.5913C26.6114 24.6067 26.6635 24.6457 26.6955 24.6995C26.7262 24.7541 26.734 24.8187 26.7171 24.879C26.7002 24.9394 26.6597 24.9905 26.6051 25.0212ZM25.014 23.0904C24.9601 23.1223 24.8958 23.1316 24.8351 23.1161C24.7744 23.1006 24.7224 23.0617 24.6904 23.0079C24.6598 22.9533 24.652 22.8888 24.6689 22.8286C24.6858 22.7683 24.7259 22.7172 24.7804 22.6865C24.807 22.6706 24.8366 22.6602 24.8673 22.6557C24.8981 22.6513 24.9294 22.6529 24.9595 22.6606C24.9896 22.6682 25.0178 22.6818 25.0427 22.7004C25.0676 22.719 25.0885 22.7423 25.1044 22.769C25.1349 22.8236 25.1426 22.8881 25.1257 22.9484C25.1087 23.0086 25.0686 23.0597 25.014 23.0904ZM25.6309 21.233C25.577 21.2649 25.5127 21.2742 25.452 21.2587C25.3913 21.2433 25.3392 21.2043 25.3072 21.1505C25.2766 21.0959 25.2689 21.0314 25.2858 20.9712C25.3027 20.9109 25.3427 20.8599 25.3972 20.8291C25.4239 20.8132 25.4535 20.8028 25.4842 20.7983C25.5149 20.7939 25.5463 20.7955 25.5763 20.8032C25.6064 20.8109 25.6347 20.8244 25.6596 20.843C25.6844 20.8616 25.7054 20.8849 25.7212 20.9116C25.7518 20.9662 25.7595 21.0308 25.7425 21.091C25.7256 21.1513 25.6854 21.2023 25.6309 21.233ZM25.0429 25.6539C24.989 25.6858 24.9247 25.6951 24.864 25.6796C24.8033 25.6641 24.7512 25.6252 24.7192 25.5714C24.704 25.5443 24.6943 25.5145 24.6906 25.4837C24.6869 25.4529 24.6894 25.4217 24.6978 25.3918C24.7062 25.3619 24.7204 25.334 24.7395 25.3096C24.7587 25.2852 24.7825 25.2648 24.8096 25.2496C24.8635 25.2177 24.9278 25.2084 24.9885 25.2239C25.0492 25.2394 25.1012 25.2783 25.1332 25.3321C25.164 25.3867 25.1718 25.4513 25.1549 25.5116C25.138 25.572 25.0975 25.6231 25.0429 25.6539ZM29.3122 27.5236C29.2584 27.5556 29.194 27.5648 29.1333 27.5494C29.0727 27.5339 29.0206 27.495 28.9886 27.4411C28.958 27.3865 28.9504 27.322 28.9673 27.2617C28.9843 27.2015 29.0244 27.1504 29.079 27.1197C29.1057 27.1039 29.1352 27.0934 29.166 27.089C29.1967 27.0845 29.228 27.0862 29.2581 27.0938C29.2882 27.1015 29.3165 27.115 29.3413 27.1336C29.3662 27.1522 29.3871 27.1755 29.403 27.2022C29.4335 27.2569 29.4411 27.3215 29.4241 27.3817C29.4071 27.442 29.3669 27.493 29.3122 27.5236ZM27.852 24.7426C27.8253 24.7585 27.7957 24.769 27.765 24.7734C27.7343 24.7779 27.703 24.7762 27.6729 24.7685C27.6428 24.7609 27.6145 24.7474 27.5896 24.7288C27.5648 24.7102 27.5438 24.6868 27.528 24.6601C27.4974 24.6055 27.4898 24.5409 27.5069 24.4807C27.5239 24.4204 27.5641 24.3694 27.6187 24.3387C27.6726 24.3068 27.7369 24.2975 27.7976 24.313C27.8583 24.3285 27.9104 24.3674 27.9424 24.4212C27.9729 24.4759 27.9806 24.5404 27.9637 24.6006C27.9467 24.6609 27.9066 24.712 27.852 24.7426ZM26.1502 26.3154C26.0625 26.3674 25.9578 26.3824 25.859 26.3573C25.7602 26.3321 25.6755 26.2687 25.6234 26.1811C25.5986 26.1371 25.5828 26.0886 25.5768 26.0385C25.5708 25.9884 25.5747 25.9375 25.5884 25.8889C25.6021 25.8403 25.6251 25.7949 25.6564 25.7552C25.6876 25.7155 25.7263 25.6823 25.7704 25.6576C25.8138 25.6318 25.8618 25.6148 25.9118 25.6076C25.9618 25.6004 26.0127 25.6031 26.0616 25.6156C26.1105 25.6281 26.1565 25.65 26.197 25.6803C26.2374 25.7105 26.2715 25.7485 26.2972 25.7919C26.4022 25.9734 26.3362 26.2081 26.1502 26.3154ZM27.7856 25.8091C27.7422 25.8349 27.6942 25.8519 27.6442 25.8592C27.5943 25.8664 27.5434 25.8637 27.4944 25.8513C27.4455 25.8389 27.3995 25.8169 27.3591 25.7867C27.3186 25.7565 27.2845 25.7186 27.2587 25.6752C27.234 25.6312 27.2182 25.5827 27.2122 25.5326C27.2063 25.4824 27.2102 25.4316 27.2239 25.383C27.2376 25.3343 27.2608 25.2889 27.292 25.2492C27.3233 25.2095 27.362 25.1764 27.4061 25.1517C27.4495 25.126 27.4976 25.109 27.5476 25.1018C27.5975 25.0945 27.6484 25.0973 27.6974 25.1097C27.7463 25.1222 27.7923 25.1442 27.8327 25.1744C27.8731 25.2047 27.9072 25.2426 27.933 25.286C28.038 25.4675 27.9716 25.7019 27.7856 25.8091ZM27.714 27.1029C27.6706 27.1287 27.6225 27.1456 27.5725 27.1529C27.5226 27.1601 27.4717 27.1574 27.4227 27.1449C27.3738 27.1324 27.3278 27.1104 27.2874 27.0802C27.247 27.05 27.2129 27.012 27.1871 26.9686C27.1624 26.9246 27.1466 26.8761 27.1406 26.826C27.1346 26.7759 27.1385 26.725 27.1521 26.6764C27.1658 26.6278 27.1889 26.5824 27.2201 26.5427C27.2513 26.503 27.2901 26.4698 27.3341 26.4451C27.3775 26.4193 27.4256 26.4023 27.4756 26.3951C27.5255 26.3879 27.5764 26.3906 27.6254 26.4031C27.6743 26.4156 27.7203 26.4375 27.7607 26.4678C27.8011 26.498 27.8352 26.536 27.861 26.5794C27.966 26.7609 27.9 26.9952 27.714 27.1029ZM28.9372 26.399C28.8834 26.4309 28.819 26.4402 28.7583 26.4247C28.6977 26.4093 28.6456 26.3703 28.6136 26.3165C28.583 26.2619 28.5754 26.1974 28.5923 26.1371C28.6093 26.0769 28.6494 26.0258 28.704 25.9951C28.7307 25.9792 28.7602 25.9688 28.791 25.9643C28.8217 25.9599 28.853 25.9615 28.8831 25.9692C28.9132 25.9769 28.9415 25.9904 28.9663 26.009C28.9912 26.0276 29.0121 26.0509 29.028 26.0776C29.0585 26.1323 29.0661 26.1968 29.0491 26.2571C29.0321 26.3174 28.9919 26.3684 28.9372 26.399Z" fill="#AA161D"/>
<path fill-rule="evenodd" clip-rule="evenodd" d="M25.5168 27.1274C25.5244 27.0282 25.5712 26.9362 25.6467 26.8715C25.7222 26.8068 25.8204 26.7747 25.9195 26.7824L29.5525 27.0636C29.6517 27.0713 29.7437 27.1181 29.8084 27.1937C29.873 27.2692 29.905 27.3674 29.8973 27.4666C29.8896 27.5657 29.8428 27.6577 29.7673 27.7224C29.6917 27.7871 29.5935 27.8191 29.4944 27.8114L25.8618 27.5301C25.8126 27.5263 25.7647 27.5129 25.7208 27.4906C25.6769 27.4683 25.6378 27.4375 25.6057 27.4001C25.5737 27.3626 25.5493 27.3192 25.5341 27.2724C25.5188 27.2255 25.5129 27.1765 25.5168 27.1274Z" fill="#DF3840"/>
<path d="M15.1879 11.5752C15.2376 11.4891 15.3195 11.4262 15.4156 11.4005C15.5117 11.3747 15.614 11.3882 15.7002 11.4379L22.845 15.5629C22.9312 15.6127 22.994 15.6946 23.0197 15.7906C23.0455 15.8867 23.032 15.9891 22.9823 16.0752L13.77 32.0314C13.7361 32.0903 13.6868 32.1387 13.6274 32.1717C13.568 32.2047 13.5008 32.221 13.433 32.2187C13.3651 32.2165 13.2991 32.1959 13.242 32.159C13.1849 32.1222 13.1389 32.0706 13.1089 32.0097L11.1334 28.0141C11.1006 27.9477 11.0489 27.8925 10.9847 27.8554C10.9206 27.8184 10.8469 27.8012 10.773 27.8059L6.32478 28.0928C6.25706 28.0972 6.18942 28.083 6.12909 28.052C6.06875 28.0209 6.01798 27.974 5.98219 27.9164C5.94639 27.8587 5.92691 27.7924 5.92583 27.7246C5.92475 27.6567 5.9421 27.5898 5.97603 27.5311L15.1879 11.5752Z" fill="#F1333B"/>
<path fill-rule="evenodd" clip-rule="evenodd" d="M16.074 10.7884L23.2189 14.9134C23.4773 15.0626 23.6658 15.3083 23.743 15.5965C23.8202 15.8847 23.7798 16.1918 23.6306 16.4502L14.418 32.4064C13.9688 33.1842 12.8336 33.1478 12.4354 32.3423L10.5705 28.5705L6.37163 28.8413C5.47463 28.899 4.87538 27.9342 5.32463 27.156L14.5369 11.2002C14.6861 10.9418 14.9318 10.7532 15.22 10.676C15.5082 10.5988 15.8156 10.6392 16.074 10.7884ZM15.699 11.4379C15.6129 11.3882 15.5105 11.3747 15.4145 11.4005C15.3184 11.4262 15.2365 11.489 15.1868 11.5752L5.97451 27.5314C5.94067 27.5902 5.9234 27.657 5.92453 27.7248C5.92567 27.7926 5.94516 27.8588 5.98094 27.9164C6.01673 27.974 6.06746 28.0208 6.12774 28.0519C6.18802 28.083 6.25559 28.0971 6.32326 28.0928L10.7719 27.8059C10.8457 27.8012 10.9193 27.8185 10.9834 27.8555C11.0474 27.8925 11.0991 27.9477 11.1319 28.014L13.1081 32.01C13.1383 32.0708 13.1843 32.1223 13.2414 32.159C13.2985 32.1957 13.3644 32.2162 13.4322 32.2183C13.5 32.2205 13.5672 32.2042 13.6264 32.1712C13.6857 32.1382 13.735 32.0898 13.7689 32.031L22.9811 16.0752C23.0309 15.989 23.0443 15.8867 23.0186 15.7906C22.9929 15.6946 22.93 15.6126 22.8439 15.5629L15.699 11.4379Z" fill="#9B0F15"/>
<path fill-rule="evenodd" clip-rule="evenodd" d="M15.7476 11.8393C15.8336 11.8892 15.8963 11.9711 15.9219 12.0672C15.9475 12.1633 15.9339 12.2655 15.8841 12.3516L7.04835 27.6096C7.02445 27.6536 6.99195 27.6924 6.95279 27.7237C6.91363 27.755 6.86859 27.7781 6.82034 27.7917C6.77209 27.8053 6.72161 27.8091 6.67188 27.8028C6.62215 27.7965 6.57418 27.7804 6.5308 27.7552C6.48743 27.7301 6.44953 27.6965 6.41935 27.6565C6.38917 27.6165 6.36732 27.5708 6.35509 27.5222C6.34286 27.4736 6.34049 27.4231 6.34814 27.3735C6.35579 27.324 6.37329 27.2765 6.3996 27.2338L15.2354 11.9758C15.2852 11.8899 15.3671 11.8273 15.4631 11.8017C15.559 11.7761 15.6616 11.7897 15.7476 11.8393ZM11.6234 27.7168C11.7129 27.6736 11.816 27.6678 11.9099 27.7005C12.0037 27.7333 12.0808 27.802 12.124 27.8916L13.7414 31.243C13.7846 31.3325 13.7905 31.4356 13.7578 31.5295C13.7251 31.6234 13.6564 31.7005 13.5668 31.7438C13.4772 31.787 13.3742 31.7929 13.2802 31.7602C13.1863 31.7275 13.1092 31.6588 13.066 31.5692L11.4486 28.2175C11.4054 28.1279 11.3995 28.0248 11.4323 27.931C11.4651 27.8371 11.5338 27.7601 11.6234 27.7168Z" fill="#FE666D"/>
<path d="M21.3626 5.00737C22.9174 4.779 24.2681 5.07413 25.1595 5.9655C26.0509 6.85687 26.346 8.208 26.1176 9.76275C27.3788 10.7003 28.125 11.8639 28.125 13.125C28.125 14.3857 27.3788 15.5494 26.1176 16.4876C26.346 18.0424 26.0509 19.3931 25.1595 20.2845C24.2681 21.1759 22.917 21.471 21.3622 21.2426C20.4247 22.5037 19.2607 23.25 18 23.25C16.7393 23.25 15.5756 22.5037 14.6378 21.2426C13.083 21.4714 11.7319 21.1759 10.8405 20.2845C9.94913 19.3931 9.654 18.042 9.88238 16.4876C8.62125 15.5494 7.875 14.3857 7.875 13.125C7.875 11.8643 8.62125 10.7006 9.88238 9.76275C9.654 8.208 9.94913 6.85687 10.8405 5.9655C11.7319 5.07413 13.083 4.779 14.6374 5.00737C15.5756 3.74662 16.7393 3 18 3C19.2607 3 20.4244 3.74625 21.3626 5.00737Z" fill="#FFBB0D"/>
<path fill-rule="evenodd" clip-rule="evenodd" d="M21.6915 4.2135C23.2238 4.07475 24.669 4.41413 25.6897 5.43525C26.7109 6.45638 27.0499 7.90125 26.9119 9.4335C28.0931 10.4198 28.875 11.6812 28.875 13.125C28.875 14.5691 28.0931 15.8306 26.9119 16.8165C27.0502 18.3488 26.7109 19.794 25.6897 20.8148C24.6686 21.8359 23.2237 22.1752 21.6911 22.0369C20.7056 23.2181 19.4445 24 18 24C16.5562 24 15.2944 23.2181 14.3089 22.0369C12.7763 22.1752 11.3314 21.8359 10.3102 20.8148C9.28912 19.7936 8.94975 18.3488 9.08813 16.8165C7.90688 15.8303 7.125 14.5688 7.125 13.125C7.125 11.6809 7.90688 10.4194 9.08813 9.4335C8.95013 7.90125 9.28912 6.45638 10.3102 5.43525C11.3314 4.41413 12.7762 4.07512 14.3085 4.2135C15.2944 3.03188 16.5562 2.25 18 2.25C19.4441 2.25 20.7056 3.03188 21.6915 4.2135ZM21.3626 5.00737C20.4244 3.74662 19.2607 3 18 3C16.7393 3 15.5756 3.74625 14.6374 5.00737C13.0826 4.779 11.7319 5.07413 10.8405 5.9655C9.94913 6.85687 9.654 8.208 9.88238 9.76275C8.62125 10.7003 7.875 11.8639 7.875 13.125C7.875 14.3857 8.62125 15.5494 9.88238 16.4876C9.654 18.0424 9.94913 19.3931 10.8405 20.2845C11.7319 21.1759 13.083 21.471 14.6378 21.2426C15.5753 22.5037 16.7393 23.25 18 23.25C19.2607 23.25 20.4244 22.5037 21.3622 21.2426C22.9174 21.4714 24.2681 21.1759 25.1595 20.2845C26.0509 19.3931 26.346 18.042 26.1176 16.4876C27.3788 15.5494 28.125 14.3857 28.125 13.125C28.125 11.8643 27.3788 10.7006 26.1176 9.76275C26.346 8.208 26.0509 6.85725 25.1595 5.9655C24.2681 5.07413 22.917 4.779 21.3626 5.00737Z" fill="#E89B05"/>
<path fill-rule="evenodd" clip-rule="evenodd" d="M27.375 12.75C27.4745 12.75 27.5698 12.7895 27.6402 12.8598C27.7105 12.9302 27.75 13.0255 27.75 13.125C27.75 14.3876 27.0386 15.5137 25.9163 16.404C26.0805 17.8267 25.7873 19.1265 24.8944 20.019C24.0015 20.9122 22.7017 21.2055 21.279 21.0413C20.3887 22.1636 19.2626 22.875 18 22.875C17.9005 22.875 17.8052 22.8355 17.7348 22.7652C17.6645 22.6948 17.625 22.5995 17.625 22.5C17.625 22.4005 17.6645 22.3052 17.7348 22.2348C17.8052 22.1645 17.9005 22.125 18 22.125C19.0073 22.125 19.9856 21.5291 20.8125 20.4176C20.8529 20.3633 20.9072 20.3209 20.9697 20.295C21.0323 20.269 21.1006 20.2605 21.1676 20.2703C22.5386 20.4716 23.6516 20.2013 24.3641 19.4891C25.0763 18.7766 25.3466 17.6636 25.1453 16.293C25.1354 16.226 25.1439 16.1575 25.1699 16.0949C25.1958 16.0323 25.2382 15.9779 25.2926 15.9375C26.4037 15.1106 27 14.1323 27 13.125C27 13.0255 27.0395 12.9302 27.1098 12.8598C27.1802 12.7895 27.2755 12.75 27.375 12.75Z" fill="#EEAD04"/>
<path fill-rule="evenodd" clip-rule="evenodd" d="M18 4.125C16.9928 4.125 16.0144 4.72125 15.1875 5.83238C15.1471 5.88677 15.0927 5.92919 15.0301 5.95514C14.9675 5.98109 14.899 5.9896 14.832 5.97975C13.4614 5.77838 12.3484 6.04913 11.6359 6.76125C10.9241 7.47338 10.6534 8.58638 10.8547 9.957C10.8646 10.024 10.8561 10.0925 10.8301 10.1551C10.8042 10.2177 10.7618 10.2721 10.7074 10.3125C9.59625 11.1394 9 12.1178 9 13.125C9 13.2245 8.96049 13.3198 8.89017 13.3902C8.81984 13.4605 8.72446 13.5 8.625 13.5C8.52554 13.5 8.43016 13.4605 8.35983 13.3902C8.28951 13.3198 8.25 13.2245 8.25 13.125C8.25 11.8624 8.96175 10.7363 10.0837 9.846C9.9195 8.42325 10.2131 7.1235 11.1056 6.231C11.9985 5.33812 13.2983 5.04488 14.7206 5.20875C15.6113 4.08675 16.7378 3.375 18 3.375C18.0995 3.375 18.1948 3.41451 18.2652 3.48484C18.3355 3.55516 18.375 3.65054 18.375 3.75C18.375 3.84946 18.3355 3.94484 18.2652 4.01516C18.1948 4.08549 18.0995 4.125 18 4.125Z" fill="#FFD15C"/>
<path d="M20.4907 7.11188C21.6424 6.94313 22.6432 7.16137 23.3032 7.82175C23.9636 8.48175 24.1823 9.483 24.0131 10.6342C24.9469 11.3291 25.5 12.1912 25.5 13.125C25.5 14.0588 24.9469 14.9212 24.0131 15.6157C24.1819 16.7674 23.9636 17.7682 23.3032 18.4282C22.6432 19.0886 21.6424 19.3073 20.4907 19.1381C19.7959 20.0719 18.9338 20.625 18 20.625C17.0662 20.625 16.2041 20.0723 15.5093 19.1381C14.3576 19.3073 13.3568 19.0886 12.6968 18.4282C12.0364 17.7682 11.8178 16.7674 11.9869 15.6157C11.0531 14.9209 10.5 14.0588 10.5 13.125C10.5 12.1912 11.0531 11.3288 11.9869 10.6342C11.8181 9.48263 12.0364 8.48175 12.6968 7.82175C13.3568 7.16175 14.3576 6.94275 15.5093 7.11188C16.2041 6.17813 17.0662 5.625 18 5.625C18.9338 5.625 19.7962 6.17813 20.4907 7.11188Z" fill="#FFDD28"/>
<path d="M17.4375 9.5625L15.5625 11.4375L16.6875 12.9375L17.25 12.5625V16.875H19.125V9.5625H17.4375Z" fill="#FFEF9C"/>
<mask id="path-15-outside-1_2139_42196" maskUnits="userSpaceOnUse" x="14.75" y="8.75" width="5" height="9" fill="black">
<rect fill="white" x="14.75" y="8.75" width="5" height="9"/>
<path d="M18.7207 16.75H17.6484V11.7842L16.7607 12.6719L16.0049 11.916L17.6484 10.2725H18.7207V16.75Z"/>
</mask>
<path d="M18.7207 16.75V17.6125H19.5832V16.75H18.7207ZM17.6484 16.75H16.7859V17.6125H17.6484V16.75ZM17.6484 11.7842H18.5109V9.70192L17.0386 11.1743L17.6484 11.7842ZM16.7607 12.6719L16.1509 13.2818L16.7607 13.8916L17.3706 13.2818L16.7607 12.6719ZM16.0049 11.916L15.395 11.3061L14.7851 11.916L15.395 12.5259L16.0049 11.916ZM17.6484 10.2725V9.40996H17.2912L17.0386 9.66258L17.6484 10.2725ZM18.7207 10.2725H19.5832V9.40996H18.7207V10.2725ZM18.7207 16.75V15.8875H17.6484V16.75V17.6125H18.7207V16.75ZM17.6484 16.75H18.5109V11.7842H17.6484H16.7859V16.75H17.6484ZM17.6484 11.7842L17.0386 11.1743L16.1509 12.062L16.7607 12.6719L17.3706 13.2818L18.2583 12.3941L17.6484 11.7842ZM16.7607 12.6719L17.3706 12.062L16.6148 11.3061L16.0049 11.916L15.395 12.5259L16.1509 13.2818L16.7607 12.6719ZM16.0049 11.916L16.6148 12.5259L18.2583 10.8823L17.6484 10.2725L17.0386 9.66258L15.395 11.3061L16.0049 11.916ZM17.6484 10.2725V11.135H18.7207V10.2725V9.40996H17.6484V10.2725ZM18.7207 10.2725H17.8582V16.75H18.7207H19.5832V10.2725H18.7207Z" fill="#E89B05" mask="url(#path-15-outside-1_2139_42196)"/>
<path fill-rule="evenodd" clip-rule="evenodd" d="M12.6968 18.4282C12.0364 17.7682 11.8177 16.7674 11.9869 15.6157C11.0531 14.9209 10.5 14.0588 10.5 13.125C10.5 12.1912 11.0531 11.3288 11.9869 10.6342C11.8181 9.48263 12.0364 8.48175 12.6968 7.82175C13.3568 7.16175 14.3576 6.94275 15.5093 7.11188C16.2041 6.17813 17.0662 5.625 18 5.625C18.9338 5.625 19.7962 6.17813 20.4907 7.11188C21.6424 6.94313 22.6432 7.16137 23.3032 7.82175C23.9636 8.48175 24.1823 9.483 24.0131 10.6342C24.9469 11.3291 25.5 12.1912 25.5 13.125C25.5 14.0588 24.9469 14.9212 24.0131 15.6157C24.1819 16.7674 23.9636 17.7682 23.3032 18.4282C22.6432 19.0886 21.6424 19.3073 20.4907 19.1381C19.7959 20.0719 18.9338 20.625 18 20.625C17.0662 20.625 16.2041 20.0723 15.5093 19.1381C14.3576 19.3073 13.3568 19.0886 12.6968 18.4282ZM15.1823 19.9282C14.0452 20.0107 12.9529 19.7452 12.1665 18.9585C11.3798 18.1721 11.1146 17.0798 11.1967 15.9431C10.335 15.1972 9.75 14.2369 9.75 13.125C9.75 12.0128 10.335 11.0528 11.1967 10.3069C11.1146 9.17063 11.3798 8.07788 12.1665 7.2915C12.9529 6.50475 14.0453 6.23962 15.1819 6.32175C15.9278 5.46 16.8878 4.875 18 4.875C19.1126 4.875 20.0722 5.46 20.8181 6.32175C21.9544 6.23962 23.0471 6.50475 23.8335 7.2915C24.6202 8.07788 24.8854 9.17025 24.8032 10.3069C25.665 11.0528 26.25 12.0131 26.25 13.125C26.25 14.2373 25.665 15.1973 24.8032 15.9427C24.8854 17.0798 24.6202 18.1721 23.8335 18.9585C23.0471 19.7452 21.9548 20.0104 20.8177 19.9282C20.0723 20.79 19.1123 21.375 18 21.375C16.8878 21.375 15.9278 20.79 15.1823 19.9282Z" fill="#E89B05"/>
<path fill-rule="evenodd" clip-rule="evenodd" d="M24.75 12.75C24.8495 12.75 24.9448 12.7895 25.0152 12.8598C25.0855 12.9302 25.125 13.0255 25.125 13.125C25.125 14.0588 24.6082 14.8837 23.8102 15.5317C23.9164 16.5544 23.6985 17.5028 23.0381 18.1631C22.3778 18.8235 21.4294 19.0414 20.4067 18.9356C19.7587 19.7329 18.9338 20.25 18 20.25C17.9005 20.25 17.8052 20.2105 17.7348 20.1402C17.6645 20.0698 17.625 19.9745 17.625 19.875C17.625 19.7755 17.6645 19.6802 17.7348 19.6098C17.8052 19.5395 17.9005 19.5 18 19.5C18.6803 19.5 19.3571 19.0976 19.9406 18.3131C19.981 18.2587 20.0354 18.2163 20.098 18.1904C20.1606 18.1644 20.2291 18.1559 20.2961 18.1658C21.2636 18.3079 22.0268 18.114 22.5079 17.6329C22.989 17.1518 23.1829 16.3886 23.0408 15.4211C23.0309 15.3541 23.0393 15.2857 23.0652 15.2231C23.0911 15.1605 23.1334 15.1061 23.1877 15.0656C23.9726 14.4825 24.375 13.8056 24.375 13.125C24.375 13.0255 24.4145 12.9302 24.4848 12.8598C24.5552 12.7895 24.6505 12.75 24.75 12.75Z" fill="#ECC704"/>
<path fill-rule="evenodd" clip-rule="evenodd" d="M18 6.75C17.3197 6.75 16.6429 7.15238 16.0594 7.93725C16.0189 7.99157 15.9645 8.03393 15.9019 8.05981C15.8393 8.08569 15.7709 8.09414 15.7039 8.08425C14.7364 7.94213 13.9732 8.13637 13.4921 8.61713C13.0114 9.09825 12.8171 9.86138 12.9592 10.8289C12.9691 10.8959 12.9607 10.9643 12.9348 11.0269C12.9089 11.0895 12.8666 11.1439 12.8123 11.1844C12.0274 11.7675 11.625 12.4444 11.625 13.125C11.625 13.2245 11.5855 13.3198 11.5152 13.3902C11.4448 13.4605 11.3495 13.5 11.25 13.5C11.1505 13.5 11.0552 13.4605 10.9848 13.3902C10.9145 13.3198 10.875 13.2245 10.875 13.125C10.875 12.1912 11.3918 11.3663 12.1898 10.7183C12.0836 9.696 12.3015 8.74725 12.9619 8.08688C13.6222 7.4265 14.5706 7.20862 15.5933 7.31437C16.2413 6.51712 17.0659 6 18 6C18.0995 6 18.1948 6.03951 18.2652 6.10983C18.3355 6.18016 18.375 6.27554 18.375 6.375C18.375 6.47446 18.3355 6.56984 18.2652 6.64017C18.1948 6.71049 18.0995 6.75 18 6.75Z" fill="#FFEF9C"/>
</svg>
