<svg width="36" height="36" viewBox="0 0 36 36" fill="none" xmlns="http://www.w3.org/2000/svg">
<path d="M26.125 3.5H9.625C9.42609 3.5 9.23532 3.57902 9.09467 3.71967C8.95402 3.86032 8.875 4.05109 8.875 4.25C8.875 4.44891 8.95402 4.63968 9.09467 4.78033C9.23532 4.92098 9.42609 5 9.625 5H26.125C26.3239 5 26.5147 4.92098 26.6553 4.78033C26.796 4.63968 26.875 4.44891 26.875 4.25C26.875 4.05109 26.796 3.86032 26.6553 3.71967C26.5147 3.57902 26.3239 3.5 26.125 3.5Z" fill="#C52229"/>
<path fill-rule="evenodd" clip-rule="evenodd" d="M9.625 2.75H26.125C26.5228 2.75 26.9044 2.90804 27.1857 3.18934C27.467 3.47064 27.625 3.85218 27.625 4.25C27.625 4.64782 27.467 5.02936 27.1857 5.31066C26.9044 5.59196 26.5228 5.75 26.125 5.75H9.625C9.22718 5.75 8.84564 5.59196 8.56434 5.31066C8.28304 5.02936 8.125 4.64782 8.125 4.25C8.125 3.85218 8.28304 3.47064 8.56434 3.18934C8.84564 2.90804 9.22718 2.75 9.625 2.75ZM9.625 3.5H26.125C26.3239 3.5 26.5147 3.57902 26.6553 3.71967C26.796 3.86032 26.875 4.05109 26.875 4.25C26.875 4.44891 26.796 4.63968 26.6553 4.78033C26.5147 4.92098 26.3239 5 26.125 5H9.625C9.42609 5 9.23532 4.92098 9.09467 4.78033C8.95402 4.63968 8.875 4.44891 8.875 4.25C8.875 4.05109 8.95402 3.86032 9.09467 3.71967C9.23532 3.57902 9.42609 3.5 9.625 3.5Z" fill="#9B0F15"/>
<path fill-rule="evenodd" clip-rule="evenodd" d="M9.25 3.875C9.25 3.77554 9.28951 3.68016 9.35983 3.60984C9.43016 3.53951 9.52554 3.5 9.625 3.5H13.1875C13.287 3.5 13.3823 3.53951 13.4527 3.60984C13.523 3.68016 13.5625 3.77554 13.5625 3.875C13.5625 3.97446 13.523 4.06984 13.4527 4.14016C13.3823 4.21049 13.287 4.25 13.1875 4.25H9.625C9.52554 4.25 9.43016 4.21049 9.35983 4.14016C9.28951 4.06984 9.25 3.97446 9.25 3.875Z" fill="#DF3840"/>
<path d="M23.5 2.75H12.25C12.1505 2.75 12.0552 2.78951 11.9848 2.85984C11.9145 2.93016 11.875 3.02554 11.875 3.125V21.875C11.875 21.9745 11.9145 22.0698 11.9848 22.1402C12.0552 22.2105 12.1505 22.25 12.25 22.25H23.5C23.5995 22.25 23.6948 22.2105 23.7652 22.1402C23.8355 22.0698 23.875 21.9745 23.875 21.875V3.125C23.875 3.02554 23.8355 2.93016 23.7652 2.85984C23.6948 2.78951 23.5995 2.75 23.5 2.75Z" fill="#F1333B"/>
<path fill-rule="evenodd" clip-rule="evenodd" d="M12.25 2H23.5C23.7984 2 24.0845 2.11853 24.2955 2.3295C24.5065 2.54048 24.625 2.82663 24.625 3.125V21.875C24.625 22.1734 24.5065 22.4595 24.2955 22.6705C24.0845 22.8815 23.7984 23 23.5 23H12.25C11.9516 23 11.6655 22.8815 11.4545 22.6705C11.2435 22.4595 11.125 22.1734 11.125 21.875V3.125C11.125 2.82663 11.2435 2.54048 11.4545 2.3295C11.6655 2.11853 11.9516 2 12.25 2ZM12.25 2.75H23.5C23.5995 2.75 23.6948 2.78951 23.7652 2.85984C23.8355 2.93016 23.875 3.02554 23.875 3.125V21.875C23.875 21.9745 23.8355 22.0698 23.7652 22.1402C23.6948 22.2105 23.5995 22.25 23.5 22.25H12.25C12.1505 22.25 12.0552 22.2105 11.9848 22.1402C11.9145 22.0698 11.875 21.9745 11.875 21.875V3.125C11.875 3.02554 11.9145 2.93016 11.9848 2.85984C12.0552 2.78951 12.1505 2.75 12.25 2.75Z" fill="#9B0F15"/>
<path fill-rule="evenodd" clip-rule="evenodd" d="M12.5781 3.17188C12.6776 3.17188 12.773 3.21138 12.8433 3.28171C12.9136 3.35204 12.9531 3.44742 12.9531 3.54688V20.9375H22.5625C22.662 20.9375 22.7573 20.977 22.8277 21.0473C22.898 21.1177 22.9375 21.213 22.9375 21.3125C22.9375 21.412 22.898 21.5073 22.8277 21.5777C22.7573 21.648 22.662 21.6875 22.5625 21.6875H12.5781C12.4787 21.6875 12.3833 21.648 12.313 21.5777C12.2426 21.5073 12.2031 21.412 12.2031 21.3125V3.54688C12.2031 3.44742 12.2426 3.35204 12.313 3.28171C12.3833 3.21138 12.4787 3.17188 12.5781 3.17188Z" fill="#FE666D"/>
<path d="M20.888 4.19375C20.888 4.40638 20.72 4.5785 20.513 4.5785C20.3056 4.5785 20.138 4.406 20.138 4.19412C20.138 3.9815 20.3056 3.80937 20.513 3.80937C20.72 3.80937 20.888 3.9815 20.888 4.19375ZM19.5706 4.2875C19.5706 4.55188 19.3617 4.766 19.1037 4.766C18.8461 4.766 18.6372 4.55187 18.6372 4.28787C18.6372 4.0235 18.8461 3.80937 19.1041 3.80937C19.3617 3.80937 19.5706 4.02313 19.5706 4.2875ZM20.738 5.657C20.738 5.921 20.5291 6.13513 20.2715 6.13513C20.0138 6.13513 19.8046 5.92138 19.8046 5.657C19.8046 5.393 20.0138 5.17888 20.2715 5.17888C20.5291 5.17888 20.738 5.39263 20.738 5.657ZM21.8048 5.00525C21.8052 5.03628 21.7994 5.06707 21.7879 5.09586C21.7763 5.12466 21.7592 5.15089 21.7375 5.17308C21.7158 5.19526 21.69 5.21295 21.6614 5.22514C21.6329 5.23733 21.6022 5.24378 21.5712 5.24413C21.5086 5.24333 21.4489 5.21773 21.4052 5.17295C21.3614 5.12816 21.3373 5.06784 21.338 5.00525C21.3376 4.97422 21.3433 4.94343 21.3548 4.91461C21.3663 4.88579 21.3834 4.85953 21.405 4.83731C21.4267 4.8151 21.4525 4.79736 21.481 4.78513C21.5095 4.77289 21.5402 4.76639 21.5712 4.766C21.6023 4.76634 21.6329 4.77281 21.6615 4.78502C21.6901 4.79723 21.7159 4.81496 21.7376 4.83718C21.7593 4.8594 21.7764 4.88568 21.788 4.91452C21.7995 4.94336 21.8052 4.97419 21.8048 5.00525ZM19.3373 5.41775C19.3377 5.44881 19.332 5.47964 19.3205 5.50848C19.3089 5.53732 19.2918 5.5636 19.2701 5.58582C19.2484 5.60804 19.2226 5.62577 19.194 5.63798C19.1654 5.65019 19.1348 5.65666 19.1037 5.657C19.0727 5.65661 19.042 5.65011 19.0135 5.63787C18.985 5.62564 18.9592 5.60791 18.9375 5.58569C18.9159 5.56347 18.8988 5.53721 18.8873 5.50839C18.8758 5.47958 18.8701 5.44878 18.8705 5.41775C18.8698 5.35516 18.8939 5.29484 18.9377 5.25005C18.9814 5.20527 19.0411 5.17967 19.1037 5.17888C19.1347 5.17922 19.1654 5.18567 19.1939 5.19786C19.2225 5.21005 19.2483 5.22774 19.27 5.24992C19.2917 5.2721 19.3088 5.29834 19.3204 5.32714C19.3319 5.35594 19.3377 5.38672 19.3373 5.41775ZM18.0372 3.95488C18.0376 3.9859 18.0319 4.0167 18.0204 4.04552C18.0089 4.07433 17.9918 4.1006 17.9701 4.12281C17.9485 4.14503 17.9227 4.16276 17.8941 4.175C17.8656 4.18723 17.835 4.19373 17.804 4.19412C17.7729 4.19378 17.7422 4.18732 17.7137 4.17511C17.6851 4.16289 17.6592 4.14517 17.6375 4.12294C17.6158 4.10072 17.5987 4.07444 17.5872 4.0456C17.5757 4.01676 17.5699 3.98593 17.5703 3.95488C17.5699 3.92382 17.5757 3.89299 17.5872 3.86415C17.5987 3.83531 17.6158 3.80903 17.6375 3.78681C17.6592 3.76458 17.6851 3.74686 17.7137 3.73464C17.7422 3.72243 17.7729 3.71597 17.804 3.71562C17.835 3.71602 17.8656 3.72252 17.8941 3.73475C17.9227 3.74699 17.9485 3.76472 17.9701 3.78694C17.9918 3.80915 18.0089 3.83542 18.0204 3.86423C18.0319 3.89305 18.0376 3.92385 18.0372 3.95488ZM21.5716 6.67438C21.5719 6.7054 21.5662 6.73619 21.5546 6.76499C21.5431 6.79378 21.5259 6.82002 21.5042 6.8422C21.4826 6.86438 21.4567 6.88208 21.4282 6.89427C21.3996 6.90646 21.369 6.91291 21.338 6.91325C21.2754 6.91246 21.2156 6.88686 21.1719 6.84207C21.1282 6.79728 21.104 6.73697 21.1047 6.67438C21.1043 6.64335 21.11 6.61255 21.1215 6.58374C21.133 6.55492 21.1501 6.52865 21.1718 6.50644C21.1934 6.48422 21.2193 6.46649 21.2478 6.45425C21.2763 6.44202 21.3069 6.43552 21.338 6.43513C21.369 6.43547 21.3997 6.44193 21.4283 6.45415C21.4568 6.46636 21.4827 6.48408 21.5044 6.50631C21.5261 6.52853 21.5432 6.55481 21.5547 6.58365C21.5662 6.61249 21.572 6.64332 21.5716 6.67438ZM20.3708 6.91325C20.3712 6.94428 20.3655 6.97508 20.354 7.00389C20.3425 7.03271 20.3254 7.05897 20.3038 7.08119C20.2821 7.10341 20.2563 7.12114 20.2278 7.13337C20.1993 7.14561 20.1686 7.15211 20.1376 7.1525C20.075 7.15171 20.0153 7.12611 19.9715 7.08132C19.9278 7.03653 19.9036 6.97622 19.9043 6.91363C19.9039 6.8826 19.9097 6.8518 19.9212 6.82298C19.9327 6.79417 19.9497 6.7679 19.9714 6.74569C19.9931 6.72347 20.0189 6.70574 20.0474 6.6935C20.0759 6.68127 20.1066 6.67477 20.1376 6.67438C20.2002 6.67517 20.2599 6.70077 20.3036 6.74555C20.3474 6.79034 20.3715 6.85066 20.3708 6.91325ZM23.0772 8.54375C23.0776 8.57478 23.0719 8.60558 23.0604 8.63439C23.0489 8.66321 23.0318 8.68947 23.0101 8.71169C22.9885 8.73391 22.9627 8.75164 22.9341 8.76387C22.9056 8.77611 22.875 8.78261 22.844 8.783C22.8129 8.78261 22.7823 8.77611 22.7538 8.76387C22.7253 8.75164 22.6994 8.73391 22.6778 8.71169C22.6561 8.68947 22.639 8.66321 22.6275 8.63439C22.616 8.60558 22.6103 8.57478 22.6107 8.54375C22.61 8.48116 22.6342 8.42084 22.6779 8.37605C22.7216 8.33127 22.7814 8.30567 22.844 8.30488C22.9065 8.30567 22.9663 8.33127 23.01 8.37605C23.0537 8.42084 23.0779 8.48116 23.0772 8.54375ZM22.1866 3.78612C22.1873 3.84872 22.1631 3.90903 22.1194 3.95382C22.0756 3.99861 22.0159 4.02421 21.9533 4.025C21.8907 4.02421 21.831 3.99861 21.7873 3.95382C21.7436 3.90903 21.7194 3.84872 21.7201 3.78612C21.7197 3.7551 21.7254 3.7243 21.7369 3.69548C21.7484 3.66667 21.7655 3.6404 21.7872 3.61819C21.8088 3.59597 21.8346 3.57824 21.8631 3.566C21.8917 3.55377 21.9223 3.54727 21.9533 3.54688C21.9844 3.54727 22.015 3.55377 22.0435 3.566C22.072 3.57824 22.0979 3.59597 22.1195 3.61819C22.1412 3.6404 22.1582 3.66667 22.1698 3.69548C22.1813 3.7243 22.187 3.7551 22.1866 3.78612ZM22.6977 6.04625C22.6977 6.26113 22.5278 6.4355 22.3178 6.4355C22.1082 6.4355 21.9383 6.26113 21.9383 6.04625C21.9383 5.83138 22.1082 5.657 22.3178 5.657C22.5278 5.657 22.6977 5.83138 22.6977 6.04625ZM23.0776 4.37675C23.0776 4.59163 22.9073 4.766 22.6977 4.766C22.4881 4.766 22.3182 4.59163 22.3182 4.37675C22.3182 4.16188 22.4877 3.9875 22.6977 3.9875C22.9077 3.9875 23.0776 4.16188 23.0776 4.37675ZM22.3306 7.781C22.3306 7.99588 22.1607 8.17025 21.9511 8.17025C21.7411 8.17025 21.5712 7.99588 21.5712 7.781C21.5712 7.56613 21.7415 7.39175 21.9511 7.39175C22.1611 7.39175 22.3306 7.56613 22.3306 7.781ZM23.1927 7.1525C23.1931 7.18353 23.1874 7.21433 23.1759 7.24314C23.1644 7.27196 23.1473 7.29822 23.1256 7.32044C23.104 7.34266 23.0782 7.36039 23.0496 7.37262C23.0211 7.38486 22.9905 7.39136 22.9595 7.39175C22.9284 7.39141 22.8977 7.38494 22.8692 7.37273C22.8406 7.36052 22.8147 7.34279 22.793 7.32057C22.7713 7.29835 22.7542 7.27207 22.7427 7.24323C22.7312 7.21439 22.7254 7.18356 22.7258 7.1525C22.7255 7.12147 22.7313 7.09069 22.7428 7.06189C22.7544 7.03309 22.7715 7.00686 22.7932 6.98467C22.8149 6.96249 22.8407 6.9448 22.8692 6.93261C22.8978 6.92042 22.9284 6.91397 22.9595 6.91363C23.022 6.91442 23.0818 6.94002 23.1255 6.9848C23.1692 7.02959 23.1934 7.08991 23.1927 7.1525Z" fill="#DB1B24"/>
<path d="M21.2376 14.5074C22.7924 14.279 24.1431 14.5741 25.0345 15.4655C25.9259 16.3569 26.221 17.708 25.9926 19.2624C27.2538 20.2006 28 21.3643 28 22.625C28 23.8857 27.2538 25.0494 25.9926 25.9873C26.221 27.5424 25.9259 28.8931 25.0345 29.7845C24.1431 30.6759 22.792 30.971 21.2372 30.7426C20.2997 32.0038 19.1357 32.75 17.875 32.75C16.6143 32.75 15.4506 32.0038 14.5128 30.7426C12.958 30.9714 11.6069 30.6759 10.7155 29.7845C9.82413 28.8931 9.529 27.542 9.75738 25.9873C8.49625 25.0498 7.75 23.8857 7.75 22.625C7.75 21.3643 8.49625 20.2006 9.75738 19.2624C9.529 17.708 9.82413 16.3569 10.7155 15.4655C11.6069 14.5741 12.958 14.279 14.5124 14.5074C15.4506 13.2466 16.6143 12.5 17.875 12.5C19.1357 12.5 20.2994 13.2463 21.2376 14.5074Z" fill="#DCA16A"/>
<path fill-rule="evenodd" clip-rule="evenodd" d="M21.5665 13.7135C23.0988 13.5748 24.544 13.9141 25.5647 14.9352C26.5859 15.9564 26.9249 17.4012 26.7869 18.9335C27.9681 19.9197 28.75 21.1812 28.75 22.625C28.75 24.0691 27.9681 25.3306 26.7869 26.3165C26.9252 27.8488 26.5859 29.294 25.5647 30.3147C24.5436 31.3359 23.0987 31.6752 21.5661 31.5369C20.5806 32.7181 19.3195 33.5 17.875 33.5C16.4312 33.5 15.1694 32.7181 14.1839 31.5369C12.6513 31.6752 11.2064 31.3359 10.1852 30.3147C9.16412 29.2936 8.82475 27.8488 8.96313 26.3165C7.78188 25.3303 7 24.0688 7 22.625C7 21.1809 7.78188 19.9194 8.96313 18.9335C8.82513 17.4012 9.16412 15.9564 10.1852 14.9352C11.2064 13.9141 12.6512 13.5751 14.1835 13.7135C15.1694 12.5319 16.4312 11.75 17.875 11.75C19.3191 11.75 20.5806 12.5319 21.5665 13.7135ZM21.2376 14.5074C20.2994 13.2466 19.1357 12.5 17.875 12.5C16.6143 12.5 15.4506 13.2463 14.5124 14.5074C12.9576 14.279 11.6069 14.5741 10.7155 15.4655C9.82413 16.3569 9.529 17.708 9.75738 19.2624C8.49625 20.2006 7.75 21.3643 7.75 22.625C7.75 23.8857 8.49625 25.0494 9.75738 25.9873C9.529 27.5424 9.82413 28.8931 10.7155 29.7845C11.6069 30.6759 12.958 30.971 14.5128 30.7426C15.4503 32.0038 16.6143 32.75 17.875 32.75C19.1357 32.75 20.2994 32.0038 21.2372 30.7426C22.7924 30.9714 24.1431 30.6759 25.0345 29.7845C25.9259 28.8931 26.221 27.542 25.9926 25.9873C27.2538 25.0498 28 23.8857 28 22.625C28 21.3643 27.2538 20.2006 25.9926 19.2624C26.221 17.708 25.9259 16.3569 25.0345 15.4655C24.1431 14.5741 22.792 14.279 21.2376 14.5074Z" fill="#C38144"/>
<path fill-rule="evenodd" clip-rule="evenodd" d="M27.25 22.25C27.3495 22.25 27.4448 22.2895 27.5152 22.3598C27.5855 22.4302 27.625 22.5255 27.625 22.625C27.625 23.8876 26.9136 25.0138 25.7913 25.904C25.9555 27.3268 25.6623 28.6265 24.7694 29.519C23.8765 30.4123 22.5767 30.7055 21.154 30.5413C20.2637 31.6636 19.1376 32.375 17.875 32.375C17.7755 32.375 17.6802 32.3355 17.6098 32.2652C17.5395 32.1948 17.5 32.0995 17.5 32C17.5 31.9005 17.5395 31.8052 17.6098 31.7348C17.6802 31.6645 17.7755 31.625 17.875 31.625C18.8823 31.625 19.8606 31.0291 20.6875 29.9176C20.7279 29.8633 20.7822 29.8209 20.8447 29.795C20.9073 29.769 20.9756 29.7605 21.0426 29.7703C22.4136 29.9716 23.5266 29.7013 24.2391 28.9891C24.9513 28.2766 25.2216 27.1636 25.0203 25.793C25.0104 25.726 25.0189 25.6575 25.0449 25.5949C25.0708 25.5323 25.1132 25.4779 25.1676 25.4375C26.2787 24.6106 26.875 23.6323 26.875 22.625C26.875 22.5255 26.9145 22.4302 26.9848 22.3598C27.0552 22.2895 27.1505 22.25 27.25 22.25Z" fill="#CF945D"/>
<path fill-rule="evenodd" clip-rule="evenodd" d="M17.875 13.625C16.8678 13.625 15.8894 14.2213 15.0625 15.3324C15.0221 15.3868 14.9677 15.4292 14.9051 15.4551C14.8425 15.4811 14.774 15.4896 14.707 15.4797C13.3364 15.2784 12.2234 15.5491 11.5109 16.2612C10.7991 16.9734 10.5284 18.0864 10.7297 19.457C10.7396 19.524 10.7311 19.5925 10.7051 19.6551C10.6792 19.7177 10.6368 19.7721 10.5824 19.8125C9.47125 20.6394 8.875 21.6178 8.875 22.625C8.875 22.7245 8.83549 22.8198 8.76517 22.8902C8.69484 22.9605 8.59946 23 8.5 23C8.40054 23 8.30516 22.9605 8.23483 22.8902C8.16451 22.8198 8.125 22.7245 8.125 22.625C8.125 21.3624 8.83675 20.2363 9.95875 19.346C9.7945 17.9233 10.0881 16.6235 10.9806 15.731C11.8735 14.8381 13.1733 14.5449 14.5956 14.7087C15.4863 13.5867 16.6128 12.875 17.875 12.875C17.9745 12.875 18.0698 12.9145 18.1402 12.9848C18.2105 13.0552 18.25 13.1505 18.25 13.25C18.25 13.3495 18.2105 13.4448 18.1402 13.5152C18.0698 13.5855 17.9745 13.625 17.875 13.625Z" fill="#F0B57F"/>
<path d="M20.3657 16.6119C21.5174 16.4431 22.5182 16.6614 23.1782 17.3218C23.8386 17.9818 24.0573 18.983 23.8881 20.1343C24.8219 20.8291 25.375 21.6912 25.375 22.625C25.375 23.5588 24.8219 24.4212 23.8881 25.1157C24.0569 26.2674 23.8386 27.2682 23.1782 27.9282C22.5182 28.5886 21.5174 28.8073 20.3657 28.6381C19.6709 29.5719 18.8088 30.125 17.875 30.125C16.9412 30.125 16.0791 29.5719 15.3843 28.6381C14.2326 28.8073 13.2318 28.5886 12.5718 27.9282C11.9114 27.2682 11.6928 26.2674 11.8619 25.1157C10.9281 24.4209 10.375 23.5588 10.375 22.625C10.375 21.6912 10.9281 20.8288 11.8619 20.1343C11.6931 18.9826 11.9114 17.9818 12.5718 17.3218C13.2318 16.6618 14.2326 16.4428 15.3843 16.6119C16.0791 15.6781 16.9412 15.125 17.875 15.125C18.8088 15.125 19.6712 15.6781 20.3657 16.6119Z" fill="#F7BA82"/>
<path fill-rule="evenodd" clip-rule="evenodd" d="M12.5718 27.9282C11.9114 27.2682 11.6927 26.2674 11.8619 25.1157C10.9281 24.4209 10.375 23.5588 10.375 22.625C10.375 21.6912 10.9281 20.8288 11.8619 20.1343C11.6931 18.9826 11.9114 17.9818 12.5718 17.3218C13.2318 16.6618 14.2326 16.4427 15.3843 16.6119C16.0791 15.6781 16.9412 15.125 17.875 15.125C18.8088 15.125 19.6712 15.6781 20.3657 16.6119C21.5174 16.4431 22.5182 16.6614 23.1782 17.3218C23.8386 17.9818 24.0573 18.983 23.8881 20.1343C24.8219 20.8291 25.375 21.6912 25.375 22.625C25.375 23.5588 24.8219 24.4212 23.8881 25.1157C24.0569 26.2674 23.8386 27.2682 23.1782 27.9282C22.5182 28.5886 21.5174 28.8073 20.3657 28.6381C19.6709 29.5719 18.8088 30.125 17.875 30.125C16.9412 30.125 16.0791 29.5719 15.3843 28.6381C14.2326 28.8073 13.2318 28.5886 12.5718 27.9282ZM15.0573 29.4282C13.9202 29.5107 12.8279 29.2452 12.0415 28.4589C11.2548 27.6721 10.9896 26.5798 11.0717 25.4427C10.21 24.6973 9.625 23.7373 9.625 22.625C9.625 21.5128 10.21 20.5528 11.0717 19.8069C10.9896 18.6706 11.2548 17.5779 12.0415 16.7915C12.8279 16.0048 13.9203 15.7396 15.0569 15.8218C15.8028 14.96 16.7628 14.375 17.875 14.375C18.9876 14.375 19.9472 14.96 20.6931 15.8218C21.8294 15.7396 22.9221 16.0048 23.7085 16.7915C24.4952 17.5779 24.7604 18.6703 24.6782 19.8069C25.54 20.5528 26.125 21.5131 26.125 22.625C26.125 23.7373 25.54 24.6973 24.6782 25.4427C24.7604 26.5798 24.4952 27.6721 23.7085 28.4589C22.9221 29.2452 21.8298 29.5104 20.6927 29.4282C19.9473 30.29 18.9873 30.875 17.875 30.875C16.7628 30.875 15.8028 30.29 15.0573 29.4282Z" fill="#C28044"/>
<path fill-rule="evenodd" clip-rule="evenodd" d="M24.625 22.25C24.7245 22.25 24.8198 22.2895 24.8902 22.3598C24.9605 22.4302 25 22.5255 25 22.625C25 23.5588 24.4832 24.3837 23.6852 25.0317C23.7914 26.054 23.5735 27.0027 22.9131 27.6631C22.2528 28.3235 21.3044 28.5414 20.2817 28.4356C19.6337 29.2329 18.8088 29.75 17.875 29.75C17.7755 29.75 17.6802 29.7105 17.6098 29.6402C17.5395 29.5698 17.5 29.4745 17.5 29.375C17.5 29.2755 17.5395 29.1802 17.6098 29.1098C17.6802 29.0395 17.7755 29 17.875 29C18.5553 29 19.2321 28.5976 19.8156 27.8131C19.856 27.7587 19.9104 27.7163 19.973 27.6904C20.0356 27.6644 20.1041 27.6559 20.1711 27.6658C21.1386 27.8079 21.9018 27.614 22.3829 27.1329C22.864 26.6518 23.0579 25.8886 22.9158 24.9211C22.9059 24.8541 22.9143 24.7857 22.9402 24.7231C22.9661 24.6605 23.0084 24.6061 23.0627 24.5656C23.8476 23.9825 24.25 23.3056 24.25 22.625C24.25 22.5255 24.2895 22.4302 24.3598 22.3598C24.4302 22.2895 24.5255 22.25 24.625 22.25Z" fill="#E5A66C"/>
<path fill-rule="evenodd" clip-rule="evenodd" d="M17.875 16.25C17.1947 16.25 16.5179 16.6524 15.9344 17.4373C15.8939 17.4916 15.8395 17.5339 15.7769 17.5598C15.7143 17.5857 15.6459 17.5941 15.5789 17.5842C14.6114 17.4421 13.8482 17.6364 13.3671 18.1171C12.8864 18.5982 12.6921 19.3614 12.8342 20.3289C12.8441 20.3959 12.8357 20.4643 12.8098 20.5269C12.7839 20.5895 12.7416 20.6439 12.6873 20.6844C11.9024 21.2675 11.5 21.9444 11.5 22.625C11.5 22.7245 11.4605 22.8198 11.3902 22.8902C11.3198 22.9605 11.2245 23 11.125 23C11.0255 23 10.9302 22.9605 10.8598 22.8902C10.7895 22.8198 10.75 22.7245 10.75 22.625C10.75 21.6912 11.2668 20.8663 12.0648 20.2183C11.9586 19.196 12.1765 18.2472 12.8369 17.5869C13.4972 16.9265 14.4456 16.7086 15.4683 16.8144C16.1163 16.0171 16.9409 15.5 17.875 15.5C17.9745 15.5 18.0698 15.5395 18.1402 15.6098C18.2105 15.6802 18.25 15.7755 18.25 15.875C18.25 15.9745 18.2105 16.0698 18.1402 16.1402C18.0698 16.2105 17.9745 16.25 17.875 16.25Z" fill="#FFD5AE"/>
<path d="M16.9772 21.8634H17.6541C17.9766 21.8634 18.2151 21.7828 18.3704 21.6215C18.5256 21.4603 18.6033 21.2465 18.6033 20.9803C18.6033 20.7223 18.5256 20.5217 18.3707 20.378C18.2181 20.2344 18.007 20.1628 17.7377 20.1628C17.4944 20.1628 17.2907 20.2303 17.1265 20.3649C16.9626 20.4965 16.8809 20.6694 16.8809 20.8835H15.6104C15.6104 20.5494 15.6996 20.2505 15.8785 19.9869C16.06 19.7203 16.312 19.5122 16.6341 19.3629C16.9596 19.2133 17.3166 19.1387 17.7066 19.1387C18.3831 19.1387 18.9134 19.3014 19.2974 19.6262C19.681 19.9487 19.873 20.3942 19.873 20.9623C19.873 21.2555 19.7837 21.5248 19.6049 21.7712C19.4244 22.0186 19.1819 22.214 18.9017 22.3378C19.2621 22.4668 19.5302 22.6603 19.7061 22.9179C19.8846 23.1759 19.9742 23.4804 19.9742 23.8322C19.9742 24.4003 19.7661 24.8559 19.3502 25.1987C18.937 25.5414 18.3891 25.7128 17.7066 25.7128C17.068 25.7128 16.5449 25.5444 16.1376 25.2077C15.7334 24.8705 15.5312 24.4254 15.5312 23.8715H16.8014C16.8014 24.1115 16.8906 24.308 17.0695 24.4603C17.251 24.6129 17.4737 24.689 17.737 24.689C18.0392 24.689 18.2748 24.6099 18.445 24.4517C18.6175 24.2904 18.7037 24.0782 18.7037 23.8142C18.7037 23.1759 18.3524 22.8564 17.6492 22.8564H16.9769V21.8638L16.9772 21.8634Z" fill="#FFD5AE"/>
<path fill-rule="evenodd" clip-rule="evenodd" d="M16.2629 21.6332H15.6104C15.4115 21.6332 15.2207 21.5542 15.08 21.4135C14.9394 21.2729 14.8604 21.0821 14.8604 20.8832C14.8604 20.4069 14.9905 19.9603 15.2579 19.5662L15.2586 19.5647C15.5241 19.1747 15.8864 18.8829 16.3187 18.6823L16.321 18.6812C16.753 18.4828 17.2184 18.3887 17.7066 18.3887C18.4986 18.3887 19.2213 18.5799 19.7811 19.0532C20.3575 19.538 20.623 20.2063 20.623 20.9623C20.6236 21.4121 20.4795 21.8502 20.212 22.2118C20.1946 22.2356 20.1769 22.2591 20.1588 22.2823C20.2176 22.3483 20.2731 22.4184 20.3237 22.493C20.599 22.8905 20.7242 23.348 20.7242 23.8318C20.7242 24.6099 20.4269 25.283 19.828 25.7765C19.2475 26.258 18.5151 26.4628 17.7066 26.4628C16.9311 26.4628 16.2276 26.2554 15.6595 25.7855L15.6576 25.7837C15.0726 25.2962 14.7812 24.6347 14.7812 23.8715C14.7812 23.6726 14.8603 23.4819 15.0009 23.3412C15.1416 23.2006 15.3323 23.1215 15.5312 23.1215H16.2753C16.2432 23.0368 16.2268 22.947 16.2269 22.8564V21.8638C16.2269 21.7835 16.2396 21.7059 16.2629 21.6332ZM17.503 23.6064C17.5369 23.6957 17.5535 23.7907 17.5518 23.8862C17.5525 23.8868 17.5532 23.8874 17.554 23.888C17.5851 23.9135 17.6316 23.939 17.7374 23.939C17.8236 23.939 17.8754 23.9278 17.902 23.9184C17.9134 23.9156 17.9241 23.9105 17.9335 23.9034M17.503 23.6064H17.6492C17.8356 23.6064 17.9117 23.6387 17.9324 23.6495L17.9343 23.6537C17.9498 23.7058 17.9565 23.7602 17.9541 23.8145C17.9553 23.8413 17.9512 23.8681 17.9421 23.8933C17.9396 23.8968 17.9367 23.9005 17.9335 23.9034M19.3502 25.1987C19.7661 24.8559 19.9742 24.4003 19.9742 23.8322C19.9742 23.4804 19.8846 23.1759 19.7061 22.9179C19.6771 22.8755 19.6455 22.8348 19.6116 22.796C19.4395 22.5984 19.2029 22.4458 18.9017 22.3378C19.1817 22.2138 19.4242 22.0184 19.6049 21.7712C19.7795 21.5377 19.8736 21.2538 19.873 20.9623C19.873 20.3942 19.681 19.9487 19.2974 19.6265C18.9137 19.3014 18.3831 19.139 17.7066 19.139C17.3166 19.139 16.9596 19.2133 16.6341 19.3629C16.312 19.5122 16.0604 19.7203 15.8785 19.9869C15.7005 20.2517 15.6071 20.5642 15.6104 20.8832H16.8805C16.8805 20.6694 16.9623 20.4969 17.1265 20.3649C17.2904 20.2299 17.494 20.1624 17.7374 20.1624C18.007 20.1624 18.2177 20.2344 18.37 20.378C18.5252 20.5217 18.6029 20.7223 18.6029 20.9799C18.6029 21.2465 18.5252 21.4607 18.3704 21.6215C18.2147 21.7828 17.9762 21.8634 17.6541 21.8634H16.9769V22.8564H17.6492C18.3524 22.8564 18.7041 23.1759 18.7041 23.8145C18.7041 24.0782 18.6179 24.2908 18.445 24.452C18.2748 24.6099 18.0389 24.689 17.7374 24.689C17.4737 24.689 17.251 24.6129 17.0695 24.4603C16.8906 24.308 16.8014 24.1115 16.8014 23.8715H15.5312C15.5312 24.149 15.5819 24.3988 15.6831 24.6215C15.7844 24.8439 15.9359 25.0393 16.1376 25.2077C16.5449 25.5444 17.0676 25.7128 17.7066 25.7128C18.3891 25.7128 18.937 25.541 19.3502 25.1987ZM17.5945 21.1138C17.6132 21.0549 17.6253 20.993 17.629 20.9289C17.6638 20.9168 17.7006 20.9114 17.7374 20.9132C17.7974 20.9132 17.8322 20.9199 17.8491 20.9248C17.8514 20.9364 17.8529 20.9548 17.8529 20.9803C17.8543 21.0182 17.8488 21.0561 17.8367 21.092C17.7773 21.1088 17.7155 21.1161 17.6537 21.1138H17.5945Z" fill="#C28044"/>
</svg>
