<svg width="36" height="36" viewBox="0 0 36 36" fill="none" xmlns="http://www.w3.org/2000/svg">
<path fill-rule="evenodd" clip-rule="evenodd" d="M13.3814 2.75H22.3135C25.7185 2.75 27.8898 6.38525 26.2754 9.38375L19.4538 22.0524C19.4217 22.112 19.3741 22.1618 19.316 22.1965C19.2579 22.2312 19.1915 22.2496 19.1238 22.2496H16.5715C16.5038 22.2496 16.4374 22.2312 16.3793 22.1965C16.3212 22.1618 16.2736 22.112 16.2415 22.0524L9.41915 9.38375C7.80478 6.38525 9.9764 2.75 13.3814 2.75ZM11.8477 5.75H23.8477L19.4245 21.2281C19.4021 21.3064 19.3548 21.3753 19.2898 21.4244C19.2248 21.4734 19.1456 21.5 19.0642 21.5H16.63C16.5486 21.5 16.4694 21.4734 16.4043 21.4244C16.3393 21.3753 16.2921 21.3064 16.2697 21.2281L11.8477 5.75Z" fill="#C52229"/>
<path fill-rule="evenodd" clip-rule="evenodd" d="M9.4198 9.38375C7.80617 6.38488 9.97742 2.75 13.3828 2.75H22.3145C25.7195 2.75 27.8908 6.38525 26.2768 9.38375L19.4544 22.0524C19.4223 22.112 19.3747 22.1618 19.3166 22.1965C19.2585 22.2312 19.1921 22.2496 19.1244 22.2496H16.5722C16.5045 22.2497 16.438 22.2314 16.3799 22.1967C16.3218 22.1619 16.2742 22.1121 16.2422 22.0524L9.4198 9.38375ZM16.271 21.2277C16.2934 21.306 16.3407 21.3748 16.4056 21.4239C16.4705 21.4729 16.5497 21.4995 16.631 21.4996H19.0659C19.1473 21.4995 19.2264 21.4729 19.2914 21.4239C19.3563 21.3748 19.4035 21.306 19.4259 21.2277L23.8483 5.75H11.8483L16.2707 21.2281L16.271 21.2277ZM12.8424 6.5L16.9142 20.75H18.7824L22.8542 6.5H12.8424ZM13.3824 2H22.3142C26.2869 2 28.8204 6.24125 26.9368 9.73887L20.1148 22.4083C20.0185 22.587 19.8757 22.7365 19.7014 22.8406C19.5271 22.9448 19.3279 22.9999 19.1248 23H16.5725C16.3694 23 16.1701 22.9449 15.9957 22.8407C15.8214 22.7366 15.6785 22.5871 15.5822 22.4083L8.7598 9.73887C6.87655 6.24125 9.40967 2 13.3824 2Z" fill="#9B0F15"/>
<path d="M13.3814 2.75H22.3135C25.7185 2.75 27.8898 6.38525 26.2754 9.38375C26.2754 6.29 22.6679 5.67237 20.8642 5.75H14.8304C10.003 5.75 9.2114 8.1725 9.41915 9.38375C7.80478 6.38488 9.9764 2.75 13.3814 2.75Z" fill="#F1333B"/>
<path fill-rule="evenodd" clip-rule="evenodd" d="M26.0931 10.1105C25.9311 10.0697 25.7875 9.97598 25.6848 9.84427C25.5822 9.71256 25.5264 9.55036 25.5264 9.38337C25.5264 8.21075 24.8777 7.50387 23.9274 7.05612C22.9434 6.59225 21.7213 6.46362 20.8974 6.49925C20.8868 6.49974 20.8762 6.49999 20.8655 6.5H14.831C12.5315 6.5 11.3473 7.07712 10.7615 7.649C10.178 8.219 10.0933 8.87187 10.1593 9.25663C10.1893 9.43197 10.156 9.61226 10.0653 9.76532C9.97467 9.91837 9.83256 10.0342 9.66438 10.0922C9.49619 10.1501 9.31289 10.1464 9.14719 10.0817C8.98149 10.017 8.84419 9.89547 8.7598 9.73887C6.87655 6.24125 9.40967 2 13.3824 2H22.3142C26.2869 2 28.8204 6.24125 26.9368 9.73887C26.8576 9.88592 26.7316 10.0023 26.5788 10.0696C26.4259 10.137 26.255 10.1513 26.0931 10.1105ZM8.9038 7.74875C8.61655 5.20812 10.5823 2.75 13.3824 2.75H22.3142C25.1792 2.75 27.1708 5.32363 26.7692 7.92575C26.6893 8.43635 26.5225 8.92949 26.276 9.38375C26.276 8.858 26.1718 8.40388 25.9899 8.01238C25.1019 6.10063 22.3622 5.68587 20.8652 5.75037H14.831C11.6529 5.75037 10.2242 6.80037 9.67817 7.8635C9.39467 8.41475 9.3493 8.96975 9.42017 9.38375C9.14506 8.87693 8.96977 8.32164 8.9038 7.74875Z" fill="#9B0F15"/>
<path fill-rule="evenodd" clip-rule="evenodd" d="M11.0287 3.73925C11.9088 3.22175 12.8774 3.125 13.5625 3.125H22.5625C22.662 3.125 22.7574 3.16451 22.8277 3.23484C22.898 3.30516 22.9375 3.40054 22.9375 3.5C22.9375 3.59946 22.898 3.69484 22.8277 3.76516C22.7574 3.83549 22.662 3.875 22.5625 3.875H13.5625C12.9348 3.875 12.1225 3.96613 11.4089 4.38575C10.7125 4.79525 10.0687 5.54225 9.80615 6.944C9.78785 7.04177 9.73147 7.12826 9.6494 7.18445C9.56732 7.24064 9.46629 7.26192 9.36853 7.24362C9.27076 7.22533 9.18427 7.16894 9.12808 7.08687C9.07189 7.0048 9.0506 6.90377 9.0689 6.806C9.36853 5.20775 10.1309 4.26725 11.0287 3.73925Z" fill="#FE666D"/>
<path d="M24.192 8.27244C24.192 8.48469 24.024 8.65682 23.817 8.65682C23.61 8.65682 23.442 8.48432 23.442 8.27207C23.442 8.05982 23.61 7.8877 23.817 7.8877C24.0243 7.8877 24.192 8.06019 24.192 8.27244ZM24.042 9.73494C24.042 9.99932 23.8331 10.2134 23.5755 10.2134C23.3178 10.2134 23.109 9.99932 23.109 9.73494C23.109 9.47094 23.3178 9.25682 23.5755 9.25682C23.8331 9.25682 24.042 9.47095 24.042 9.73532V9.73494ZM25.1088 9.08357C25.1095 9.14616 25.0854 9.20648 25.0416 9.25127C24.9979 9.29605 24.9382 9.32165 24.8756 9.32244C24.813 9.32165 24.7533 9.29605 24.7095 9.25127C24.6658 9.20648 24.6416 9.14616 24.6423 9.08357C24.6419 9.05254 24.6477 9.02174 24.6592 8.99293C24.6707 8.96411 24.6877 8.93785 24.7094 8.91563C24.7311 8.89341 24.7569 8.87568 24.7854 8.86345C24.8139 8.85121 24.8446 8.84471 24.8756 8.84432C24.9066 8.84471 24.9373 8.85121 24.9658 8.86345C24.9943 8.87568 25.0201 8.89341 25.0418 8.91563C25.0634 8.93785 25.0805 8.96411 25.092 8.99293C25.1035 9.02174 25.1092 9.05254 25.1088 9.08357ZM23.6752 10.9916C23.6756 11.0226 23.6699 11.0534 23.6584 11.0822C23.6469 11.111 23.6298 11.1373 23.6081 11.1595C23.5865 11.1817 23.5607 11.1995 23.5321 11.2117C23.5036 11.2239 23.473 11.2304 23.442 11.2308C23.3794 11.23 23.3196 11.2044 23.2759 11.1596C23.2322 11.1149 23.208 11.0545 23.2087 10.9919C23.2083 10.9609 23.214 10.9301 23.2255 10.9013C23.237 10.8725 23.2541 10.8462 23.2758 10.824C23.2974 10.8018 23.3233 10.7841 23.3518 10.7718C23.3803 10.7596 23.4109 10.7531 23.442 10.7527C23.5046 10.7535 23.5643 10.7791 23.608 10.8239C23.6517 10.8687 23.6759 10.929 23.6752 10.9916ZM25.2577 10.6027C25.2577 10.8176 25.0875 10.9916 24.8778 10.9916C24.6678 10.9916 24.4983 10.8176 24.4983 10.6027C24.4983 10.3874 24.6682 10.2134 24.8778 10.2134C25.0878 10.2134 25.2577 10.3874 25.2577 10.6027ZM24.4983 11.9939C24.4983 12.2088 24.3281 12.3828 24.1185 12.3828C23.9088 12.3828 23.739 12.2088 23.739 11.9939C23.739 11.7791 23.9088 11.6047 24.1185 11.6047C24.3285 11.6047 24.4983 11.7791 24.4983 11.9939ZM23.2083 12.1439C23.2091 12.2065 23.1851 12.2669 23.1414 12.3118C23.0977 12.3566 23.0381 12.3823 22.9755 12.3832C22.9444 12.3828 22.9138 12.3763 22.8853 12.3641C22.8568 12.3518 22.8309 12.3341 22.8093 12.3119C22.7876 12.2897 22.7705 12.2634 22.759 12.2346C22.7475 12.2058 22.7418 12.175 22.7422 12.1439C22.7418 12.1129 22.7475 12.0821 22.759 12.0533C22.7705 12.0245 22.7876 11.9982 22.8093 11.976C22.8309 11.9538 22.8568 11.9361 22.8853 11.9238C22.9138 11.9116 22.9444 11.9051 22.9755 11.9047C23.0065 11.9051 23.0371 11.9116 23.0656 11.9238C23.0942 11.9361 23.12 11.9538 23.1416 11.976C23.1633 11.9982 23.1804 12.0245 23.1919 12.0533C23.2034 12.0821 23.2087 12.1129 23.2083 12.1439Z" fill="#AA161D"/>
<path d="M21.2376 14.5074C22.7924 14.279 24.1431 14.5741 25.0345 15.4655C25.9259 16.3569 26.221 17.708 25.9926 19.2624C27.2538 20.2006 28 21.3643 28 22.625C28 23.8857 27.2538 25.0494 25.9926 25.9873C26.221 27.5424 25.9259 28.8931 25.0345 29.7845C24.1431 30.6759 22.792 30.971 21.2372 30.7426C20.2997 32.0038 19.1357 32.75 17.875 32.75C16.6143 32.75 15.4506 32.0038 14.5128 30.7426C12.958 30.9714 11.6069 30.6759 10.7155 29.7845C9.82413 28.8931 9.529 27.542 9.75738 25.9873C8.49625 25.0498 7.75 23.8857 7.75 22.625C7.75 21.3643 8.49625 20.2006 9.75738 19.2624C9.529 17.708 9.82413 16.3569 10.7155 15.4655C11.6069 14.5741 12.958 14.279 14.5124 14.5074C15.4506 13.2466 16.6143 12.5 17.875 12.5C19.1357 12.5 20.2994 13.2463 21.2376 14.5074Z" fill="#BCCCD2"/>
<path fill-rule="evenodd" clip-rule="evenodd" d="M21.5665 13.7135C23.0988 13.5748 24.544 13.9141 25.5647 14.9352C26.5859 15.9564 26.9249 17.4012 26.7869 18.9335C27.9681 19.9197 28.75 21.1812 28.75 22.625C28.75 24.0691 27.9681 25.3306 26.7869 26.3165C26.9252 27.8488 26.5859 29.294 25.5647 30.3147C24.5436 31.3359 23.0987 31.6752 21.5661 31.5369C20.5806 32.7181 19.3195 33.5 17.875 33.5C16.4312 33.5 15.1694 32.7181 14.1839 31.5369C12.6513 31.6752 11.2064 31.3359 10.1852 30.3147C9.16412 29.2936 8.82475 27.8488 8.96313 26.3165C7.78188 25.3303 7 24.0688 7 22.625C7 21.1809 7.78188 19.9194 8.96313 18.9335C8.82513 17.4012 9.16412 15.9564 10.1852 14.9352C11.2064 13.9141 12.6512 13.5751 14.1835 13.7135C15.1694 12.5319 16.4312 11.75 17.875 11.75C19.3191 11.75 20.5806 12.5319 21.5665 13.7135ZM21.2376 14.5074C20.2994 13.2466 19.1357 12.5 17.875 12.5C16.6143 12.5 15.4506 13.2463 14.5124 14.5074C12.9576 14.279 11.6069 14.5741 10.7155 15.4655C9.82413 16.3569 9.529 17.708 9.75738 19.2624C8.49625 20.2006 7.75 21.3643 7.75 22.625C7.75 23.8857 8.49625 25.0494 9.75738 25.9873C9.529 27.5424 9.82413 28.8931 10.7155 29.7845C11.6069 30.6759 12.958 30.971 14.5128 30.7426C15.4503 32.0038 16.6143 32.75 17.875 32.75C19.1357 32.75 20.2994 32.0038 21.2372 30.7426C22.7924 30.9714 24.1431 30.6759 25.0345 29.7845C25.9259 28.8931 26.221 27.542 25.9926 25.9873C27.2538 25.0498 28 23.8857 28 22.625C28 21.3643 27.2538 20.2006 25.9926 19.2624C26.221 17.708 25.9259 16.3569 25.0345 15.4655C24.1431 14.5741 22.792 14.279 21.2376 14.5074Z" fill="#81A5B0"/>
<path fill-rule="evenodd" clip-rule="evenodd" d="M27.25 22.25C27.3495 22.25 27.4448 22.2895 27.5152 22.3598C27.5855 22.4302 27.625 22.5255 27.625 22.625C27.625 23.8876 26.9136 25.0138 25.7913 25.904C25.9555 27.3268 25.6623 28.6265 24.7694 29.519C23.8765 30.4123 22.5767 30.7055 21.154 30.5413C20.2637 31.6636 19.1376 32.375 17.875 32.375C17.7755 32.375 17.6802 32.3355 17.6098 32.2652C17.5395 32.1948 17.5 32.0995 17.5 32C17.5 31.9005 17.5395 31.8052 17.6098 31.7348C17.6802 31.6645 17.7755 31.625 17.875 31.625C18.8823 31.625 19.8606 31.0291 20.6875 29.9176C20.7279 29.8633 20.7822 29.8209 20.8447 29.795C20.9073 29.769 20.9756 29.7605 21.0426 29.7703C22.4136 29.9716 23.5266 29.7013 24.2391 28.9891C24.9513 28.2766 25.2216 27.1636 25.0203 25.793C25.0104 25.726 25.0189 25.6575 25.0449 25.5949C25.0708 25.5323 25.1132 25.4779 25.1676 25.4375C26.2787 24.6106 26.875 23.6323 26.875 22.625C26.875 22.5255 26.9145 22.4302 26.9848 22.3598C27.0552 22.2895 27.1505 22.25 27.25 22.25Z" fill="#A2B9C1"/>
<path fill-rule="evenodd" clip-rule="evenodd" d="M17.875 13.625C16.8678 13.625 15.8894 14.2213 15.0625 15.3324C15.0221 15.3868 14.9677 15.4292 14.9051 15.4551C14.8425 15.4811 14.774 15.4896 14.707 15.4797C13.3364 15.2784 12.2234 15.5491 11.5109 16.2612C10.7991 16.9734 10.5284 18.0864 10.7297 19.457C10.7396 19.524 10.7311 19.5925 10.7051 19.6551C10.6792 19.7177 10.6368 19.7721 10.5824 19.8125C9.47125 20.6394 8.875 21.6178 8.875 22.625C8.875 22.7245 8.83549 22.8198 8.76517 22.8902C8.69484 22.9605 8.59946 23 8.5 23C8.40054 23 8.30516 22.9605 8.23483 22.8902C8.16451 22.8198 8.125 22.7245 8.125 22.625C8.125 21.3624 8.83675 20.2363 9.95875 19.346C9.7945 17.9233 10.0881 16.6235 10.9806 15.731C11.8735 14.8381 13.1733 14.5449 14.5956 14.7087C15.4863 13.5867 16.6128 12.875 17.875 12.875C17.9745 12.875 18.0698 12.9145 18.1402 12.9848C18.2105 13.0552 18.25 13.1505 18.25 13.25C18.25 13.3495 18.2105 13.4448 18.1402 13.5152C18.0698 13.5855 17.9745 13.625 17.875 13.625Z" fill="#D0DEE3"/>
<path d="M20.3657 16.6119C21.5174 16.4431 22.5182 16.6614 23.1782 17.3218C23.8386 17.9818 24.0573 18.983 23.8881 20.1343C24.8219 20.8291 25.375 21.6912 25.375 22.625C25.375 23.5588 24.8219 24.4212 23.8881 25.1157C24.0569 26.2674 23.8386 27.2682 23.1782 27.9282C22.5182 28.5886 21.5174 28.8073 20.3657 28.6381C19.6709 29.5719 18.8088 30.125 17.875 30.125C16.9412 30.125 16.0791 29.5719 15.3843 28.6381C14.2326 28.8073 13.2318 28.5886 12.5718 27.9282C11.9114 27.2682 11.6928 26.2674 11.8619 25.1157C10.9281 24.4209 10.375 23.5588 10.375 22.625C10.375 21.6912 10.9281 20.8288 11.8619 20.1343C11.6931 18.9826 11.9114 17.9818 12.5718 17.3218C13.2318 16.6618 14.2326 16.4428 15.3843 16.6119C16.0791 15.6781 16.9412 15.125 17.875 15.125C18.8088 15.125 19.6712 15.6781 20.3657 16.6119Z" fill="#D2E2E7"/>
<path fill-rule="evenodd" clip-rule="evenodd" d="M12.5718 27.9282C11.9114 27.2682 11.6927 26.2674 11.8619 25.1157C10.9281 24.4209 10.375 23.5588 10.375 22.625C10.375 21.6912 10.9281 20.8288 11.8619 20.1343C11.6931 18.9826 11.9114 17.9818 12.5718 17.3218C13.2318 16.6618 14.2326 16.4427 15.3843 16.6119C16.0791 15.6781 16.9412 15.125 17.875 15.125C18.8088 15.125 19.6712 15.6781 20.3657 16.6119C21.5174 16.4431 22.5182 16.6614 23.1782 17.3218C23.8386 17.9818 24.0573 18.983 23.8881 20.1343C24.8219 20.8291 25.375 21.6912 25.375 22.625C25.375 23.5588 24.8219 24.4212 23.8881 25.1157C24.0569 26.2674 23.8386 27.2682 23.1782 27.9282C22.5182 28.5886 21.5174 28.8073 20.3657 28.6381C19.6709 29.5719 18.8088 30.125 17.875 30.125C16.9412 30.125 16.0791 29.5719 15.3843 28.6381C14.2326 28.8073 13.2318 28.5886 12.5718 27.9282ZM15.0573 29.4282C13.9202 29.5107 12.8279 29.2452 12.0415 28.4589C11.2548 27.6721 10.9896 26.5798 11.0717 25.4427C10.21 24.6973 9.625 23.7373 9.625 22.625C9.625 21.5128 10.21 20.5528 11.0717 19.8069C10.9896 18.6706 11.2548 17.5779 12.0415 16.7915C12.8279 16.0048 13.9203 15.7396 15.0569 15.8218C15.8028 14.96 16.7628 14.375 17.875 14.375C18.9876 14.375 19.9472 14.96 20.6931 15.8218C21.8294 15.7396 22.9221 16.0048 23.7085 16.7915C24.4952 17.5779 24.7604 18.6703 24.6782 19.8069C25.54 20.5528 26.125 21.5131 26.125 22.625C26.125 23.7373 25.54 24.6973 24.6782 25.4427C24.7604 26.5798 24.4952 27.6721 23.7085 28.4589C22.9221 29.2452 21.8298 29.5104 20.6927 29.4282C19.9473 30.29 18.9873 30.875 17.875 30.875C16.7628 30.875 15.8028 30.29 15.0573 29.4282Z" fill="#81A5B0"/>
<path fill-rule="evenodd" clip-rule="evenodd" d="M24.625 22.25C24.7245 22.25 24.8198 22.2895 24.8902 22.3598C24.9605 22.4302 25 22.5255 25 22.625C25 23.5588 24.4832 24.3837 23.6852 25.0317C23.7914 26.054 23.5735 27.0027 22.9131 27.6631C22.2528 28.3235 21.3044 28.5414 20.2817 28.4356C19.6337 29.2329 18.8088 29.75 17.875 29.75C17.7755 29.75 17.6802 29.7105 17.6098 29.6402C17.5395 29.5698 17.5 29.4745 17.5 29.375C17.5 29.2755 17.5395 29.1802 17.6098 29.1098C17.6802 29.0395 17.7755 29 17.875 29C18.5553 29 19.2321 28.5976 19.8156 27.8131C19.856 27.7587 19.9104 27.7163 19.973 27.6904C20.0356 27.6644 20.1041 27.6559 20.1711 27.6658C21.1386 27.8079 21.9018 27.614 22.3829 27.1329C22.864 26.6518 23.0579 25.8886 22.9158 24.9211C22.9059 24.8541 22.9143 24.7857 22.9402 24.7231C22.9661 24.6605 23.0084 24.6061 23.0627 24.5656C23.8476 23.9825 24.25 23.3056 24.25 22.625C24.25 22.5255 24.2895 22.4302 24.3598 22.3598C24.4302 22.2895 24.5255 22.25 24.625 22.25Z" fill="#BAD0D7"/>
<path fill-rule="evenodd" clip-rule="evenodd" d="M17.875 16.25C17.1947 16.25 16.5179 16.6524 15.9344 17.4373C15.8939 17.4916 15.8395 17.5339 15.7769 17.5598C15.7143 17.5857 15.6459 17.5941 15.5789 17.5842C14.6114 17.4421 13.8482 17.6364 13.3671 18.1171C12.8864 18.5982 12.6921 19.3614 12.8342 20.3289C12.8441 20.3959 12.8357 20.4643 12.8098 20.5269C12.7839 20.5895 12.7416 20.6439 12.6873 20.6844C11.9024 21.2675 11.5 21.9444 11.5 22.625C11.5 22.7245 11.4605 22.8198 11.3902 22.8902C11.3198 22.9605 11.2245 23 11.125 23C11.0255 23 10.9302 22.9605 10.8598 22.8902C10.7895 22.8198 10.75 22.7245 10.75 22.625C10.75 21.6912 11.2668 20.8663 12.0648 20.2183C11.9586 19.196 12.1765 18.2472 12.8369 17.5869C13.4972 16.9265 14.4456 16.7086 15.4683 16.8144C16.1163 16.0171 16.9409 15.5 17.875 15.5C17.9745 15.5 18.0698 15.5395 18.1402 15.6098C18.2105 15.6802 18.25 15.7755 18.25 15.875C18.25 15.9745 18.2105 16.0698 18.1402 16.1402C18.0698 16.2105 17.9745 16.25 17.875 16.25Z" fill="#E1F4FA"/>
<path d="M20.0717 25.625H15.6861V24.755L17.7561 22.5489C18.0403 22.2384 18.2496 21.9677 18.3842 21.7359C18.5222 21.5045 18.5908 21.2848 18.5908 21.0767C18.5908 20.7924 18.5192 20.5697 18.3756 20.4088C18.232 20.2445 18.0268 20.1628 17.7606 20.1628C17.4733 20.1628 17.2461 20.2622 17.0792 20.4617C16.915 20.6578 16.8332 20.9169 16.8332 21.2394H15.5586C15.5586 20.8494 15.6508 20.4935 15.8357 20.1714C16.0226 19.8497 16.2968 19.5876 16.6266 19.4154C16.9663 19.2309 17.3518 19.1387 17.7823 19.1387C18.4416 19.1387 18.9527 19.2969 19.3161 19.6134C19.6821 19.9295 19.8655 20.3765 19.8655 20.9537C19.8655 21.2702 19.783 21.5923 19.6191 21.9204C19.4552 22.2485 19.174 22.631 18.7753 23.0675L17.3207 24.6013H20.0721L20.0717 25.625Z" fill="#E6F7FD"/>
<path fill-rule="evenodd" clip-rule="evenodd" d="M20.8217 25.625C20.8217 25.824 20.7427 26.0147 20.602 26.1554C20.4614 26.296 20.2706 26.375 20.0717 26.375H15.6861C15.4872 26.375 15.2964 26.296 15.1558 26.1554C15.0151 26.0147 14.9361 25.824 14.9361 25.625V24.755C14.9361 24.5643 15.0088 24.3807 15.1393 24.2417L17.2056 22.0393C17.47 21.7502 17.6395 21.5248 17.7362 21.3583L17.74 21.3523C17.8285 21.2034 17.8412 21.1153 17.8412 21.0767C17.8427 21.0226 17.8355 20.9687 17.8198 20.9169C17.8001 20.9139 17.7802 20.9125 17.7602 20.9128C17.7318 20.911 17.7032 20.9148 17.6762 20.924C17.6736 20.9251 17.671 20.9265 17.6687 20.9282C17.6634 20.9326 17.6587 20.9377 17.6545 20.9432C17.6297 20.9724 17.5832 21.047 17.5832 21.2394C17.5832 21.4383 17.5042 21.6291 17.3635 21.7698C17.2229 21.9104 17.0321 21.9894 16.8332 21.9894H15.5586C15.3597 21.9894 15.1689 21.9104 15.0283 21.7698C14.8876 21.6291 14.8086 21.4383 14.8086 21.2394C14.8086 20.7257 14.932 20.24 15.1847 19.7987L15.1873 19.7942C15.4438 19.353 15.8194 18.993 16.2711 18.7554C16.7323 18.5053 17.242 18.3887 17.7823 18.3887C18.5548 18.3887 19.2647 18.5747 19.8073 19.0468C20.3698 19.5332 20.6155 20.2052 20.6155 20.9537C20.6155 21.4037 20.4981 21.8402 20.29 22.256C20.0822 22.6719 19.75 23.1125 19.3296 23.573L19.3198 23.5835L19.066 23.8509H20.0717C20.2706 23.8509 20.4614 23.9299 20.602 24.0706C20.7427 24.2112 20.8217 24.402 20.8217 24.6009V25.625ZM17.3211 24.6013L18.7753 23.0675C19.174 22.631 19.4552 22.2485 19.6191 21.9204C19.7833 21.5923 19.8655 21.2702 19.8655 20.9537C19.8655 20.3762 19.6821 19.9299 19.3161 19.6134C18.9527 19.2969 18.4416 19.1387 17.7823 19.1387C17.3518 19.1387 16.9663 19.2309 16.6266 19.4154C16.1901 19.6433 15.8549 20.0265 15.6872 20.4894C15.6004 20.7299 15.5568 20.9838 15.5586 21.2394H16.8332C16.8332 20.9169 16.915 20.6578 17.0792 20.4613C17.2461 20.2625 17.473 20.1628 17.7602 20.1628C18.0268 20.1628 18.232 20.2445 18.3756 20.4088C18.5192 20.57 18.5908 20.7924 18.5908 21.0767C18.5908 21.2848 18.5222 21.5042 18.3846 21.7359C18.2496 21.9673 18.04 22.2384 17.7561 22.5489L15.6861 24.755V25.625H20.0721V24.6013H17.3211Z" fill="#81A5B0"/>
</svg>
