<svg width="17" height="18" viewBox="0 0 17 18" fill="none" xmlns="http://www.w3.org/2000/svg">
<path d="M9.46205 2.37794C9.02497 2.28831 8.57287 2.24121 8.1103 2.24121C4.39299 2.24121 1.35156 5.28264 1.35156 8.99995C1.35156 10.2165 1.6895 11.3655 2.2302 12.3793L1.64925 14.6138C1.51764 15.1199 1.98616 15.5774 2.48905 15.4337L4.66334 14.8125C5.67716 15.4208 6.89373 15.7587 8.1103 15.7587C11.8276 15.7587 14.869 12.7173 14.869 8.99995C14.869 8.77193 14.8576 8.54646 14.8353 8.32408" stroke="#585858" stroke-width="1.01381" stroke-miterlimit="10" stroke-linecap="round" stroke-linejoin="round"/>
<path d="M11.1493 10.9252C11.1493 11.0346 11.1249 11.1472 11.0731 11.2567C11.0213 11.3662 10.9543 11.4696 10.866 11.5669C10.7167 11.7311 10.5523 11.8498 10.3664 11.9258C10.1837 12.0018 9.9857 12.0414 9.77248 12.0414C9.46179 12.0414 9.12977 11.9684 8.77948 11.8193C8.42919 11.6703 8.0789 11.4696 7.73166 11.2171C7.38137 10.9617 7.04935 10.6788 6.73257 10.3655C6.41883 10.0492 6.13555 9.71771 5.88273 9.37098C5.63296 9.02426 5.43193 8.67754 5.28572 8.33386C5.13951 7.98713 5.06641 7.65562 5.06641 7.33931C5.06641 7.13249 5.10296 6.9348 5.17606 6.75231C5.24917 6.56678 5.36491 6.39646 5.52635 6.24439C5.7213 6.05278 5.93452 5.9585 6.15992 5.9585C6.24521 5.9585 6.3305 5.97674 6.40665 6.01324C6.48584 6.04974 6.5559 6.10448 6.61073 6.18356L7.3174 7.17811C7.37223 7.25415 7.41183 7.3241 7.43924 7.39101C7.46666 7.45488 7.48189 7.51875 7.48189 7.57654C7.48189 7.64953 7.46056 7.72253 7.41792 7.79248C7.37832 7.86243 7.32045 7.93543 7.24734 8.00842L7.01585 8.24869C6.98234 8.28215 6.96711 8.32169 6.96711 8.37035C6.96711 8.39468 6.97016 8.41597 6.97625 8.4403C6.98539 8.46464 6.99453 8.48288 7.00062 8.50113C7.05545 8.6015 7.14987 8.73228 7.2839 8.89044C7.42097 9.04859 7.56717 9.20979 7.72557 9.37098C7.89005 9.53218 8.04844 9.68121 8.20988 9.81807C8.36827 9.9519 8.49925 10.0431 8.60281 10.0979C8.61804 10.104 8.63632 10.1131 8.65764 10.1222C8.68201 10.1313 8.70638 10.1344 8.73379 10.1344C8.78557 10.1344 8.82517 10.1161 8.85868 10.0827L9.09017 9.85457C9.16632 9.77854 9.23943 9.72075 9.30949 9.68425C9.37954 9.64167 9.4496 9.62038 9.52575 9.62038C9.58363 9.62038 9.64455 9.63255 9.71156 9.65992C9.77857 9.68729 9.84863 9.72683 9.92478 9.77854L10.933 10.4933C11.0122 10.548 11.067 10.6119 11.1005 10.6879C11.131 10.764 11.1493 10.84 11.1493 10.9252Z" stroke="#585858" stroke-width="1.01381" stroke-miterlimit="10"/>
<path d="M12.8439 2.2207C12.0982 2.2207 11.4922 2.82674 11.4922 3.57245V4.22354C11.4922 4.36097 11.4336 4.57049 11.3638 4.68764L11.1047 5.11795C10.9447 5.38379 11.0551 5.67892 11.348 5.77805C12.319 6.10247 13.3666 6.10247 14.3376 5.77805C14.6102 5.68794 14.7296 5.36577 14.5809 5.11795L14.3218 4.68764C14.2543 4.57049 14.1957 4.36097 14.1957 4.22354V3.57245C14.1957 2.82899 13.5874 2.2207 12.8439 2.2207Z" stroke="#585858" stroke-width="0.878636" stroke-miterlimit="10" stroke-linecap="round"/>
<path d="M13.2633 2.28631C13.1934 2.26603 13.1213 2.25026 13.047 2.24125C12.8307 2.21422 12.6234 2.22999 12.4297 2.28631C12.495 2.11959 12.6572 2.00244 12.8465 2.00244C13.0357 2.00244 13.1979 2.11959 13.2633 2.28631Z" stroke="#20523C" stroke-width="0.878636" stroke-miterlimit="10" stroke-linecap="round" stroke-linejoin="round"/>
<path d="M13.5197 5.85938C13.5197 6.23111 13.2156 6.53525 12.8438 6.53525C12.6591 6.53525 12.4879 6.45865 12.3662 6.33699C12.2446 6.21534 12.168 6.04411 12.168 5.85938" stroke="#20523C" stroke-width="0.878636" stroke-miterlimit="10"/>
</svg>
