<svg width="25" height="25" viewBox="0 0 25 25" fill="none" xmlns="http://www.w3.org/2000/svg">
<path d="M14.861 2.23268C14.2054 2.09823 13.5273 2.02759 12.8334 2.02759C7.25746 2.02759 2.69531 6.58974 2.69531 12.1657C2.69531 13.9906 3.20222 15.714 4.01327 17.2347L3.14184 20.5864C2.94443 21.3457 3.6472 22.0318 4.40154 21.8163L7.66299 20.8845C9.1837 21.7969 11.0086 22.3038 12.8334 22.3038C18.4094 22.3038 22.9715 17.7417 22.9715 12.1657C22.9715 11.8237 22.9544 11.4855 22.9209 11.1519" stroke="#20523C" stroke-width="1.52072" stroke-miterlimit="10" stroke-linecap="round" stroke-linejoin="round"/>
<path d="M17.3938 15.0535C17.3938 15.2177 17.3573 15.3865 17.2796 15.5508C17.2019 15.715 17.1014 15.8701 16.9689 16.0161C16.745 16.2625 16.4983 16.4404 16.2196 16.5545C15.9455 16.6685 15.6485 16.7278 15.3286 16.7278C14.8626 16.7278 14.3646 16.6183 13.8391 16.3948C13.3137 16.1712 12.7883 15.8701 12.2674 15.4915C11.742 15.1083 11.244 14.684 10.7688 14.2141C10.2982 13.7396 9.87325 13.2423 9.49402 12.7222C9.11937 12.2022 8.81781 11.6821 8.5985 11.1666C8.37919 10.6465 8.26953 10.1492 8.26953 9.67473C8.26953 9.3645 8.32436 9.06797 8.43402 8.79424C8.54367 8.51595 8.71729 8.26047 8.95945 8.03236C9.25187 7.74494 9.5717 7.60352 9.9098 7.60352C10.0377 7.60352 10.1657 7.63089 10.2799 7.68563C10.3987 7.74038 10.5038 7.8225 10.586 7.94111L11.646 9.43294C11.7283 9.54699 11.7877 9.65192 11.8288 9.75229C11.8699 9.84809 11.8928 9.9439 11.8928 10.0306C11.8928 10.1401 11.8608 10.2496 11.7968 10.3545C11.7374 10.4594 11.6506 10.5689 11.5409 10.6784L11.1937 11.0388C11.1434 11.089 11.1206 11.1483 11.1206 11.2213C11.1206 11.2578 11.1252 11.2897 11.1343 11.3262C11.148 11.3627 11.1617 11.3901 11.1708 11.4175C11.2531 11.568 11.3947 11.7642 11.5958 12.0014C11.8014 12.2387 12.0207 12.4805 12.2583 12.7222C12.505 12.964 12.7426 13.1876 12.9847 13.3929C13.2223 13.5936 13.4188 13.7305 13.5741 13.8126C13.597 13.8217 13.6244 13.8354 13.6564 13.8491C13.6929 13.8628 13.7295 13.8673 13.7706 13.8673C13.8483 13.8673 13.9077 13.84 13.9579 13.7898L14.3052 13.4476C14.4194 13.3336 14.5291 13.2469 14.6342 13.1921C14.7392 13.1283 14.8443 13.0963 14.9586 13.0963C15.0454 13.0963 15.1367 13.1146 15.2373 13.1557C15.3378 13.1967 15.4429 13.256 15.5571 13.3336L17.0694 14.4057C17.1882 14.4878 17.2705 14.5836 17.3207 14.6977C17.3664 14.8117 17.3938 14.9258 17.3938 15.0535Z" stroke="#20523C" stroke-width="1.52072" stroke-miterlimit="10"/>
<path d="M19.9378 1.99719C18.8192 1.99719 17.9102 2.90624 17.9102 4.02481V5.00145C17.9102 5.20759 17.8223 5.52187 17.7175 5.6976L17.3289 6.34306C17.089 6.74183 17.2546 7.18452 17.6939 7.33322C19.1504 7.81985 20.7218 7.81985 22.1783 7.33322C22.5872 7.19804 22.7663 6.71479 22.5433 6.34306L22.1546 5.6976C22.0533 5.52187 21.9654 5.20759 21.9654 5.00145V4.02481C21.9654 2.90962 21.053 1.99719 19.9378 1.99719Z" stroke="#20523C" stroke-width="1.31795" stroke-miterlimit="10" stroke-linecap="round"/>
<path d="M20.5629 2.09536C20.4581 2.06494 20.35 2.04129 20.2384 2.02777C19.914 1.98722 19.6031 2.01087 19.3125 2.09536C19.4105 1.84528 19.6538 1.66956 19.9377 1.66956C20.2216 1.66956 20.4649 1.84528 20.5629 2.09536Z" stroke="#20523C" stroke-width="1.31795" stroke-miterlimit="10" stroke-linecap="round" stroke-linejoin="round"/>
<path d="M20.9495 7.45496C20.9495 8.01255 20.4933 8.46877 19.9357 8.46877C19.6586 8.46877 19.4017 8.35387 19.2193 8.17138C19.0368 7.9889 18.9219 7.73206 18.9219 7.45496" stroke="#20523C" stroke-width="1.31795" stroke-miterlimit="10"/>
</svg>
