<svg width="33" height="33" viewBox="0 0 33 33" fill="none" xmlns="http://www.w3.org/2000/svg">
<path d="M16.2206 29.7383C23.6861 29.7383 29.7381 23.6863 29.7381 16.2208C29.7381 8.75535 23.6861 2.70337 16.2206 2.70337C8.75511 2.70337 2.70312 8.75535 2.70312 16.2208C2.70312 23.6863 8.75511 29.7383 16.2206 29.7383Z" stroke="#292D32" stroke-width="1.8" stroke-linecap="round" stroke-linejoin="round"/>
<path d="M10.8281 19.6131C11.0714 20.0186 11.3688 20.3971 11.7068 20.7351C14.194 23.2223 18.2357 23.2223 20.7364 20.7351C21.7502 19.7213 22.3315 18.437 22.5207 17.1259" stroke="#292D32" stroke-width="1.8" stroke-linecap="round" stroke-linejoin="round"/>
<path d="M9.92188 15.315C10.1111 13.9903 10.6924 12.7196 11.7062 11.7057C14.1934 9.21853 18.2351 9.21853 20.7359 11.7057C21.0873 12.0572 21.3712 12.4357 21.6145 12.8277" stroke="#292D32" stroke-width="1.8" stroke-linecap="round" stroke-linejoin="round"/>
<path d="M10.5742 23.2227V19.6135H14.1834" stroke="#292D32" stroke-width="2.02762" stroke-linecap="round" stroke-linejoin="round"/>
<path d="M21.8709 9.21863V12.8278H18.2617" stroke="#292D32" stroke-width="2.02762" stroke-linecap="round" stroke-linejoin="round"/>
</svg>
