<svg width="121" height="120" viewBox="0 0 121 120" fill="none" xmlns="http://www.w3.org/2000/svg">
<rect x="0.5" width="120" height="120" rx="60" fill="#F5FAFD"/>
<circle cx="38" cy="42" r="14" fill="#D7E4F3"/>
<circle cx="59" cy="59" r="27.5" stroke="#3D4856" stroke-width="3" stroke-linecap="round" stroke-linejoin="round"/>
<path d="M90 89L79 78" stroke="#3D4856" stroke-width="3" stroke-linecap="round" stroke-linejoin="round"/>
<path d="M59 43C55.8355 43 52.7421 43.9384 50.1109 45.6965C47.4797 47.4546 45.4289 49.9534 44.2179 52.8771C43.0069 55.8007 42.6901 59.0177 43.3074 62.1214C43.9248 65.2251 45.4487 68.0761 47.6863 70.3137C49.9239 72.5513 52.7749 74.0752 55.8786 74.6926C58.9823 75.3099 62.1993 74.9931 65.1229 73.7821C68.0466 72.5711 70.5454 70.5203 72.3035 67.8891C74.0616 65.2579 75 62.1645 75 59C74.9955 54.7579 73.3084 50.6908 70.3088 47.6912C67.3092 44.6916 63.2421 43.0045 59 43ZM60.8462 66.3846C60.5063 66.3846 60.2308 66.6601 60.2308 67V67.6154C60.2308 67.9418 60.1011 68.2549 59.8703 68.4857C59.6395 68.7165 59.3264 68.8461 59 68.8461C58.6736 68.8461 58.3605 68.7165 58.1297 68.4857C57.8989 68.2549 57.7692 67.9418 57.7692 67.6154C57.7692 67.401 57.7692 67.2937 57.7529 67.2044C57.678 66.7957 57.3582 66.4759 56.9495 66.401C56.8601 66.3846 56.7529 66.3846 56.5385 66.3846H55.3077C54.9813 66.3846 54.6682 66.2549 54.4374 66.0241C54.2066 65.7933 54.0769 65.4803 54.0769 65.1538C54.0769 64.8274 54.2066 64.5144 54.4374 64.2836C54.6682 64.0527 54.9813 63.9231 55.3077 63.9231H60.8462C61.3358 63.9231 61.8054 63.7286 62.1516 63.3823C62.4978 63.0361 62.6923 62.5665 62.6923 62.0769C62.6923 61.5873 62.4978 61.1177 62.1516 60.7715C61.8054 60.4253 61.3358 60.2308 60.8462 60.2308H57.1538C56.0114 60.2308 54.9157 59.7769 54.1079 58.9691C53.3 58.1612 52.8462 57.0655 52.8462 55.9231C52.8462 54.7806 53.3 53.6849 54.1079 52.8771C54.9157 52.0692 56.0114 51.6154 57.1538 51.6154C57.4937 51.6154 57.7692 51.3399 57.7692 51V50.3846C57.7692 50.0582 57.8989 49.7451 58.1297 49.5143C58.3605 49.2835 58.6736 49.1538 59 49.1538C59.3264 49.1538 59.6395 49.2835 59.8703 49.5143C60.1011 49.7451 60.2308 50.0582 60.2308 50.3846C60.2308 50.599 60.2308 50.7063 60.2472 50.7956C60.322 51.2043 60.6418 51.5241 61.0505 51.599C61.1399 51.6154 61.2471 51.6154 61.4615 51.6154H62.6923C63.0187 51.6154 63.3318 51.7451 63.5626 51.9759C63.7934 52.2067 63.9231 52.5197 63.9231 52.8462C63.9231 53.1726 63.7934 53.4856 63.5626 53.7164C63.3318 53.9473 63.0187 54.0769 62.6923 54.0769H57.1538C56.6642 54.0769 56.1946 54.2714 55.8484 54.6176C55.5022 54.9639 55.3077 55.4334 55.3077 55.9231C55.3077 56.4127 55.5022 56.8823 55.8484 57.2285C56.1946 57.5747 56.6642 57.7692 57.1538 57.7692H60.8462C61.9886 57.7692 63.0843 58.2231 63.8922 59.0309C64.7 59.8388 65.1538 60.9344 65.1538 62.0769C65.1538 63.2194 64.7 64.3151 63.8922 65.1229C63.0843 65.9308 61.9886 66.3846 60.8462 66.3846Z" fill="url(#paint0_linear_2629_47510)"/>
<defs>
<linearGradient id="paint0_linear_2629_47510" x1="45" y1="53" x2="75" y2="71" gradientUnits="userSpaceOnUse">
<stop stop-color="#63DD1E"/>
<stop offset="1" stop-color="#C3F63C"/>
</linearGradient>
</defs>
</svg>
