<svg width="24" height="24" viewBox="0 0 24 24" fill="none" xmlns="http://www.w3.org/2000/svg">
<path d="M10.4862 2.23006L5.49625 4.10005C4.34625 4.53005 3.40625 5.89004 3.40625 7.12004V14.55C3.40625 15.73 4.18626 17.28 5.13626 17.99L9.43625 21.2001C10.8462 22.2601 13.1662 22.2601 14.5762 21.2001L18.8763 17.99C19.8263 17.28 20.6062 15.73 20.6062 14.55V7.12004C20.6062 5.89004 19.6662 4.53005 18.5162 4.10005L13.5262 2.23006C12.6762 1.92006 11.3162 1.92006 10.4862 2.23006Z" stroke="#292D32" stroke-width="1.5" stroke-linecap="round" stroke-linejoin="round"/>
<path d="M11.9997 10.92C11.9597 10.92 11.9097 10.92 11.8697 10.92C10.9297 10.89 10.1797 10.11 10.1797 9.16003C10.1797 8.19003 10.9697 7.40002 11.9397 7.40002C12.9097 7.40002 13.6997 8.19003 13.6997 9.16003C13.6897 10.12 12.9397 10.89 11.9997 10.92Z" stroke="#292D32" stroke-width="1.5" stroke-linecap="round" stroke-linejoin="round"/>
<path d="M10.0091 13.7201C9.04906 14.3601 9.04906 15.4101 10.0091 16.0501C11.0991 16.7801 12.8891 16.7801 13.9791 16.0501C14.9391 15.4101 14.9391 14.3601 13.9791 13.7201C12.8991 12.9901 11.1091 12.9901 10.0091 13.7201Z" stroke="#292D32" stroke-width="1.5" stroke-linecap="round" stroke-linejoin="round"/>
</svg>
