<svg width="100" height="100" viewBox="0 0 100 100" fill="none" xmlns="http://www.w3.org/2000/svg">
<rect x="0.5" y="0.5" width="99" height="99" rx="49.5" stroke="#DEDEDE"/>
<g clip-path="url(#clip0_2639_72019)">
<path d="M44.2857 49.1518C43.7215 47.7479 43.4335 46.2483 43.4375 44.7352C43.4375 38.4057 48.5366 33.1459 54.8628 32.9441C56.4789 32.8902 58.0888 33.1687 59.5929 33.7623C61.0969 34.3559 62.4631 35.252 63.6068 36.3951C64.7505 37.5381 65.6473 38.9038 66.2417 40.4076C66.8361 41.9113 67.1155 43.5211 67.0625 45.1372C66.8541 51.4634 61.5943 56.5625 55.2648 56.5625C53.7517 56.5665 52.2521 56.2785 50.8482 55.7143L48.6875 57.875H44.75V61.8125H40.8125V65.75H35.5625C35.2144 65.75 34.8806 65.6117 34.6344 65.3656C34.3883 65.1194 34.25 64.7856 34.25 64.4375V59.7305C34.2502 59.3829 34.3882 59.0495 34.6339 58.8036L44.2857 49.1518Z" stroke="#20523C" stroke-width="2.625" stroke-linecap="round" stroke-linejoin="round"/>
<path d="M58.5312 43.4375C59.6186 43.4375 60.5 42.5561 60.5 41.4688C60.5 40.3814 59.6186 39.5 58.5312 39.5C57.4439 39.5 56.5625 40.3814 56.5625 41.4688C56.5625 42.5561 57.4439 43.4375 58.5312 43.4375Z" fill="#20523C"/>
</g>
<defs>
<clipPath id="clip0_2639_72019">
<rect width="42" height="42" fill="white" transform="translate(29 29)"/>
</clipPath>
</defs>
</svg>
