<svg width="65" height="65" viewBox="0 0 65 65" fill="none" xmlns="http://www.w3.org/2000/svg">
<g clip-path="url(#clip0_2139_44055)">
<rect width="64.4419" height="64.4419" rx="32.221" fill="#63DD1E"/>
<circle cx="26" cy="15" r="41" fill="#C3F63C"/>
<path d="M32.2214 34.1537C34.5506 34.1537 36.4388 32.2654 36.4388 29.9362C36.4388 27.607 34.5506 25.7188 32.2214 25.7188C29.8921 25.7188 28.0039 27.607 28.0039 29.9362C28.0039 32.2654 29.8921 34.1537 32.2214 34.1537Z" stroke="#292D32" stroke-width="2.02762"/>
<path d="M20.8906 27.476C23.5536 15.7698 40.8965 15.7834 43.5459 27.4895C45.1004 34.3564 40.8289 40.1689 37.0846 43.7645C34.3676 46.3869 30.069 46.3869 27.3385 43.7645C23.6077 40.1689 19.3361 34.3428 20.8906 27.476Z" stroke="#292D32" stroke-width="2.02762"/>
</g>
<defs>
<clipPath id="clip0_2139_44055">
<rect width="64.4419" height="64.4419" rx="32.221" fill="white"/>
</clipPath>
</defs>
</svg>
