<svg width="22" height="22" viewBox="0 0 22 22" fill="none" xmlns="http://www.w3.org/2000/svg">
<path d="M12.7309 2.50965L14.4909 6.02965C14.7309 6.51965 15.3709 6.98965 15.9109 7.07965L19.1009 7.60965C21.1409 7.94965 21.6209 9.42965 20.1509 10.8896L17.6709 13.3696C17.2509 13.7896 17.0209 14.5996 17.1509 15.1796L17.8609 18.2496C18.4209 20.6796 17.1309 21.6196 14.9809 20.3496L11.9909 18.5796C11.4509 18.2596 10.5609 18.2596 10.0109 18.5796L7.02089 20.3496C4.88089 21.6196 3.58089 20.6696 4.14089 18.2496L4.85089 15.1796C4.98089 14.5996 4.75089 13.7896 4.33089 13.3696L1.85089 10.8896C0.390886 9.42965 0.860886 7.94965 2.90089 7.60965L6.09089 7.07965C6.62089 6.98965 7.26089 6.51965 7.50089 6.02965L9.26089 2.50965C10.2209 0.599648 11.7809 0.599648 12.7309 2.50965Z" stroke="#292D32" stroke-width="1.5" stroke-linecap="round" stroke-linejoin="round"/>
</svg>
