<svg width="25" height="25" viewBox="0 0 25 25" fill="none" xmlns="http://www.w3.org/2000/svg">
<path d="M8.61356 3.30383C7.49837 3.30383 6.58594 4.21626 6.58594 5.33145C6.58594 6.44665 7.49837 7.35908 8.61356 7.35908C9.72875 7.35908 10.6412 6.44665 10.6412 5.33145C10.6412 4.21626 9.72875 3.30383 8.61356 3.30383Z" stroke="#8E8E8E" stroke-width="1.52072"/>
<path d="M8.61356 17.4971C7.49837 17.4971 6.58594 18.4095 6.58594 19.5247C6.58594 20.6399 7.49837 21.5523 8.61356 21.5523C9.72875 21.5523 10.6412 20.6399 10.6412 19.5247C10.6412 18.4095 9.72875 17.4971 8.61356 17.4971Z" stroke="#8E8E8E" stroke-width="1.52072"/>
<path d="M15.7073 10.4005C14.5921 10.4005 13.6797 11.3129 13.6797 12.4281C13.6797 13.5433 14.5921 14.4558 15.7073 14.4558C16.8225 14.4558 17.7349 13.5433 17.7349 12.4281C17.7349 11.3129 16.8225 10.4005 15.7073 10.4005Z" stroke="#8E8E8E" stroke-width="1.52072"/>
<path d="M15.7073 3.30383C14.5921 3.30383 13.6797 4.21626 13.6797 5.33145C13.6797 6.44665 14.5921 7.35908 15.7073 7.35908C16.8225 7.35908 17.7349 6.44665 17.7349 5.33145C17.7349 4.21626 16.8225 3.30383 15.7073 3.30383Z" stroke="#8E8E8E" stroke-width="1.52072"/>
<path d="M15.7073 17.4972C14.5921 17.4972 13.6797 18.4096 13.6797 19.5248C13.6797 20.64 14.5921 21.5524 15.7073 21.5524C16.8225 21.5524 17.7349 20.64 17.7349 19.5248C17.7349 18.4096 16.8225 17.4972 15.7073 17.4972Z" stroke="#8E8E8E" stroke-width="1.52072"/>
<path d="M8.61356 10.4004C7.49837 10.4004 6.58594 11.3128 6.58594 12.428C6.58594 13.5432 7.49837 14.4556 8.61356 14.4556C9.72875 14.4556 10.6412 13.5432 10.6412 12.428C10.6412 11.3128 9.72875 10.4004 8.61356 10.4004Z" stroke="#8E8E8E" stroke-width="1.52072"/>
</svg>
