<svg width="1376" height="400" viewBox="0 0 1376 400" fill="none" xmlns="http://www.w3.org/2000/svg">
<g clip-path="url(#clip0_2234_61334)">
<rect width="1376" height="400" rx="21" fill="#0E2E20"/>
<g opacity="0.7" filter="url(#filter0_f_2234_61334)">
<circle cx="688.5" cy="918.5" r="576.5" fill="url(#paint0_radial_2234_61334)"/>
</g>
<path opacity="0.1" d="M1159 341L1440 341" stroke="url(#paint1_linear_2234_61334)"/>
<path opacity="0.1" d="M1304.5 622.5V341.5" stroke="url(#paint2_linear_2234_61334)"/>
<path opacity="0.1" d="M145 269L145 511" stroke="url(#paint3_linear_2234_61334)"/>
<path opacity="0.1" d="M1163 172L729 172" stroke="url(#paint4_linear_2234_61334)"/>
<path opacity="0.1" d="M1018 415L1018 173" stroke="url(#paint5_linear_2234_61334)"/>
<path opacity="0.1" d="M874 -71L874 171" stroke="url(#paint6_linear_2234_61334)"/>
<path opacity="0.1" d="M433 172L-0.999986 172" stroke="url(#paint7_linear_2234_61334)"/>
<path opacity="0.1" d="M288 415L288 173" stroke="url(#paint8_linear_2234_61334)"/>
<path opacity="0.1" d="M144 -71L144 171" stroke="url(#paint9_linear_2234_61334)"/>
<rect opacity="0.02" x="145" width="144" height="170" fill="white"/>
<rect opacity="0.01" x="435" width="144" height="170" fill="white"/>
<rect opacity="0.04" x="1160" width="144" height="170" fill="white"/>
<rect opacity="0.03" y="171" width="144" height="170" fill="white"/>
<rect opacity="0.01" x="1015" y="171" width="144" height="170" fill="white"/>
<rect opacity="0.02" x="1305" y="171" width="144" height="170" fill="white"/>
<rect opacity="0.01" y="342" width="144" height="170" fill="white"/>
<rect opacity="0.02" x="145" y="342" width="144" height="170" fill="white"/>
<rect opacity="0.01" x="290" y="342" width="144" height="170" fill="white"/>
<rect opacity="0.01" x="580" y="342" width="144" height="170" fill="white"/>
<rect opacity="0.01" x="870" y="342" width="144" height="170" fill="white"/>
<rect opacity="0.01" x="1160" y="342" width="144" height="170" fill="white"/>
<rect opacity="0.02" x="1305" y="342" width="144" height="170" fill="white"/>
</g>
<defs>
<filter id="filter0_f_2234_61334" x="-488" y="-258" width="2353" height="2353" filterUnits="userSpaceOnUse" color-interpolation-filters="sRGB">
<feFlood flood-opacity="0" result="BackgroundImageFix"/>
<feBlend mode="normal" in="SourceGraphic" in2="BackgroundImageFix" result="shape"/>
<feGaussianBlur stdDeviation="300" result="effect1_foregroundBlur_2234_61334"/>
</filter>
<radialGradient id="paint0_radial_2234_61334" cx="0" cy="0" r="1" gradientUnits="userSpaceOnUse" gradientTransform="translate(688.5 918.5) rotate(90) scale(576.5)">
<stop stop-color="#D4FF70"/>
<stop offset="1" stop-color="#D0E500"/>
</radialGradient>
<linearGradient id="paint1_linear_2234_61334" x1="1159" y1="341.5" x2="1440" y2="341.5" gradientUnits="userSpaceOnUse">
<stop stop-color="#DEDEDE" stop-opacity="0"/>
<stop offset="0.532654" stop-color="#DEDEDE"/>
<stop offset="1" stop-color="#DEDEDE"/>
</linearGradient>
<linearGradient id="paint2_linear_2234_61334" x1="1305" y1="622.5" x2="1305" y2="341.5" gradientUnits="userSpaceOnUse">
<stop stop-color="#DEDEDE" stop-opacity="0"/>
<stop offset="0.532654" stop-color="#DEDEDE"/>
<stop offset="1" stop-color="#DEDEDE"/>
</linearGradient>
<linearGradient id="paint3_linear_2234_61334" x1="144.5" y1="269" x2="144.5" y2="511" gradientUnits="userSpaceOnUse">
<stop stop-color="#DEDEDE" stop-opacity="0"/>
<stop offset="0.532654" stop-color="#DEDEDE"/>
<stop offset="1" stop-color="#DEDEDE"/>
</linearGradient>
<linearGradient id="paint4_linear_2234_61334" x1="1163" y1="171.5" x2="729" y2="171.5" gradientUnits="userSpaceOnUse">
<stop stop-color="#DEDEDE" stop-opacity="0"/>
<stop offset="0.532654" stop-color="#DEDEDE"/>
<stop offset="1" stop-color="#DEDEDE"/>
</linearGradient>
<linearGradient id="paint5_linear_2234_61334" x1="1018.5" y1="415" x2="1018.5" y2="173" gradientUnits="userSpaceOnUse">
<stop stop-color="#DEDEDE" stop-opacity="0"/>
<stop offset="0.532654" stop-color="#DEDEDE"/>
<stop offset="1" stop-color="#DEDEDE"/>
</linearGradient>
<linearGradient id="paint6_linear_2234_61334" x1="873.5" y1="-71" x2="873.5" y2="171" gradientUnits="userSpaceOnUse">
<stop stop-color="#DEDEDE" stop-opacity="0"/>
<stop offset="0.532654" stop-color="#DEDEDE"/>
<stop offset="1" stop-color="#DEDEDE"/>
</linearGradient>
<linearGradient id="paint7_linear_2234_61334" x1="433" y1="171.5" x2="-1" y2="171.5" gradientUnits="userSpaceOnUse">
<stop stop-color="#DEDEDE" stop-opacity="0"/>
<stop offset="0.532654" stop-color="#DEDEDE"/>
<stop offset="1" stop-color="#DEDEDE"/>
</linearGradient>
<linearGradient id="paint8_linear_2234_61334" x1="288.5" y1="415" x2="288.5" y2="173" gradientUnits="userSpaceOnUse">
<stop stop-color="#DEDEDE" stop-opacity="0"/>
<stop offset="0.532654" stop-color="#DEDEDE"/>
<stop offset="1" stop-color="#DEDEDE"/>
</linearGradient>
<linearGradient id="paint9_linear_2234_61334" x1="143.5" y1="-71" x2="143.5" y2="171" gradientUnits="userSpaceOnUse">
<stop stop-color="#DEDEDE" stop-opacity="0"/>
<stop offset="0.532654" stop-color="#DEDEDE"/>
<stop offset="1" stop-color="#DEDEDE"/>
</linearGradient>
<clipPath id="clip0_2234_61334">
<rect width="1376" height="400" rx="21" fill="white"/>
</clipPath>
</defs>
</svg>
