<svg width="24" height="25" viewBox="0 0 24 25" fill="none" xmlns="http://www.w3.org/2000/svg">
<path d="M21 6.24243C17.67 5.91243 14.32 5.74243 10.98 5.74243C9 5.74243 7.02 5.84243 5.04 6.04243L3 6.24243" stroke="#292D32" stroke-width="1.5" stroke-linecap="round" stroke-linejoin="round"/>
<path d="M8.5 5.23245L8.72 3.92245C8.88 2.97245 9 2.26245 10.69 2.26245H13.31C15 2.26245 15.13 3.01245 15.28 3.93245L15.5 5.23245" stroke="#292D32" stroke-width="1.5" stroke-linecap="round" stroke-linejoin="round"/>
<path d="M18.8484 9.40247L18.1984 19.4725C18.0884 21.0425 17.9984 22.2625 15.2084 22.2625H8.78844C5.99844 22.2625 5.90844 21.0425 5.79844 19.4725L5.14844 9.40247" stroke="#292D32" stroke-width="1.5" stroke-linecap="round" stroke-linejoin="round"/>
<path d="M10.3281 16.7625H13.6581" stroke="#292D32" stroke-width="1.5" stroke-linecap="round" stroke-linejoin="round"/>
<path d="M9.5 12.7625H14.5" stroke="#292D32" stroke-width="1.5" stroke-linecap="round" stroke-linejoin="round"/>
</svg>
