<svg width="21" height="21" viewBox="0 0 21 21" fill="none" xmlns="http://www.w3.org/2000/svg">
<path d="M18.5858 12.6724C18.5858 15.9419 15.9414 18.5863 12.6719 18.5863L13.5589 17.1078" stroke="#292D32" stroke-width="1.26726" stroke-linecap="round" stroke-linejoin="round"/>
<path d="M1.6875 7.60335C1.6875 4.33381 4.33186 1.68945 7.6014 1.68945L6.71432 3.16793" stroke="#292D32" stroke-width="1.26726" stroke-linecap="round" stroke-linejoin="round"/>
<circle cx="13.5172" cy="4.22421" r="3.59058" fill="white" stroke="#292D32" stroke-width="1.26726"/>
<circle cx="16.0523" cy="7.60361" r="3.59058" fill="white" stroke="#292D32" stroke-width="1.26726"/>
<circle cx="16.0523" cy="4.22421" r="3.59058" fill="white" stroke="#292D32" stroke-width="1.26726"/>
<circle cx="5.9139" cy="14.3621" r="5.28026" stroke="#292D32" stroke-width="1.26726"/>
<path d="M4.22656 15.5421C4.22656 16.1964 4.73246 16.7225 5.35303 16.7225H6.62111C7.16073 16.7225 7.59918 16.2639 7.59918 15.6905C7.59918 15.0767 7.32938 14.8541 6.93141 14.7125L4.90109 14.0042C4.50312 13.8626 4.23331 13.6467 4.23331 13.0262C4.23331 12.4596 4.67174 11.9941 5.21136 11.9941H6.47947C7.10003 11.9941 7.60593 12.5203 7.60593 13.1746" stroke="#292D32" stroke-width="1.12646" stroke-linecap="round" stroke-linejoin="round"/>
<path d="M5.91016 11.3262V17.3969" stroke="#292D32" stroke-width="1.12646" stroke-linecap="round" stroke-linejoin="round"/>
</svg>
