<svg width="1440" height="500" viewBox="0 0 1440 500" fill="none" xmlns="http://www.w3.org/2000/svg">
<g clip-path="url(#clip0_2303_67633)">
<rect width="1440" height="500" fill="url(#paint0_linear_2303_67633)"/>
<g filter="url(#filter0_f_2303_67633)">
<path d="M1601 286.201C1601 632.925 1206.34 914 719.5 914C232.661 914 -162 632.925 -162 286.201C-162 -60.5234 232.661 -422 719.5 -422C1206.34 -422 1601 -60.5234 1601 286.201Z" fill="url(#paint1_linear_2303_67633)"/>
</g>
<g opacity="0.2" filter="url(#filter1_f_2303_67633)">
<circle cx="720.5" cy="726.5" r="576.5" fill="url(#paint2_radial_2303_67633)"/>
</g>
<path opacity="0.1" d="M1159 159L1440 159" stroke="url(#paint3_linear_2303_67633)"/>
<path opacity="0.1" d="M1304.5 -122.5V158.5" stroke="url(#paint4_linear_2303_67633)"/>
<path opacity="0.1" d="M145 231L145 -11" stroke="url(#paint5_linear_2303_67633)"/>
<path opacity="0.1" d="M1163 328L729 328" stroke="url(#paint6_linear_2303_67633)"/>
<path opacity="0.1" d="M1018 85L1018 327" stroke="url(#paint7_linear_2303_67633)"/>
<path opacity="0.1" d="M874 571L874 329" stroke="url(#paint8_linear_2303_67633)"/>
<path opacity="0.1" d="M433 328L-0.999986 328" stroke="url(#paint9_linear_2303_67633)"/>
<path opacity="0.1" d="M288 85L288 327" stroke="url(#paint10_linear_2303_67633)"/>
<path opacity="0.1" d="M144 571L144 329" stroke="url(#paint11_linear_2303_67633)"/>
<rect opacity="0.02" width="144" height="170" transform="matrix(1 0 0 -1 145 500)" fill="white"/>
<rect opacity="0.01" width="144" height="170" transform="matrix(1 0 0 -1 435 500)" fill="white"/>
<rect opacity="0.04" width="144" height="170" transform="matrix(1 0 0 -1 1160 500)" fill="white"/>
<rect opacity="0.03" width="144" height="170" transform="matrix(1 0 0 -1 0 329)" fill="white"/>
<rect opacity="0.01" width="144" height="170" transform="matrix(1 0 0 -1 1015 329)" fill="white"/>
<rect opacity="0.02" width="144" height="170" transform="matrix(1 0 0 -1 1305 329)" fill="white"/>
<rect opacity="0.01" width="144" height="170" transform="matrix(1 0 0 -1 0 158)" fill="white"/>
<rect opacity="0.02" width="144" height="170" transform="matrix(1 0 0 -1 145 158)" fill="white"/>
<rect opacity="0.01" width="144" height="170" transform="matrix(1 0 0 -1 290 158)" fill="white"/>
<rect opacity="0.01" width="144" height="170" transform="matrix(1 0 0 -1 580 158)" fill="white"/>
<rect opacity="0.01" width="144" height="170" transform="matrix(1 0 0 -1 870 158)" fill="white"/>
<rect opacity="0.01" width="144" height="170" transform="matrix(1 0 0 -1 1160 158)" fill="white"/>
<rect opacity="0.02" width="144" height="170" transform="matrix(1 0 0 -1 1305 158)" fill="white"/>
</g>
<defs>
<filter id="filter0_f_2303_67633" x="-340.919" y="-600.919" width="2120.84" height="1693.84" filterUnits="userSpaceOnUse" color-interpolation-filters="sRGB">
<feFlood flood-opacity="0" result="BackgroundImageFix"/>
<feBlend mode="normal" in="SourceGraphic" in2="BackgroundImageFix" result="shape"/>
<feGaussianBlur stdDeviation="89.4597" result="effect1_foregroundBlur_2303_67633"/>
</filter>
<filter id="filter1_f_2303_67633" x="-456" y="-450" width="2353" height="2353" filterUnits="userSpaceOnUse" color-interpolation-filters="sRGB">
<feFlood flood-opacity="0" result="BackgroundImageFix"/>
<feBlend mode="normal" in="SourceGraphic" in2="BackgroundImageFix" result="shape"/>
<feGaussianBlur stdDeviation="300" result="effect1_foregroundBlur_2303_67633"/>
</filter>
<linearGradient id="paint0_linear_2303_67633" x1="773.5" y1="250" x2="773.5" y2="500" gradientUnits="userSpaceOnUse">
<stop stop-color="#20523C"/>
<stop offset="1" stop-color="#2E7E5C"/>
</linearGradient>
<linearGradient id="paint1_linear_2303_67633" x1="719.5" y1="-341.599" x2="719.977" y2="40.9775" gradientUnits="userSpaceOnUse">
<stop stop-color="#26664A"/>
<stop offset="1" stop-color="#0E2E20"/>
</linearGradient>
<radialGradient id="paint2_radial_2303_67633" cx="0" cy="0" r="1" gradientUnits="userSpaceOnUse" gradientTransform="translate(720.5 726.5) rotate(90) scale(576.5)">
<stop stop-color="#D4FF70"/>
<stop offset="1" stop-color="#D0E500"/>
</radialGradient>
<linearGradient id="paint3_linear_2303_67633" x1="1159" y1="158.5" x2="1440" y2="158.5" gradientUnits="userSpaceOnUse">
<stop stop-color="#DEDEDE" stop-opacity="0"/>
<stop offset="0.532654" stop-color="#DEDEDE"/>
<stop offset="1" stop-color="#DEDEDE"/>
</linearGradient>
<linearGradient id="paint4_linear_2303_67633" x1="1305" y1="-122.5" x2="1305" y2="158.5" gradientUnits="userSpaceOnUse">
<stop stop-color="#DEDEDE" stop-opacity="0"/>
<stop offset="0.532654" stop-color="#DEDEDE"/>
<stop offset="1" stop-color="#DEDEDE"/>
</linearGradient>
<linearGradient id="paint5_linear_2303_67633" x1="144.5" y1="231" x2="144.5" y2="-11" gradientUnits="userSpaceOnUse">
<stop stop-color="#DEDEDE" stop-opacity="0"/>
<stop offset="0.532654" stop-color="#DEDEDE"/>
<stop offset="1" stop-color="#DEDEDE"/>
</linearGradient>
<linearGradient id="paint6_linear_2303_67633" x1="1163" y1="328.5" x2="729" y2="328.5" gradientUnits="userSpaceOnUse">
<stop stop-color="#DEDEDE" stop-opacity="0"/>
<stop offset="0.532654" stop-color="#DEDEDE"/>
<stop offset="1" stop-color="#DEDEDE"/>
</linearGradient>
<linearGradient id="paint7_linear_2303_67633" x1="1018.5" y1="85" x2="1018.5" y2="327" gradientUnits="userSpaceOnUse">
<stop stop-color="#DEDEDE" stop-opacity="0"/>
<stop offset="0.532654" stop-color="#DEDEDE"/>
<stop offset="1" stop-color="#DEDEDE"/>
</linearGradient>
<linearGradient id="paint8_linear_2303_67633" x1="873.5" y1="571" x2="873.5" y2="329" gradientUnits="userSpaceOnUse">
<stop stop-color="#DEDEDE" stop-opacity="0"/>
<stop offset="0.532654" stop-color="#DEDEDE"/>
<stop offset="1" stop-color="#DEDEDE"/>
</linearGradient>
<linearGradient id="paint9_linear_2303_67633" x1="433" y1="328.5" x2="-1" y2="328.5" gradientUnits="userSpaceOnUse">
<stop stop-color="#DEDEDE" stop-opacity="0"/>
<stop offset="0.532654" stop-color="#DEDEDE"/>
<stop offset="1" stop-color="#DEDEDE"/>
</linearGradient>
<linearGradient id="paint10_linear_2303_67633" x1="288.5" y1="85" x2="288.5" y2="327" gradientUnits="userSpaceOnUse">
<stop stop-color="#DEDEDE" stop-opacity="0"/>
<stop offset="0.532654" stop-color="#DEDEDE"/>
<stop offset="1" stop-color="#DEDEDE"/>
</linearGradient>
<linearGradient id="paint11_linear_2303_67633" x1="143.5" y1="571" x2="143.5" y2="329" gradientUnits="userSpaceOnUse">
<stop stop-color="#DEDEDE" stop-opacity="0"/>
<stop offset="0.532654" stop-color="#DEDEDE"/>
<stop offset="1" stop-color="#DEDEDE"/>
</linearGradient>
<clipPath id="clip0_2303_67633">
<rect width="1440" height="500" fill="white"/>
</clipPath>
</defs>
</svg>
