<svg width="25" height="25" viewBox="0 0 25 25" fill="none" xmlns="http://www.w3.org/2000/svg">
<path d="M14.1931 2.23243C13.5375 2.09799 12.8593 2.02734 12.1655 2.02734C6.58949 2.02734 2.02734 6.58949 2.02734 12.1655C2.02734 13.9903 2.53425 15.7138 3.3453 17.2345L2.47387 20.5862C2.27646 21.3454 2.97924 22.0316 3.73357 21.8161L6.99502 20.8842C8.51573 21.7967 10.3406 22.3036 12.1655 22.3036C17.7414 22.3036 22.3036 17.7414 22.3036 12.1655C22.3036 11.8234 22.2864 11.4852 22.2529 11.1516" stroke="#20523C" stroke-width="1.52072" stroke-miterlimit="10" stroke-linecap="round" stroke-linejoin="round"/>
<path d="M16.7278 15.0535C16.7278 15.2177 16.6913 15.3865 16.6136 15.5508C16.5359 15.715 16.4354 15.8701 16.3029 16.0161C16.079 16.2625 15.8323 16.4404 15.5536 16.5545C15.2794 16.6685 14.9825 16.7278 14.6626 16.7278C14.1966 16.7278 13.6986 16.6183 13.1731 16.3948C12.6477 16.1712 12.1223 15.8701 11.6014 15.4915C11.076 15.1083 10.5779 14.684 10.1028 14.2141C9.63215 13.7396 9.20724 13.2423 8.82801 12.7222C8.45335 12.2022 8.1518 11.6821 7.93248 11.1666C7.71317 10.6465 7.60352 10.1492 7.60352 9.67473C7.60352 9.3645 7.65834 9.06797 7.768 8.79424C7.87766 8.51595 8.05128 8.26047 8.29343 8.03236C8.58585 7.74494 8.90568 7.60352 9.24379 7.60352C9.37172 7.60352 9.49965 7.63089 9.61388 7.68563C9.73267 7.74038 9.83776 7.8225 9.92 7.94111L10.98 9.43294C11.0623 9.54699 11.1216 9.65192 11.1628 9.75229C11.2039 9.84809 11.2267 9.9439 11.2267 10.0306C11.2267 10.1401 11.1948 10.2496 11.1308 10.3545C11.0714 10.4594 10.9846 10.5689 10.8749 10.6784L10.5277 11.0388C10.4774 11.089 10.4546 11.1483 10.4546 11.2213C10.4546 11.2578 10.4591 11.2897 10.4683 11.3262C10.482 11.3627 10.4957 11.3901 10.5048 11.4175C10.5871 11.568 10.7287 11.7642 10.9297 12.0014C11.1354 12.2387 11.3547 12.4805 11.5923 12.7222C11.839 12.964 12.0766 13.1876 12.3187 13.3929C12.5563 13.5936 12.7528 13.7305 12.9081 13.8126C12.931 13.8217 12.9584 13.8354 12.9904 13.8491C13.0269 13.8628 13.0635 13.8673 13.1046 13.8673C13.1823 13.8673 13.2417 13.84 13.2919 13.7898L13.6392 13.4476C13.7534 13.3336 13.863 13.2469 13.9681 13.1921C14.0732 13.1283 14.1783 13.0963 14.2925 13.0963C14.3793 13.0963 14.4707 13.1146 14.5712 13.1557C14.6718 13.1967 14.7768 13.256 14.8911 13.3336L16.4034 14.4057C16.5222 14.4878 16.6044 14.5836 16.6547 14.6977C16.7004 14.8117 16.7278 14.9258 16.7278 15.0535Z" stroke="#20523C" stroke-width="1.52072" stroke-miterlimit="10"/>
<path d="M19.2679 1.99707C18.1493 1.99707 17.2402 2.90612 17.2402 4.02469V5.00133C17.2402 5.20747 17.1524 5.52175 17.0476 5.69748L16.659 6.34294C16.419 6.74171 16.5846 7.1844 17.024 7.33309C18.4805 7.81972 20.0519 7.81972 21.5084 7.33309C21.9173 7.19792 22.0964 6.71467 21.8734 6.34294L21.4847 5.69748C21.3833 5.52175 21.2955 5.20747 21.2955 5.00133V4.02469C21.2955 2.9095 20.383 1.99707 19.2679 1.99707Z" stroke="#20523C" stroke-width="1.31795" stroke-miterlimit="10" stroke-linecap="round"/>
<path d="M19.8949 2.09572C19.7901 2.06531 19.682 2.04165 19.5705 2.02814C19.2461 1.98758 18.9352 2.01124 18.6445 2.09572C18.7425 1.84565 18.9858 1.66992 19.2697 1.66992C19.5536 1.66992 19.7969 1.84565 19.8949 2.09572Z" stroke="#20523C" stroke-width="1.31795" stroke-miterlimit="10" stroke-linecap="round" stroke-linejoin="round"/>
<path d="M20.2815 7.45508C20.2815 8.01267 19.8253 8.46889 19.2677 8.46889C18.9906 8.46889 18.7338 8.35399 18.5513 8.1715C18.3688 7.98902 18.2539 7.73219 18.2539 7.45508" stroke="#20523C" stroke-width="1.31795" stroke-miterlimit="10"/>
</svg>
