<svg width="566" height="550" viewBox="0 0 566 550" fill="none" xmlns="http://www.w3.org/2000/svg">
<path d="M52.9531 120.854C52.9531 113.687 58.7631 107.877 65.93 107.877H508.273C515.44 107.877 521.25 113.687 521.25 120.854V473.536C521.25 480.703 515.44 486.513 508.273 486.513H65.93C58.7631 486.513 52.9531 480.703 52.9531 473.536V120.854Z" fill="#EEF2F0"/>
<g opacity="0.1" filter="url(#filter0_f_2221_62309)">
<path d="M20.8281 77.0384C20.8281 69.4847 26.9516 63.3613 34.5052 63.3613H286.151C293.705 63.3613 299.828 69.4848 299.828 77.0384V458.684C299.828 466.238 293.705 472.361 286.151 472.361H34.5052C26.9516 472.361 20.8281 466.238 20.8281 458.684V77.0384Z" fill="black"/>
</g>
<path d="M19.8281 75.5719C19.8281 70.485 23.9518 66.3613 29.0387 66.3613H289.618C294.704 66.3613 298.828 70.485 298.828 75.5719V457.151C298.828 462.238 294.704 466.361 289.618 466.361H29.0387C23.9518 466.361 19.8281 462.238 19.8281 457.151V75.5719Z" fill="white"/>
<rect x="54.8281" y="392.361" width="210" height="51" rx="6.60857" fill="#50D5A6"/>
<path d="M125.525 424.573C124.315 424.573 123.269 424.308 122.388 423.78C121.519 423.239 120.843 422.493 120.361 421.542C119.891 420.578 119.656 419.462 119.656 418.193C119.656 416.936 119.891 415.826 120.361 414.863C120.843 413.899 121.519 413.153 122.388 412.625C123.269 412.084 124.315 411.814 125.525 411.814C126.97 411.814 128.139 412.16 129.032 412.854C129.936 413.547 130.512 414.522 130.759 415.779H128.82C128.644 415.051 128.28 414.469 127.728 414.034C127.187 413.6 126.453 413.382 125.525 413.382C124.691 413.382 123.968 413.576 123.357 413.964C122.746 414.352 122.276 414.904 121.947 415.62C121.618 416.337 121.454 417.195 121.454 418.193C121.454 419.192 121.618 420.055 121.947 420.784C122.276 421.501 122.746 422.053 123.357 422.44C123.968 422.816 124.691 423.004 125.525 423.004C126.453 423.004 127.187 422.799 127.728 422.388C128.28 421.965 128.644 421.395 128.82 420.678H130.759C130.512 421.9 129.936 422.858 129.032 423.551C128.139 424.232 126.97 424.573 125.525 424.573ZM136.832 424.573C135.998 424.573 135.246 424.379 134.576 423.991C133.919 423.604 133.396 423.063 133.008 422.37C132.632 421.665 132.444 420.854 132.444 419.938C132.444 418.998 132.638 418.182 133.026 417.488C133.413 416.783 133.942 416.237 134.612 415.849C135.281 415.462 136.033 415.268 136.867 415.268C137.713 415.268 138.465 415.462 139.123 415.849C139.781 416.237 140.298 416.778 140.674 417.471C141.062 418.164 141.256 418.98 141.256 419.92C141.256 420.86 141.062 421.677 140.674 422.37C140.298 423.063 139.775 423.604 139.106 423.991C138.436 424.379 137.678 424.573 136.832 424.573ZM136.832 423.057C137.314 423.057 137.749 422.94 138.136 422.705C138.536 422.47 138.853 422.123 139.088 421.665C139.335 421.195 139.458 420.614 139.458 419.92C139.458 419.227 139.341 418.652 139.106 418.193C138.871 417.723 138.553 417.371 138.154 417.136C137.766 416.901 137.337 416.783 136.867 416.783C136.398 416.783 135.963 416.901 135.563 417.136C135.164 417.371 134.841 417.723 134.594 418.193C134.359 418.652 134.242 419.227 134.242 419.92C134.242 420.614 134.359 421.195 134.594 421.665C134.841 422.123 135.158 422.47 135.546 422.705C135.945 422.94 136.374 423.057 136.832 423.057ZM143.329 424.361V415.479H144.915L145.038 416.731C145.32 416.272 145.696 415.914 146.166 415.656C146.636 415.397 147.164 415.268 147.752 415.268C148.198 415.268 148.604 415.333 148.968 415.462C149.332 415.579 149.655 415.761 149.937 416.008C150.219 416.255 150.448 416.56 150.624 416.924C150.942 416.408 151.365 416.002 151.893 415.709C152.434 415.415 153.004 415.268 153.603 415.268C154.319 415.268 154.936 415.415 155.453 415.709C155.97 415.99 156.364 416.419 156.634 416.995C156.904 417.559 157.039 418.264 157.039 419.11V424.361H155.295V419.286C155.295 418.464 155.124 417.841 154.783 417.418C154.454 416.995 153.967 416.783 153.321 416.783C152.886 416.783 152.498 416.895 152.158 417.118C151.817 417.342 151.547 417.665 151.347 418.088C151.159 418.511 151.065 419.027 151.065 419.638V424.361H149.303V419.286C149.303 418.464 149.132 417.841 148.792 417.418C148.463 416.995 147.975 416.783 147.329 416.783C146.918 416.783 146.542 416.895 146.201 417.118C145.86 417.342 145.59 417.665 145.39 418.088C145.191 418.511 145.091 419.027 145.091 419.638V424.361H143.329ZM159.317 428.238V415.479H160.903L161.079 416.854C161.267 416.584 161.502 416.331 161.784 416.096C162.066 415.849 162.401 415.65 162.788 415.497C163.188 415.344 163.652 415.268 164.18 415.268C165.026 415.268 165.766 415.474 166.401 415.885C167.047 416.296 167.546 416.854 167.899 417.559C168.263 418.252 168.445 419.045 168.445 419.938C168.445 420.831 168.263 421.63 167.899 422.335C167.535 423.028 167.029 423.574 166.383 423.974C165.749 424.373 165.009 424.573 164.163 424.573C163.47 424.573 162.859 424.438 162.33 424.167C161.801 423.886 161.384 423.498 161.079 423.004V428.238H159.317ZM163.881 423.04C164.421 423.04 164.897 422.91 165.308 422.652C165.731 422.393 166.06 422.029 166.295 421.559C166.542 421.089 166.665 420.543 166.665 419.92C166.665 419.298 166.542 418.757 166.295 418.299C166.06 417.829 165.731 417.465 165.308 417.206C164.897 416.936 164.421 416.801 163.881 416.801C163.329 416.801 162.841 416.936 162.418 417.206C162.007 417.465 161.684 417.829 161.449 418.299C161.214 418.757 161.096 419.298 161.096 419.92C161.096 420.543 161.214 421.089 161.449 421.559C161.684 422.029 162.007 422.393 162.418 422.652C162.841 422.91 163.329 423.04 163.881 423.04ZM170.503 424.361V411.673H172.265V424.361H170.503ZM178.703 424.573C177.857 424.573 177.105 424.379 176.447 423.991C175.789 423.604 175.272 423.063 174.896 422.37C174.532 421.677 174.35 420.872 174.35 419.956C174.35 419.016 174.532 418.199 174.896 417.506C175.272 416.801 175.789 416.255 176.447 415.867C177.105 415.468 177.869 415.268 178.738 415.268C179.608 415.268 180.354 415.462 180.976 415.849C181.599 416.237 182.081 416.754 182.421 417.4C182.762 418.035 182.932 418.74 182.932 419.515C182.932 419.633 182.927 419.762 182.915 419.903C182.915 420.032 182.909 420.179 182.897 420.343H175.637V419.092H181.17C181.135 418.352 180.888 417.776 180.43 417.365C179.972 416.942 179.402 416.731 178.721 416.731C178.239 416.731 177.798 416.842 177.399 417.065C176.999 417.277 176.676 417.594 176.43 418.017C176.195 418.428 176.077 418.951 176.077 419.586V420.079C176.077 420.737 176.195 421.295 176.43 421.753C176.676 422.2 176.999 422.54 177.399 422.775C177.798 422.998 178.233 423.11 178.703 423.11C179.267 423.11 179.731 422.987 180.095 422.74C180.459 422.493 180.73 422.158 180.906 421.736H182.668C182.515 422.276 182.257 422.764 181.893 423.198C181.528 423.621 181.076 423.956 180.536 424.203C180.007 424.449 179.396 424.573 178.703 424.573ZM188.297 424.361C187.745 424.361 187.263 424.273 186.852 424.097C186.441 423.921 186.124 423.627 185.901 423.216C185.677 422.805 185.566 422.247 185.566 421.542V416.977H184.033V415.479H185.566L185.777 413.259H187.328V415.479H189.848V416.977H187.328V421.559C187.328 422.064 187.434 422.411 187.645 422.599C187.857 422.775 188.221 422.863 188.738 422.863H189.76V424.361H188.297ZM195.569 424.573C194.723 424.573 193.971 424.379 193.313 423.991C192.655 423.604 192.138 423.063 191.762 422.37C191.398 421.677 191.216 420.872 191.216 419.956C191.216 419.016 191.398 418.199 191.762 417.506C192.138 416.801 192.655 416.255 193.313 415.867C193.971 415.468 194.734 415.268 195.604 415.268C196.473 415.268 197.219 415.462 197.842 415.849C198.465 416.237 198.946 416.754 199.287 417.4C199.628 418.035 199.798 418.74 199.798 419.515C199.798 419.633 199.792 419.762 199.78 419.903C199.78 420.032 199.775 420.179 199.763 420.343H192.502V419.092H198.036C198 418.352 197.754 417.776 197.296 417.365C196.837 416.942 196.268 416.731 195.586 416.731C195.104 416.731 194.664 416.842 194.264 417.065C193.865 417.277 193.542 417.594 193.295 418.017C193.06 418.428 192.943 418.951 192.943 419.586V420.079C192.943 420.737 193.06 421.295 193.295 421.753C193.542 422.2 193.865 422.54 194.264 422.775C194.664 422.998 195.099 423.11 195.569 423.11C196.132 423.11 196.597 422.987 196.961 422.74C197.325 422.493 197.595 422.158 197.771 421.736H199.534C199.381 422.276 199.122 422.764 198.758 423.198C198.394 423.621 197.942 423.956 197.401 424.203C196.873 424.449 196.262 424.573 195.569 424.573Z" fill="#0E2E20"/>
<path d="M41.8281 93.5869C41.8281 90.1486 44.6154 87.3613 48.0537 87.3613H271.603C275.041 87.3613 277.828 90.1486 277.828 93.5869V124.136C277.828 127.574 275.041 130.361 271.603 130.361H48.0537C44.6154 130.361 41.8281 127.574 41.8281 124.136V93.5869Z" fill="#EEF0F1"/>
<rect x="233.266" y="94.8795" width="28.0056" height="28.0076" rx="14.0028" fill="#50D5A6"/>
<path d="M243.258 108.699L246.934 112.933L252.57 104.833" stroke="#0E2E20" stroke-width="2.16093" stroke-linecap="round" stroke-linejoin="round"/>
<g clip-path="url(#clip0_2221_62309)">
<path d="M66.7891 115.798C70.7543 115.798 73.9688 112.583 73.9688 108.618C73.9688 104.653 70.7543 101.438 66.7891 101.438C62.8238 101.438 59.6094 104.653 59.6094 108.618C59.6094 112.583 62.8238 115.798 66.7891 115.798Z" stroke="#000001" stroke-width="1.5" stroke-linecap="round" stroke-linejoin="round"/>
<path d="M66.7871 104.237V109.04L63.9219 111.589" stroke="#000001" stroke-width="1.5" stroke-linecap="round" stroke-linejoin="round"/>
</g>
<path d="M89.075 112.777C88.2029 112.777 87.4344 112.583 86.7695 112.194C86.1133 111.797 85.5995 111.249 85.2282 110.549C84.8655 109.841 84.6842 109.021 84.6842 108.088C84.6842 107.164 84.8655 106.353 85.2282 105.653C85.5995 104.945 86.1133 104.393 86.7695 103.995C87.4344 103.598 88.2029 103.4 89.075 103.4C89.9644 103.4 90.7372 103.598 91.3934 103.995C92.0583 104.393 92.5721 104.945 92.9347 105.653C93.2974 106.353 93.4787 107.164 93.4787 108.088C93.4787 109.021 93.2974 109.841 92.9347 110.549C92.5721 111.249 92.0583 111.797 91.3934 112.194C90.7372 112.583 89.9644 112.777 89.075 112.777ZM89.075 111.819C89.7312 111.819 90.3054 111.672 90.7976 111.378C91.2984 111.076 91.6827 110.649 91.9504 110.096C92.2267 109.535 92.3648 108.865 92.3648 108.088C92.3648 107.311 92.2267 106.646 91.9504 106.094C91.6827 105.532 91.2984 105.105 90.7976 104.811C90.3054 104.518 89.7312 104.371 89.075 104.371C88.4274 104.371 87.8532 104.518 87.3523 104.811C86.8602 105.105 86.4759 105.532 86.1996 106.094C85.9319 106.646 85.7981 107.311 85.7981 108.088C85.7981 108.865 85.9319 109.535 86.1996 110.096C86.4759 110.649 86.8602 111.076 87.3523 111.378C87.8532 111.672 88.4274 111.819 89.075 111.819ZM95.0121 115.471L95.0121 106.094H95.9965L96.0871 107.156C96.2253 106.949 96.4023 106.754 96.6182 106.573C96.8341 106.383 97.0931 106.232 97.3953 106.12C97.6975 105.999 98.0472 105.938 98.4444 105.938C99.0748 105.938 99.6231 106.089 100.089 106.392C100.564 106.694 100.931 107.104 101.19 107.622C101.458 108.132 101.592 108.714 101.592 109.371C101.592 110.027 101.458 110.614 101.19 111.132C100.931 111.642 100.564 112.043 100.089 112.337C99.6144 112.63 99.0618 112.777 98.4315 112.777C97.9048 112.777 97.4385 112.669 97.0327 112.453C96.6268 112.237 96.316 111.935 96.1001 111.547V115.471H95.0121ZM98.302 111.832C98.7251 111.832 99.1007 111.728 99.4288 111.521C99.7656 111.313 100.025 111.028 100.206 110.666C100.396 110.295 100.491 109.858 100.491 109.358C100.491 108.865 100.396 108.434 100.206 108.062C100.025 107.691 99.7656 107.402 99.4288 107.195C99.1007 106.987 98.7251 106.884 98.302 106.884C97.8702 106.884 97.4903 106.987 97.1622 107.195C96.8341 107.402 96.5793 107.691 96.398 108.062C96.2167 108.434 96.126 108.865 96.126 109.358C96.126 109.858 96.2167 110.295 96.398 110.666C96.5793 111.028 96.8341 111.313 97.1622 111.521C97.4903 111.728 97.8702 111.832 98.302 111.832ZM105.995 112.777C105.39 112.777 104.851 112.635 104.376 112.35C103.901 112.065 103.53 111.667 103.262 111.158C102.994 110.64 102.861 110.04 102.861 109.358C102.861 108.667 102.99 108.067 103.249 107.557C103.517 107.048 103.888 106.651 104.363 106.366C104.847 106.081 105.399 105.938 106.021 105.938C106.66 105.938 107.204 106.081 107.653 106.366C108.102 106.651 108.443 107.026 108.676 107.493C108.918 107.95 109.039 108.455 109.039 109.008C109.039 109.094 109.039 109.185 109.039 109.28C109.039 109.375 109.034 109.483 109.026 109.604H103.676V108.762H107.964C107.938 108.166 107.739 107.7 107.368 107.363C107.005 107.026 106.548 106.858 105.995 106.858C105.632 106.858 105.291 106.944 104.972 107.117C104.652 107.281 104.397 107.527 104.208 107.855C104.018 108.175 103.923 108.576 103.923 109.06V109.422C103.923 109.958 104.018 110.407 104.208 110.769C104.406 111.132 104.661 111.404 104.972 111.585C105.291 111.767 105.632 111.857 105.995 111.857C106.453 111.857 106.828 111.758 107.122 111.56C107.424 111.352 107.644 111.072 107.782 110.718H108.857C108.745 111.115 108.559 111.469 108.3 111.78C108.041 112.082 107.718 112.324 107.329 112.505C106.949 112.686 106.504 112.777 105.995 112.777ZM110.494 112.622V106.094H111.478L111.53 107.233C111.737 106.828 112.031 106.512 112.411 106.288C112.799 106.055 113.24 105.938 113.732 105.938C114.241 105.938 114.682 106.042 115.053 106.249C115.424 106.448 115.714 106.754 115.921 107.169C116.128 107.575 116.232 108.093 116.232 108.723V112.622H115.144V108.84C115.144 108.183 114.997 107.691 114.703 107.363C114.418 107.035 114.013 106.871 113.486 106.871C113.123 106.871 112.799 106.961 112.515 107.143C112.23 107.316 112.001 107.57 111.828 107.907C111.664 108.235 111.582 108.645 111.582 109.137V112.622H110.494ZM118.035 112.622V106.094H119.123V112.622H118.035ZM118.579 104.708C118.363 104.708 118.182 104.639 118.035 104.501C117.897 104.354 117.828 104.172 117.828 103.957C117.828 103.741 117.897 103.568 118.035 103.439C118.182 103.3 118.363 103.231 118.579 103.231C118.786 103.231 118.963 103.3 119.11 103.439C119.257 103.568 119.33 103.741 119.33 103.957C119.33 104.172 119.257 104.354 119.11 104.501C118.963 104.639 118.786 104.708 118.579 104.708ZM121.043 112.622V106.094H122.027L122.079 107.233C122.286 106.828 122.58 106.512 122.96 106.288C123.348 106.055 123.789 105.938 124.281 105.938C124.79 105.938 125.231 106.042 125.602 106.249C125.973 106.448 126.263 106.754 126.47 107.169C126.677 107.575 126.781 108.093 126.781 108.723V112.622H125.693V108.84C125.693 108.183 125.546 107.691 125.252 107.363C124.967 107.035 124.562 106.871 124.035 106.871C123.672 106.871 123.348 106.961 123.063 107.143C122.778 107.316 122.55 107.57 122.377 107.907C122.213 108.235 122.131 108.645 122.131 109.137V112.622H121.043ZM131.058 115.626C130.471 115.626 129.948 115.549 129.491 115.393C129.042 115.247 128.692 115.018 128.441 114.707C128.191 114.396 128.066 114.012 128.066 113.554C128.066 113.356 128.105 113.144 128.182 112.919C128.269 112.695 128.411 112.475 128.61 112.259C128.817 112.043 129.106 111.849 129.478 111.676L130.229 112.116C129.771 112.306 129.473 112.522 129.335 112.764C129.197 113.014 129.128 113.243 129.128 113.451C129.128 113.735 129.21 113.973 129.374 114.163C129.538 114.353 129.767 114.495 130.06 114.59C130.354 114.685 130.686 114.733 131.058 114.733C131.429 114.733 131.749 114.677 132.016 114.564C132.284 114.461 132.491 114.314 132.638 114.124C132.785 113.943 132.858 113.723 132.858 113.463C132.858 113.161 132.746 112.907 132.521 112.699C132.297 112.501 131.869 112.384 131.239 112.35C130.73 112.315 130.302 112.268 129.957 112.207C129.611 112.147 129.326 112.078 129.102 112C128.877 111.914 128.687 111.819 128.532 111.715C128.385 111.611 128.251 111.503 128.131 111.391V111.093L129.387 109.85L130.332 110.187L129.037 111.352L129.206 110.899C129.301 110.968 129.391 111.033 129.478 111.093C129.564 111.154 129.68 111.205 129.827 111.249C129.974 111.292 130.177 111.331 130.436 111.365C130.704 111.4 131.053 111.434 131.485 111.469C132.081 111.512 132.556 111.616 132.91 111.78C133.273 111.944 133.532 112.164 133.687 112.44C133.851 112.717 133.933 113.045 133.933 113.425C133.933 113.796 133.829 114.146 133.622 114.474C133.424 114.81 133.113 115.087 132.69 115.303C132.267 115.519 131.723 115.626 131.058 115.626ZM131.045 110.575C130.501 110.575 130.035 110.472 129.646 110.264C129.266 110.057 128.977 109.781 128.778 109.435C128.58 109.081 128.48 108.688 128.48 108.257C128.48 107.825 128.58 107.436 128.778 107.091C128.985 106.746 129.279 106.469 129.659 106.262C130.039 106.046 130.501 105.938 131.045 105.938C131.589 105.938 132.051 106.046 132.431 106.262C132.811 106.469 133.1 106.746 133.298 107.091C133.497 107.436 133.596 107.825 133.596 108.257C133.596 108.688 133.497 109.081 133.298 109.435C133.1 109.781 132.811 110.057 132.431 110.264C132.051 110.472 131.589 110.575 131.045 110.575ZM131.045 109.681C131.511 109.681 131.878 109.561 132.146 109.319C132.413 109.077 132.547 108.723 132.547 108.257C132.547 107.799 132.413 107.449 132.146 107.208C131.878 106.966 131.511 106.845 131.045 106.845C130.587 106.845 130.216 106.966 129.931 107.208C129.655 107.449 129.516 107.799 129.516 108.257C129.516 108.723 129.655 109.077 129.931 109.319C130.207 109.561 130.578 109.681 131.045 109.681ZM132.107 107.013L131.783 106.094H134.451V106.91L132.107 107.013ZM144.997 112.622V103.555H146.085V112.622H144.997ZM139.208 112.622V103.555H140.296V112.622H139.208ZM140.089 108.451V107.557H145.269V108.451H140.089ZM150.873 112.777C150.269 112.777 149.725 112.639 149.241 112.363C148.758 112.078 148.378 111.68 148.102 111.171C147.825 110.653 147.687 110.053 147.687 109.371C147.687 108.671 147.825 108.067 148.102 107.557C148.386 107.039 148.771 106.642 149.254 106.366C149.746 106.081 150.295 105.938 150.899 105.938C151.521 105.938 152.069 106.081 152.544 106.366C153.028 106.642 153.408 107.039 153.684 107.557C153.969 108.067 154.111 108.667 154.111 109.358C154.111 110.048 153.969 110.653 153.684 111.171C153.399 111.68 153.015 112.078 152.531 112.363C152.048 112.639 151.495 112.777 150.873 112.777ZM150.886 111.844C151.258 111.844 151.603 111.754 151.922 111.572C152.242 111.382 152.501 111.102 152.7 110.731C152.898 110.359 152.997 109.902 152.997 109.358C152.997 108.805 152.898 108.347 152.7 107.985C152.51 107.613 152.255 107.337 151.935 107.156C151.625 106.966 151.279 106.871 150.899 106.871C150.537 106.871 150.191 106.966 149.863 107.156C149.544 107.337 149.284 107.613 149.086 107.985C148.896 108.347 148.801 108.805 148.801 109.358C148.801 109.902 148.896 110.359 149.086 110.731C149.284 111.102 149.539 111.382 149.85 111.572C150.17 111.754 150.515 111.844 150.886 111.844ZM158.007 112.777C157.506 112.777 157.066 112.678 156.686 112.479C156.315 112.281 156.025 111.974 155.818 111.56C155.619 111.145 155.52 110.627 155.52 110.005V106.094H156.608V109.889C156.608 110.536 156.751 111.024 157.036 111.352C157.321 111.68 157.722 111.844 158.24 111.844C158.603 111.844 158.931 111.758 159.224 111.585C159.518 111.404 159.747 111.149 159.911 110.821C160.084 110.484 160.17 110.07 160.17 109.578V106.094H161.258V112.622H160.274L160.209 111.482C160.01 111.888 159.717 112.207 159.328 112.44C158.94 112.665 158.499 112.777 158.007 112.777ZM163.061 112.622V106.094H164.046L164.124 107.337C164.27 107.044 164.456 106.793 164.68 106.586C164.914 106.379 165.19 106.219 165.509 106.107C165.838 105.994 166.209 105.938 166.623 105.938V107.078H166.222C165.945 107.078 165.682 107.117 165.432 107.195C165.181 107.264 164.957 107.38 164.758 107.544C164.568 107.708 164.417 107.933 164.305 108.218C164.201 108.494 164.149 108.84 164.149 109.254V112.622H163.061ZM170.316 112.777C169.781 112.777 169.31 112.686 168.904 112.505C168.499 112.324 168.175 112.073 167.933 111.754C167.7 111.426 167.557 111.041 167.506 110.601H168.619C168.663 110.826 168.753 111.033 168.891 111.223C169.03 111.413 169.215 111.568 169.448 111.689C169.69 111.801 169.984 111.857 170.329 111.857C170.631 111.857 170.882 111.814 171.08 111.728C171.279 111.633 171.426 111.508 171.521 111.352C171.624 111.197 171.676 111.028 171.676 110.847C171.676 110.579 171.611 110.377 171.482 110.238C171.361 110.1 171.18 109.992 170.938 109.915C170.696 109.828 170.403 109.755 170.057 109.694C169.772 109.643 169.492 109.574 169.215 109.487C168.939 109.401 168.693 109.289 168.477 109.15C168.261 109.004 168.088 108.827 167.959 108.619C167.838 108.412 167.778 108.157 167.778 107.855C167.778 107.484 167.873 107.156 168.063 106.871C168.261 106.577 168.537 106.348 168.891 106.184C169.245 106.02 169.66 105.938 170.135 105.938C170.834 105.938 171.4 106.107 171.832 106.443C172.263 106.78 172.518 107.268 172.596 107.907H171.521C171.478 107.579 171.335 107.324 171.093 107.143C170.86 106.953 170.536 106.858 170.122 106.858C169.716 106.858 169.405 106.94 169.189 107.104C168.982 107.268 168.878 107.484 168.878 107.752C168.878 107.924 168.935 108.08 169.047 108.218C169.168 108.347 169.345 108.46 169.578 108.555C169.811 108.65 170.092 108.727 170.42 108.788C170.852 108.865 171.244 108.969 171.598 109.099C171.952 109.228 172.237 109.422 172.453 109.681C172.678 109.932 172.79 110.29 172.79 110.756C172.79 111.162 172.686 111.516 172.479 111.819C172.281 112.121 171.996 112.358 171.624 112.531C171.253 112.695 170.817 112.777 170.316 112.777Z" fill="#111111"/>
<path d="M41.8281 152.794C41.8281 149.356 44.6154 146.568 48.0537 146.568H271.603C275.041 146.568 277.828 149.356 277.828 152.794V183.343C277.828 186.781 275.041 189.568 271.603 189.568H48.0537C44.6154 189.568 41.8281 186.781 41.8281 183.343V152.794Z" fill="#EEF0F1"/>
<rect x="233.266" y="153.431" width="28.0056" height="28.0076" rx="14.0028" fill="#50D5A6"/>
<path d="M243.258 167.704L246.934 171.937L252.57 163.838" stroke="#0E2E20" stroke-width="2.16093" stroke-linecap="round" stroke-linejoin="round"/>
<g clip-path="url(#clip1_2221_62309)">
<path d="M67.0175 168.714C68.4165 168.714 69.5507 167.58 69.5507 166.181C69.5507 164.782 68.4165 163.648 67.0175 163.648C65.6185 163.648 64.4844 164.782 64.4844 166.181C64.4844 167.58 65.6185 168.714 67.0175 168.714Z" stroke="#121212" stroke-width="1.5" stroke-linecap="round" stroke-linejoin="round"/>
<path d="M62.0469 174.537C62.2794 173.392 62.9008 172.362 63.8056 171.623C64.7105 170.883 65.8432 170.479 67.0118 170.479C68.1805 170.479 69.3132 170.883 70.2181 171.623C71.1229 172.362 71.7442 173.392 71.9768 174.537" stroke="#121212" stroke-width="1.5" stroke-linecap="round" stroke-linejoin="round"/>
<path d="M72.5888 161.616H61.4429C60.8833 161.616 60.4297 162.07 60.4297 162.629V173.775C60.4297 174.335 60.8833 174.788 61.4429 174.788H72.5888C73.1484 174.788 73.602 174.335 73.602 173.775V162.629C73.602 162.07 73.1484 161.616 72.5888 161.616Z" stroke="#121212" stroke-width="1.5" stroke-linecap="round" stroke-linejoin="round"/>
</g>
<path d="M90.0811 172.873C89.1652 172.873 88.3706 172.671 87.6972 172.267C87.0327 171.854 86.5209 171.284 86.1618 170.557C85.8026 169.821 85.623 168.968 85.623 167.998C85.623 167.028 85.8026 166.18 86.1618 165.452C86.5209 164.716 87.0327 164.146 87.6972 163.742C88.3706 163.329 89.1652 163.122 90.0811 163.122C91.1585 163.122 92.034 163.378 92.7074 163.89C93.3808 164.402 93.8118 165.125 94.0004 166.058H92.7478C92.6041 165.475 92.3123 165.008 91.8724 164.658C91.4324 164.299 90.8353 164.119 90.0811 164.119C89.4166 164.119 88.833 164.276 88.3302 164.59C87.8363 164.896 87.4547 165.34 87.1854 165.924C86.916 166.498 86.7813 167.19 86.7813 167.998C86.7813 168.806 86.916 169.502 87.1854 170.085C87.4547 170.66 87.8363 171.105 88.3302 171.419C88.833 171.724 89.4166 171.877 90.0811 171.877C90.8353 171.877 91.4324 171.706 91.8724 171.365C92.3123 171.015 92.6041 170.552 92.7478 169.978H94.0004C93.8118 170.885 93.3808 171.594 92.7074 172.106C92.034 172.617 91.1585 172.873 90.0811 172.873ZM98.6038 172.873C97.9753 172.873 97.4096 172.73 96.9068 172.442C96.404 172.146 96.0089 171.733 95.7216 171.203C95.4342 170.665 95.2906 170.041 95.2906 169.331C95.2906 168.604 95.4342 167.975 95.7216 167.446C96.0179 166.907 96.4174 166.494 96.9203 166.207C97.4321 165.91 98.0022 165.762 98.6307 165.762C99.2772 165.762 99.8474 165.91 100.341 166.207C100.844 166.494 101.239 166.907 101.526 167.446C101.823 167.975 101.971 168.599 101.971 169.318C101.971 170.036 101.823 170.665 101.526 171.203C101.23 171.733 100.831 172.146 100.328 172.442C99.8249 172.73 99.2503 172.873 98.6038 172.873ZM98.6173 171.904C99.0034 171.904 99.3625 171.809 99.6947 171.621C100.027 171.423 100.296 171.131 100.503 170.745C100.709 170.359 100.813 169.883 100.813 169.318C100.813 168.743 100.709 168.267 100.503 167.89C100.305 167.504 100.04 167.217 99.7082 167.028C99.385 166.831 99.0258 166.732 98.6307 166.732C98.2536 166.732 97.8945 166.831 97.5533 167.028C97.221 167.217 96.9517 167.504 96.7452 167.89C96.5476 168.267 96.4489 168.743 96.4489 169.318C96.4489 169.883 96.5476 170.359 96.7452 170.745C96.9517 171.131 97.2166 171.423 97.5398 171.621C97.872 171.809 98.2312 171.904 98.6173 171.904ZM103.557 172.712V165.924H104.581L104.635 167.109C104.85 166.687 105.155 166.359 105.55 166.126C105.954 165.883 106.412 165.762 106.924 165.762C107.454 165.762 107.912 165.87 108.298 166.085C108.684 166.292 108.985 166.611 109.2 167.042C109.416 167.464 109.524 168.002 109.524 168.658V172.712H108.392V168.779C108.392 168.097 108.24 167.585 107.934 167.244C107.638 166.902 107.216 166.732 106.668 166.732C106.291 166.732 105.954 166.826 105.658 167.015C105.362 167.194 105.124 167.459 104.944 167.809C104.774 168.15 104.688 168.577 104.688 169.089V172.712H103.557ZM113.958 172.712C113.554 172.712 113.203 172.649 112.907 172.523C112.611 172.397 112.382 172.186 112.22 171.89C112.068 171.585 111.991 171.176 111.991 170.665V166.88H110.806V165.924H111.991L112.139 164.281H113.123V165.924H115.089V166.88H113.123V170.665C113.123 171.087 113.208 171.374 113.378 171.527C113.549 171.67 113.85 171.742 114.281 171.742H115.008V172.712H113.958ZM118.774 172.873C118.226 172.873 117.768 172.779 117.4 172.591C117.032 172.393 116.758 172.137 116.579 171.823C116.399 171.5 116.309 171.149 116.309 170.772C116.309 170.314 116.426 169.928 116.659 169.614C116.902 169.291 117.239 169.048 117.67 168.887C118.109 168.716 118.626 168.631 119.218 168.631H121.01C121.01 168.209 120.942 167.859 120.808 167.58C120.682 167.293 120.493 167.077 120.242 166.934C120 166.79 119.694 166.718 119.326 166.718C118.895 166.718 118.523 166.826 118.208 167.042C117.894 167.257 117.701 167.576 117.629 167.998H116.471C116.525 167.513 116.686 167.109 116.956 166.786C117.234 166.453 117.584 166.202 118.006 166.031C118.428 165.852 118.868 165.762 119.326 165.762C119.955 165.762 120.475 165.879 120.888 166.112C121.31 166.337 121.625 166.655 121.831 167.068C122.038 167.473 122.141 167.953 122.141 168.51V172.712H121.131L121.064 171.513C120.974 171.702 120.857 171.881 120.713 172.052C120.579 172.213 120.417 172.357 120.228 172.483C120.049 172.599 119.838 172.694 119.595 172.766C119.353 172.837 119.079 172.873 118.774 172.873ZM118.949 171.917C119.263 171.917 119.546 171.854 119.798 171.729C120.058 171.594 120.278 171.414 120.457 171.19C120.637 170.956 120.772 170.7 120.862 170.422C120.96 170.144 121.01 169.852 121.01 169.547V169.506H119.313C118.873 169.506 118.518 169.56 118.249 169.668C117.979 169.767 117.786 169.91 117.67 170.099C117.553 170.278 117.494 170.485 117.494 170.718C117.494 170.961 117.548 171.172 117.656 171.351C117.773 171.531 117.939 171.67 118.154 171.769C118.379 171.868 118.644 171.917 118.949 171.917ZM126.948 172.873C126.311 172.873 125.736 172.725 125.225 172.429C124.722 172.133 124.327 171.72 124.039 171.19C123.752 170.651 123.608 170.032 123.608 169.331C123.608 168.613 123.752 167.989 124.039 167.459C124.327 166.929 124.722 166.516 125.225 166.22C125.736 165.915 126.311 165.762 126.948 165.762C127.757 165.762 128.43 165.973 128.969 166.395C129.507 166.808 129.849 167.365 129.992 168.065H128.834C128.744 167.643 128.524 167.315 128.174 167.082C127.824 166.849 127.411 166.732 126.935 166.732C126.549 166.732 126.19 166.831 125.858 167.028C125.534 167.217 125.269 167.504 125.063 167.89C124.865 168.276 124.767 168.752 124.767 169.318C124.767 169.74 124.825 170.117 124.942 170.449C125.058 170.772 125.216 171.042 125.413 171.257C125.611 171.473 125.84 171.639 126.1 171.755C126.369 171.863 126.648 171.917 126.935 171.917C127.258 171.917 127.55 171.868 127.81 171.769C128.071 171.661 128.291 171.504 128.47 171.298C128.65 171.091 128.771 170.849 128.834 170.57H129.992C129.849 171.253 129.503 171.809 128.955 172.24C128.417 172.662 127.748 172.873 126.948 172.873ZM134.081 172.712C133.677 172.712 133.327 172.649 133.031 172.523C132.734 172.397 132.505 172.186 132.344 171.89C132.191 171.585 132.115 171.176 132.115 170.665V166.88H130.93V165.924H132.115L132.263 164.281H133.246V165.924H135.213V166.88H133.246V170.665C133.246 171.087 133.331 171.374 133.502 171.527C133.673 171.67 133.973 171.742 134.404 171.742H135.132V172.712H134.081ZM140.334 172.712V163.284H141.465V172.712H140.334ZM143.423 172.712V165.924H144.446L144.5 167.109C144.716 166.687 145.021 166.359 145.416 166.126C145.82 165.883 146.278 165.762 146.79 165.762C147.32 165.762 147.778 165.87 148.164 166.085C148.55 166.292 148.851 166.611 149.066 167.042C149.282 167.464 149.389 168.002 149.389 168.658V172.712H148.258V168.779C148.258 168.097 148.105 167.585 147.8 167.244C147.504 166.902 147.082 166.732 146.534 166.732C146.157 166.732 145.82 166.826 145.524 167.015C145.228 167.194 144.99 167.459 144.81 167.809C144.64 168.15 144.554 168.577 144.554 169.089V172.712H143.423ZM151.534 172.712V164.873C151.534 164.442 151.606 164.092 151.749 163.823C151.893 163.544 152.104 163.342 152.382 163.217C152.67 163.082 153.02 163.015 153.433 163.015H154.201V163.984H153.608C153.276 163.984 153.033 164.052 152.881 164.186C152.737 164.321 152.665 164.559 152.665 164.9V172.712H151.534ZM150.497 166.88V165.924H154.376V166.88H150.497ZM158.501 172.873C157.873 172.873 157.307 172.73 156.804 172.442C156.301 172.146 155.906 171.733 155.619 171.203C155.332 170.665 155.188 170.041 155.188 169.331C155.188 168.604 155.332 167.975 155.619 167.446C155.915 166.907 156.315 166.494 156.818 166.207C157.329 165.91 157.9 165.762 158.528 165.762C159.175 165.762 159.745 165.91 160.239 166.207C160.741 166.494 161.136 166.907 161.424 167.446C161.72 167.975 161.868 168.599 161.868 169.318C161.868 170.036 161.72 170.665 161.424 171.203C161.127 171.733 160.728 172.146 160.225 172.442C159.722 172.73 159.148 172.873 158.501 172.873ZM158.515 171.904C158.901 171.904 159.26 171.809 159.592 171.621C159.924 171.423 160.194 171.131 160.4 170.745C160.607 170.359 160.71 169.883 160.71 169.318C160.71 168.743 160.607 168.267 160.4 167.89C160.203 167.504 159.938 167.217 159.606 167.028C159.282 166.831 158.923 166.732 158.528 166.732C158.151 166.732 157.792 166.831 157.451 167.028C157.118 167.217 156.849 167.504 156.643 167.89C156.445 168.267 156.346 168.743 156.346 169.318C156.346 169.883 156.445 170.359 156.643 170.745C156.849 171.131 157.114 171.423 157.437 171.621C157.769 171.809 158.129 171.904 158.515 171.904ZM163.454 172.712V165.924H164.478L164.559 167.217C164.711 166.911 164.905 166.651 165.138 166.435C165.38 166.22 165.668 166.054 166 165.937C166.341 165.82 166.727 165.762 167.158 165.762V166.947H166.741C166.453 166.947 166.18 166.988 165.919 167.068C165.659 167.14 165.425 167.262 165.219 167.432C165.021 167.603 164.864 167.836 164.747 168.132C164.64 168.42 164.586 168.779 164.586 169.21V172.712H163.454ZM168.439 172.712V165.924H169.463L169.53 166.893C169.746 166.543 170.033 166.269 170.392 166.072C170.76 165.865 171.16 165.762 171.591 165.762C171.941 165.762 172.255 165.811 172.534 165.91C172.821 166 173.072 166.144 173.288 166.341C173.512 166.53 173.687 166.772 173.813 167.068C174.047 166.655 174.37 166.337 174.783 166.112C175.196 165.879 175.631 165.762 176.089 165.762C176.619 165.762 177.077 165.87 177.463 166.085C177.849 166.292 178.15 166.611 178.365 167.042C178.581 167.464 178.689 168.002 178.689 168.658V172.712H177.571V168.779C177.571 168.097 177.432 167.585 177.153 167.244C176.875 166.902 176.48 166.732 175.968 166.732C175.618 166.732 175.304 166.826 175.025 167.015C174.747 167.194 174.527 167.459 174.365 167.809C174.204 168.159 174.123 168.59 174.123 169.102V172.712H172.992V168.779C172.992 168.097 172.852 167.585 172.574 167.244C172.296 166.902 171.905 166.732 171.402 166.732C171.061 166.732 170.751 166.826 170.473 167.015C170.195 167.194 169.975 167.459 169.813 167.809C169.651 168.159 169.571 168.59 169.571 169.102V172.712H168.439ZM182.643 172.873C182.096 172.873 181.638 172.779 181.27 172.591C180.901 172.393 180.628 172.137 180.448 171.823C180.268 171.5 180.179 171.149 180.179 170.772C180.179 170.314 180.295 169.928 180.529 169.614C180.771 169.291 181.108 169.048 181.539 168.887C181.979 168.716 182.495 168.631 183.088 168.631H184.879C184.879 168.209 184.812 167.859 184.677 167.58C184.551 167.293 184.363 167.077 184.111 166.934C183.869 166.79 183.564 166.718 183.196 166.718C182.765 166.718 182.392 166.826 182.078 167.042C181.763 167.257 181.57 167.576 181.499 167.998H180.34C180.394 167.513 180.556 167.109 180.825 166.786C181.103 166.453 181.454 166.202 181.876 166.031C182.298 165.852 182.738 165.762 183.196 165.762C183.824 165.762 184.345 165.879 184.758 166.112C185.18 166.337 185.494 166.655 185.701 167.068C185.907 167.473 186.01 167.953 186.01 168.51V172.712H185L184.933 171.513C184.843 171.702 184.726 171.881 184.583 172.052C184.448 172.213 184.287 172.357 184.098 172.483C183.918 172.599 183.707 172.694 183.465 172.766C183.223 172.837 182.949 172.873 182.643 172.873ZM182.818 171.917C183.133 171.917 183.416 171.854 183.667 171.729C183.927 171.594 184.147 171.414 184.327 171.19C184.506 170.956 184.641 170.7 184.731 170.422C184.83 170.144 184.879 169.852 184.879 169.547V169.506H183.182C182.742 169.506 182.387 169.56 182.118 169.668C181.849 169.767 181.656 169.91 181.539 170.099C181.422 170.278 181.364 170.485 181.364 170.718C181.364 170.961 181.418 171.172 181.525 171.351C181.642 171.531 181.808 171.67 182.024 171.769C182.248 171.868 182.513 171.917 182.818 171.917ZM190.243 172.712C189.839 172.712 189.489 172.649 189.193 172.523C188.896 172.397 188.667 172.186 188.506 171.89C188.353 171.585 188.277 171.176 188.277 170.665V166.88H187.092V165.924H188.277L188.425 164.281H189.408V165.924H191.375V166.88H189.408V170.665C189.408 171.087 189.493 171.374 189.664 171.527C189.835 171.67 190.135 171.742 190.566 171.742H191.294V172.712H190.243ZM192.958 172.712V165.924H194.09V172.712H192.958ZM193.524 164.483C193.3 164.483 193.111 164.411 192.958 164.267C192.815 164.114 192.743 163.926 192.743 163.701C192.743 163.477 192.815 163.297 192.958 163.163C193.111 163.019 193.3 162.947 193.524 162.947C193.74 162.947 193.924 163.019 194.076 163.163C194.229 163.297 194.305 163.477 194.305 163.701C194.305 163.926 194.229 164.114 194.076 164.267C193.924 164.411 193.74 164.483 193.524 164.483ZM199.117 172.873C198.488 172.873 197.922 172.73 197.42 172.442C196.917 172.146 196.522 171.733 196.234 171.203C195.947 170.665 195.803 170.041 195.803 169.331C195.803 168.604 195.947 167.975 196.234 167.446C196.531 166.907 196.93 166.494 197.433 166.207C197.945 165.91 198.515 165.762 199.144 165.762C199.79 165.762 200.36 165.91 200.854 166.207C201.357 166.494 201.752 166.907 202.039 167.446C202.336 167.975 202.484 168.599 202.484 169.318C202.484 170.036 202.336 170.665 202.039 171.203C201.743 171.733 201.343 172.146 200.841 172.442C200.338 172.73 199.763 172.873 199.117 172.873ZM199.13 171.904C199.516 171.904 199.875 171.809 200.208 171.621C200.54 171.423 200.809 171.131 201.016 170.745C201.222 170.359 201.325 169.883 201.325 169.318C201.325 168.743 201.222 168.267 201.016 167.89C200.818 167.504 200.553 167.217 200.221 167.028C199.898 166.831 199.539 166.732 199.144 166.732C198.766 166.732 198.407 166.831 198.066 167.028C197.734 167.217 197.465 167.504 197.258 167.89C197.06 168.267 196.962 168.743 196.962 169.318C196.962 169.883 197.06 170.359 197.258 170.745C197.465 171.131 197.729 171.423 198.053 171.621C198.385 171.809 198.744 171.904 199.13 171.904ZM204.07 172.712V165.924L205.094 165.924L205.147 167.109C205.363 166.687 205.668 166.359 206.063 166.126C206.467 165.883 206.925 165.762 207.437 165.762C207.967 165.762 208.425 165.87 208.811 166.085C209.197 166.292 209.498 166.611 209.713 167.042C209.929 167.464 210.036 168.002 210.036 168.658V172.712H208.905V168.779C208.905 168.097 208.752 167.585 208.447 167.244C208.151 166.902 207.729 166.732 207.181 166.732C206.804 166.732 206.467 166.826 206.171 167.015C205.875 167.194 205.637 167.459 205.457 167.809C205.287 168.15 205.201 168.577 205.201 169.089V172.712H204.07Z" fill="#111111"/>
<path d="M41.8281 212.001C41.8281 208.562 44.6154 205.775 48.0537 205.775H271.603C275.041 205.775 277.828 208.562 277.828 212.001V242.55C277.828 245.988 275.041 248.775 271.603 248.775H48.0537C44.6154 248.775 41.8281 245.988 41.8281 242.55V212.001Z" fill="#EEF0F1"/>
<rect x="233.266" y="212.49" width="28.0056" height="28.0076" rx="14.0028" fill="#50D5A6"/>
<path d="M243.258 226.7L246.934 230.933L252.57 222.833" stroke="#0E2E20" stroke-width="2.16093" stroke-linecap="round" stroke-linejoin="round"/>
<g clip-path="url(#clip2_2221_62309)">
<path d="M72.5888 220.674H61.4429C60.8833 220.674 60.4297 221.128 60.4297 221.687V232.833C60.4297 233.393 60.8833 233.847 61.4429 233.847H72.5888C73.1484 233.847 73.602 233.393 73.602 232.833V221.687C73.602 221.128 73.1484 220.674 72.5888 220.674Z" stroke="#121212" stroke-width="1.5" stroke-linecap="round" stroke-linejoin="round"/>
<path d="M64.2656 224.256H69.7725" stroke="#121212" stroke-width="1.5" stroke-linecap="round" stroke-linejoin="round"/>
<path d="M64.2656 227.264H69.7725" stroke="#121212" stroke-width="1.5" stroke-linecap="round" stroke-linejoin="round"/>
<path d="M64.2656 230.264H69.7725" stroke="#121212" stroke-width="1.5" stroke-linecap="round" stroke-linejoin="round"/>
</g>
<path d="M90.0811 231.932C89.1652 231.932 88.3706 231.73 87.6972 231.326C87.0327 230.913 86.5209 230.342 86.1618 229.615C85.8026 228.879 85.623 228.026 85.623 227.056C85.623 226.086 85.8026 225.238 86.1618 224.511C86.5209 223.774 87.0327 223.204 87.6972 222.8C88.3706 222.387 89.1652 222.181 90.0811 222.181C91.1585 222.181 92.034 222.437 92.7074 222.948C93.3808 223.46 93.8118 224.183 94.0004 225.117H92.7478C92.6041 224.533 92.3123 224.066 91.8724 223.716C91.4324 223.357 90.8353 223.177 90.0811 223.177C89.4166 223.177 88.833 223.334 88.3302 223.649C87.8363 223.954 87.4547 224.398 87.1854 224.982C86.916 225.557 86.7813 226.248 86.7813 227.056C86.7813 227.864 86.916 228.56 87.1854 229.144C87.4547 229.718 87.8363 230.163 88.3302 230.477C88.833 230.782 89.4166 230.935 90.0811 230.935C90.8353 230.935 91.4324 230.764 91.8724 230.423C92.3123 230.073 92.6041 229.611 92.7478 229.036H94.0004C93.8118 229.943 93.3808 230.652 92.7074 231.164C92.034 231.676 91.1585 231.932 90.0811 231.932ZM98.6038 231.932C97.9753 231.932 97.4096 231.788 96.9068 231.501C96.404 231.204 96.0089 230.791 95.7216 230.262C95.4342 229.723 95.2906 229.099 95.2906 228.39C95.2906 227.662 95.4342 227.034 95.7216 226.504C96.0179 225.965 96.4174 225.552 96.9203 225.265C97.4321 224.969 98.0022 224.82 98.6307 224.82C99.2772 224.82 99.8474 224.969 100.341 225.265C100.844 225.552 101.239 225.965 101.526 226.504C101.823 227.034 101.971 227.658 101.971 228.376C101.971 229.094 101.823 229.723 101.526 230.262C101.23 230.791 100.831 231.204 100.328 231.501C99.8249 231.788 99.2503 231.932 98.6038 231.932ZM98.6173 230.962C99.0034 230.962 99.3625 230.868 99.6947 230.679C100.027 230.482 100.296 230.19 100.503 229.804C100.709 229.418 100.813 228.942 100.813 228.376C100.813 227.801 100.709 227.326 100.503 226.948C100.305 226.562 100.04 226.275 99.7082 226.086C99.385 225.889 99.0258 225.79 98.6307 225.79C98.2536 225.79 97.8945 225.889 97.5533 226.086C97.221 226.275 96.9517 226.562 96.7452 226.948C96.5476 227.326 96.4489 227.801 96.4489 228.376C96.4489 228.942 96.5476 229.418 96.7452 229.804C96.9517 230.19 97.2166 230.482 97.5398 230.679C97.872 230.868 98.2312 230.962 98.6173 230.962ZM103.557 231.77V224.982H104.581L104.635 226.167C104.85 225.745 105.155 225.418 105.55 225.184C105.954 224.942 106.412 224.82 106.924 224.82C107.454 224.82 107.912 224.928 108.298 225.144C108.684 225.35 108.985 225.669 109.2 226.1C109.416 226.522 109.524 227.061 109.524 227.716V231.77H108.392V227.837C108.392 227.155 108.24 226.643 107.934 226.302C107.638 225.961 107.216 225.79 106.668 225.79C106.291 225.79 105.954 225.884 105.658 226.073C105.362 226.253 105.124 226.517 104.944 226.868C104.774 227.209 104.688 227.635 104.688 228.147V231.77H103.557ZM114.294 231.932C113.639 231.932 113.06 231.779 112.557 231.474C112.063 231.16 111.681 230.733 111.412 230.194C111.143 229.656 111.008 229.045 111.008 228.363C111.008 227.68 111.143 227.074 111.412 226.544C111.681 226.006 112.063 225.584 112.557 225.278C113.06 224.973 113.643 224.82 114.308 224.82C114.856 224.82 115.336 224.933 115.749 225.157C116.171 225.382 116.499 225.696 116.732 226.1V222.073H117.863V231.77H116.84L116.732 230.652C116.588 230.877 116.404 231.088 116.18 231.285C115.955 231.474 115.686 231.631 115.372 231.757C115.067 231.873 114.707 231.932 114.294 231.932ZM114.416 230.949C114.864 230.949 115.26 230.841 115.601 230.625C115.942 230.41 116.207 230.114 116.395 229.736C116.593 229.35 116.692 228.897 116.692 228.376C116.692 227.864 116.593 227.415 116.395 227.029C116.207 226.643 115.942 226.342 115.601 226.127C115.26 225.911 114.864 225.804 114.416 225.804C113.985 225.804 113.594 225.911 113.244 226.127C112.903 226.342 112.638 226.643 112.449 227.029C112.261 227.415 112.166 227.864 112.166 228.376C112.166 228.897 112.261 229.35 112.449 229.736C112.638 230.114 112.903 230.41 113.244 230.625C113.594 230.841 113.985 230.949 114.416 230.949ZM119.843 231.77V224.982H120.974V231.77H119.843ZM120.408 223.541C120.184 223.541 119.995 223.469 119.843 223.325C119.699 223.173 119.627 222.984 119.627 222.76C119.627 222.535 119.699 222.356 119.843 222.221C119.995 222.077 120.184 222.006 120.408 222.006C120.624 222.006 120.808 222.077 120.961 222.221C121.113 222.356 121.189 222.535 121.189 222.76C121.189 222.984 121.113 223.173 120.961 223.325C120.808 223.469 120.624 223.541 120.408 223.541ZM125.637 231.77C125.233 231.77 124.883 231.707 124.587 231.582C124.29 231.456 124.061 231.245 123.9 230.949C123.747 230.643 123.671 230.235 123.671 229.723V225.938H122.486V224.982H123.671L123.819 223.339H124.802V224.982H126.769V225.938H124.802V229.723C124.802 230.145 124.887 230.432 125.058 230.585C125.229 230.729 125.529 230.8 125.96 230.8H126.688V231.77H125.637ZM128.352 231.77V224.982H129.484V231.77H128.352ZM128.918 223.541C128.694 223.541 128.505 223.469 128.352 223.325C128.209 223.173 128.137 222.984 128.137 222.76C128.137 222.535 128.209 222.356 128.352 222.221C128.505 222.077 128.694 222.006 128.918 222.006C129.134 222.006 129.318 222.077 129.47 222.221C129.623 222.356 129.699 222.535 129.699 222.76C129.699 222.984 129.623 223.173 129.47 223.325C129.318 223.469 129.134 223.541 128.918 223.541ZM134.511 231.932C133.882 231.932 133.316 231.788 132.814 231.501C132.311 231.204 131.916 230.791 131.628 230.262C131.341 229.723 131.197 229.099 131.197 228.39C131.197 227.662 131.341 227.034 131.628 226.504C131.925 225.965 132.324 225.552 132.827 225.265C133.339 224.969 133.909 224.82 134.538 224.82C135.184 224.82 135.754 224.969 136.248 225.265C136.751 225.552 137.146 225.965 137.433 226.504C137.73 227.034 137.878 227.658 137.878 228.376C137.878 229.094 137.73 229.723 137.433 230.262C137.137 230.791 136.737 231.204 136.235 231.501C135.732 231.788 135.157 231.932 134.511 231.932ZM134.524 230.962C134.91 230.962 135.269 230.868 135.602 230.679C135.934 230.482 136.203 230.19 136.41 229.804C136.616 229.418 136.719 228.942 136.719 228.376C136.719 227.801 136.616 227.326 136.41 226.948C136.212 226.562 135.947 226.275 135.615 226.086C135.292 225.889 134.933 225.79 134.538 225.79C134.16 225.79 133.801 225.889 133.46 226.086C133.128 226.275 132.859 226.562 132.652 226.948C132.454 227.326 132.356 227.801 132.356 228.376C132.356 228.942 132.454 229.418 132.652 229.804C132.859 230.19 133.123 230.482 133.447 230.679C133.779 230.868 134.138 230.962 134.524 230.962ZM139.464 231.77V224.982H140.488L140.541 226.167C140.757 225.745 141.062 225.418 141.457 225.184C141.861 224.942 142.319 224.82 142.831 224.82C143.361 224.82 143.819 224.928 144.205 225.144C144.591 225.35 144.892 225.669 145.107 226.1C145.323 226.522 145.43 227.061 145.43 227.716V231.77H144.299V227.837C144.299 227.155 144.146 226.643 143.841 226.302C143.545 225.961 143.123 225.79 142.575 225.79C142.198 225.79 141.861 225.884 141.565 226.073C141.269 226.253 141.031 226.517 140.851 226.868C140.681 227.209 140.595 227.635 140.595 228.147V231.77H139.464Z" fill="#111111"/>
<path d="M41.8281 271.208C41.8281 267.769 44.6154 264.982 48.0537 264.982H271.603C275.041 264.982 277.828 267.769 277.828 271.208V300.757C277.828 304.195 275.041 306.982 271.603 306.982H48.0537C44.6154 306.982 41.8281 304.195 41.8281 300.757V271.208Z" fill="#EEF0F1"/>
<rect x="233.266" y="272.122" width="28.0056" height="28.0076" rx="14.0028" fill="#50D5A6"/>
<path d="M243.258 286.699L246.934 290.932L252.57 282.832" stroke="#0E2E20" stroke-width="2.16093" stroke-linecap="round" stroke-linejoin="round"/>
<path d="M68.7979 292.333C70.0681 291.976 71.1886 291.217 71.9923 290.171C72.796 289.124 73.2397 287.846 73.2573 286.526C73.2748 285.207 72.8653 283.917 72.0897 282.85C71.3142 281.782 70.2142 280.994 68.954 280.603" stroke="#121212" stroke-width="1.5" stroke-linecap="round" stroke-linejoin="round"/>
<path d="M69.3555 289.929L68.75 292.422L71.3852 293.274" stroke="#121212" stroke-width="1.5" stroke-linecap="round" stroke-linejoin="round"/>
<path d="M65.4834 280.267C64.2132 280.625 63.0926 281.384 62.289 282.43C61.4853 283.477 61.0415 284.755 61.024 286.074C61.0064 287.394 61.416 288.684 62.1915 289.751C62.9671 290.819 64.067 291.607 65.3272 291.998" stroke="#121212" stroke-width="1.5" stroke-linecap="round" stroke-linejoin="round"/>
<path d="M64.9258 282.672L65.5312 280.179L62.896 279.327" stroke="#121212" stroke-width="1.5" stroke-linecap="round" stroke-linejoin="round"/>
<path d="M85.9867 290.828V281.4H91.8185V282.329H87.118V285.616H91.4144V286.531H87.118V289.899H91.8185V290.828H85.9867ZM92.8613 290.828L95.1644 287.434L92.8613 284.04H94.1004L95.9321 286.814L97.7908 284.04H99.0029L96.6998 287.434L99.0029 290.828H97.7908L95.9321 288.04L94.1004 290.828H92.8613ZM102.984 290.99C102.347 290.99 101.772 290.841 101.26 290.545C100.758 290.249 100.362 289.836 100.075 289.306C99.7878 288.767 99.6441 288.148 99.6441 287.447C99.6441 286.729 99.7878 286.105 100.075 285.575C100.362 285.045 100.758 284.632 101.26 284.336C101.772 284.031 102.347 283.878 102.984 283.878C103.792 283.878 104.466 284.089 105.005 284.511C105.543 284.924 105.884 285.481 106.028 286.181H104.87C104.78 285.759 104.56 285.432 104.21 285.198C103.86 284.965 103.447 284.848 102.971 284.848C102.585 284.848 102.226 284.947 101.893 285.144C101.57 285.333 101.305 285.62 101.099 286.006C100.901 286.392 100.802 286.868 100.802 287.434C100.802 287.856 100.861 288.233 100.977 288.565C101.094 288.888 101.251 289.158 101.449 289.373C101.646 289.589 101.875 289.755 102.136 289.872C102.405 289.979 102.683 290.033 102.971 290.033C103.294 290.033 103.586 289.984 103.846 289.885C104.107 289.777 104.327 289.62 104.506 289.414C104.686 289.207 104.807 288.965 104.87 288.686H106.028C105.884 289.369 105.539 289.926 104.991 290.356C104.452 290.778 103.783 290.99 102.984 290.99ZM107.634 290.828V281.131H108.766V285.185C108.99 284.781 109.305 284.462 109.709 284.228C110.122 283.995 110.571 283.878 111.055 283.878C111.576 283.878 112.03 283.986 112.416 284.201C112.802 284.408 113.098 284.727 113.305 285.158C113.511 285.589 113.614 286.132 113.614 286.787V290.828H112.497V286.909C112.497 286.226 112.353 285.714 112.066 285.373C111.778 285.023 111.361 284.848 110.813 284.848C110.427 284.848 110.077 284.942 109.762 285.131C109.457 285.319 109.215 285.589 109.035 285.939C108.856 286.289 108.766 286.72 108.766 287.232V290.828H107.634ZM117.59 290.99C117.042 290.99 116.585 290.895 116.216 290.707C115.848 290.509 115.574 290.253 115.395 289.939C115.215 289.616 115.125 289.266 115.125 288.888C115.125 288.431 115.242 288.044 115.476 287.73C115.718 287.407 116.055 287.164 116.486 287.003C116.926 286.832 117.442 286.747 118.035 286.747H119.826C119.826 286.325 119.759 285.975 119.624 285.696C119.498 285.409 119.31 285.194 119.058 285.05C118.816 284.906 118.511 284.834 118.142 284.834C117.711 284.834 117.339 284.942 117.025 285.158C116.71 285.373 116.517 285.692 116.445 286.114H115.287C115.341 285.629 115.503 285.225 115.772 284.902C116.05 284.57 116.4 284.318 116.822 284.148C117.244 283.968 117.684 283.878 118.142 283.878C118.771 283.878 119.292 283.995 119.705 284.228C120.127 284.453 120.441 284.772 120.647 285.185C120.854 285.589 120.957 286.069 120.957 286.626V290.828H119.947L119.88 289.629C119.79 289.818 119.673 289.997 119.53 290.168C119.395 290.33 119.233 290.473 119.045 290.599C118.865 290.716 118.654 290.81 118.412 290.882C118.169 290.954 117.895 290.99 117.59 290.99ZM117.765 290.033C118.08 290.033 118.362 289.97 118.614 289.845C118.874 289.71 119.094 289.53 119.274 289.306C119.453 289.073 119.588 288.817 119.678 288.538C119.777 288.26 119.826 287.968 119.826 287.663V287.622H118.129C117.689 287.622 117.334 287.676 117.065 287.784C116.796 287.883 116.602 288.026 116.486 288.215C116.369 288.395 116.311 288.601 116.311 288.835C116.311 289.077 116.365 289.288 116.472 289.468C116.589 289.647 116.755 289.786 116.971 289.885C117.195 289.984 117.46 290.033 117.765 290.033ZM122.707 290.828V284.04H123.731L123.785 285.225C124 284.803 124.306 284.475 124.701 284.242C125.105 283.999 125.563 283.878 126.074 283.878C126.604 283.878 127.062 283.986 127.448 284.201C127.834 284.408 128.135 284.727 128.351 285.158C128.566 285.58 128.674 286.118 128.674 286.774V290.828H127.543V286.895C127.543 286.213 127.39 285.701 127.085 285.36C126.788 285.019 126.366 284.848 125.819 284.848C125.441 284.848 125.105 284.942 124.808 285.131C124.512 285.31 124.274 285.575 124.095 285.925C123.924 286.267 123.839 286.693 123.839 287.205V290.828H122.707ZM133.121 293.953C132.511 293.953 131.968 293.872 131.492 293.71C131.025 293.557 130.661 293.32 130.401 292.996C130.14 292.673 130.01 292.273 130.01 291.798C130.01 291.591 130.051 291.371 130.131 291.138C130.221 290.904 130.369 290.675 130.576 290.451C130.791 290.226 131.092 290.024 131.478 289.845L132.259 290.303C131.784 290.5 131.474 290.725 131.33 290.976C131.186 291.236 131.115 291.474 131.115 291.69C131.115 291.986 131.2 292.233 131.371 292.431C131.541 292.628 131.779 292.776 132.084 292.875C132.39 292.974 132.735 293.023 133.121 293.023C133.507 293.023 133.84 292.965 134.118 292.848C134.396 292.74 134.612 292.588 134.765 292.39C134.917 292.202 134.993 291.973 134.993 291.703C134.993 291.389 134.877 291.124 134.643 290.909C134.41 290.702 133.965 290.581 133.31 290.545C132.78 290.509 132.336 290.46 131.977 290.397C131.617 290.334 131.321 290.262 131.088 290.181C130.854 290.092 130.657 289.993 130.495 289.885C130.342 289.777 130.203 289.665 130.078 289.548V289.239L131.384 287.946L132.367 288.296L131.02 289.508L131.195 289.037C131.294 289.108 131.388 289.176 131.478 289.239C131.568 289.301 131.689 289.355 131.842 289.4C131.995 289.445 132.206 289.486 132.475 289.521C132.753 289.557 133.117 289.593 133.566 289.629C134.185 289.674 134.679 289.782 135.047 289.952C135.424 290.123 135.694 290.352 135.855 290.639C136.026 290.927 136.111 291.268 136.111 291.663C136.111 292.049 136.004 292.413 135.788 292.754C135.582 293.104 135.258 293.391 134.818 293.616C134.378 293.84 133.813 293.953 133.121 293.953ZM133.108 288.7C132.542 288.7 132.057 288.592 131.653 288.377C131.258 288.161 130.957 287.874 130.751 287.515C130.544 287.147 130.441 286.738 130.441 286.289C130.441 285.84 130.544 285.436 130.751 285.077C130.966 284.718 131.272 284.43 131.667 284.215C132.062 283.99 132.542 283.878 133.108 283.878C133.674 283.878 134.154 283.99 134.549 284.215C134.944 284.43 135.245 284.718 135.451 285.077C135.658 285.436 135.761 285.84 135.761 286.289C135.761 286.738 135.658 287.147 135.451 287.515C135.245 287.874 134.944 288.161 134.549 288.377C134.154 288.592 133.674 288.7 133.108 288.7ZM133.108 287.771C133.593 287.771 133.974 287.645 134.253 287.393C134.531 287.142 134.67 286.774 134.67 286.289C134.67 285.813 134.531 285.45 134.253 285.198C133.974 284.947 133.593 284.821 133.108 284.821C132.632 284.821 132.246 284.947 131.95 285.198C131.662 285.45 131.519 285.813 131.519 286.289C131.519 286.774 131.662 287.142 131.95 287.393C132.237 287.645 132.623 287.771 133.108 287.771ZM134.212 284.996L133.876 284.04H136.65V284.888L134.212 284.996ZM140.665 290.99C140.036 290.99 139.475 290.841 138.981 290.545C138.487 290.249 138.101 289.836 137.823 289.306C137.545 288.767 137.405 288.143 137.405 287.434C137.405 286.716 137.54 286.092 137.81 285.562C138.088 285.032 138.474 284.619 138.968 284.323C139.471 284.026 140.045 283.878 140.692 283.878C141.356 283.878 141.922 284.026 142.389 284.323C142.856 284.619 143.21 285.01 143.453 285.494C143.704 285.97 143.83 286.496 143.83 287.07C143.83 287.16 143.83 287.254 143.83 287.353C143.83 287.452 143.825 287.564 143.816 287.69H138.254V286.814H142.712C142.685 286.195 142.479 285.71 142.092 285.36C141.715 285.01 141.239 284.834 140.665 284.834C140.288 284.834 139.933 284.924 139.601 285.104C139.269 285.274 139.004 285.53 138.806 285.872C138.609 286.204 138.51 286.621 138.51 287.124V287.501C138.51 288.058 138.609 288.525 138.806 288.902C139.013 289.279 139.278 289.562 139.601 289.75C139.933 289.939 140.288 290.033 140.665 290.033C141.141 290.033 141.531 289.93 141.837 289.723C142.151 289.508 142.38 289.216 142.523 288.848H143.641C143.525 289.261 143.332 289.629 143.062 289.952C142.793 290.267 142.456 290.518 142.052 290.707C141.657 290.895 141.195 290.99 140.665 290.99ZM148.988 290.828V281.4H152.032C152.768 281.4 153.37 281.526 153.837 281.777C154.304 282.02 154.649 282.347 154.874 282.76C155.098 283.173 155.21 283.64 155.21 284.161C155.21 284.664 155.094 285.126 154.86 285.548C154.636 285.97 154.286 286.307 153.81 286.558C153.334 286.81 152.723 286.936 151.978 286.936H150.119V290.828H148.988ZM153.971 290.828L151.897 286.612H153.163L155.305 290.828H153.971ZM150.119 286.047H151.951C152.669 286.047 153.195 285.872 153.527 285.521C153.868 285.171 154.039 284.722 154.039 284.175C154.039 283.618 153.873 283.178 153.54 282.855C153.217 282.522 152.683 282.356 151.938 282.356H150.119V286.047ZM158.942 290.99C158.395 290.99 157.937 290.895 157.568 290.707C157.2 290.509 156.926 290.253 156.747 289.939C156.567 289.616 156.478 289.266 156.478 288.888C156.478 288.431 156.594 288.044 156.828 287.73C157.07 287.407 157.407 287.164 157.838 287.003C158.278 286.832 158.794 286.747 159.387 286.747H161.178C161.178 286.325 161.111 285.975 160.976 285.696C160.85 285.409 160.662 285.194 160.41 285.05C160.168 284.906 159.863 284.834 159.494 284.834C159.063 284.834 158.691 284.942 158.377 285.158C158.062 285.373 157.869 285.692 157.797 286.114H156.639C156.693 285.629 156.855 285.225 157.124 284.902C157.402 284.57 157.753 284.318 158.175 284.148C158.597 283.968 159.036 283.878 159.494 283.878C160.123 283.878 160.644 283.995 161.057 284.228C161.479 284.453 161.793 284.772 162 285.185C162.206 285.589 162.309 286.069 162.309 286.626V290.828H161.299L161.232 289.629C161.142 289.818 161.025 289.997 160.882 290.168C160.747 290.33 160.585 290.473 160.397 290.599C160.217 290.716 160.006 290.81 159.764 290.882C159.521 290.954 159.248 290.99 158.942 290.99ZM159.117 290.033C159.432 290.033 159.714 289.97 159.966 289.845C160.226 289.71 160.446 289.53 160.626 289.306C160.805 289.073 160.94 288.817 161.03 288.538C161.129 288.26 161.178 287.968 161.178 287.663V287.622H159.481C159.041 287.622 158.686 287.676 158.417 287.784C158.148 287.883 157.955 288.026 157.838 288.215C157.721 288.395 157.663 288.601 157.663 288.835C157.663 289.077 157.717 289.288 157.824 289.468C157.941 289.647 158.107 289.786 158.323 289.885C158.547 289.984 158.812 290.033 159.117 290.033ZM166.542 290.828C166.138 290.828 165.788 290.765 165.492 290.639C165.195 290.514 164.966 290.303 164.805 290.006C164.652 289.701 164.576 289.292 164.576 288.781V284.996H163.39V284.04H164.576L164.724 282.397H165.707V284.04H167.673V284.996H165.707V288.781C165.707 289.203 165.792 289.49 165.963 289.643C166.134 289.786 166.434 289.858 166.865 289.858H167.593V290.828H166.542ZM171.942 290.99C171.313 290.99 170.752 290.841 170.258 290.545C169.765 290.249 169.378 289.836 169.1 289.306C168.822 288.767 168.683 288.143 168.683 287.434C168.683 286.716 168.817 286.092 169.087 285.562C169.365 285.032 169.751 284.619 170.245 284.323C170.748 284.026 171.322 283.878 171.969 283.878C172.633 283.878 173.199 284.026 173.666 284.323C174.133 284.619 174.487 285.01 174.73 285.494C174.981 285.97 175.107 286.496 175.107 287.07C175.107 287.16 175.107 287.254 175.107 287.353C175.107 287.452 175.102 287.564 175.094 287.69H169.531V286.814H173.989C173.962 286.195 173.756 285.71 173.37 285.36C172.992 285.01 172.517 284.834 171.942 284.834C171.565 284.834 171.21 284.924 170.878 285.104C170.546 285.274 170.281 285.53 170.083 285.872C169.886 286.204 169.787 286.621 169.787 287.124V287.501C169.787 288.058 169.886 288.525 170.083 288.902C170.29 289.279 170.555 289.562 170.878 289.75C171.21 289.939 171.565 290.033 171.942 290.033C172.418 290.033 172.808 289.93 173.114 289.723C173.428 289.508 173.657 289.216 173.801 288.848H174.918C174.802 289.261 174.609 289.629 174.339 289.952C174.07 290.267 173.733 290.518 173.329 290.707C172.934 290.895 172.472 290.99 171.942 290.99ZM179.179 290.99C178.623 290.99 178.133 290.895 177.711 290.707C177.289 290.518 176.952 290.258 176.701 289.926C176.459 289.584 176.31 289.185 176.257 288.727H177.415C177.46 288.96 177.554 289.176 177.698 289.373C177.841 289.571 178.034 289.732 178.277 289.858C178.528 289.975 178.834 290.033 179.193 290.033C179.507 290.033 179.767 289.988 179.974 289.899C180.18 289.8 180.333 289.67 180.432 289.508C180.54 289.346 180.593 289.171 180.593 288.983C180.593 288.704 180.526 288.493 180.391 288.35C180.266 288.206 180.077 288.094 179.826 288.013C179.574 287.923 179.269 287.847 178.91 287.784C178.614 287.73 178.322 287.658 178.034 287.569C177.747 287.479 177.491 287.362 177.267 287.218C177.042 287.066 176.863 286.882 176.728 286.666C176.602 286.451 176.539 286.186 176.539 285.872C176.539 285.485 176.638 285.144 176.836 284.848C177.042 284.543 177.33 284.305 177.698 284.134C178.066 283.964 178.497 283.878 178.991 283.878C179.718 283.878 180.306 284.053 180.755 284.403C181.204 284.754 181.469 285.261 181.55 285.925H180.432C180.387 285.584 180.239 285.319 179.987 285.131C179.745 284.933 179.408 284.834 178.977 284.834C178.555 284.834 178.232 284.92 178.008 285.09C177.792 285.261 177.684 285.485 177.684 285.764C177.684 285.943 177.743 286.105 177.859 286.249C177.985 286.383 178.169 286.5 178.412 286.599C178.654 286.698 178.946 286.778 179.287 286.841C179.736 286.922 180.144 287.03 180.513 287.164C180.881 287.299 181.177 287.501 181.402 287.771C181.635 288.031 181.752 288.404 181.752 288.888C181.752 289.31 181.644 289.679 181.428 289.993C181.222 290.307 180.926 290.554 180.54 290.734C180.153 290.904 179.7 290.99 179.179 290.99Z" fill="#111111"/>
<path d="M41.8281 329.415C41.8281 325.976 44.6154 323.189 48.0537 323.189H271.603C275.041 323.189 277.828 325.976 277.828 329.415V358.964C277.828 362.402 275.041 365.189 271.603 365.189H48.0537C44.6154 365.189 41.8281 362.402 41.8281 358.964V329.415Z" fill="#EEF0F1"/>
<rect x="233.266" y="329.682" width="28.0056" height="28.0076" rx="14.0028" fill="#50D5A6"/>
<path d="M243.258 343.696L246.934 347.93L252.57 339.83" stroke="#0E2E20" stroke-width="2.16093" stroke-linecap="round" stroke-linejoin="round"/>
<g clip-path="url(#clip3_2221_62309)">
<rect x="61.1016" y="337.802" width="12.897" height="12.897" stroke="#121212" stroke-width="1.5" stroke-linecap="round" stroke-linejoin="round"/>
<mask id="mask0_2221_62309" style="mask-type:alpha" maskUnits="userSpaceOnUse" x="61" y="337" width="13" height="14">
<rect x="61.1016" y="337.806" width="12.897" height="12.897" rx="0.717653" fill="#D9D9D9"/>
</mask>
<g mask="url(#mask0_2221_62309)">
<path d="M65.5184 343.841L59.5 350.704H75.712L70.3928 344.71L68.3884 347.197L65.5184 343.841Z" stroke="#121212" stroke-width="1.5" stroke-linecap="round" stroke-linejoin="round"/>
</g>
<circle cx="68.4133" cy="341.499" r="1.37422" stroke="#121212" stroke-width="1.5" stroke-linecap="round" stroke-linejoin="round"/>
</g>
<path d="M90.4717 349.054C89.5558 349.054 88.7612 348.852 88.0878 348.448C87.4234 348.035 86.9116 347.465 86.5524 346.737C86.1932 346.001 86.0137 345.148 86.0137 344.178C86.0137 343.209 86.1932 342.36 86.5524 341.633C86.9116 340.897 87.4234 340.326 88.0878 339.922C88.7612 339.509 89.5558 339.303 90.4717 339.303C91.5492 339.303 92.4246 339.559 93.098 340.07C93.7714 340.582 94.2024 341.305 94.391 342.239H93.1384C92.9948 341.655 92.7029 341.188 92.263 340.838C91.823 340.479 91.2259 340.299 90.4717 340.299C89.8073 340.299 89.2236 340.457 88.7208 340.771C88.227 341.076 87.8454 341.521 87.576 342.104C87.3066 342.679 87.1719 343.37 87.1719 344.178C87.1719 344.986 87.3066 345.682 87.576 346.266C87.8454 346.841 88.227 347.285 88.7208 347.599C89.2236 347.905 89.8073 348.057 90.4717 348.057C91.2259 348.057 91.823 347.887 92.263 347.545C92.7029 347.195 92.9948 346.733 93.1384 346.158H94.391C94.2024 347.065 93.7714 347.774 93.098 348.286C92.4246 348.798 91.5492 349.054 90.4717 349.054ZM95.964 348.892L95.964 342.104H96.9876L97.0684 343.397C97.2211 343.092 97.4141 342.831 97.6476 342.616C97.89 342.4 98.1773 342.234 98.5096 342.118C98.8508 342.001 99.2369 341.943 99.6678 341.943V343.128H99.2503C98.963 343.128 98.6891 343.168 98.4288 343.249C98.1684 343.321 97.9349 343.442 97.7284 343.613C97.5309 343.783 97.3737 344.017 97.257 344.313C97.1493 344.6 97.0954 344.959 97.0954 345.39V348.892H95.964ZM103.676 349.054C103.047 349.054 102.486 348.906 101.992 348.609C101.498 348.313 101.112 347.9 100.834 347.37C100.555 346.832 100.416 346.208 100.416 345.498C100.416 344.78 100.551 344.156 100.82 343.626C101.099 343.096 101.485 342.683 101.979 342.387C102.481 342.091 103.056 341.943 103.702 341.943C104.367 341.943 104.933 342.091 105.399 342.387C105.866 342.683 106.221 343.074 106.463 343.559C106.715 344.035 106.841 344.56 106.841 345.135C106.841 345.224 106.841 345.319 106.841 345.417C106.841 345.516 106.836 345.628 106.827 345.754H101.265V344.879H105.723C105.696 344.259 105.489 343.774 105.103 343.424C104.726 343.074 104.25 342.899 103.676 342.899C103.298 342.899 102.944 342.989 102.612 343.168C102.279 343.339 102.014 343.595 101.817 343.936C101.619 344.268 101.521 344.686 101.521 345.188V345.566C101.521 346.122 101.619 346.589 101.817 346.966C102.023 347.343 102.288 347.626 102.612 347.815C102.944 348.003 103.298 348.098 103.676 348.098C104.151 348.098 104.542 347.994 104.847 347.788C105.162 347.572 105.39 347.28 105.534 346.912H106.652C106.535 347.325 106.342 347.694 106.073 348.017C105.804 348.331 105.467 348.582 105.063 348.771C104.668 348.96 104.205 349.054 103.676 349.054ZM111.357 349.054C110.702 349.054 110.123 348.901 109.62 348.596C109.126 348.282 108.744 347.855 108.475 347.316C108.206 346.778 108.071 346.167 108.071 345.485C108.071 344.802 108.206 344.196 108.475 343.666C108.744 343.128 109.126 342.706 109.62 342.4C110.123 342.095 110.706 341.943 111.371 341.943C111.918 341.943 112.399 342.055 112.812 342.279C113.234 342.504 113.562 342.818 113.795 343.222V339.195H114.926V348.892H113.903L113.795 347.774C113.651 347.999 113.467 348.21 113.243 348.407C113.018 348.596 112.749 348.753 112.435 348.879C112.13 348.995 111.77 349.054 111.357 349.054ZM111.479 348.071C111.927 348.071 112.323 347.963 112.664 347.747C113.005 347.532 113.27 347.236 113.458 346.858C113.656 346.472 113.755 346.019 113.755 345.498C113.755 344.986 113.656 344.537 113.458 344.151C113.27 343.765 113.005 343.464 112.664 343.249C112.323 343.033 111.927 342.926 111.479 342.926C111.048 342.926 110.657 343.033 110.307 343.249C109.966 343.464 109.701 343.765 109.512 344.151C109.324 344.537 109.229 344.986 109.229 345.498C109.229 346.019 109.324 346.472 109.512 346.858C109.701 347.236 109.966 347.532 110.307 347.747C110.657 347.963 111.048 348.071 111.479 348.071ZM116.906 348.892V342.104H118.037V348.892H116.906ZM117.471 340.663C117.247 340.663 117.058 340.591 116.906 340.448C116.762 340.295 116.69 340.106 116.69 339.882C116.69 339.657 116.762 339.478 116.906 339.343C117.058 339.199 117.247 339.128 117.471 339.128C117.687 339.128 117.871 339.199 118.024 339.343C118.176 339.478 118.252 339.657 118.252 339.882C118.252 340.106 118.176 340.295 118.024 340.448C117.871 340.591 117.687 340.663 117.471 340.663ZM123.589 349.054C123.203 349.054 122.853 349 122.539 348.892C122.233 348.775 121.964 348.623 121.73 348.434C121.497 348.246 121.304 348.026 121.151 347.774L121.057 348.892H120.033V339.195H121.165V343.222C121.38 342.872 121.69 342.571 122.094 342.32C122.498 342.068 122.996 341.943 123.589 341.943C124.254 341.943 124.828 342.1 125.313 342.414C125.807 342.719 126.188 343.141 126.458 343.68C126.736 344.21 126.875 344.816 126.875 345.498C126.875 346.181 126.736 346.791 126.458 347.33C126.188 347.869 125.807 348.291 125.313 348.596C124.819 348.901 124.245 349.054 123.589 349.054ZM123.454 348.071C123.903 348.071 124.298 347.963 124.64 347.747C124.981 347.532 125.246 347.236 125.434 346.858C125.632 346.472 125.731 346.019 125.731 345.498C125.731 344.986 125.632 344.537 125.434 344.151C125.246 343.765 124.981 343.464 124.64 343.249C124.298 343.033 123.903 342.926 123.454 342.926C123.005 342.926 122.61 343.033 122.269 343.249C121.928 343.464 121.663 343.765 121.475 344.151C121.286 344.537 121.192 344.986 121.192 345.498C121.192 346.019 121.286 346.472 121.475 346.858C121.663 347.236 121.928 347.532 122.269 347.747C122.61 347.963 123.005 348.071 123.454 348.071ZM128.477 348.892V339.195H129.609V348.892H128.477ZM134.453 349.054C133.824 349.054 133.263 348.906 132.769 348.609C132.275 348.313 131.889 347.9 131.611 347.37C131.333 346.832 131.193 346.208 131.193 345.498C131.193 344.78 131.328 344.156 131.598 343.626C131.876 343.096 132.262 342.683 132.756 342.387C133.259 342.091 133.833 341.943 134.48 341.943C135.144 341.943 135.71 342.091 136.177 342.387C136.644 342.683 136.998 343.074 137.241 343.559C137.492 344.035 137.618 344.56 137.618 345.135C137.618 345.224 137.618 345.319 137.618 345.417C137.618 345.516 137.613 345.628 137.604 345.754H132.042V344.879H136.5C136.473 344.259 136.267 343.774 135.88 343.424C135.503 343.074 135.027 342.899 134.453 342.899C134.076 342.899 133.721 342.989 133.389 343.168C133.057 343.339 132.792 343.595 132.594 343.936C132.397 344.268 132.298 344.686 132.298 345.188V345.566C132.298 346.122 132.397 346.589 132.594 346.966C132.801 347.343 133.066 347.626 133.389 347.815C133.721 348.003 134.076 348.098 134.453 348.098C134.929 348.098 135.319 347.994 135.625 347.788C135.939 347.572 136.168 347.28 136.311 346.912H137.429C137.313 347.325 137.12 347.694 136.85 348.017C136.581 348.331 136.244 348.582 135.84 348.771C135.445 348.96 134.983 349.054 134.453 349.054ZM142.776 348.892V339.464H143.907V348.892H142.776ZM145.865 348.892V342.104H146.889L146.956 343.074C147.172 342.724 147.459 342.45 147.818 342.252C148.186 342.046 148.586 341.943 149.017 341.943C149.367 341.943 149.681 341.992 149.96 342.091C150.247 342.18 150.498 342.324 150.714 342.522C150.938 342.71 151.114 342.953 151.239 343.249C151.473 342.836 151.796 342.517 152.209 342.293C152.622 342.059 153.057 341.943 153.515 341.943C154.045 341.943 154.503 342.05 154.889 342.266C155.275 342.472 155.576 342.791 155.792 343.222C156.007 343.644 156.115 344.183 156.115 344.838V348.892H154.997V344.959C154.997 344.277 154.858 343.765 154.579 343.424C154.301 343.083 153.906 342.912 153.394 342.912C153.044 342.912 152.73 343.007 152.451 343.195C152.173 343.375 151.953 343.64 151.791 343.99C151.63 344.34 151.549 344.771 151.549 345.283V348.892H150.418V344.959C150.418 344.277 150.278 343.765 150 343.424C149.722 343.083 149.331 342.912 148.828 342.912C148.487 342.912 148.177 343.007 147.899 343.195C147.621 343.375 147.401 343.64 147.239 343.99C147.077 344.34 146.997 344.771 146.997 345.283V348.892H145.865ZM160.069 349.054C159.522 349.054 159.064 348.96 158.696 348.771C158.327 348.573 158.054 348.318 157.874 348.003C157.694 347.68 157.605 347.33 157.605 346.953C157.605 346.495 157.721 346.109 157.955 345.794C158.197 345.471 158.534 345.229 158.965 345.067C159.405 344.897 159.921 344.811 160.514 344.811H162.305C162.305 344.389 162.238 344.039 162.103 343.761C161.977 343.473 161.789 343.258 161.537 343.114C161.295 342.971 160.99 342.899 160.622 342.899C160.191 342.899 159.818 343.007 159.504 343.222C159.189 343.438 158.996 343.756 158.925 344.178H157.766C157.82 343.693 157.982 343.289 158.251 342.966C158.53 342.634 158.88 342.383 159.302 342.212C159.724 342.032 160.164 341.943 160.622 341.943C161.25 341.943 161.771 342.059 162.184 342.293C162.606 342.517 162.92 342.836 163.127 343.249C163.333 343.653 163.436 344.133 163.436 344.69V348.892H162.426L162.359 347.694C162.269 347.882 162.153 348.062 162.009 348.232C161.874 348.394 161.713 348.538 161.524 348.663C161.344 348.78 161.133 348.874 160.891 348.946C160.649 349.018 160.375 349.054 160.069 349.054ZM160.244 348.098C160.559 348.098 160.842 348.035 161.093 347.909C161.353 347.774 161.573 347.595 161.753 347.37C161.933 347.137 162.067 346.881 162.157 346.603C162.256 346.324 162.305 346.032 162.305 345.727V345.687H160.608C160.168 345.687 159.813 345.741 159.544 345.848C159.275 345.947 159.082 346.091 158.965 346.279C158.848 346.459 158.79 346.665 158.79 346.899C158.79 347.141 158.844 347.352 158.952 347.532C159.068 347.711 159.234 347.851 159.45 347.949C159.674 348.048 159.939 348.098 160.244 348.098ZM167.867 352.017C167.256 352.017 166.713 351.936 166.237 351.774C165.77 351.622 165.407 351.384 165.146 351.061C164.886 350.737 164.756 350.338 164.756 349.862C164.756 349.655 164.796 349.435 164.877 349.202C164.967 348.969 165.115 348.74 165.321 348.515C165.537 348.291 165.838 348.089 166.224 347.909L167.005 348.367C166.529 348.564 166.219 348.789 166.076 349.04C165.932 349.301 165.86 349.539 165.86 349.754C165.86 350.05 165.945 350.297 166.116 350.495C166.287 350.692 166.524 350.841 166.83 350.939C167.135 351.038 167.481 351.088 167.867 351.088C168.253 351.088 168.585 351.029 168.863 350.912C169.142 350.805 169.357 350.652 169.51 350.455C169.663 350.266 169.739 350.037 169.739 349.768C169.739 349.453 169.622 349.189 169.389 348.973C169.155 348.767 168.711 348.645 168.055 348.609C167.526 348.573 167.081 348.524 166.722 348.461C166.363 348.398 166.067 348.327 165.833 348.246C165.6 348.156 165.402 348.057 165.241 347.949C165.088 347.842 164.949 347.729 164.823 347.613V347.303L166.129 346.01L167.113 346.36L165.766 347.572L165.941 347.101C166.04 347.173 166.134 347.24 166.224 347.303C166.313 347.366 166.435 347.42 166.587 347.465C166.74 347.509 166.951 347.55 167.22 347.586C167.499 347.622 167.862 347.658 168.311 347.694C168.931 347.738 169.425 347.846 169.793 348.017C170.17 348.187 170.439 348.416 170.601 348.704C170.772 348.991 170.857 349.332 170.857 349.727C170.857 350.113 170.749 350.477 170.534 350.818C170.327 351.168 170.004 351.456 169.564 351.68C169.124 351.905 168.558 352.017 167.867 352.017ZM167.853 346.764C167.288 346.764 166.803 346.656 166.399 346.441C166.004 346.225 165.703 345.938 165.496 345.579C165.29 345.211 165.187 344.802 165.187 344.353C165.187 343.904 165.29 343.5 165.496 343.141C165.712 342.782 166.017 342.495 166.412 342.279C166.807 342.055 167.288 341.943 167.853 341.943C168.419 341.943 168.899 342.055 169.294 342.279C169.69 342.495 169.99 342.782 170.197 343.141C170.403 343.5 170.507 343.904 170.507 344.353C170.507 344.802 170.403 345.211 170.197 345.579C169.99 345.938 169.69 346.225 169.294 346.441C168.899 346.656 168.419 346.764 167.853 346.764ZM167.853 345.835C168.338 345.835 168.72 345.709 168.998 345.458C169.277 345.206 169.416 344.838 169.416 344.353C169.416 343.877 169.277 343.514 168.998 343.262C168.72 343.011 168.338 342.885 167.853 342.885C167.377 342.885 166.991 343.011 166.695 343.262C166.408 343.514 166.264 343.877 166.264 344.353C166.264 344.838 166.408 345.206 166.695 345.458C166.982 345.709 167.369 345.835 167.853 345.835ZM168.958 343.06L168.621 342.104H171.396V342.953L168.958 343.06ZM175.41 349.054C174.782 349.054 174.221 348.906 173.727 348.609C173.233 348.313 172.847 347.9 172.568 347.37C172.29 346.832 172.151 346.208 172.151 345.498C172.151 344.78 172.286 344.156 172.555 343.626C172.833 343.096 173.219 342.683 173.713 342.387C174.216 342.091 174.791 341.943 175.437 341.943C176.102 341.943 176.667 342.091 177.134 342.387C177.601 342.683 177.956 343.074 178.198 343.559C178.45 344.035 178.575 344.56 178.575 345.135C178.575 345.224 178.575 345.319 178.575 345.417C178.575 345.516 178.571 345.628 178.562 345.754H172.999V344.879H177.457C177.431 344.259 177.224 343.774 176.838 343.424C176.461 343.074 175.985 342.899 175.41 342.899C175.033 342.899 174.678 342.989 174.346 343.168C174.014 343.339 173.749 343.595 173.552 343.936C173.354 344.268 173.255 344.686 173.255 345.188V345.566C173.255 346.122 173.354 346.589 173.552 346.966C173.758 347.343 174.023 347.626 174.346 347.815C174.678 348.003 175.033 348.098 175.41 348.098C175.886 348.098 176.277 347.994 176.582 347.788C176.896 347.572 177.125 347.28 177.269 346.912H178.387C178.27 347.325 178.077 347.694 177.808 348.017C177.538 348.331 177.202 348.582 176.798 348.771C176.402 348.96 175.94 349.054 175.41 349.054Z" fill="#111111"/>
<path fill-rule="evenodd" clip-rule="evenodd" d="M340.601 284.968C339.795 281.743 336.526 279.782 333.3 280.589L312.192 285.868C308.967 286.675 307.006 289.944 307.813 293.17L321.295 347.066C322.101 350.292 325.37 352.253 328.596 351.446L349.704 346.166C352.929 345.359 354.89 342.09 354.083 338.865L340.601 284.968Z" fill="#4F7B8B"/>
<path fill-rule="evenodd" clip-rule="evenodd" d="M336.555 285.762C335.748 282.536 332.479 280.575 329.253 281.382L310.195 286.149C306.969 286.956 305.008 290.225 305.815 293.451L319.498 348.151C320.305 351.376 323.574 353.337 326.799 352.53L345.858 347.763C349.083 346.956 351.044 343.687 350.237 340.462L336.555 285.762Z" fill="#0E2E20"/>
<path fill-rule="evenodd" clip-rule="evenodd" d="M333.424 285.911C333.155 284.836 332.066 284.182 330.991 284.451L327.199 285.399C326.124 285.668 325.471 286.758 325.74 287.833L328.61 299.309C328.879 300.384 329.969 301.038 331.044 300.769L334.835 299.821C335.91 299.552 336.564 298.462 336.295 297.387L333.424 285.911Z" fill="white"/>
<path fill-rule="evenodd" clip-rule="evenodd" d="M334.512 356.689C333.375 355.528 332.541 346.146 328.429 342.307C324.316 338.467 323.815 337.24 323.815 337.24C323.815 337.24 336.457 333.842 335.423 331.126C334.389 328.409 321.788 331.257 321.788 331.257C321.788 331.257 333.465 316.034 331.134 313.612C328.798 311.19 320.528 321.219 318.217 323.018C315.902 324.819 324.074 309.958 322.05 308.671C320.027 307.384 314.252 318.008 311.301 322.238C308.35 326.469 304.623 332.721 304.832 335.446C305.041 338.172 309.228 346.553 312.421 351.956C315.615 357.359 321.775 367.589 323.815 370.116C325.851 372.643 385.429 459.68 410.705 427.274C424.147 410.04 424.352 387.069 424.352 387.069L393.79 375.068L386.708 390.941C369.773 381.869 348.068 370.539 334.512 356.689Z" fill="#FFD0B7"/>
<path d="M397.461 434.425L405.969 381.025L412.718 385.719L405.969 431.489L397.461 434.425Z" fill="#D0AB97"/>
<path d="M321.781 331.259L316.377 334.445" stroke="#0E2E20" stroke-width="2.4989" stroke-linecap="round"/>
<path d="M318.211 323.023L309.776 332.646" stroke="#0E2E20" stroke-width="2.4989" stroke-linecap="round"/>
<path d="M418.327 387.926L386.486 375.861C394.89 354.976 400.148 311.562 420.377 298.3C423.944 295.962 418.327 387.926 418.327 387.926Z" fill="#50D5A6"/>
<path fill-rule="evenodd" clip-rule="evenodd" d="M418.125 321.294L405.831 382.643L416.205 387.018L418.125 321.294Z" fill="#0E2E20"/>
<path d="M414.953 336.672L409.428 332.06" stroke="#467FFF" stroke-width="1.32028" stroke-linecap="square" stroke-linejoin="round"/>
<path d="M446.969 349.217C442.753 357.302 437.557 363.393 430.941 366.632" stroke="#467FFF" stroke-width="1.32028" stroke-linecap="square" stroke-linejoin="round"/>
<path fill-rule="evenodd" clip-rule="evenodd" d="M565.664 377.129C565.664 377.129 556.972 310.054 534.013 294.279C505.37 274.598 453.323 284.275 453.323 284.275C453.323 284.275 423.293 291.918 418.556 299.823C413.824 307.728 398.724 486.669 398.724 486.669H534.013L528.873 379.666L565.664 377.129Z" fill="#50D5A6"/>
<path d="M435.014 216.044C431.035 213.758 427.747 213.786 425.423 217.035" stroke="#467FFF" stroke-width="1.46281" stroke-linecap="square" stroke-linejoin="round"/>
<path d="M483.304 301.407L493.456 309.647C497.721 300.827 496.473 286.394 494.464 282.654L492.212 282.219L461.869 308.155L483.304 301.407Z" fill="#0E2E20"/>
<path d="M462.24 213.213C458.133 210.079 454.459 210.132 451.268 213.688" stroke="#467FFF" stroke-width="1.46281" stroke-linecap="square" stroke-linejoin="round"/>
<path fill-rule="evenodd" clip-rule="evenodd" d="M484.227 245.121C480.946 262.071 482.653 277.889 490.179 282.455C483.072 296.047 460.329 308.993 460.329 308.993C460.329 308.993 446.619 298.936 445.136 289.636C452.592 286.787 452.321 282.969 450.934 274.753C450.934 274.753 445.816 276.713 438.404 271.26C420.946 258.415 423.059 202.118 423.059 202.118L466.113 187.65L491.177 197.025L485.918 223.988C500.618 223.571 497.76 244.758 484.227 245.121Z" fill="#FFD0B7"/>
<path d="M445.64 306.202L458.903 307.958C450.313 300.373 448.29 295.442 448.904 284.177L448.142 284.171C441.91 285.485 441.802 291.115 436.416 310.743L445.64 306.202Z" fill="#0E2E20"/>
<path d="M445.499 302.286L459.102 308.279L451.482 296.49C450.17 291 451.064 286.646 451.854 280.893L451.571 280.999C447.466 282.545 444.328 285.934 443.102 290.147L437.523 309.321L445.499 302.286Z" fill="#50D5A6"/>
<path d="M483.443 298.034L492.32 305.639C494.298 294.476 497.675 274.188 484.364 273.703C486.872 281.043 479.431 292.718 479.431 292.718L460.963 308.875L483.443 298.034Z" fill="#50D5A6"/>
<path d="M460.746 221C457.266 218.709 452.529 219.007 449.577 220.417" stroke="#0E2E20" stroke-width="2.14382" stroke-linecap="round"/>
<path d="M435.199 220.754C432.731 219.621 430.112 219.482 427.238 221.044" stroke="#0E2E20" stroke-width="2.14382" stroke-linecap="round"/>
<path fill-rule="evenodd" clip-rule="evenodd" d="M465.328 267.646C461.563 270.755 454.984 274.262 450.943 274.749L451.634 279.794C458.084 278.874 462.841 275.505 465.328 267.646Z" fill="#0E2E20"/>
<path fill-rule="evenodd" clip-rule="evenodd" d="M479.653 229.222C476.646 227.165 474.128 221.459 476.055 215.047C470.465 215.678 465.744 212.812 464.601 208.547C445.516 216.44 424.465 202.635 423.302 219.621C423.302 219.621 415.803 209.6 419.767 199.097C419.767 199.097 412.754 177.998 431.607 171.639C450.459 165.279 478.415 171.338 488.164 188.419C500.109 188.776 502.541 217.866 493.12 226.422C488.78 222.152 480.325 224.559 479.653 229.222Z" fill="#0E2E20"/>
<ellipse cx="1.9552" cy="3.00412" rx="1.9552" ry="3.00412" transform="matrix(-0.996129 -0.0879084 -0.0879084 0.996129 456.047 226.253)" fill="#0E2E20"/>
<ellipse cx="1.88211" cy="3.02494" rx="1.88211" ry="3.02494" transform="matrix(-0.996129 -0.0879084 -0.0879084 0.996129 432.844 227.587)" fill="#0E2E20"/>
<path d="M441.543 228.518C441.543 228.518 436.129 243.419 436.794 245.045C437.456 246.67 443.072 246.926 443.072 246.926" stroke="#0E2E20" stroke-width="2.67859" stroke-linecap="round"/>
<path d="M454.516 253.954C450.155 257.614 446.342 259.103 441.108 257.737" stroke="#0E2E20" stroke-width="2.67859" stroke-linecap="round"/>
<path d="M492.046 229.717C488.81 227.767 484.262 230.416 482.9 235.271" stroke="#0E2E20" stroke-width="2.14381" stroke-linecap="round"/>
<path d="M485.858 230.57L489.384 233.392" stroke="#0E2E20" stroke-width="2.14382" stroke-linecap="round"/>
<path fill-rule="evenodd" clip-rule="evenodd" d="M444.563 375.982C449.097 386.728 493.33 444.879 532.891 463.949C532.555 432.547 529.235 412.064 519.483 379.89L511.925 343.935L516.671 384.255L450.733 350.195L444.563 375.982Z" fill="#0E2E20"/>
<path fill-rule="evenodd" clip-rule="evenodd" d="M519.249 380.352L520.962 391.641C495.76 377.249 465.129 358.974 441.098 344.072C437.949 352.24 435.515 355.168 428.886 358.828C455.83 393.216 518.001 451.967 540.242 444.024C572.186 432.616 561.623 377.374 561.623 377.374L519.249 380.352Z" fill="#FFD0B7"/>
<path fill-rule="evenodd" clip-rule="evenodd" d="M443.289 345.532C443.289 345.532 431.768 335.713 429.375 330.46C426.978 325.207 421.084 310.875 419.036 308.877C416.987 306.879 411.007 298.851 409.164 297.419C407.317 295.989 403.406 294.614 401.152 293.531C398.899 292.448 393.871 288.104 392.623 290.684C391.375 293.265 396.613 297.474 399.601 298.639C402.593 299.803 404.284 301.629 404.284 301.629L407.087 308.905C407.087 308.905 402.236 314.448 401.259 316.743C400.282 319.038 401.304 319.775 401.304 319.775C401.304 319.775 397.655 326.024 398.008 328.686C398.357 331.348 399.059 333.689 400.668 334.593C402.277 335.496 407.941 338.02 408.729 337.502C409.517 336.983 410.634 335.299 409.751 334.347C408.869 333.396 404.978 331.517 404.978 331.517L406.476 328.314C406.476 328.314 409.846 332.383 410.137 332.659C410.433 332.936 410.896 338.922 413.01 341.662C415.124 344.402 418.03 346.614 418.03 346.614L430.027 359.885L443.289 345.532Z" fill="#FFD0B7"/>
<path d="M411.844 309.507L407.097 308.722" stroke="#0E2E20" stroke-width="2.4989" stroke-linecap="round"/>
<path d="M414.555 318.901L405.831 316.631C405.532 316.553 405.213 316.618 404.968 316.807L401.203 319.711" stroke="#0E2E20" stroke-width="2.4989" stroke-linecap="round"/>
<g opacity="0.1" filter="url(#filter1_f_2221_62309)">
<path d="M317.508 144.151C317.508 137.16 323.175 131.493 330.166 131.493H369.819C376.81 131.493 382.477 137.16 382.477 144.151V182.316C382.477 189.307 376.81 194.975 369.819 194.975H330.166C323.175 194.975 317.508 189.307 317.508 182.316V144.151Z" fill="black"/>
</g>
<path d="M314.414 135.751C314.414 131.043 318.231 127.227 322.939 127.227H370.859C375.567 127.227 379.383 131.043 379.383 135.751V182.184C379.383 186.892 375.567 190.709 370.859 190.709H322.939C318.231 190.709 314.414 186.892 314.414 182.184V135.751Z" fill="white"/>
<g clip-path="url(#clip4_2221_62309)">
<path d="M360.867 175.47C362.269 175.47 363.406 174.333 363.406 172.93V151.41C363.406 150.9 363.212 150.41 362.862 150.039L356.314 143.09C355.936 142.689 355.41 142.462 354.859 142.462H332.938C331.535 142.462 330.398 143.598 330.398 145.001V172.93C330.398 174.333 331.535 175.47 332.938 175.47H360.867Z" stroke="#0E2E20" stroke-width="2.3" stroke-linecap="round" stroke-linejoin="round"/>
<path d="M344.148 158.996L346.906 157.685L345.53 164.382C345.237 165.805 346.513 167.056 347.93 166.735L349.324 166.419" stroke="#0E2E20" stroke-width="2.3" stroke-linecap="round" stroke-linejoin="round"/>
<ellipse cx="346.696" cy="152.956" rx="1.7041" ry="1.75244" fill="#0E2E20"/>
</g>
<defs>
<filter id="filter0_f_2221_62309" x="0.613853" y="43.1471" width="319.429" height="449.429" filterUnits="userSpaceOnUse" color-interpolation-filters="sRGB">
<feFlood flood-opacity="0" result="BackgroundImageFix"/>
<feBlend mode="normal" in="SourceGraphic" in2="BackgroundImageFix" result="shape"/>
<feGaussianBlur stdDeviation="10.1071" result="effect1_foregroundBlur_2221_62309"/>
</filter>
<filter id="filter1_f_2221_62309" x="298.799" y="112.784" width="102.387" height="100.9" filterUnits="userSpaceOnUse" color-interpolation-filters="sRGB">
<feFlood flood-opacity="0" result="BackgroundImageFix"/>
<feBlend mode="normal" in="SourceGraphic" in2="BackgroundImageFix" result="shape"/>
<feGaussianBlur stdDeviation="9.35445" result="effect1_foregroundBlur_2221_62309"/>
</filter>
<clipPath id="clip0_2221_62309">
<rect width="17.2695" height="17.2695" fill="white" transform="translate(58.1562 99.9868)"/>
</clipPath>
<clipPath id="clip1_2221_62309">
<rect width="17.9578" height="17.9578" fill="white" transform="translate(58.0391 159.233)"/>
</clipPath>
<clipPath id="clip2_2221_62309">
<rect width="17.9578" height="17.9578" fill="white" transform="translate(58.0391 218.291)"/>
</clipPath>
<clipPath id="clip3_2221_62309">
<rect width="17.9578" height="17.9578" fill="white" transform="translate(58.4297 335.413)"/>
</clipPath>
<clipPath id="clip4_2221_62309">
<rect width="35.5469" height="35.5469" fill="white" transform="translate(329.125 141.196)"/>
</clipPath>
</defs>
</svg>
