<svg width="190" height="42" viewBox="0 0 190 42" fill="none" xmlns="http://www.w3.org/2000/svg">
<path d="M47.8281 29.2886V12.3509H59.3936V15.4202H51.4063V19.2624H58.9319V22.3316H51.4063V26.2193H59.3936V29.2886H47.8281Z" fill="white"/>
<path d="M59.454 29.2886L63.8632 23.0592L59.431 16.8752H63.4477L66.7719 21.695H65.0175L68.3417 16.8752H72.3585L67.9262 23.0592L72.3123 29.2886H68.3186L65.0637 24.4687H66.7258L63.4708 29.2886H59.454Z" fill="white"/>
<path d="M78.8972 29.5614C77.6353 29.5614 76.4964 29.281 75.4807 28.7202C74.4803 28.1442 73.6801 27.3637 73.0799 26.3785C72.4951 25.3933 72.2026 24.2868 72.2026 23.0592C72.2026 21.8315 72.4951 20.7326 73.0799 19.7626C73.6647 18.7774 74.465 18.0044 75.4807 17.4436C76.4964 16.8828 77.6353 16.6024 78.8972 16.6024C79.836 16.6024 80.7056 16.7615 81.5058 17.0798C82.3061 17.3981 82.991 17.8452 83.5604 18.4212C84.1298 18.982 84.5376 19.6489 84.7839 20.4219L81.7828 21.695C81.5674 21.0736 81.198 20.581 80.6748 20.2173C80.1669 19.8535 79.5744 19.6716 78.8972 19.6716C78.297 19.6716 77.7584 19.8156 77.2813 20.1036C76.8196 20.3916 76.4503 20.7932 76.1732 21.3086C75.9116 21.8239 75.7808 22.415 75.7808 23.0819C75.7808 23.7488 75.9116 24.3399 76.1732 24.8552C76.4503 25.3705 76.8196 25.7722 77.2813 26.0602C77.7584 26.3482 78.297 26.4921 78.8972 26.4921C79.5898 26.4921 80.19 26.3103 80.6979 25.9465C81.2057 25.5827 81.5674 25.0901 81.7828 24.4687L84.7839 25.7646C84.553 26.4921 84.1529 27.1439 83.5835 27.7198C83.014 28.2958 82.3292 28.7505 81.5289 29.0839C80.7286 29.4022 79.8514 29.5614 78.8972 29.5614Z" fill="white"/>
<path d="M86.1015 29.2886V12.0781H89.5642V19.3306L89.1487 18.785C89.4411 18.0423 89.9105 17.4966 90.5569 17.148C91.2187 16.7843 91.9882 16.6024 92.8654 16.6024C93.8195 16.6024 94.6506 16.7994 95.3585 17.1935C96.0819 17.5876 96.6436 18.1408 97.0437 18.8532C97.4439 19.5504 97.6439 20.3688 97.6439 21.3086V29.2886H94.1812V22.0361C94.1812 21.5511 94.0812 21.1343 93.8811 20.7856C93.6964 20.437 93.4271 20.1642 93.0731 19.9672C92.7346 19.7701 92.3344 19.6716 91.8727 19.6716C91.4264 19.6716 91.0263 19.7701 90.6723 19.9672C90.3183 20.1642 90.0413 20.437 89.8413 20.7856C89.6566 21.1343 89.5642 21.5511 89.5642 22.0361V29.2886H86.1015Z" fill="white"/>
<path d="M103.101 29.5614C102.193 29.5614 101.408 29.4174 100.746 29.1294C100.084 28.8414 99.5765 28.4322 99.2225 27.9017C98.8686 27.3561 98.6916 26.7119 98.6916 25.9692C98.6916 25.272 98.8532 24.6582 99.1764 24.1277C99.4996 23.5821 99.992 23.1274 100.654 22.7636C101.331 22.3998 102.17 22.1422 103.17 21.9906L107.025 21.3768V23.8776L103.793 24.446C103.301 24.5369 102.924 24.6961 102.662 24.9234C102.401 25.1356 102.27 25.4463 102.27 25.8556C102.27 26.2345 102.416 26.53 102.708 26.7422C103.001 26.9544 103.362 27.0605 103.793 27.0605C104.363 27.0605 104.863 26.9393 105.294 26.6968C105.725 26.4543 106.056 26.1284 106.286 25.7192C106.533 25.2948 106.656 24.8325 106.656 24.3323V21.1039C106.656 20.6341 106.463 20.24 106.079 19.9217C105.709 19.6034 105.202 19.4443 104.555 19.4443C103.94 19.4443 103.393 19.611 102.916 19.9445C102.454 20.2779 102.116 20.7174 101.9 21.2631L99.1302 19.9672C99.3764 19.27 99.7689 18.6713 100.308 18.1711C100.846 17.6709 101.493 17.2845 102.247 17.0116C103.001 16.7388 103.824 16.6024 104.717 16.6024C105.779 16.6024 106.717 16.7919 107.533 17.1708C108.349 17.5497 108.98 18.0802 109.426 18.7622C109.888 19.4291 110.119 20.2097 110.119 21.1039V29.2886H106.887V27.2879L107.672 27.1515C107.302 27.6971 106.894 28.1518 106.448 28.5156C106.002 28.8642 105.502 29.1218 104.948 29.2886C104.394 29.4704 103.778 29.5614 103.101 29.5614Z" fill="white"/>
<path d="M111.937 29.2886V16.8752H115.169V19.3306L114.984 18.785C115.276 18.0423 115.746 17.4966 116.392 17.148C117.054 16.7843 117.823 16.6024 118.701 16.6024C119.655 16.6024 120.486 16.7994 121.194 17.1935C121.917 17.5876 122.479 18.1408 122.879 18.8532C123.279 19.5504 123.479 20.3688 123.479 21.3086V29.2886H120.016V22.0361C120.016 21.5511 119.916 21.1343 119.716 20.7856C119.532 20.437 119.262 20.1642 118.908 19.9672C118.57 19.7701 118.17 19.6716 117.708 19.6716C117.262 19.6716 116.861 19.7701 116.507 19.9672C116.154 20.1642 115.877 20.437 115.676 20.7856C115.492 21.1343 115.399 21.5511 115.399 22.0361V29.2886H111.937Z" fill="white"/>
<path d="M133.553 29.5614C132.322 29.5614 131.175 29.3416 130.113 28.9021C129.051 28.4625 128.12 27.8487 127.32 27.0605C126.52 26.2724 125.896 25.3478 125.45 24.2868C125.004 23.2259 124.781 22.0664 124.781 20.8084C124.781 19.5504 124.996 18.3909 125.427 17.3299C125.858 16.2538 126.466 15.3292 127.251 14.5562C128.036 13.7681 128.951 13.1618 129.998 12.7374C131.06 12.2979 132.214 12.0781 133.461 12.0781C134.707 12.0781 135.823 12.2827 136.808 12.692C137.808 13.1012 138.655 13.6468 139.347 14.3289C140.04 15.0109 140.532 15.7688 140.825 16.6024L137.662 18.1029C137.37 17.2845 136.854 16.61 136.115 16.0795C135.392 15.5339 134.507 15.261 133.461 15.261C132.445 15.261 131.552 15.496 130.783 15.9658C130.013 16.4357 129.413 17.0874 128.982 17.921C128.567 18.7395 128.359 19.7019 128.359 20.8084C128.359 21.9148 128.582 22.8848 129.028 23.7185C129.475 24.5521 130.083 25.2038 130.852 25.6737C131.637 26.1435 132.537 26.3785 133.553 26.3785C134.338 26.3785 135.069 26.2345 135.746 25.9465C136.439 25.6434 136.993 25.2114 137.408 24.6506C137.839 24.0898 138.054 23.4153 138.054 22.6272V21.2176L139.693 22.5817H133.461V19.6262H141.633V21.4222C141.633 22.8015 141.402 24.0064 140.94 25.0371C140.478 26.0526 139.855 26.9014 139.07 27.5834C138.301 28.2503 137.431 28.7505 136.462 29.0839C135.507 29.4022 134.538 29.5614 133.553 29.5614Z" fill="white"/>
<path d="M149.123 29.5614C147.876 29.5614 146.737 29.281 145.706 28.7202C144.69 28.1594 143.875 27.394 143.259 26.4239C142.659 25.4388 142.359 24.3247 142.359 23.0819C142.359 21.8239 142.659 20.7099 143.259 19.7398C143.875 18.7698 144.69 18.0044 145.706 17.4436C146.737 16.8828 147.876 16.6024 149.123 16.6024C150.369 16.6024 151.5 16.8828 152.516 17.4436C153.532 18.0044 154.34 18.7698 154.94 19.7398C155.556 20.7099 155.864 21.8239 155.864 23.0819C155.864 24.3247 155.556 25.4388 154.94 26.4239C154.34 27.394 153.532 28.1594 152.516 28.7202C151.5 29.281 150.369 29.5614 149.123 29.5614ZM149.123 26.4921C149.754 26.4921 150.3 26.3482 150.762 26.0602C151.239 25.7722 151.608 25.3705 151.87 24.8552C152.147 24.3399 152.285 23.7488 152.285 23.0819C152.285 22.415 152.147 21.8315 151.87 21.3313C151.608 20.816 151.239 20.4143 150.762 20.1263C150.3 19.8232 149.754 19.6716 149.123 19.6716C148.492 19.6716 147.938 19.8232 147.461 20.1263C146.984 20.4143 146.606 20.816 146.329 21.3313C146.068 21.8315 145.937 22.415 145.937 23.0819C145.937 23.7488 146.068 24.3399 146.329 24.8552C146.606 25.3705 146.984 25.7722 147.461 26.0602C147.938 26.3482 148.492 26.4921 149.123 26.4921Z" fill="white"/>
<path d="M160.309 29.2886V26.5603L164.926 21.8769C165.834 20.9524 166.518 20.2248 166.98 19.6944C167.457 19.1487 167.78 18.694 167.95 18.3303C168.134 17.9665 168.227 17.6103 168.227 17.2617C168.227 16.6403 168.019 16.1553 167.603 15.8067C167.203 15.4429 166.695 15.261 166.08 15.261C165.449 15.261 164.887 15.4429 164.395 15.8067C163.902 16.1553 163.54 16.6933 163.31 17.4209L160.193 16.4205C160.378 15.5414 160.763 14.776 161.347 14.1243C161.932 13.4725 162.64 12.9724 163.471 12.6238C164.302 12.26 165.172 12.0781 166.08 12.0781C167.219 12.0781 168.219 12.2752 169.081 12.6692C169.943 13.0633 170.612 13.6165 171.089 14.3289C171.566 15.0413 171.805 15.8749 171.805 16.8297C171.805 17.436 171.697 18.0347 171.482 18.6258C171.266 19.2018 170.935 19.7929 170.489 20.3992C170.058 20.9903 169.496 21.6344 168.804 22.3316L164.856 26.333H171.966V29.2886H160.309Z" fill="white"/>
<path d="M180.501 29.2886V25.6509H172.883V22.6954L180.27 12.3509H184.079V22.6954H186.734V25.6509H184.079V29.2886H180.501ZM175.491 23.9686L174.822 22.6954H180.501V15.0792L181.401 15.352L175.491 23.9686Z" fill="white"/>
<path d="M24.1798 0L23.6654 11.0975L0 8.75598L39.2496 24.0125L24.1798 0Z" fill="#3BEE5C"/>
<path d="M17.9475 41.0494L18.462 29.9518L38.707 26.4566L5.93973 23.5514L17.9475 41.0494Z" fill="#3BEE5C"/>
</svg>
