<svg width="26" height="26" viewBox="0 0 26 26" fill="none" xmlns="http://www.w3.org/2000/svg">
<g clip-path="url(#clip0_2747_19175)">
<path d="M26 13C26 13.3512 25.9865 13.6956 25.9527 14.04C25.7029 17.2005 24.3049 20.0571 22.1844 22.1844C19.8275 24.5413 16.5792 26 13 26C12.0343 26 11.0956 25.8919 10.1974 25.6894C9.5626 25.5543 8.95481 25.3719 8.36052 25.1423C3.48468 23.2649 0 18.5174 0 13C0 9.42753 1.46545 6.17247 3.81558 3.81558C6.17247 1.4587 9.42078 0 13 0C16.5792 0 19.8275 1.4587 22.1844 3.81558C23.6566 5.29455 24.7844 7.12468 25.4192 9.16416C25.6961 10.0623 25.8784 10.9943 25.9527 11.96C25.9595 12.0275 25.9662 12.1018 25.9662 12.1694C25.9932 12.4462 26 12.7164 26 13Z" fill="url(#paint0_linear_2747_19175)"/>
<path d="M25.9997 13.0002C25.9997 13.3514 25.9862 13.6958 25.9524 14.0402C25.7025 17.2007 24.3046 20.0574 22.1841 22.1846C19.8272 24.5415 16.5789 26.0002 12.9997 26.0002C12.034 26.0002 11.0953 25.8922 10.1971 25.6896L5.47656 20.7462L11.2776 14.0132L5.56435 5.69995H10.5145L14.7555 9.968L18.4225 5.69995H20.4755L25.7498 11.3457C25.8308 11.6158 25.9051 11.8927 25.9659 12.1696C25.9929 12.4464 25.9997 12.7166 25.9997 13.0002Z" fill="#161616"/>
<path d="M20.8548 20.7458H15.9046L12.1903 15.3364L7.53736 20.7458H5.48438L11.2787 14.0128L5.57217 5.7063H10.5223L14.034 10.8185L18.4304 5.7063H20.4833L14.9457 12.1421L20.8615 20.7458H20.8548ZM16.2288 20.1312H19.6932L14.1691 12.0949L19.1462 6.30734H18.7072L13.9732 11.8112L10.1914 6.30734H6.72697L12.0485 14.0466L6.81476 20.1312H7.25373L12.2444 14.3302L16.2288 20.1312ZM19.1529 19.8476H16.4922L7.25373 6.63825H9.91451L19.1529 19.8476ZM16.8096 19.2398H17.9779L9.5971 7.25279H8.42879L16.8096 19.2398Z" fill="white"/>
</g>
<defs>
<linearGradient id="paint0_linear_2747_19175" x1="1.74909" y1="6.50338" x2="24.2509" y2="19.4966" gradientUnits="userSpaceOnUse">
<stop stop-color="#646464"/>
<stop offset="0.72" stop-color="#1D1D1D"/>
<stop offset="1"/>
</linearGradient>
<clipPath id="clip0_2747_19175">
<rect width="26" height="26" fill="white"/>
</clipPath>
</defs>
</svg>
