<svg width="32" height="32" viewBox="0 0 32 32" fill="none" xmlns="http://www.w3.org/2000/svg">
<g clip-path="url(#clip0_562_16758)">
<path d="M29 16C29 16.3512 28.9865 16.6956 28.9527 17.04C28.7029 20.2005 27.3049 23.0571 25.1844 25.1844C22.8275 27.5413 19.5792 29 16 29C15.0343 29 14.0956 28.8919 13.1974 28.6894C12.5626 28.5543 11.9548 28.3719 11.3605 28.1423C6.48468 26.2649 3 21.5174 3 16C3 12.4275 4.46545 9.17247 6.81558 6.81558C9.17247 4.4587 12.4208 3 16 3C19.5792 3 22.8275 4.4587 25.1844 6.81558C26.6566 8.29455 27.7844 10.1247 28.4192 12.1642C28.6961 13.0623 28.8784 13.9943 28.9527 14.96C28.9595 15.0275 28.9662 15.1018 28.9662 15.1694C28.9932 15.4462 29 15.7164 29 16Z" fill="url(#paint0_linear_562_16758)"/>
<path d="M28.9997 16.0002C28.9997 16.3514 28.9862 16.6958 28.9524 17.0402C28.7025 20.2007 27.3046 23.0574 25.1841 25.1846C22.8272 27.5415 19.5789 29.0002 15.9997 29.0002C15.034 29.0002 14.0953 28.8922 13.1971 28.6896L8.47656 23.7462L14.2776 17.0132L8.56435 8.69995H13.5145L17.7555 12.968L21.4225 8.69995H23.4755L28.7498 14.3457C28.8308 14.6158 28.9051 14.8927 28.9659 15.1696C28.9929 15.4464 28.9997 15.7166 28.9997 16.0002Z" fill="#161616"/>
<path d="M23.8548 23.7458H18.9046L15.1903 18.3364L10.5374 23.7458H8.48438L14.2787 17.0128L8.57217 8.7063H13.5223L17.034 13.8185L21.4304 8.7063H23.4833L17.9457 15.1421L23.8615 23.7458H23.8548ZM19.2288 23.1312H22.6932L17.1691 15.0949L22.1462 9.30734H21.7072L16.9732 14.8112L13.1914 9.30734H9.72697L15.0485 17.0466L9.81476 23.1312H10.2537L15.2444 17.3302L19.2288 23.1312ZM22.1529 22.8476H19.4922L10.2537 9.63825H12.9145L22.1529 22.8476ZM19.8096 22.2398H20.9779L12.5971 10.2528H11.4288L19.8096 22.2398Z" fill="white"/>
</g>
<defs>
<linearGradient id="paint0_linear_562_16758" x1="4.74909" y1="9.50338" x2="27.2509" y2="22.4966" gradientUnits="userSpaceOnUse">
<stop stop-color="#646464"/>
<stop offset="0.72" stop-color="#1D1D1D"/>
<stop offset="1"/>
</linearGradient>
<clipPath id="clip0_562_16758">
<rect width="26" height="26" fill="white" transform="translate(3 3)"/>
</clipPath>
</defs>
</svg>
